%TF.GenerationSoftware,KiCad,Pcbnew,8.0.4*%
%TF.CreationDate,2025-02-11T11:06:44-05:00*%
%TF.ProjectId,plusle,706c7573-6c65-42e6-9b69-6361645f7063,rev?*%
%TF.SameCoordinates,Original*%
%TF.FileFunction,Copper,L1,Top*%
%TF.FilePolarity,Positive*%
%FSLAX46Y46*%
G04 Gerber Fmt 4.6, Leading zero omitted, Abs format (unit mm)*
G04 Created by KiCad (PCBNEW 8.0.4) date 2025-02-11 11:06:44*
%MOMM*%
%LPD*%
G01*
G04 APERTURE LIST*
%TA.AperFunction,ComponentPad*%
%ADD10R,2.000000X2.000000*%
%TD*%
%TA.AperFunction,ComponentPad*%
%ADD11C,2.000000*%
%TD*%
%TA.AperFunction,ComponentPad*%
%ADD12R,1.358000X1.358000*%
%TD*%
%TA.AperFunction,ComponentPad*%
%ADD13C,1.358000*%
%TD*%
%TA.AperFunction,ComponentPad*%
%ADD14C,1.980000*%
%TD*%
%TA.AperFunction,ViaPad*%
%ADD15C,1.200000*%
%TD*%
%TA.AperFunction,Conductor*%
%ADD16C,0.200000*%
%TD*%
%TA.AperFunction,Conductor*%
%ADD17C,0.500000*%
%TD*%
%TA.AperFunction,Conductor*%
%ADD18C,0.250000*%
%TD*%
G04 APERTURE END LIST*
D10*
%TO.P,J2,1,Pin_1*%
%TO.N,Net-(J2-Pin_1)*%
X140650000Y-51825000D03*
D11*
%TO.P,J2,2,Pin_2*%
%TO.N,Net-(J2-Pin_2)*%
X140650000Y-54365000D03*
%TD*%
D10*
%TO.P,U1,1,3V3*%
%TO.N,+3.3V*%
X73485000Y-63700000D03*
D11*
%TO.P,U1,2,GND*%
%TO.N,GND*%
X76025000Y-63700000D03*
%TO.P,U1,3,D15*%
%TO.N,unconnected-(U1-D15-Pad3)*%
X78565000Y-63700000D03*
%TO.P,U1,4,D2*%
%TO.N,unconnected-(U1-D2-Pad4)*%
X81105000Y-63700000D03*
%TO.P,U1,5,D4*%
%TO.N,unconnected-(U1-D4-Pad5)*%
X83645000Y-63700000D03*
%TO.P,U1,6,RX2*%
%TO.N,unconnected-(U1-RX2-Pad6)*%
X86185000Y-63700000D03*
%TO.P,U1,7,TX2*%
%TO.N,unconnected-(U1-TX2-Pad7)*%
X88725000Y-63700000D03*
%TO.P,U1,8,D5*%
%TO.N,unconnected-(U1-D5-Pad8)*%
X91265000Y-63700000D03*
%TO.P,U1,9,D18*%
%TO.N,BIn1*%
X93805000Y-63700000D03*
%TO.P,U1,10,D19*%
%TO.N,BIn2*%
X96345000Y-63700000D03*
%TO.P,U1,11,D21*%
%TO.N,PWMB*%
X98885000Y-63700000D03*
%TO.P,U1,12,RX0*%
%TO.N,unconnected-(U1-RX0-Pad12)*%
X101425000Y-63700000D03*
%TO.P,U1,13,TX0*%
%TO.N,unconnected-(U1-TX0-Pad13)*%
X103965000Y-63700000D03*
%TO.P,U1,14,D22*%
%TO.N,unconnected-(U1-D22-Pad14)*%
X106505000Y-63700000D03*
%TO.P,U1,15,D23*%
%TO.N,unconnected-(U1-D23-Pad15)*%
X109045000Y-63700000D03*
%TO.P,U1,16,EN*%
%TO.N,+3.3V*%
X109045000Y-38300000D03*
%TO.P,U1,17,VP*%
%TO.N,unconnected-(U1-VP-Pad17)*%
X106505000Y-38300000D03*
%TO.P,U1,18,VN*%
%TO.N,unconnected-(U1-VN-Pad18)*%
X103965000Y-38300000D03*
%TO.P,U1,19,D34*%
%TO.N,unconnected-(U1-D34-Pad19)*%
X101425000Y-38300000D03*
%TO.P,U1,20,D35*%
%TO.N,unconnected-(U1-D35-Pad20)*%
X98885000Y-38300000D03*
%TO.P,U1,21,D32*%
%TO.N,unconnected-(U1-D32-Pad21)*%
X96345000Y-38300000D03*
%TO.P,U1,22,D33*%
%TO.N,unconnected-(U1-D33-Pad22)*%
X93805000Y-38300000D03*
%TO.P,U1,23,D25*%
%TO.N,AIn1*%
X91265000Y-38300000D03*
%TO.P,U1,24,D26*%
%TO.N,AIn2*%
X88725000Y-38300000D03*
%TO.P,U1,25,D27*%
%TO.N,PWMA*%
X86185000Y-38300000D03*
%TO.P,U1,26,D14*%
%TO.N,unconnected-(U1-D14-Pad26)*%
X83645000Y-38300000D03*
%TO.P,U1,27,D12*%
%TO.N,unconnected-(U1-D12-Pad27)*%
X81105000Y-38300000D03*
%TO.P,U1,28,D13*%
%TO.N,unconnected-(U1-D13-Pad28)*%
X78565000Y-38300000D03*
%TO.P,U1,29,GND*%
%TO.N,GND*%
X76025000Y-38300000D03*
%TO.P,U1,30,VIN*%
%TO.N,+5V*%
X73485000Y-38300000D03*
%TD*%
D12*
%TO.P,PS1,1,+VIN*%
%TO.N,+12V*%
X119172500Y-42150000D03*
D13*
%TO.P,PS1,2,GND*%
%TO.N,GND*%
X121712500Y-42150000D03*
%TO.P,PS1,3,+VOUT*%
%TO.N,+5V*%
X124252500Y-42150000D03*
%TD*%
D10*
%TO.P,J3,1,Pin_1*%
%TO.N,Net-(J3-Pin_1)*%
X140650000Y-60825000D03*
D11*
%TO.P,J3,2,Pin_2*%
%TO.N,Net-(J3-Pin_2)*%
X140650000Y-63365000D03*
%TD*%
D10*
%TO.P,J1,1,Pin_1*%
%TO.N,GND*%
X133140000Y-40300000D03*
D11*
%TO.P,J1,2,Pin_2*%
%TO.N,+12V*%
X130600000Y-40300000D03*
%TD*%
D14*
%TO.P,U2,1,VM*%
%TO.N,+12V*%
X117110000Y-62620000D03*
%TO.P,U2,2,VCC*%
%TO.N,+3.3V*%
X119650000Y-62620000D03*
%TO.P,U2,3,GND*%
%TO.N,GND*%
X122190000Y-62620000D03*
%TO.P,U2,4,A01*%
%TO.N,Net-(J2-Pin_1)*%
X124730000Y-62620000D03*
%TO.P,U2,5,A02*%
%TO.N,Net-(J2-Pin_2)*%
X127270000Y-62620000D03*
%TO.P,U2,6,B02*%
%TO.N,Net-(J3-Pin_2)*%
X129810000Y-62620000D03*
%TO.P,U2,7,B01*%
%TO.N,Net-(J3-Pin_1)*%
X132350000Y-62620000D03*
%TO.P,U2,8,GND*%
%TO.N,GND*%
X134890000Y-62620000D03*
%TO.P,U2,9,GND*%
X134890000Y-47380000D03*
%TO.P,U2,10,PWMB*%
%TO.N,PWMB*%
X132350000Y-47380000D03*
%TO.P,U2,11,BI2*%
%TO.N,BIn2*%
X129810000Y-47380000D03*
%TO.P,U2,12,BI1*%
%TO.N,BIn1*%
X127270000Y-47380000D03*
%TO.P,U2,13,STBY*%
%TO.N,+3.3V*%
X124730000Y-47380000D03*
%TO.P,U2,14,AI1*%
%TO.N,AIn1*%
X122190000Y-47380000D03*
%TO.P,U2,15,AI2*%
%TO.N,AIn2*%
X119650000Y-47380000D03*
%TO.P,U2,16,PWMA*%
%TO.N,PWMA*%
X117110000Y-47380000D03*
%TD*%
D15*
%TO.N,+5V*%
X102150000Y-47850000D03*
X108600000Y-43400000D03*
%TO.N,+3.3V*%
X98600000Y-49200000D03*
X116000000Y-51000000D03*
X106800000Y-41000000D03*
X113500000Y-48500000D03*
%TD*%
D16*
%TO.N,Net-(J2-Pin_1)*%
X124730000Y-62620000D02*
X135525000Y-51825000D01*
X135525000Y-51825000D02*
X140650000Y-51825000D01*
%TO.N,Net-(J2-Pin_2)*%
X135525000Y-54365000D02*
X140650000Y-54365000D01*
X127270000Y-62620000D02*
X135525000Y-54365000D01*
%TO.N,Net-(J3-Pin_2)*%
X139650000Y-64365000D02*
X140650000Y-63365000D01*
X131555000Y-64365000D02*
X139650000Y-64365000D01*
X129810000Y-62620000D02*
X131555000Y-64365000D01*
%TO.N,Net-(J3-Pin_1)*%
X134145000Y-60825000D02*
X140650000Y-60825000D01*
X132350000Y-62620000D02*
X134145000Y-60825000D01*
D17*
%TO.N,+12V*%
X119172500Y-42150000D02*
X121022500Y-40300000D01*
X121022500Y-40300000D02*
X130600000Y-40300000D01*
%TO.N,+5V*%
X102150000Y-47850000D02*
X102100000Y-47900000D01*
X123002500Y-43400000D02*
X124252500Y-42150000D01*
X102100000Y-47900000D02*
X83085000Y-47900000D01*
X108600000Y-43400000D02*
X123002500Y-43400000D01*
X83085000Y-47900000D02*
X73485000Y-38300000D01*
D18*
%TO.N,BIn1*%
X100105000Y-57400000D02*
X93805000Y-63700000D01*
X127270000Y-47380000D02*
X117250000Y-57400000D01*
X117250000Y-57400000D02*
X100105000Y-57400000D01*
%TO.N,PWMB*%
X102085000Y-60500000D02*
X98885000Y-63700000D01*
X119230000Y-60500000D02*
X102085000Y-60500000D01*
X132350000Y-47380000D02*
X119230000Y-60500000D01*
%TO.N,PWMA*%
X117110000Y-47380000D02*
X116205000Y-46475000D01*
X94360000Y-46475000D02*
X86185000Y-38300000D01*
X116205000Y-46475000D02*
X94360000Y-46475000D01*
%TO.N,AIn1*%
X122190000Y-47380000D02*
X119310000Y-44500000D01*
X97465000Y-44500000D02*
X91265000Y-38300000D01*
X119310000Y-44500000D02*
X97465000Y-44500000D01*
%TO.N,BIn2*%
X118190000Y-59000000D02*
X101045000Y-59000000D01*
X101045000Y-59000000D02*
X96345000Y-63700000D01*
X129810000Y-47380000D02*
X118190000Y-59000000D01*
D17*
%TO.N,+3.3V*%
X98600000Y-49200000D02*
X83400000Y-49200000D01*
X116000000Y-51000000D02*
X121110000Y-51000000D01*
X106800000Y-41000000D02*
X109045000Y-38755000D01*
X73485000Y-59115000D02*
X73485000Y-63700000D01*
X83400000Y-49200000D02*
X73485000Y-59115000D01*
X116000000Y-51000000D02*
X113500000Y-48500000D01*
X109045000Y-38755000D02*
X109045000Y-38300000D01*
X121110000Y-51000000D02*
X124730000Y-47380000D01*
D18*
%TO.N,AIn2*%
X117770000Y-45500000D02*
X95925000Y-45500000D01*
X119650000Y-47380000D02*
X117770000Y-45500000D01*
X95925000Y-45500000D02*
X88725000Y-38300000D01*
%TD*%
%TA.AperFunction,Conductor*%
%TO.N,GND*%
G36*
X143842539Y-36020185D02*
G01*
X143888294Y-36072989D01*
X143899500Y-36124500D01*
X143899500Y-65875500D01*
X143879815Y-65942539D01*
X143827011Y-65988294D01*
X143775500Y-65999500D01*
X72124500Y-65999500D01*
X72057461Y-65979815D01*
X72011706Y-65927011D01*
X72000500Y-65875500D01*
X72000500Y-65210230D01*
X72020185Y-65143191D01*
X72072989Y-65097436D01*
X72142147Y-65087492D01*
X72198810Y-65110963D01*
X72241861Y-65143191D01*
X72242668Y-65143795D01*
X72242671Y-65143797D01*
X72377517Y-65194091D01*
X72377516Y-65194091D01*
X72384444Y-65194835D01*
X72437127Y-65200500D01*
X74532872Y-65200499D01*
X74592483Y-65194091D01*
X74727331Y-65143796D01*
X74842546Y-65057546D01*
X74928796Y-64942331D01*
X74928797Y-64942326D01*
X74933047Y-64934546D01*
X74936135Y-64936232D01*
X74967873Y-64893790D01*
X75033324Y-64869339D01*
X75101605Y-64884155D01*
X75118398Y-64895165D01*
X75201768Y-64960055D01*
X75201771Y-64960057D01*
X75420385Y-65078364D01*
X75420396Y-65078369D01*
X75655506Y-65159083D01*
X75900707Y-65200000D01*
X76149293Y-65200000D01*
X76394493Y-65159083D01*
X76629603Y-65078369D01*
X76629614Y-65078364D01*
X76848228Y-64960057D01*
X76848231Y-64960055D01*
X76895056Y-64923609D01*
X76162575Y-64191128D01*
X76221853Y-64175245D01*
X76338147Y-64108102D01*
X76433102Y-64013147D01*
X76500245Y-63896853D01*
X76516128Y-63837575D01*
X77248434Y-64569882D01*
X77259861Y-64568697D01*
X77328573Y-64581360D01*
X77373092Y-64621194D01*
X77373683Y-64620735D01*
X77376218Y-64623992D01*
X77376456Y-64624205D01*
X77376831Y-64624780D01*
X77376836Y-64624785D01*
X77545256Y-64807738D01*
X77741491Y-64960474D01*
X77741493Y-64960475D01*
X77959332Y-65078364D01*
X77960190Y-65078828D01*
X78147673Y-65143191D01*
X78193964Y-65159083D01*
X78195386Y-65159571D01*
X78440665Y-65200500D01*
X78689335Y-65200500D01*
X78934614Y-65159571D01*
X79169810Y-65078828D01*
X79388509Y-64960474D01*
X79584744Y-64807738D01*
X79743771Y-64634988D01*
X79803657Y-64598999D01*
X79873495Y-64601099D01*
X79926228Y-64634988D01*
X80085256Y-64807738D01*
X80281491Y-64960474D01*
X80281493Y-64960475D01*
X80499332Y-65078364D01*
X80500190Y-65078828D01*
X80687673Y-65143191D01*
X80733964Y-65159083D01*
X80735386Y-65159571D01*
X80980665Y-65200500D01*
X81229335Y-65200500D01*
X81474614Y-65159571D01*
X81709810Y-65078828D01*
X81928509Y-64960474D01*
X82124744Y-64807738D01*
X82283771Y-64634988D01*
X82343657Y-64598999D01*
X82413495Y-64601099D01*
X82466228Y-64634988D01*
X82625256Y-64807738D01*
X82821491Y-64960474D01*
X82821493Y-64960475D01*
X83039332Y-65078364D01*
X83040190Y-65078828D01*
X83227673Y-65143191D01*
X83273964Y-65159083D01*
X83275386Y-65159571D01*
X83520665Y-65200500D01*
X83769335Y-65200500D01*
X84014614Y-65159571D01*
X84249810Y-65078828D01*
X84468509Y-64960474D01*
X84664744Y-64807738D01*
X84823771Y-64634988D01*
X84883657Y-64598999D01*
X84953495Y-64601099D01*
X85006228Y-64634988D01*
X85165256Y-64807738D01*
X85361491Y-64960474D01*
X85361493Y-64960475D01*
X85579332Y-65078364D01*
X85580190Y-65078828D01*
X85767673Y-65143191D01*
X85813964Y-65159083D01*
X85815386Y-65159571D01*
X86060665Y-65200500D01*
X86309335Y-65200500D01*
X86554614Y-65159571D01*
X86789810Y-65078828D01*
X87008509Y-64960474D01*
X87204744Y-64807738D01*
X87363771Y-64634988D01*
X87423657Y-64598999D01*
X87493495Y-64601099D01*
X87546228Y-64634988D01*
X87705256Y-64807738D01*
X87901491Y-64960474D01*
X87901493Y-64960475D01*
X88119332Y-65078364D01*
X88120190Y-65078828D01*
X88307673Y-65143191D01*
X88353964Y-65159083D01*
X88355386Y-65159571D01*
X88600665Y-65200500D01*
X88849335Y-65200500D01*
X89094614Y-65159571D01*
X89329810Y-65078828D01*
X89548509Y-64960474D01*
X89744744Y-64807738D01*
X89903771Y-64634988D01*
X89963657Y-64598999D01*
X90033495Y-64601099D01*
X90086228Y-64634988D01*
X90245256Y-64807738D01*
X90441491Y-64960474D01*
X90441493Y-64960475D01*
X90659332Y-65078364D01*
X90660190Y-65078828D01*
X90847673Y-65143191D01*
X90893964Y-65159083D01*
X90895386Y-65159571D01*
X91140665Y-65200500D01*
X91389335Y-65200500D01*
X91634614Y-65159571D01*
X91869810Y-65078828D01*
X92088509Y-64960474D01*
X92284744Y-64807738D01*
X92443771Y-64634988D01*
X92503657Y-64598999D01*
X92573495Y-64601099D01*
X92626228Y-64634988D01*
X92785256Y-64807738D01*
X92981491Y-64960474D01*
X92981493Y-64960475D01*
X93199332Y-65078364D01*
X93200190Y-65078828D01*
X93387673Y-65143191D01*
X93433964Y-65159083D01*
X93435386Y-65159571D01*
X93680665Y-65200500D01*
X93929335Y-65200500D01*
X94174614Y-65159571D01*
X94409810Y-65078828D01*
X94628509Y-64960474D01*
X94824744Y-64807738D01*
X94983771Y-64634988D01*
X95043657Y-64598999D01*
X95113495Y-64601099D01*
X95166228Y-64634988D01*
X95325256Y-64807738D01*
X95521491Y-64960474D01*
X95521493Y-64960475D01*
X95739332Y-65078364D01*
X95740190Y-65078828D01*
X95927673Y-65143191D01*
X95973964Y-65159083D01*
X95975386Y-65159571D01*
X96220665Y-65200500D01*
X96469335Y-65200500D01*
X96714614Y-65159571D01*
X96949810Y-65078828D01*
X97168509Y-64960474D01*
X97364744Y-64807738D01*
X97523771Y-64634988D01*
X97583657Y-64598999D01*
X97653495Y-64601099D01*
X97706228Y-64634988D01*
X97865256Y-64807738D01*
X98061491Y-64960474D01*
X98061493Y-64960475D01*
X98279332Y-65078364D01*
X98280190Y-65078828D01*
X98467673Y-65143191D01*
X98513964Y-65159083D01*
X98515386Y-65159571D01*
X98760665Y-65200500D01*
X99009335Y-65200500D01*
X99254614Y-65159571D01*
X99489810Y-65078828D01*
X99708509Y-64960474D01*
X99904744Y-64807738D01*
X100063771Y-64634988D01*
X100123657Y-64598999D01*
X100193495Y-64601099D01*
X100246228Y-64634988D01*
X100405256Y-64807738D01*
X100601491Y-64960474D01*
X100601493Y-64960475D01*
X100819332Y-65078364D01*
X100820190Y-65078828D01*
X101007673Y-65143191D01*
X101053964Y-65159083D01*
X101055386Y-65159571D01*
X101300665Y-65200500D01*
X101549335Y-65200500D01*
X101794614Y-65159571D01*
X102029810Y-65078828D01*
X102248509Y-64960474D01*
X102444744Y-64807738D01*
X102603771Y-64634988D01*
X102663657Y-64598999D01*
X102733495Y-64601099D01*
X102786228Y-64634988D01*
X102945256Y-64807738D01*
X103141491Y-64960474D01*
X103141493Y-64960475D01*
X103359332Y-65078364D01*
X103360190Y-65078828D01*
X103547673Y-65143191D01*
X103593964Y-65159083D01*
X103595386Y-65159571D01*
X103840665Y-65200500D01*
X104089335Y-65200500D01*
X104334614Y-65159571D01*
X104569810Y-65078828D01*
X104788509Y-64960474D01*
X104984744Y-64807738D01*
X105143771Y-64634988D01*
X105203657Y-64598999D01*
X105273495Y-64601099D01*
X105326228Y-64634988D01*
X105485256Y-64807738D01*
X105681491Y-64960474D01*
X105681493Y-64960475D01*
X105899332Y-65078364D01*
X105900190Y-65078828D01*
X106087673Y-65143191D01*
X106133964Y-65159083D01*
X106135386Y-65159571D01*
X106380665Y-65200500D01*
X106629335Y-65200500D01*
X106874614Y-65159571D01*
X107109810Y-65078828D01*
X107328509Y-64960474D01*
X107524744Y-64807738D01*
X107683771Y-64634988D01*
X107743657Y-64598999D01*
X107813495Y-64601099D01*
X107866228Y-64634988D01*
X108025256Y-64807738D01*
X108221491Y-64960474D01*
X108221493Y-64960475D01*
X108439332Y-65078364D01*
X108440190Y-65078828D01*
X108627673Y-65143191D01*
X108673964Y-65159083D01*
X108675386Y-65159571D01*
X108920665Y-65200500D01*
X109169335Y-65200500D01*
X109414614Y-65159571D01*
X109649810Y-65078828D01*
X109868509Y-64960474D01*
X110064744Y-64807738D01*
X110233164Y-64624785D01*
X110369173Y-64416607D01*
X110469063Y-64188881D01*
X110530108Y-63947821D01*
X110530109Y-63947812D01*
X110544842Y-63770013D01*
X110569995Y-63704828D01*
X110626397Y-63663590D01*
X110696140Y-63659392D01*
X110757082Y-63693566D01*
X110788191Y-63748157D01*
X110792571Y-63764500D01*
X110813842Y-63843887D01*
X110901650Y-64055876D01*
X110901657Y-64055890D01*
X111016392Y-64254617D01*
X111156081Y-64436661D01*
X111156089Y-64436670D01*
X111318330Y-64598911D01*
X111318338Y-64598918D01*
X111318339Y-64598919D01*
X111352044Y-64624782D01*
X111500382Y-64738607D01*
X111500385Y-64738608D01*
X111500388Y-64738611D01*
X111699112Y-64853344D01*
X111699117Y-64853346D01*
X111699123Y-64853349D01*
X111737727Y-64869339D01*
X111911113Y-64941158D01*
X112132762Y-65000548D01*
X112360266Y-65030500D01*
X112360273Y-65030500D01*
X112589727Y-65030500D01*
X112589734Y-65030500D01*
X112817238Y-65000548D01*
X113038887Y-64941158D01*
X113250888Y-64853344D01*
X113449612Y-64738611D01*
X113631661Y-64598919D01*
X113631665Y-64598914D01*
X113631670Y-64598911D01*
X113793911Y-64436670D01*
X113793914Y-64436665D01*
X113793919Y-64436661D01*
X113933611Y-64254612D01*
X114048344Y-64055888D01*
X114136158Y-63843887D01*
X114195548Y-63622238D01*
X114225500Y-63394734D01*
X114225500Y-63165266D01*
X114195548Y-62937762D01*
X114136158Y-62716113D01*
X114059265Y-62530477D01*
X114048349Y-62504123D01*
X114048346Y-62504117D01*
X114048344Y-62504112D01*
X113933611Y-62305388D01*
X113933608Y-62305385D01*
X113933607Y-62305382D01*
X113802388Y-62134376D01*
X113793919Y-62123339D01*
X113793918Y-62123338D01*
X113793911Y-62123330D01*
X113631670Y-61961089D01*
X113631661Y-61961081D01*
X113449617Y-61821392D01*
X113250890Y-61706657D01*
X113250876Y-61706650D01*
X113038887Y-61618842D01*
X112817238Y-61559452D01*
X112779215Y-61554446D01*
X112589741Y-61529500D01*
X112589734Y-61529500D01*
X112360266Y-61529500D01*
X112360258Y-61529500D01*
X112143715Y-61558009D01*
X112132762Y-61559452D01*
X112039076Y-61584554D01*
X111911112Y-61618842D01*
X111699123Y-61706650D01*
X111699109Y-61706657D01*
X111500382Y-61821392D01*
X111318338Y-61961081D01*
X111156081Y-62123338D01*
X111016392Y-62305382D01*
X110901657Y-62504109D01*
X110901650Y-62504123D01*
X110813842Y-62716112D01*
X110754453Y-62937759D01*
X110754451Y-62937770D01*
X110724500Y-63165258D01*
X110724500Y-63225028D01*
X110704815Y-63292067D01*
X110652011Y-63337822D01*
X110582853Y-63347766D01*
X110519297Y-63318741D01*
X110481523Y-63259963D01*
X110480294Y-63255469D01*
X110469062Y-63211117D01*
X110427860Y-63117187D01*
X110369173Y-62983393D01*
X110327336Y-62919356D01*
X110233166Y-62775217D01*
X110178756Y-62716112D01*
X110064744Y-62592262D01*
X109868509Y-62439526D01*
X109868507Y-62439525D01*
X109868506Y-62439524D01*
X109649811Y-62321172D01*
X109649802Y-62321169D01*
X109414616Y-62240429D01*
X109169335Y-62199500D01*
X108920665Y-62199500D01*
X108675383Y-62240429D01*
X108440197Y-62321169D01*
X108440188Y-62321172D01*
X108221493Y-62439524D01*
X108025257Y-62592261D01*
X107866230Y-62765010D01*
X107806342Y-62801001D01*
X107736504Y-62798900D01*
X107683770Y-62765010D01*
X107638756Y-62716112D01*
X107524744Y-62592262D01*
X107328509Y-62439526D01*
X107328507Y-62439525D01*
X107328506Y-62439524D01*
X107109811Y-62321172D01*
X107109802Y-62321169D01*
X106874616Y-62240429D01*
X106629335Y-62199500D01*
X106380665Y-62199500D01*
X106135383Y-62240429D01*
X105900197Y-62321169D01*
X105900188Y-62321172D01*
X105681493Y-62439524D01*
X105485257Y-62592261D01*
X105326230Y-62765010D01*
X105266342Y-62801001D01*
X105196504Y-62798900D01*
X105143770Y-62765010D01*
X105098756Y-62716112D01*
X104984744Y-62592262D01*
X104788509Y-62439526D01*
X104788507Y-62439525D01*
X104788506Y-62439524D01*
X104569811Y-62321172D01*
X104569802Y-62321169D01*
X104334616Y-62240429D01*
X104089335Y-62199500D01*
X103840665Y-62199500D01*
X103595383Y-62240429D01*
X103360197Y-62321169D01*
X103360188Y-62321172D01*
X103141493Y-62439524D01*
X102945257Y-62592261D01*
X102786230Y-62765010D01*
X102726342Y-62801001D01*
X102656504Y-62798900D01*
X102603770Y-62765010D01*
X102558756Y-62716112D01*
X102444744Y-62592262D01*
X102248509Y-62439526D01*
X102248507Y-62439525D01*
X102248506Y-62439524D01*
X102029811Y-62321172D01*
X102029802Y-62321169D01*
X101794616Y-62240429D01*
X101547635Y-62199216D01*
X101484749Y-62168766D01*
X101448310Y-62109151D01*
X101449885Y-62039299D01*
X101480363Y-61989226D01*
X101537107Y-61932483D01*
X102307772Y-61161819D01*
X102369095Y-61128334D01*
X102395453Y-61125500D01*
X116250280Y-61125500D01*
X116317319Y-61145185D01*
X116363074Y-61197989D01*
X116373018Y-61267147D01*
X116343993Y-61330703D01*
X116309299Y-61358554D01*
X116291982Y-61367925D01*
X116291971Y-61367932D01*
X116097058Y-61519639D01*
X116097055Y-61519642D01*
X115929752Y-61701382D01*
X115794650Y-61908172D01*
X115695428Y-62134376D01*
X115634789Y-62373834D01*
X115614392Y-62619994D01*
X115614392Y-62620005D01*
X115634789Y-62866165D01*
X115695428Y-63105623D01*
X115794546Y-63331591D01*
X115794652Y-63331831D01*
X115877513Y-63458659D01*
X115927770Y-63535584D01*
X115929755Y-63538621D01*
X116097052Y-63720355D01*
X116097055Y-63720357D01*
X116097058Y-63720360D01*
X116291971Y-63872067D01*
X116291977Y-63872071D01*
X116291980Y-63872073D01*
X116431950Y-63947821D01*
X116508376Y-63989181D01*
X116509221Y-63989638D01*
X116630536Y-64031285D01*
X116742846Y-64069842D01*
X116742848Y-64069842D01*
X116742850Y-64069843D01*
X116986494Y-64110500D01*
X116986495Y-64110500D01*
X117233505Y-64110500D01*
X117233506Y-64110500D01*
X117477150Y-64069843D01*
X117710779Y-63989638D01*
X117928020Y-63872073D01*
X117928559Y-63871654D01*
X118059147Y-63770013D01*
X118122948Y-63720355D01*
X118288772Y-63540220D01*
X118348657Y-63504232D01*
X118418495Y-63506332D01*
X118471227Y-63540220D01*
X118637052Y-63720355D01*
X118637055Y-63720357D01*
X118637058Y-63720360D01*
X118831971Y-63872067D01*
X118831977Y-63872071D01*
X118831980Y-63872073D01*
X118971950Y-63947821D01*
X119048376Y-63989181D01*
X119049221Y-63989638D01*
X119170536Y-64031285D01*
X119282846Y-64069842D01*
X119282848Y-64069842D01*
X119282850Y-64069843D01*
X119526494Y-64110500D01*
X119526495Y-64110500D01*
X119773505Y-64110500D01*
X119773506Y-64110500D01*
X120017150Y-64069843D01*
X120250779Y-63989638D01*
X120468020Y-63872073D01*
X120468559Y-63871654D01*
X120599147Y-63770013D01*
X120662948Y-63720355D01*
X120830245Y-63538621D01*
X120832223Y-63535592D01*
X120833352Y-63534628D01*
X120833397Y-63534572D01*
X120833408Y-63534581D01*
X120885365Y-63490232D01*
X120948830Y-63480068D01*
X120973790Y-63482656D01*
X121581304Y-62875141D01*
X121605116Y-62932627D01*
X121677345Y-63040725D01*
X121769275Y-63132655D01*
X121877373Y-63204884D01*
X121934857Y-63228694D01*
X121327068Y-63836483D01*
X121372256Y-63871653D01*
X121589421Y-63989178D01*
X121589429Y-63989181D01*
X121822970Y-64069356D01*
X122066535Y-64110000D01*
X122313465Y-64110000D01*
X122557029Y-64069356D01*
X122790570Y-63989181D01*
X122790578Y-63989178D01*
X123007743Y-63871654D01*
X123052930Y-63836483D01*
X122445142Y-63228695D01*
X122502627Y-63204884D01*
X122610725Y-63132655D01*
X122702655Y-63040725D01*
X122774884Y-62932627D01*
X122798694Y-62875142D01*
X123406208Y-63482656D01*
X123431170Y-63480068D01*
X123499883Y-63492731D01*
X123547770Y-63535583D01*
X123549755Y-63538621D01*
X123717052Y-63720355D01*
X123717055Y-63720357D01*
X123717058Y-63720360D01*
X123911971Y-63872067D01*
X123911977Y-63872071D01*
X123911980Y-63872073D01*
X124051950Y-63947821D01*
X124128376Y-63989181D01*
X124129221Y-63989638D01*
X124250536Y-64031285D01*
X124362846Y-64069842D01*
X124362848Y-64069842D01*
X124362850Y-64069843D01*
X124606494Y-64110500D01*
X124606495Y-64110500D01*
X124853505Y-64110500D01*
X124853506Y-64110500D01*
X125097150Y-64069843D01*
X125330779Y-63989638D01*
X125548020Y-63872073D01*
X125548559Y-63871654D01*
X125679147Y-63770013D01*
X125742948Y-63720355D01*
X125908772Y-63540220D01*
X125968657Y-63504232D01*
X126038495Y-63506332D01*
X126091227Y-63540220D01*
X126257052Y-63720355D01*
X126257055Y-63720357D01*
X126257058Y-63720360D01*
X126451971Y-63872067D01*
X126451977Y-63872071D01*
X126451980Y-63872073D01*
X126591950Y-63947821D01*
X126668376Y-63989181D01*
X126669221Y-63989638D01*
X126790536Y-64031285D01*
X126902846Y-64069842D01*
X126902848Y-64069842D01*
X126902850Y-64069843D01*
X127146494Y-64110500D01*
X127146495Y-64110500D01*
X127393505Y-64110500D01*
X127393506Y-64110500D01*
X127637150Y-64069843D01*
X127870779Y-63989638D01*
X128088020Y-63872073D01*
X128088559Y-63871654D01*
X128219147Y-63770013D01*
X128282948Y-63720355D01*
X128448772Y-63540220D01*
X128508657Y-63504232D01*
X128578495Y-63506332D01*
X128631227Y-63540220D01*
X128797052Y-63720355D01*
X128797055Y-63720357D01*
X128797058Y-63720360D01*
X128991971Y-63872067D01*
X128991977Y-63872071D01*
X128991980Y-63872073D01*
X129131950Y-63947821D01*
X129208376Y-63989181D01*
X129209221Y-63989638D01*
X129330536Y-64031285D01*
X129442846Y-64069842D01*
X129442848Y-64069842D01*
X129442850Y-64069843D01*
X129686494Y-64110500D01*
X129686495Y-64110500D01*
X129933505Y-64110500D01*
X129933506Y-64110500D01*
X130177150Y-64069843D01*
X130277734Y-64035311D01*
X130347529Y-64032162D01*
X130405676Y-64064912D01*
X131186284Y-64845520D01*
X131186286Y-64845521D01*
X131186290Y-64845524D01*
X131321539Y-64923609D01*
X131323216Y-64924577D01*
X131475943Y-64965501D01*
X131475945Y-64965501D01*
X131641654Y-64965501D01*
X131641670Y-64965500D01*
X139563331Y-64965500D01*
X139563347Y-64965501D01*
X139570943Y-64965501D01*
X139729054Y-64965501D01*
X139729057Y-64965501D01*
X139881785Y-64924577D01*
X139931904Y-64895639D01*
X140018716Y-64845520D01*
X140046452Y-64817782D01*
X140107772Y-64784299D01*
X140174393Y-64788183D01*
X140231353Y-64807738D01*
X140280385Y-64824571D01*
X140525665Y-64865500D01*
X140774335Y-64865500D01*
X141019614Y-64824571D01*
X141254810Y-64743828D01*
X141473509Y-64625474D01*
X141669744Y-64472738D01*
X141838164Y-64289785D01*
X141974173Y-64081607D01*
X142074063Y-63853881D01*
X142135108Y-63612821D01*
X142139543Y-63559297D01*
X142155643Y-63365005D01*
X142155643Y-63364994D01*
X142135109Y-63117187D01*
X142135107Y-63117175D01*
X142074063Y-62876118D01*
X141974174Y-62648396D01*
X141974173Y-62648393D01*
X141843256Y-62448009D01*
X141823070Y-62381122D01*
X141842250Y-62313936D01*
X141887642Y-62271356D01*
X141892323Y-62268798D01*
X141892331Y-62268796D01*
X142007546Y-62182546D01*
X142093796Y-62067331D01*
X142144091Y-61932483D01*
X142150500Y-61872873D01*
X142150499Y-59777128D01*
X142144091Y-59717517D01*
X142095655Y-59587654D01*
X142093797Y-59582671D01*
X142093793Y-59582664D01*
X142007547Y-59467455D01*
X142007544Y-59467452D01*
X141892335Y-59381206D01*
X141892328Y-59381202D01*
X141757482Y-59330908D01*
X141757483Y-59330908D01*
X141697883Y-59324501D01*
X141697881Y-59324500D01*
X141697873Y-59324500D01*
X141697864Y-59324500D01*
X139602129Y-59324500D01*
X139602123Y-59324501D01*
X139542516Y-59330908D01*
X139407671Y-59381202D01*
X139407664Y-59381206D01*
X139292455Y-59467452D01*
X139292452Y-59467455D01*
X139206206Y-59582664D01*
X139206202Y-59582671D01*
X139155908Y-59717517D01*
X139149501Y-59777116D01*
X139149501Y-59777123D01*
X139149500Y-59777135D01*
X139149500Y-60100500D01*
X139129815Y-60167539D01*
X139077011Y-60213294D01*
X139025500Y-60224500D01*
X134065940Y-60224500D01*
X134025019Y-60235464D01*
X134025019Y-60235465D01*
X133987751Y-60245451D01*
X133913214Y-60265423D01*
X133913209Y-60265426D01*
X133776290Y-60344475D01*
X133776282Y-60344481D01*
X133664478Y-60456286D01*
X132945677Y-61175086D01*
X132884354Y-61208571D01*
X132817734Y-61204687D01*
X132717149Y-61170156D01*
X132514162Y-61136284D01*
X132473506Y-61129500D01*
X132226494Y-61129500D01*
X132177765Y-61137631D01*
X131982846Y-61170157D01*
X131749228Y-61250359D01*
X131749219Y-61250362D01*
X131531977Y-61367928D01*
X131531971Y-61367932D01*
X131337058Y-61519639D01*
X131337055Y-61519642D01*
X131337052Y-61519644D01*
X131337052Y-61519645D01*
X131300407Y-61559453D01*
X131171230Y-61699777D01*
X131111343Y-61735767D01*
X131041505Y-61733667D01*
X130988770Y-61699777D01*
X130822948Y-61519645D01*
X130822943Y-61519641D01*
X130822941Y-61519639D01*
X130628028Y-61367932D01*
X130628022Y-61367928D01*
X130410780Y-61250362D01*
X130410771Y-61250359D01*
X130177153Y-61170157D01*
X129994417Y-61139664D01*
X129933506Y-61129500D01*
X129909096Y-61129500D01*
X129842057Y-61109815D01*
X129796302Y-61057011D01*
X129786358Y-60987853D01*
X129815383Y-60924297D01*
X129821415Y-60917819D01*
X132710901Y-58028334D01*
X135737416Y-55001819D01*
X135798739Y-54968334D01*
X135825097Y-54965500D01*
X139193884Y-54965500D01*
X139260923Y-54985185D01*
X139306678Y-55037989D01*
X139307440Y-55039689D01*
X139325827Y-55081608D01*
X139461833Y-55289782D01*
X139461836Y-55289785D01*
X139630256Y-55472738D01*
X139826491Y-55625474D01*
X140045190Y-55743828D01*
X140280386Y-55824571D01*
X140525665Y-55865500D01*
X140774335Y-55865500D01*
X141019614Y-55824571D01*
X141254810Y-55743828D01*
X141473509Y-55625474D01*
X141669744Y-55472738D01*
X141838164Y-55289785D01*
X141974173Y-55081607D01*
X142074063Y-54853881D01*
X142135108Y-54612821D01*
X142155643Y-54365000D01*
X142135108Y-54117179D01*
X142076181Y-53884481D01*
X142074063Y-53876118D01*
X141974174Y-53648396D01*
X141974173Y-53648393D01*
X141843256Y-53448009D01*
X141823070Y-53381122D01*
X141842250Y-53313936D01*
X141887642Y-53271356D01*
X141892323Y-53268798D01*
X141892331Y-53268796D01*
X142007546Y-53182546D01*
X142093796Y-53067331D01*
X142144091Y-52932483D01*
X142150500Y-52872873D01*
X142150499Y-50777128D01*
X142144091Y-50717517D01*
X142093796Y-50582669D01*
X142093795Y-50582668D01*
X142093793Y-50582664D01*
X142007547Y-50467455D01*
X142007544Y-50467452D01*
X141892335Y-50381206D01*
X141892328Y-50381202D01*
X141757482Y-50330908D01*
X141757483Y-50330908D01*
X141697883Y-50324501D01*
X141697881Y-50324500D01*
X141697873Y-50324500D01*
X141697864Y-50324500D01*
X139602129Y-50324500D01*
X139602123Y-50324501D01*
X139542516Y-50330908D01*
X139407671Y-50381202D01*
X139407664Y-50381206D01*
X139292455Y-50467452D01*
X139292452Y-50467455D01*
X139206206Y-50582664D01*
X139206202Y-50582671D01*
X139155908Y-50717517D01*
X139149501Y-50777116D01*
X139149501Y-50777123D01*
X139149500Y-50777135D01*
X139149500Y-51100500D01*
X139129815Y-51167539D01*
X139077011Y-51213294D01*
X139025500Y-51224500D01*
X135445940Y-51224500D01*
X135405019Y-51235464D01*
X135405019Y-51235465D01*
X135367751Y-51245451D01*
X135293214Y-51265423D01*
X135293209Y-51265426D01*
X135156290Y-51344475D01*
X135156282Y-51344481D01*
X135044478Y-51456286D01*
X125325677Y-61175086D01*
X125264354Y-61208571D01*
X125197734Y-61204687D01*
X125097149Y-61170156D01*
X124894162Y-61136284D01*
X124853506Y-61129500D01*
X124606494Y-61129500D01*
X124557765Y-61137631D01*
X124362846Y-61170157D01*
X124129228Y-61250359D01*
X124129219Y-61250362D01*
X123911977Y-61367928D01*
X123911971Y-61367932D01*
X123717058Y-61519639D01*
X123717055Y-61519642D01*
X123717052Y-61519644D01*
X123717052Y-61519645D01*
X123625735Y-61618842D01*
X123549753Y-61701381D01*
X123547767Y-61704421D01*
X123546635Y-61705386D01*
X123546604Y-61705427D01*
X123546595Y-61705420D01*
X123494617Y-61749774D01*
X123431172Y-61759931D01*
X123406208Y-61757342D01*
X122798694Y-62364856D01*
X122774884Y-62307373D01*
X122702655Y-62199275D01*
X122610725Y-62107345D01*
X122502627Y-62035116D01*
X122445142Y-62011305D01*
X123052931Y-61403516D01*
X123052931Y-61403515D01*
X123007743Y-61368346D01*
X122790578Y-61250821D01*
X122790570Y-61250818D01*
X122557029Y-61170643D01*
X122313465Y-61130000D01*
X122066535Y-61130000D01*
X121822970Y-61170643D01*
X121589429Y-61250818D01*
X121589421Y-61250821D01*
X121372252Y-61368348D01*
X121372251Y-61368349D01*
X121327068Y-61403514D01*
X121327068Y-61403516D01*
X121934857Y-62011305D01*
X121877373Y-62035116D01*
X121769275Y-62107345D01*
X121677345Y-62199275D01*
X121605116Y-62307373D01*
X121581305Y-62364857D01*
X120973790Y-61757342D01*
X120948827Y-61759931D01*
X120880115Y-61747266D01*
X120832223Y-61704407D01*
X120830245Y-61701379D01*
X120662948Y-61519645D01*
X120662943Y-61519641D01*
X120662941Y-61519639D01*
X120468028Y-61367932D01*
X120468022Y-61367928D01*
X120250780Y-61250362D01*
X120250771Y-61250359D01*
X120017153Y-61170157D01*
X119838919Y-61140415D01*
X119773506Y-61129500D01*
X119773505Y-61129500D01*
X119768447Y-61128656D01*
X119768633Y-61127541D01*
X119708579Y-61104365D01*
X119667343Y-61047961D01*
X119663148Y-60978218D01*
X119696327Y-60918264D01*
X119696772Y-60917819D01*
X119715858Y-60898733D01*
X119715858Y-60898731D01*
X119722919Y-60891671D01*
X119722925Y-60891664D01*
X131780643Y-48833945D01*
X131841964Y-48800462D01*
X131908583Y-48804346D01*
X131982850Y-48829843D01*
X132226494Y-48870500D01*
X132226495Y-48870500D01*
X132473505Y-48870500D01*
X132473506Y-48870500D01*
X132717150Y-48829843D01*
X132950779Y-48749638D01*
X133168020Y-48632073D01*
X133168559Y-48631654D01*
X133286151Y-48540128D01*
X133362948Y-48480355D01*
X133530245Y-48298621D01*
X133532223Y-48295592D01*
X133533352Y-48294628D01*
X133533397Y-48294572D01*
X133533408Y-48294581D01*
X133585365Y-48250232D01*
X133648830Y-48240068D01*
X133673790Y-48242656D01*
X134281304Y-47635141D01*
X134305116Y-47692627D01*
X134377345Y-47800725D01*
X134469275Y-47892655D01*
X134577373Y-47964884D01*
X134634857Y-47988694D01*
X134027068Y-48596483D01*
X134072256Y-48631653D01*
X134289421Y-48749178D01*
X134289429Y-48749181D01*
X134522970Y-48829356D01*
X134766535Y-48870000D01*
X135013465Y-48870000D01*
X135257029Y-48829356D01*
X135490570Y-48749181D01*
X135490578Y-48749178D01*
X135707743Y-48631654D01*
X135752930Y-48596483D01*
X135145142Y-47988695D01*
X135202627Y-47964884D01*
X135310725Y-47892655D01*
X135402655Y-47800725D01*
X135474884Y-47692627D01*
X135498694Y-47635142D01*
X136106209Y-48242657D01*
X136204904Y-48091595D01*
X136204909Y-48091587D01*
X136304098Y-47865460D01*
X136364715Y-47626090D01*
X136364717Y-47626079D01*
X136385107Y-47380006D01*
X136385107Y-47379993D01*
X136364717Y-47133920D01*
X136364715Y-47133909D01*
X136304098Y-46894539D01*
X136204906Y-46668406D01*
X136106209Y-46517341D01*
X135498694Y-47124856D01*
X135474884Y-47067373D01*
X135402655Y-46959275D01*
X135310725Y-46867345D01*
X135202627Y-46795116D01*
X135145142Y-46771305D01*
X135752931Y-46163516D01*
X135752931Y-46163515D01*
X135707743Y-46128346D01*
X135490578Y-46010821D01*
X135490570Y-46010818D01*
X135257029Y-45930643D01*
X135013465Y-45890000D01*
X134766535Y-45890000D01*
X134522970Y-45930643D01*
X134289429Y-46010818D01*
X134289421Y-46010821D01*
X134072252Y-46128348D01*
X134072251Y-46128349D01*
X134027068Y-46163514D01*
X134027068Y-46163516D01*
X134634857Y-46771305D01*
X134577373Y-46795116D01*
X134469275Y-46867345D01*
X134377345Y-46959275D01*
X134305116Y-47067373D01*
X134281305Y-47124857D01*
X133673790Y-46517342D01*
X133648827Y-46519931D01*
X133580115Y-46507266D01*
X133532223Y-46464407D01*
X133530245Y-46461379D01*
X133362948Y-46279645D01*
X133362943Y-46279641D01*
X133362941Y-46279639D01*
X133168028Y-46127932D01*
X133168022Y-46127928D01*
X132950780Y-46010362D01*
X132950771Y-46010359D01*
X132717153Y-45930157D01*
X132523197Y-45897792D01*
X132473506Y-45889500D01*
X132226494Y-45889500D01*
X132177765Y-45897631D01*
X131982846Y-45930157D01*
X131749228Y-46010359D01*
X131749219Y-46010362D01*
X131531977Y-46127928D01*
X131531971Y-46127932D01*
X131337058Y-46279639D01*
X131337055Y-46279642D01*
X131171230Y-46459777D01*
X131111343Y-46495767D01*
X131041505Y-46493667D01*
X130988770Y-46459777D01*
X130822948Y-46279645D01*
X130822943Y-46279641D01*
X130822941Y-46279639D01*
X130628028Y-46127932D01*
X130628022Y-46127928D01*
X130410780Y-46010362D01*
X130410771Y-46010359D01*
X130177153Y-45930157D01*
X129983197Y-45897792D01*
X129933506Y-45889500D01*
X129686494Y-45889500D01*
X129637765Y-45897631D01*
X129442846Y-45930157D01*
X129209228Y-46010359D01*
X129209219Y-46010362D01*
X128991977Y-46127928D01*
X128991971Y-46127932D01*
X128797058Y-46279639D01*
X128797055Y-46279642D01*
X128631230Y-46459777D01*
X128571343Y-46495767D01*
X128501505Y-46493667D01*
X128448770Y-46459777D01*
X128282948Y-46279645D01*
X128282943Y-46279641D01*
X128282941Y-46279639D01*
X128088028Y-46127932D01*
X128088022Y-46127928D01*
X127870780Y-46010362D01*
X127870771Y-46010359D01*
X127637153Y-45930157D01*
X127443197Y-45897792D01*
X127393506Y-45889500D01*
X127146494Y-45889500D01*
X127097765Y-45897631D01*
X126902846Y-45930157D01*
X126669228Y-46010359D01*
X126669219Y-46010362D01*
X126451977Y-46127928D01*
X126451971Y-46127932D01*
X126257058Y-46279639D01*
X126257055Y-46279642D01*
X126091230Y-46459777D01*
X126031343Y-46495767D01*
X125961505Y-46493667D01*
X125908770Y-46459777D01*
X125742948Y-46279645D01*
X125742943Y-46279641D01*
X125742941Y-46279639D01*
X125548028Y-46127932D01*
X125548022Y-46127928D01*
X125330780Y-46010362D01*
X125330771Y-46010359D01*
X125097153Y-45930157D01*
X124903197Y-45897792D01*
X124853506Y-45889500D01*
X124606494Y-45889500D01*
X124557765Y-45897631D01*
X124362846Y-45930157D01*
X124129228Y-46010359D01*
X124129219Y-46010362D01*
X123911977Y-46127928D01*
X123911971Y-46127932D01*
X123717058Y-46279639D01*
X123717055Y-46279642D01*
X123551230Y-46459777D01*
X123491343Y-46495767D01*
X123421505Y-46493667D01*
X123368770Y-46459777D01*
X123202948Y-46279645D01*
X123202943Y-46279641D01*
X123202941Y-46279639D01*
X123008028Y-46127932D01*
X123008022Y-46127928D01*
X122790780Y-46010362D01*
X122790771Y-46010359D01*
X122557153Y-45930157D01*
X122363197Y-45897792D01*
X122313506Y-45889500D01*
X122066494Y-45889500D01*
X122036011Y-45894586D01*
X121822849Y-45930156D01*
X121748584Y-45955652D01*
X121678785Y-45958801D01*
X121620641Y-45926051D01*
X120056771Y-44362181D01*
X120023286Y-44300858D01*
X120028270Y-44231166D01*
X120070142Y-44175233D01*
X120135606Y-44150816D01*
X120144452Y-44150500D01*
X123076420Y-44150500D01*
X123173962Y-44131096D01*
X123221413Y-44121658D01*
X123357995Y-44065084D01*
X123434234Y-44014143D01*
X123480916Y-43982952D01*
X124098048Y-43365818D01*
X124159371Y-43332334D01*
X124185729Y-43329500D01*
X124361795Y-43329500D01*
X124361797Y-43329500D01*
X124576668Y-43289333D01*
X124780501Y-43210368D01*
X124966353Y-43095294D01*
X125127895Y-42948028D01*
X125259627Y-42773587D01*
X125357063Y-42577910D01*
X125416884Y-42367661D01*
X125437053Y-42150000D01*
X125416884Y-41932339D01*
X125357063Y-41722090D01*
X125335521Y-41678828D01*
X125259630Y-41526418D01*
X125259625Y-41526410D01*
X125127895Y-41351972D01*
X125033739Y-41266137D01*
X124997458Y-41206425D01*
X124999219Y-41136578D01*
X125038463Y-41078770D01*
X125102730Y-41051356D01*
X125117278Y-41050500D01*
X129230864Y-41050500D01*
X129297903Y-41070185D01*
X129334672Y-41106677D01*
X129411836Y-41224785D01*
X129580256Y-41407738D01*
X129776491Y-41560474D01*
X129995190Y-41678828D01*
X130230386Y-41759571D01*
X130475665Y-41800500D01*
X130724335Y-41800500D01*
X130969614Y-41759571D01*
X131204810Y-41678828D01*
X131423509Y-41560474D01*
X131507201Y-41495333D01*
X131572192Y-41469692D01*
X131640732Y-41483258D01*
X131691057Y-41531726D01*
X131692290Y-41534361D01*
X131692396Y-41534304D01*
X131696649Y-41542093D01*
X131782809Y-41657187D01*
X131782812Y-41657190D01*
X131897906Y-41743350D01*
X131897913Y-41743354D01*
X132032620Y-41793596D01*
X132032627Y-41793598D01*
X132092155Y-41799999D01*
X132092172Y-41800000D01*
X132890000Y-41800000D01*
X132890000Y-40848482D01*
X132908409Y-40859111D01*
X133061009Y-40900000D01*
X133218991Y-40900000D01*
X133371591Y-40859111D01*
X133390000Y-40848482D01*
X133390000Y-41800000D01*
X134187828Y-41800000D01*
X134187844Y-41799999D01*
X134247372Y-41793598D01*
X134247379Y-41793596D01*
X134382086Y-41743354D01*
X134382093Y-41743350D01*
X134497187Y-41657190D01*
X134497190Y-41657187D01*
X134583350Y-41542093D01*
X134583354Y-41542086D01*
X134633596Y-41407379D01*
X134633598Y-41407372D01*
X134639999Y-41347844D01*
X134640000Y-41347827D01*
X134640000Y-40550000D01*
X133688482Y-40550000D01*
X133699111Y-40531591D01*
X133740000Y-40378991D01*
X133740000Y-40221009D01*
X133699111Y-40068409D01*
X133688482Y-40050000D01*
X134640000Y-40050000D01*
X134640000Y-39252172D01*
X134639999Y-39252155D01*
X134633598Y-39192627D01*
X134633596Y-39192620D01*
X134583354Y-39057913D01*
X134583350Y-39057906D01*
X134497190Y-38942812D01*
X134497187Y-38942809D01*
X134382093Y-38856649D01*
X134382086Y-38856645D01*
X134247379Y-38806403D01*
X134247372Y-38806401D01*
X134187844Y-38800000D01*
X133390000Y-38800000D01*
X133390000Y-39751517D01*
X133371591Y-39740889D01*
X133218991Y-39700000D01*
X133061009Y-39700000D01*
X132908409Y-39740889D01*
X132890000Y-39751517D01*
X132890000Y-38800000D01*
X132092155Y-38800000D01*
X132032627Y-38806401D01*
X132032620Y-38806403D01*
X131897913Y-38856645D01*
X131897906Y-38856649D01*
X131782812Y-38942809D01*
X131782809Y-38942812D01*
X131696649Y-39057906D01*
X131692396Y-39065696D01*
X131689217Y-39063960D01*
X131657596Y-39106135D01*
X131592113Y-39130502D01*
X131523851Y-39115598D01*
X131507199Y-39104665D01*
X131500595Y-39099525D01*
X131423509Y-39039526D01*
X131423507Y-39039525D01*
X131423506Y-39039524D01*
X131204811Y-38921172D01*
X131204802Y-38921169D01*
X130969616Y-38840429D01*
X130724335Y-38799500D01*
X130475665Y-38799500D01*
X130230383Y-38840429D01*
X129995197Y-38921169D01*
X129995188Y-38921172D01*
X129776493Y-39039524D01*
X129594263Y-39181360D01*
X129580256Y-39192262D01*
X129540923Y-39234989D01*
X129411836Y-39375215D01*
X129334673Y-39493322D01*
X129281526Y-39538678D01*
X129230864Y-39549500D01*
X120948580Y-39549500D01*
X120803592Y-39578340D01*
X120803582Y-39578343D01*
X120667011Y-39634912D01*
X120666999Y-39634919D01*
X120601980Y-39678364D01*
X120601286Y-39678828D01*
X120587080Y-39688319D01*
X120544081Y-39717050D01*
X120544080Y-39717051D01*
X119326949Y-40934181D01*
X119265626Y-40967666D01*
X119239268Y-40970500D01*
X118445629Y-40970500D01*
X118445623Y-40970501D01*
X118386016Y-40976908D01*
X118251171Y-41027202D01*
X118251164Y-41027206D01*
X118135955Y-41113452D01*
X118135952Y-41113455D01*
X118049706Y-41228664D01*
X118049702Y-41228671D01*
X117999408Y-41363517D01*
X117993001Y-41423116D01*
X117993000Y-41423127D01*
X117993000Y-42031868D01*
X117993001Y-42525500D01*
X117973316Y-42592539D01*
X117920513Y-42638294D01*
X117869001Y-42649500D01*
X109458307Y-42649500D01*
X109391268Y-42629815D01*
X109374769Y-42617137D01*
X109266041Y-42518019D01*
X109266039Y-42518017D01*
X109092642Y-42410655D01*
X109092635Y-42410651D01*
X108981661Y-42367660D01*
X108902456Y-42336976D01*
X108701976Y-42299500D01*
X108498024Y-42299500D01*
X108297544Y-42336976D01*
X108297541Y-42336976D01*
X108297541Y-42336977D01*
X108107364Y-42410651D01*
X108107357Y-42410655D01*
X107933960Y-42518017D01*
X107933958Y-42518019D01*
X107783237Y-42655418D01*
X107660327Y-42818178D01*
X107569422Y-43000739D01*
X107569417Y-43000752D01*
X107513602Y-43196917D01*
X107494785Y-43399999D01*
X107494785Y-43400000D01*
X107513602Y-43603082D01*
X107545892Y-43716565D01*
X107545306Y-43786433D01*
X107507039Y-43844891D01*
X107443242Y-43873382D01*
X107426626Y-43874500D01*
X97775452Y-43874500D01*
X97708413Y-43854815D01*
X97687771Y-43838181D01*
X93860363Y-40010773D01*
X93826878Y-39949450D01*
X93831862Y-39879758D01*
X93873734Y-39823825D01*
X93927635Y-39800783D01*
X93929331Y-39800500D01*
X93929335Y-39800500D01*
X94174614Y-39759571D01*
X94409810Y-39678828D01*
X94628509Y-39560474D01*
X94824744Y-39407738D01*
X94983771Y-39234988D01*
X95043657Y-39198999D01*
X95113495Y-39201099D01*
X95166228Y-39234988D01*
X95325256Y-39407738D01*
X95521491Y-39560474D01*
X95554508Y-39578342D01*
X95739332Y-39678364D01*
X95740190Y-39678828D01*
X95975386Y-39759571D01*
X96220665Y-39800500D01*
X96469335Y-39800500D01*
X96714614Y-39759571D01*
X96949810Y-39678828D01*
X97168509Y-39560474D01*
X97364744Y-39407738D01*
X97523771Y-39234988D01*
X97583657Y-39198999D01*
X97653495Y-39201099D01*
X97706228Y-39234988D01*
X97865256Y-39407738D01*
X98061491Y-39560474D01*
X98094508Y-39578342D01*
X98279332Y-39678364D01*
X98280190Y-39678828D01*
X98515386Y-39759571D01*
X98760665Y-39800500D01*
X99009335Y-39800500D01*
X99254614Y-39759571D01*
X99489810Y-39678828D01*
X99708509Y-39560474D01*
X99904744Y-39407738D01*
X100063771Y-39234988D01*
X100123657Y-39198999D01*
X100193495Y-39201099D01*
X100246228Y-39234988D01*
X100405256Y-39407738D01*
X100601491Y-39560474D01*
X100634508Y-39578342D01*
X100819332Y-39678364D01*
X100820190Y-39678828D01*
X101055386Y-39759571D01*
X101300665Y-39800500D01*
X101549335Y-39800500D01*
X101794614Y-39759571D01*
X102029810Y-39678828D01*
X102248509Y-39560474D01*
X102444744Y-39407738D01*
X102603771Y-39234988D01*
X102663657Y-39198999D01*
X102733495Y-39201099D01*
X102786228Y-39234988D01*
X102945256Y-39407738D01*
X103141491Y-39560474D01*
X103174508Y-39578342D01*
X103359332Y-39678364D01*
X103360190Y-39678828D01*
X103595386Y-39759571D01*
X103840665Y-39800500D01*
X104089335Y-39800500D01*
X104334614Y-39759571D01*
X104569810Y-39678828D01*
X104788509Y-39560474D01*
X104984744Y-39407738D01*
X105143771Y-39234988D01*
X105203657Y-39198999D01*
X105273495Y-39201099D01*
X105326228Y-39234988D01*
X105485256Y-39407738D01*
X105681491Y-39560474D01*
X105714508Y-39578342D01*
X105899332Y-39678364D01*
X105900190Y-39678828D01*
X106135386Y-39759571D01*
X106265211Y-39781234D01*
X106328095Y-39811684D01*
X106364535Y-39871299D01*
X106362961Y-39941150D01*
X106323871Y-39999062D01*
X106310079Y-40008970D01*
X106133957Y-40118020D01*
X105983237Y-40255418D01*
X105860327Y-40418178D01*
X105769422Y-40600739D01*
X105769417Y-40600752D01*
X105713602Y-40796917D01*
X105694785Y-40999999D01*
X105694785Y-41000000D01*
X105713602Y-41203082D01*
X105769417Y-41399247D01*
X105769422Y-41399260D01*
X105860327Y-41581821D01*
X105983237Y-41744581D01*
X106133958Y-41881980D01*
X106133960Y-41881982D01*
X106139282Y-41885277D01*
X106307363Y-41989348D01*
X106497544Y-42063024D01*
X106698024Y-42100500D01*
X106698026Y-42100500D01*
X106901974Y-42100500D01*
X106901976Y-42100500D01*
X107102456Y-42063024D01*
X107292637Y-41989348D01*
X107466041Y-41881981D01*
X107616764Y-41744579D01*
X107739673Y-41581821D01*
X107830582Y-41399250D01*
X107886397Y-41203083D01*
X107905215Y-41000000D01*
X107905214Y-40999999D01*
X107905562Y-40996254D01*
X107931348Y-40931317D01*
X107941344Y-40920022D01*
X109024548Y-39836819D01*
X109085871Y-39803334D01*
X109112229Y-39800500D01*
X109169335Y-39800500D01*
X109414614Y-39759571D01*
X109649810Y-39678828D01*
X109868509Y-39560474D01*
X110064744Y-39407738D01*
X110233164Y-39224785D01*
X110369173Y-39016607D01*
X110469063Y-38788881D01*
X110480294Y-38744530D01*
X110515834Y-38684375D01*
X110578254Y-38652983D01*
X110647737Y-38660321D01*
X110702223Y-38704060D01*
X110724412Y-38770312D01*
X110724500Y-38774971D01*
X110724500Y-38884741D01*
X110749446Y-39074215D01*
X110754452Y-39112238D01*
X110784396Y-39223992D01*
X110813842Y-39333887D01*
X110901650Y-39545876D01*
X110901657Y-39545890D01*
X111016392Y-39744617D01*
X111156081Y-39926661D01*
X111156089Y-39926670D01*
X111318330Y-40088911D01*
X111318338Y-40088918D01*
X111500382Y-40228607D01*
X111500385Y-40228608D01*
X111500388Y-40228611D01*
X111699112Y-40343344D01*
X111699117Y-40343346D01*
X111699123Y-40343349D01*
X111785171Y-40378991D01*
X111911113Y-40431158D01*
X112132762Y-40490548D01*
X112360266Y-40520500D01*
X112360273Y-40520500D01*
X112589727Y-40520500D01*
X112589734Y-40520500D01*
X112817238Y-40490548D01*
X113038887Y-40431158D01*
X113250888Y-40343344D01*
X113449612Y-40228611D01*
X113631661Y-40088919D01*
X113631665Y-40088914D01*
X113631670Y-40088911D01*
X113793911Y-39926670D01*
X113793914Y-39926665D01*
X113793919Y-39926661D01*
X113933611Y-39744612D01*
X114048344Y-39545888D01*
X114136158Y-39333887D01*
X114195548Y-39112238D01*
X114225500Y-38884734D01*
X114225500Y-38655266D01*
X114225274Y-38653553D01*
X114211354Y-38547821D01*
X114195548Y-38427762D01*
X114136158Y-38206113D01*
X114048344Y-37994112D01*
X113933611Y-37795388D01*
X113933608Y-37795385D01*
X113933607Y-37795382D01*
X113793918Y-37613338D01*
X113793911Y-37613330D01*
X113631670Y-37451089D01*
X113631661Y-37451081D01*
X113449617Y-37311392D01*
X113250890Y-37196657D01*
X113250876Y-37196650D01*
X113038887Y-37108842D01*
X112817238Y-37049452D01*
X112779215Y-37044446D01*
X112589741Y-37019500D01*
X112589734Y-37019500D01*
X112360266Y-37019500D01*
X112360258Y-37019500D01*
X112143715Y-37048009D01*
X112132762Y-37049452D01*
X112039076Y-37074554D01*
X111911112Y-37108842D01*
X111699123Y-37196650D01*
X111699109Y-37196657D01*
X111500382Y-37311392D01*
X111318338Y-37451081D01*
X111156081Y-37613338D01*
X111016392Y-37795382D01*
X110901657Y-37994109D01*
X110901650Y-37994123D01*
X110813843Y-38206110D01*
X110813842Y-38206113D01*
X110797213Y-38268176D01*
X110791357Y-38290030D01*
X110754992Y-38349690D01*
X110692145Y-38380219D01*
X110622769Y-38371924D01*
X110568891Y-38327439D01*
X110548006Y-38268179D01*
X110530108Y-38052179D01*
X110469063Y-37811119D01*
X110462160Y-37795382D01*
X110369173Y-37583393D01*
X110233166Y-37375217D01*
X110174408Y-37311389D01*
X110064744Y-37192262D01*
X109868509Y-37039526D01*
X109868507Y-37039525D01*
X109868506Y-37039524D01*
X109649811Y-36921172D01*
X109649802Y-36921169D01*
X109414616Y-36840429D01*
X109169335Y-36799500D01*
X108920665Y-36799500D01*
X108675383Y-36840429D01*
X108440197Y-36921169D01*
X108440188Y-36921172D01*
X108221493Y-37039524D01*
X108025257Y-37192261D01*
X107866230Y-37365010D01*
X107806342Y-37401001D01*
X107736504Y-37398900D01*
X107683770Y-37365010D01*
X107634408Y-37311389D01*
X107524744Y-37192262D01*
X107328509Y-37039526D01*
X107328507Y-37039525D01*
X107328506Y-37039524D01*
X107109811Y-36921172D01*
X107109802Y-36921169D01*
X106874616Y-36840429D01*
X106629335Y-36799500D01*
X106380665Y-36799500D01*
X106135383Y-36840429D01*
X105900197Y-36921169D01*
X105900188Y-36921172D01*
X105681493Y-37039524D01*
X105485257Y-37192261D01*
X105326230Y-37365010D01*
X105266342Y-37401001D01*
X105196504Y-37398900D01*
X105143770Y-37365010D01*
X105094408Y-37311389D01*
X104984744Y-37192262D01*
X104788509Y-37039526D01*
X104788507Y-37039525D01*
X104788506Y-37039524D01*
X104569811Y-36921172D01*
X104569802Y-36921169D01*
X104334616Y-36840429D01*
X104089335Y-36799500D01*
X103840665Y-36799500D01*
X103595383Y-36840429D01*
X103360197Y-36921169D01*
X103360188Y-36921172D01*
X103141493Y-37039524D01*
X102945257Y-37192261D01*
X102786230Y-37365010D01*
X102726342Y-37401001D01*
X102656504Y-37398900D01*
X102603770Y-37365010D01*
X102554408Y-37311389D01*
X102444744Y-37192262D01*
X102248509Y-37039526D01*
X102248507Y-37039525D01*
X102248506Y-37039524D01*
X102029811Y-36921172D01*
X102029802Y-36921169D01*
X101794616Y-36840429D01*
X101549335Y-36799500D01*
X101300665Y-36799500D01*
X101055383Y-36840429D01*
X100820197Y-36921169D01*
X100820188Y-36921172D01*
X100601493Y-37039524D01*
X100405257Y-37192261D01*
X100246230Y-37365010D01*
X100186342Y-37401001D01*
X100116504Y-37398900D01*
X100063770Y-37365010D01*
X100014408Y-37311389D01*
X99904744Y-37192262D01*
X99708509Y-37039526D01*
X99708507Y-37039525D01*
X99708506Y-37039524D01*
X99489811Y-36921172D01*
X99489802Y-36921169D01*
X99254616Y-36840429D01*
X99009335Y-36799500D01*
X98760665Y-36799500D01*
X98515383Y-36840429D01*
X98280197Y-36921169D01*
X98280188Y-36921172D01*
X98061493Y-37039524D01*
X97865257Y-37192261D01*
X97706230Y-37365010D01*
X97646342Y-37401001D01*
X97576504Y-37398900D01*
X97523770Y-37365010D01*
X97474408Y-37311389D01*
X97364744Y-37192262D01*
X97168509Y-37039526D01*
X97168507Y-37039525D01*
X97168506Y-37039524D01*
X96949811Y-36921172D01*
X96949802Y-36921169D01*
X96714616Y-36840429D01*
X96469335Y-36799500D01*
X96220665Y-36799500D01*
X95975383Y-36840429D01*
X95740197Y-36921169D01*
X95740188Y-36921172D01*
X95521493Y-37039524D01*
X95325257Y-37192261D01*
X95166230Y-37365010D01*
X95106342Y-37401001D01*
X95036504Y-37398900D01*
X94983770Y-37365010D01*
X94934408Y-37311389D01*
X94824744Y-37192262D01*
X94628509Y-37039526D01*
X94628507Y-37039525D01*
X94628506Y-37039524D01*
X94409811Y-36921172D01*
X94409802Y-36921169D01*
X94174616Y-36840429D01*
X93929335Y-36799500D01*
X93680665Y-36799500D01*
X93435383Y-36840429D01*
X93200197Y-36921169D01*
X93200188Y-36921172D01*
X92981493Y-37039524D01*
X92785257Y-37192261D01*
X92626230Y-37365010D01*
X92566342Y-37401001D01*
X92496504Y-37398900D01*
X92443770Y-37365010D01*
X92394408Y-37311389D01*
X92284744Y-37192262D01*
X92088509Y-37039526D01*
X92088507Y-37039525D01*
X92088506Y-37039524D01*
X91869811Y-36921172D01*
X91869802Y-36921169D01*
X91634616Y-36840429D01*
X91389335Y-36799500D01*
X91140665Y-36799500D01*
X90895383Y-36840429D01*
X90660197Y-36921169D01*
X90660188Y-36921172D01*
X90441493Y-37039524D01*
X90245257Y-37192261D01*
X90086230Y-37365010D01*
X90026342Y-37401001D01*
X89956504Y-37398900D01*
X89903770Y-37365010D01*
X89854408Y-37311389D01*
X89744744Y-37192262D01*
X89548509Y-37039526D01*
X89548507Y-37039525D01*
X89548506Y-37039524D01*
X89329811Y-36921172D01*
X89329802Y-36921169D01*
X89094616Y-36840429D01*
X88849335Y-36799500D01*
X88600665Y-36799500D01*
X88355383Y-36840429D01*
X88120197Y-36921169D01*
X88120188Y-36921172D01*
X87901493Y-37039524D01*
X87705257Y-37192261D01*
X87546230Y-37365010D01*
X87486342Y-37401001D01*
X87416504Y-37398900D01*
X87363770Y-37365010D01*
X87314408Y-37311389D01*
X87204744Y-37192262D01*
X87008509Y-37039526D01*
X87008507Y-37039525D01*
X87008506Y-37039524D01*
X86789811Y-36921172D01*
X86789802Y-36921169D01*
X86554616Y-36840429D01*
X86309335Y-36799500D01*
X86060665Y-36799500D01*
X85815383Y-36840429D01*
X85580197Y-36921169D01*
X85580188Y-36921172D01*
X85361493Y-37039524D01*
X85165257Y-37192261D01*
X85006230Y-37365010D01*
X84946342Y-37401001D01*
X84876504Y-37398900D01*
X84823770Y-37365010D01*
X84774408Y-37311389D01*
X84664744Y-37192262D01*
X84468509Y-37039526D01*
X84468507Y-37039525D01*
X84468506Y-37039524D01*
X84249811Y-36921172D01*
X84249802Y-36921169D01*
X84014616Y-36840429D01*
X83769335Y-36799500D01*
X83520665Y-36799500D01*
X83275383Y-36840429D01*
X83040197Y-36921169D01*
X83040188Y-36921172D01*
X82821493Y-37039524D01*
X82625257Y-37192261D01*
X82466230Y-37365010D01*
X82406342Y-37401001D01*
X82336504Y-37398900D01*
X82283770Y-37365010D01*
X82234408Y-37311389D01*
X82124744Y-37192262D01*
X81928509Y-37039526D01*
X81928507Y-37039525D01*
X81928506Y-37039524D01*
X81709811Y-36921172D01*
X81709802Y-36921169D01*
X81474616Y-36840429D01*
X81229335Y-36799500D01*
X80980665Y-36799500D01*
X80735383Y-36840429D01*
X80500197Y-36921169D01*
X80500188Y-36921172D01*
X80281493Y-37039524D01*
X80085257Y-37192261D01*
X79926230Y-37365010D01*
X79866342Y-37401001D01*
X79796504Y-37398900D01*
X79743770Y-37365010D01*
X79694408Y-37311389D01*
X79584744Y-37192262D01*
X79388509Y-37039526D01*
X79388507Y-37039525D01*
X79388506Y-37039524D01*
X79169811Y-36921172D01*
X79169802Y-36921169D01*
X78934616Y-36840429D01*
X78689335Y-36799500D01*
X78440665Y-36799500D01*
X78195383Y-36840429D01*
X77960197Y-36921169D01*
X77960188Y-36921172D01*
X77741493Y-37039524D01*
X77545257Y-37192261D01*
X77376837Y-37375213D01*
X77376829Y-37375224D01*
X77376455Y-37375797D01*
X77376242Y-37375978D01*
X77373690Y-37379258D01*
X77373014Y-37378732D01*
X77323304Y-37421147D01*
X77259865Y-37431302D01*
X77248434Y-37430116D01*
X76516127Y-38162423D01*
X76500245Y-38103147D01*
X76433102Y-37986853D01*
X76338147Y-37891898D01*
X76221853Y-37824755D01*
X76162575Y-37808872D01*
X76895057Y-37076390D01*
X76895056Y-37076389D01*
X76848229Y-37039943D01*
X76629614Y-36921635D01*
X76629603Y-36921630D01*
X76394493Y-36840916D01*
X76149293Y-36800000D01*
X75900707Y-36800000D01*
X75655506Y-36840916D01*
X75420396Y-36921630D01*
X75420390Y-36921632D01*
X75201761Y-37039949D01*
X75154942Y-37076388D01*
X75154942Y-37076390D01*
X75887424Y-37808871D01*
X75828147Y-37824755D01*
X75711853Y-37891898D01*
X75616898Y-37986853D01*
X75549755Y-38103147D01*
X75533871Y-38162424D01*
X74801564Y-37430116D01*
X74790135Y-37431302D01*
X74721423Y-37418637D01*
X74676910Y-37378802D01*
X74676317Y-37379265D01*
X74673768Y-37375991D01*
X74673535Y-37375782D01*
X74673166Y-37375218D01*
X74673165Y-37375217D01*
X74673164Y-37375215D01*
X74504744Y-37192262D01*
X74308509Y-37039526D01*
X74308507Y-37039525D01*
X74308506Y-37039524D01*
X74089811Y-36921172D01*
X74089802Y-36921169D01*
X73854616Y-36840429D01*
X73609335Y-36799500D01*
X73360665Y-36799500D01*
X73115383Y-36840429D01*
X72880197Y-36921169D01*
X72880188Y-36921172D01*
X72661493Y-37039524D01*
X72465257Y-37192261D01*
X72296833Y-37375217D01*
X72228309Y-37480103D01*
X72175162Y-37525460D01*
X72105931Y-37534884D01*
X72042595Y-37505382D01*
X72005264Y-37446322D01*
X72000500Y-37412282D01*
X72000500Y-36124500D01*
X72020185Y-36057461D01*
X72072989Y-36011706D01*
X72124500Y-36000500D01*
X143775500Y-36000500D01*
X143842539Y-36020185D01*
G37*
%TD.AperFunction*%
%TA.AperFunction,Conductor*%
G36*
X139092540Y-61445185D02*
G01*
X139138295Y-61497989D01*
X139149501Y-61549500D01*
X139149501Y-61872876D01*
X139155908Y-61932483D01*
X139206202Y-62067328D01*
X139206206Y-62067335D01*
X139292452Y-62182544D01*
X139292455Y-62182547D01*
X139407664Y-62268793D01*
X139412361Y-62271358D01*
X139461766Y-62320764D01*
X139476617Y-62389037D01*
X139456742Y-62448011D01*
X139325826Y-62648393D01*
X139225936Y-62876118D01*
X139164892Y-63117175D01*
X139164890Y-63117187D01*
X139144357Y-63364994D01*
X139144357Y-63365005D01*
X139164890Y-63612812D01*
X139165737Y-63617885D01*
X139163882Y-63618194D01*
X139161574Y-63679863D01*
X139121626Y-63737186D01*
X139057029Y-63763812D01*
X139043987Y-63764500D01*
X136144322Y-63764500D01*
X136077283Y-63744815D01*
X136031528Y-63692011D01*
X136021584Y-63622853D01*
X136050609Y-63559297D01*
X136053092Y-63556518D01*
X136069848Y-63538315D01*
X136204907Y-63331591D01*
X136304098Y-63105460D01*
X136364715Y-62866090D01*
X136364717Y-62866079D01*
X136385107Y-62620006D01*
X136385107Y-62619993D01*
X136364717Y-62373920D01*
X136364715Y-62373909D01*
X136304098Y-62134539D01*
X136204906Y-61908406D01*
X136106209Y-61757341D01*
X135498694Y-62364856D01*
X135474884Y-62307373D01*
X135402655Y-62199275D01*
X135310725Y-62107345D01*
X135202627Y-62035116D01*
X135145142Y-62011304D01*
X135694628Y-61461819D01*
X135755951Y-61428334D01*
X135782309Y-61425500D01*
X139025501Y-61425500D01*
X139092540Y-61445185D01*
G37*
%TD.AperFunction*%
%TA.AperFunction,Conductor*%
G36*
X115569891Y-47120185D02*
G01*
X115615646Y-47172989D01*
X115626428Y-47234740D01*
X115614392Y-47379994D01*
X115614392Y-47380005D01*
X115634789Y-47626165D01*
X115695428Y-47865623D01*
X115777655Y-48053083D01*
X115794652Y-48091831D01*
X115840000Y-48161241D01*
X115928641Y-48296917D01*
X115929755Y-48298621D01*
X116097052Y-48480355D01*
X116097055Y-48480357D01*
X116097058Y-48480360D01*
X116291971Y-48632067D01*
X116291977Y-48632071D01*
X116291980Y-48632073D01*
X116362405Y-48670185D01*
X116508376Y-48749181D01*
X116509221Y-48749638D01*
X116595373Y-48779214D01*
X116742846Y-48829842D01*
X116742848Y-48829842D01*
X116742850Y-48829843D01*
X116986494Y-48870500D01*
X116986495Y-48870500D01*
X117233505Y-48870500D01*
X117233506Y-48870500D01*
X117477150Y-48829843D01*
X117710779Y-48749638D01*
X117928020Y-48632073D01*
X117928559Y-48631654D01*
X118046151Y-48540128D01*
X118122948Y-48480355D01*
X118288772Y-48300220D01*
X118348657Y-48264232D01*
X118418495Y-48266332D01*
X118471227Y-48300220D01*
X118637052Y-48480355D01*
X118637055Y-48480357D01*
X118637058Y-48480360D01*
X118831971Y-48632067D01*
X118831977Y-48632071D01*
X118831980Y-48632073D01*
X118902405Y-48670185D01*
X119048376Y-48749181D01*
X119049221Y-48749638D01*
X119135373Y-48779214D01*
X119282846Y-48829842D01*
X119282848Y-48829842D01*
X119282850Y-48829843D01*
X119526494Y-48870500D01*
X119526495Y-48870500D01*
X119773505Y-48870500D01*
X119773506Y-48870500D01*
X120017150Y-48829843D01*
X120250779Y-48749638D01*
X120468020Y-48632073D01*
X120468559Y-48631654D01*
X120586151Y-48540128D01*
X120662948Y-48480355D01*
X120828772Y-48300220D01*
X120888657Y-48264232D01*
X120958495Y-48266332D01*
X121011227Y-48300220D01*
X121177052Y-48480355D01*
X121177055Y-48480357D01*
X121177058Y-48480360D01*
X121371971Y-48632067D01*
X121371977Y-48632071D01*
X121371980Y-48632073D01*
X121442405Y-48670185D01*
X121588376Y-48749181D01*
X121589221Y-48749638D01*
X121822850Y-48829843D01*
X121924556Y-48846814D01*
X121987440Y-48877264D01*
X122023880Y-48936879D01*
X122022306Y-49006731D01*
X121991827Y-49056804D01*
X120835451Y-50213181D01*
X120774128Y-50246666D01*
X120747770Y-50249500D01*
X116858307Y-50249500D01*
X116791268Y-50229815D01*
X116774769Y-50217137D01*
X116666041Y-50118019D01*
X116666039Y-50118017D01*
X116492642Y-50010655D01*
X116492635Y-50010651D01*
X116344681Y-49953334D01*
X116302456Y-49936976D01*
X116101976Y-49899500D01*
X116101974Y-49899500D01*
X116012230Y-49899500D01*
X115945191Y-49879815D01*
X115924549Y-49863181D01*
X114641351Y-48579983D01*
X114607866Y-48518660D01*
X114605561Y-48503743D01*
X114605214Y-48500004D01*
X114605215Y-48500000D01*
X114586397Y-48296917D01*
X114530582Y-48100750D01*
X114526023Y-48091595D01*
X114462929Y-47964884D01*
X114439673Y-47918179D01*
X114316764Y-47755421D01*
X114316762Y-47755418D01*
X114166041Y-47618019D01*
X114166039Y-47618017D01*
X113992642Y-47510655D01*
X113992635Y-47510651D01*
X113838011Y-47450750D01*
X113802456Y-47436976D01*
X113601976Y-47399500D01*
X113398024Y-47399500D01*
X113197544Y-47436976D01*
X113197541Y-47436976D01*
X113197541Y-47436977D01*
X113007364Y-47510651D01*
X113007357Y-47510655D01*
X112833960Y-47618017D01*
X112833958Y-47618019D01*
X112683237Y-47755418D01*
X112560327Y-47918178D01*
X112469422Y-48100739D01*
X112469417Y-48100752D01*
X112413602Y-48296917D01*
X112394785Y-48499999D01*
X112394785Y-48500000D01*
X112413602Y-48703082D01*
X112469417Y-48899247D01*
X112469422Y-48899260D01*
X112560327Y-49081821D01*
X112683237Y-49244581D01*
X112833958Y-49381980D01*
X112833960Y-49381982D01*
X112868038Y-49403082D01*
X113007363Y-49489348D01*
X113197544Y-49563024D01*
X113398024Y-49600500D01*
X113487770Y-49600500D01*
X113554809Y-49620185D01*
X113575451Y-49636819D01*
X114858647Y-50920015D01*
X114892132Y-50981338D01*
X114894437Y-50996254D01*
X114904097Y-51100500D01*
X114913603Y-51203083D01*
X114931341Y-51265426D01*
X114969417Y-51399247D01*
X114969422Y-51399260D01*
X115060327Y-51581821D01*
X115183237Y-51744581D01*
X115333958Y-51881980D01*
X115333960Y-51881982D01*
X115433141Y-51943392D01*
X115507363Y-51989348D01*
X115697544Y-52063024D01*
X115898024Y-52100500D01*
X115898026Y-52100500D01*
X116101974Y-52100500D01*
X116101976Y-52100500D01*
X116302456Y-52063024D01*
X116492637Y-51989348D01*
X116666041Y-51881981D01*
X116737486Y-51816850D01*
X116774769Y-51782863D01*
X116837573Y-51752246D01*
X116858307Y-51750500D01*
X121183920Y-51750500D01*
X121281462Y-51731096D01*
X121328913Y-51721658D01*
X121465495Y-51665084D01*
X121518277Y-51629816D01*
X121588416Y-51582952D01*
X124299441Y-48871924D01*
X124360762Y-48838441D01*
X124407525Y-48837298D01*
X124606494Y-48870500D01*
X124606495Y-48870500D01*
X124611553Y-48871344D01*
X124611366Y-48872463D01*
X124671401Y-48895619D01*
X124712648Y-48952014D01*
X124716858Y-49021757D01*
X124683673Y-49081735D01*
X117027229Y-56738181D01*
X116965906Y-56771666D01*
X116939548Y-56774500D01*
X100043388Y-56774500D01*
X99922555Y-56798535D01*
X99922547Y-56798537D01*
X99808716Y-56845687D01*
X99706265Y-56914142D01*
X99706262Y-56914145D01*
X94382229Y-62238179D01*
X94320906Y-62271664D01*
X94254286Y-62267780D01*
X94174613Y-62240428D01*
X93929335Y-62199500D01*
X93680665Y-62199500D01*
X93435383Y-62240429D01*
X93200197Y-62321169D01*
X93200188Y-62321172D01*
X92981493Y-62439524D01*
X92785257Y-62592261D01*
X92626230Y-62765010D01*
X92566342Y-62801001D01*
X92496504Y-62798900D01*
X92443770Y-62765010D01*
X92398756Y-62716112D01*
X92284744Y-62592262D01*
X92088509Y-62439526D01*
X92088507Y-62439525D01*
X92088506Y-62439524D01*
X91869811Y-62321172D01*
X91869802Y-62321169D01*
X91634616Y-62240429D01*
X91389335Y-62199500D01*
X91140665Y-62199500D01*
X90895383Y-62240429D01*
X90660197Y-62321169D01*
X90660188Y-62321172D01*
X90441493Y-62439524D01*
X90245257Y-62592261D01*
X90086230Y-62765010D01*
X90026342Y-62801001D01*
X89956504Y-62798900D01*
X89903770Y-62765010D01*
X89858756Y-62716112D01*
X89744744Y-62592262D01*
X89548509Y-62439526D01*
X89548507Y-62439525D01*
X89548506Y-62439524D01*
X89329811Y-62321172D01*
X89329802Y-62321169D01*
X89094616Y-62240429D01*
X88849335Y-62199500D01*
X88600665Y-62199500D01*
X88355383Y-62240429D01*
X88120197Y-62321169D01*
X88120188Y-62321172D01*
X87901493Y-62439524D01*
X87705257Y-62592261D01*
X87546230Y-62765010D01*
X87486342Y-62801001D01*
X87416504Y-62798900D01*
X87363770Y-62765010D01*
X87318756Y-62716112D01*
X87204744Y-62592262D01*
X87008509Y-62439526D01*
X87008507Y-62439525D01*
X87008506Y-62439524D01*
X86789811Y-62321172D01*
X86789802Y-62321169D01*
X86554616Y-62240429D01*
X86309335Y-62199500D01*
X86060665Y-62199500D01*
X85815383Y-62240429D01*
X85580197Y-62321169D01*
X85580188Y-62321172D01*
X85361493Y-62439524D01*
X85165257Y-62592261D01*
X85006230Y-62765010D01*
X84946342Y-62801001D01*
X84876504Y-62798900D01*
X84823770Y-62765010D01*
X84778756Y-62716112D01*
X84664744Y-62592262D01*
X84468509Y-62439526D01*
X84468507Y-62439525D01*
X84468506Y-62439524D01*
X84249811Y-62321172D01*
X84249802Y-62321169D01*
X84014616Y-62240429D01*
X83769335Y-62199500D01*
X83520665Y-62199500D01*
X83275383Y-62240429D01*
X83040197Y-62321169D01*
X83040188Y-62321172D01*
X82821493Y-62439524D01*
X82625257Y-62592261D01*
X82466230Y-62765010D01*
X82406342Y-62801001D01*
X82336504Y-62798900D01*
X82283770Y-62765010D01*
X82238756Y-62716112D01*
X82124744Y-62592262D01*
X81928509Y-62439526D01*
X81928507Y-62439525D01*
X81928506Y-62439524D01*
X81709811Y-62321172D01*
X81709802Y-62321169D01*
X81474616Y-62240429D01*
X81229335Y-62199500D01*
X80980665Y-62199500D01*
X80735383Y-62240429D01*
X80500197Y-62321169D01*
X80500188Y-62321172D01*
X80281493Y-62439524D01*
X80085257Y-62592261D01*
X79926230Y-62765010D01*
X79866342Y-62801001D01*
X79796504Y-62798900D01*
X79743770Y-62765010D01*
X79698756Y-62716112D01*
X79584744Y-62592262D01*
X79388509Y-62439526D01*
X79388507Y-62439525D01*
X79388506Y-62439524D01*
X79169811Y-62321172D01*
X79169802Y-62321169D01*
X78934616Y-62240429D01*
X78689335Y-62199500D01*
X78440665Y-62199500D01*
X78195383Y-62240429D01*
X77960197Y-62321169D01*
X77960188Y-62321172D01*
X77741493Y-62439524D01*
X77545257Y-62592261D01*
X77376837Y-62775213D01*
X77376829Y-62775224D01*
X77376455Y-62775797D01*
X77376242Y-62775978D01*
X77373690Y-62779258D01*
X77373014Y-62778732D01*
X77323304Y-62821147D01*
X77259865Y-62831302D01*
X77248434Y-62830116D01*
X76516127Y-63562423D01*
X76500245Y-63503147D01*
X76433102Y-63386853D01*
X76338147Y-63291898D01*
X76221853Y-63224755D01*
X76162574Y-63208871D01*
X76895057Y-62476389D01*
X76848229Y-62439943D01*
X76629614Y-62321635D01*
X76629603Y-62321630D01*
X76394493Y-62240916D01*
X76149293Y-62200000D01*
X75900707Y-62200000D01*
X75655506Y-62240916D01*
X75420396Y-62321630D01*
X75420385Y-62321635D01*
X75201771Y-62439942D01*
X75201769Y-62439943D01*
X75118397Y-62504835D01*
X75053403Y-62530477D01*
X74984863Y-62516910D01*
X74934538Y-62468442D01*
X74933120Y-62465413D01*
X74933047Y-62465454D01*
X74928793Y-62457664D01*
X74842547Y-62342455D01*
X74842544Y-62342452D01*
X74727335Y-62256206D01*
X74727328Y-62256202D01*
X74592482Y-62205908D01*
X74592483Y-62205908D01*
X74532883Y-62199501D01*
X74532881Y-62199500D01*
X74532873Y-62199500D01*
X74532865Y-62199500D01*
X74359500Y-62199500D01*
X74292461Y-62179815D01*
X74246706Y-62127011D01*
X74235500Y-62075500D01*
X74235500Y-59477229D01*
X74255185Y-59410190D01*
X74271819Y-59389548D01*
X83674548Y-49986819D01*
X83735871Y-49953334D01*
X83762229Y-49950500D01*
X97741693Y-49950500D01*
X97808732Y-49970185D01*
X97825231Y-49982863D01*
X97933958Y-50081980D01*
X97933960Y-50081982D01*
X97992159Y-50118017D01*
X98107363Y-50189348D01*
X98297544Y-50263024D01*
X98498024Y-50300500D01*
X98498026Y-50300500D01*
X98701974Y-50300500D01*
X98701976Y-50300500D01*
X98902456Y-50263024D01*
X99092637Y-50189348D01*
X99266041Y-50081981D01*
X99416764Y-49944579D01*
X99539673Y-49781821D01*
X99630582Y-49599250D01*
X99686397Y-49403083D01*
X99705215Y-49200000D01*
X99686397Y-48996917D01*
X99632768Y-48808432D01*
X99633354Y-48738568D01*
X99671621Y-48680109D01*
X99735418Y-48651618D01*
X99752034Y-48650500D01*
X101346541Y-48650500D01*
X101413580Y-48670185D01*
X101430072Y-48682856D01*
X101483959Y-48731981D01*
X101657363Y-48839348D01*
X101847544Y-48913024D01*
X102048024Y-48950500D01*
X102048026Y-48950500D01*
X102251974Y-48950500D01*
X102251976Y-48950500D01*
X102452456Y-48913024D01*
X102642637Y-48839348D01*
X102816041Y-48731981D01*
X102950534Y-48609375D01*
X102966762Y-48594581D01*
X102977786Y-48579983D01*
X103089673Y-48431821D01*
X103180582Y-48249250D01*
X103236397Y-48053083D01*
X103255215Y-47850000D01*
X103236397Y-47646917D01*
X103180582Y-47450750D01*
X103180578Y-47450742D01*
X103180575Y-47450734D01*
X103095446Y-47279771D01*
X103083185Y-47210986D01*
X103110058Y-47146491D01*
X103167534Y-47106764D01*
X103206446Y-47100500D01*
X115502852Y-47100500D01*
X115569891Y-47120185D01*
G37*
%TD.AperFunction*%
%TA.AperFunction,Conductor*%
G36*
X77248434Y-39169882D02*
G01*
X77259861Y-39168697D01*
X77328573Y-39181360D01*
X77373092Y-39221194D01*
X77373683Y-39220735D01*
X77376218Y-39223992D01*
X77376456Y-39224205D01*
X77376831Y-39224780D01*
X77376836Y-39224785D01*
X77545256Y-39407738D01*
X77741491Y-39560474D01*
X77774508Y-39578342D01*
X77959332Y-39678364D01*
X77960190Y-39678828D01*
X78195386Y-39759571D01*
X78440665Y-39800500D01*
X78689335Y-39800500D01*
X78934614Y-39759571D01*
X79169810Y-39678828D01*
X79388509Y-39560474D01*
X79584744Y-39407738D01*
X79743771Y-39234988D01*
X79803657Y-39198999D01*
X79873495Y-39201099D01*
X79926228Y-39234988D01*
X80085256Y-39407738D01*
X80281491Y-39560474D01*
X80314508Y-39578342D01*
X80499332Y-39678364D01*
X80500190Y-39678828D01*
X80735386Y-39759571D01*
X80980665Y-39800500D01*
X81229335Y-39800500D01*
X81474614Y-39759571D01*
X81709810Y-39678828D01*
X81928509Y-39560474D01*
X82124744Y-39407738D01*
X82283771Y-39234988D01*
X82343657Y-39198999D01*
X82413495Y-39201099D01*
X82466228Y-39234988D01*
X82625256Y-39407738D01*
X82821491Y-39560474D01*
X82854508Y-39578342D01*
X83039332Y-39678364D01*
X83040190Y-39678828D01*
X83275386Y-39759571D01*
X83520665Y-39800500D01*
X83769335Y-39800500D01*
X84014614Y-39759571D01*
X84249810Y-39678828D01*
X84468509Y-39560474D01*
X84664744Y-39407738D01*
X84823771Y-39234988D01*
X84883657Y-39198999D01*
X84953495Y-39201099D01*
X85006228Y-39234988D01*
X85165256Y-39407738D01*
X85361491Y-39560474D01*
X85394508Y-39578342D01*
X85579332Y-39678364D01*
X85580190Y-39678828D01*
X85815386Y-39759571D01*
X86060665Y-39800500D01*
X86309335Y-39800500D01*
X86554614Y-39759571D01*
X86634287Y-39732218D01*
X86704082Y-39729068D01*
X86762229Y-39761819D01*
X93871016Y-46870606D01*
X93871045Y-46870637D01*
X93938227Y-46937819D01*
X93971712Y-46999142D01*
X93966728Y-47068834D01*
X93924856Y-47124767D01*
X93859392Y-47149184D01*
X93850546Y-47149500D01*
X83447229Y-47149500D01*
X83380190Y-47129815D01*
X83359548Y-47113181D01*
X76231426Y-39985058D01*
X76197941Y-39923735D01*
X76202925Y-39854043D01*
X76244797Y-39798110D01*
X76298699Y-39775068D01*
X76394491Y-39759084D01*
X76629603Y-39678369D01*
X76629614Y-39678364D01*
X76848228Y-39560057D01*
X76848231Y-39560055D01*
X76895056Y-39523609D01*
X76162575Y-38791128D01*
X76221853Y-38775245D01*
X76338147Y-38708102D01*
X76433102Y-38613147D01*
X76500245Y-38496853D01*
X76516128Y-38437575D01*
X77248434Y-39169882D01*
G37*
%TD.AperFunction*%
%TA.AperFunction,Conductor*%
G36*
X123454761Y-41070185D02*
G01*
X123500516Y-41122989D01*
X123510460Y-41192147D01*
X123481435Y-41255703D01*
X123471261Y-41266137D01*
X123377104Y-41351972D01*
X123245374Y-41526410D01*
X123245369Y-41526418D01*
X123147941Y-41722079D01*
X123147935Y-41722094D01*
X123101506Y-41885277D01*
X123064227Y-41944371D01*
X123000917Y-41973928D01*
X122931678Y-41964566D01*
X122878491Y-41919256D01*
X122862973Y-41885277D01*
X122816593Y-41722267D01*
X122719199Y-41526675D01*
X122706368Y-41509684D01*
X122706367Y-41509684D01*
X122134225Y-42081825D01*
X122108537Y-41985956D01*
X122052584Y-41889044D01*
X121973456Y-41809916D01*
X121876544Y-41753963D01*
X121780672Y-41728274D01*
X122361141Y-41147805D01*
X122365930Y-41119929D01*
X122413109Y-41068394D01*
X122477276Y-41050500D01*
X123387722Y-41050500D01*
X123454761Y-41070185D01*
G37*
%TD.AperFunction*%
%TD*%
M02*
