M48
; DRILL file {KiCad 8.0.4} date 2025-02-11T11:06:40-0500
; FORMAT={-:-/ absolute / metric / decimal}
; #@! TF.CreationDate,2025-02-11T11:06:40-05:00
; #@! TF.GenerationSoftware,Kicad,Pcbnew,8.0.4
; #@! TF.FileFunction,Plated,1,2,PTH
FMAT,2
METRIC
; #@! TA.AperFunction,Plated,PTH,ViaDrill
T1C0.600
; #@! TA.AperFunction,Plated,PTH,ComponentDrill
T2C0.850
; #@! TA.AperFunction,Plated,PTH,ComponentDrill
T3C1.020
; #@! TA.AperFunction,Plated,PTH,ComponentDrill
T4C1.200
; #@! TA.AperFunction,Plated,PTH,ComponentDrill
T5C1.320
%
G90
G05
T1
X98.6Y-49.2
X102.15Y-47.85
X106.8Y-41.0
X108.6Y-43.4
X113.5Y-48.5
X116.0Y-51.0
T2
X119.172Y-42.15
X121.712Y-42.15
X124.252Y-42.15
T3
X73.485Y-38.3
X73.485Y-63.7
X76.025Y-38.3
X76.025Y-63.7
X78.565Y-38.3
X78.565Y-63.7
X81.105Y-38.3
X81.105Y-63.7
X83.645Y-38.3
X83.645Y-63.7
X86.185Y-38.3
X86.185Y-63.7
X88.725Y-38.3
X88.725Y-63.7
X91.265Y-38.3
X91.265Y-63.7
X93.805Y-38.3
X93.805Y-63.7
X96.345Y-38.3
X96.345Y-63.7
X98.885Y-38.3
X98.885Y-63.7
X101.425Y-38.3
X101.425Y-63.7
X103.965Y-38.3
X103.965Y-63.7
X106.505Y-38.3
X106.505Y-63.7
X109.045Y-38.3
X109.045Y-63.7
T4
X130.6Y-40.3
X133.14Y-40.3
X140.65Y-51.825
X140.65Y-54.365
X140.65Y-60.825
X140.65Y-63.365
T5
X117.11Y-47.38
X117.11Y-62.62
X119.65Y-47.38
X119.65Y-62.62
X122.19Y-47.38
X122.19Y-62.62
X124.73Y-47.38
X124.73Y-62.62
X127.27Y-47.38
X127.27Y-62.62
X129.81Y-47.38
X129.81Y-62.62
X132.35Y-47.38
X132.35Y-62.62
X134.89Y-47.38
X134.89Y-62.62
M30
