%TF.GenerationSoftware,KiCad,Pcbnew,8.0.4*%
%TF.CreationDate,2025-02-11T11:06:45-05:00*%
%TF.ProjectId,plusle,706c7573-6c65-42e6-9b69-6361645f7063,rev?*%
%TF.SameCoordinates,Original*%
%TF.FileFunction,Copper,L2,Bot*%
%TF.FilePolarity,Positive*%
%FSLAX46Y46*%
G04 Gerber Fmt 4.6, Leading zero omitted, Abs format (unit mm)*
G04 Created by KiCad (PCBNEW 8.0.4) date 2025-02-11 11:06:45*
%MOMM*%
%LPD*%
G01*
G04 APERTURE LIST*
%TA.AperFunction,ComponentPad*%
%ADD10R,2.000000X2.000000*%
%TD*%
%TA.AperFunction,ComponentPad*%
%ADD11C,2.000000*%
%TD*%
%TA.AperFunction,ComponentPad*%
%ADD12R,1.358000X1.358000*%
%TD*%
%TA.AperFunction,ComponentPad*%
%ADD13C,1.358000*%
%TD*%
%TA.AperFunction,ComponentPad*%
%ADD14C,1.980000*%
%TD*%
%TA.AperFunction,ViaPad*%
%ADD15C,1.200000*%
%TD*%
%TA.AperFunction,Conductor*%
%ADD16C,0.500000*%
%TD*%
G04 APERTURE END LIST*
D10*
%TO.P,J2,1,Pin_1*%
%TO.N,Net-(J2-Pin_1)*%
X140650000Y-51825000D03*
D11*
%TO.P,J2,2,Pin_2*%
%TO.N,Net-(J2-Pin_2)*%
X140650000Y-54365000D03*
%TD*%
D10*
%TO.P,U1,1,3V3*%
%TO.N,+3.3V*%
X73485000Y-63700000D03*
D11*
%TO.P,U1,2,GND*%
%TO.N,GND*%
X76025000Y-63700000D03*
%TO.P,U1,3,D15*%
%TO.N,unconnected-(U1-D15-Pad3)*%
X78565000Y-63700000D03*
%TO.P,U1,4,D2*%
%TO.N,unconnected-(U1-D2-Pad4)*%
X81105000Y-63700000D03*
%TO.P,U1,5,D4*%
%TO.N,unconnected-(U1-D4-Pad5)*%
X83645000Y-63700000D03*
%TO.P,U1,6,RX2*%
%TO.N,unconnected-(U1-RX2-Pad6)*%
X86185000Y-63700000D03*
%TO.P,U1,7,TX2*%
%TO.N,unconnected-(U1-TX2-Pad7)*%
X88725000Y-63700000D03*
%TO.P,U1,8,D5*%
%TO.N,unconnected-(U1-D5-Pad8)*%
X91265000Y-63700000D03*
%TO.P,U1,9,D18*%
%TO.N,BIn1*%
X93805000Y-63700000D03*
%TO.P,U1,10,D19*%
%TO.N,BIn2*%
X96345000Y-63700000D03*
%TO.P,U1,11,D21*%
%TO.N,PWMB*%
X98885000Y-63700000D03*
%TO.P,U1,12,RX0*%
%TO.N,unconnected-(U1-RX0-Pad12)*%
X101425000Y-63700000D03*
%TO.P,U1,13,TX0*%
%TO.N,unconnected-(U1-TX0-Pad13)*%
X103965000Y-63700000D03*
%TO.P,U1,14,D22*%
%TO.N,unconnected-(U1-D22-Pad14)*%
X106505000Y-63700000D03*
%TO.P,U1,15,D23*%
%TO.N,unconnected-(U1-D23-Pad15)*%
X109045000Y-63700000D03*
%TO.P,U1,16,EN*%
%TO.N,+3.3V*%
X109045000Y-38300000D03*
%TO.P,U1,17,VP*%
%TO.N,unconnected-(U1-VP-Pad17)*%
X106505000Y-38300000D03*
%TO.P,U1,18,VN*%
%TO.N,unconnected-(U1-VN-Pad18)*%
X103965000Y-38300000D03*
%TO.P,U1,19,D34*%
%TO.N,unconnected-(U1-D34-Pad19)*%
X101425000Y-38300000D03*
%TO.P,U1,20,D35*%
%TO.N,unconnected-(U1-D35-Pad20)*%
X98885000Y-38300000D03*
%TO.P,U1,21,D32*%
%TO.N,unconnected-(U1-D32-Pad21)*%
X96345000Y-38300000D03*
%TO.P,U1,22,D33*%
%TO.N,unconnected-(U1-D33-Pad22)*%
X93805000Y-38300000D03*
%TO.P,U1,23,D25*%
%TO.N,AIn1*%
X91265000Y-38300000D03*
%TO.P,U1,24,D26*%
%TO.N,AIn2*%
X88725000Y-38300000D03*
%TO.P,U1,25,D27*%
%TO.N,PWMA*%
X86185000Y-38300000D03*
%TO.P,U1,26,D14*%
%TO.N,unconnected-(U1-D14-Pad26)*%
X83645000Y-38300000D03*
%TO.P,U1,27,D12*%
%TO.N,unconnected-(U1-D12-Pad27)*%
X81105000Y-38300000D03*
%TO.P,U1,28,D13*%
%TO.N,unconnected-(U1-D13-Pad28)*%
X78565000Y-38300000D03*
%TO.P,U1,29,GND*%
%TO.N,GND*%
X76025000Y-38300000D03*
%TO.P,U1,30,VIN*%
%TO.N,+5V*%
X73485000Y-38300000D03*
%TD*%
D12*
%TO.P,PS1,1,+VIN*%
%TO.N,+12V*%
X119172500Y-42150000D03*
D13*
%TO.P,PS1,2,GND*%
%TO.N,GND*%
X121712500Y-42150000D03*
%TO.P,PS1,3,+VOUT*%
%TO.N,+5V*%
X124252500Y-42150000D03*
%TD*%
D10*
%TO.P,J3,1,Pin_1*%
%TO.N,Net-(J3-Pin_1)*%
X140650000Y-60825000D03*
D11*
%TO.P,J3,2,Pin_2*%
%TO.N,Net-(J3-Pin_2)*%
X140650000Y-63365000D03*
%TD*%
D10*
%TO.P,J1,1,Pin_1*%
%TO.N,GND*%
X133140000Y-40300000D03*
D11*
%TO.P,J1,2,Pin_2*%
%TO.N,+12V*%
X130600000Y-40300000D03*
%TD*%
D14*
%TO.P,U2,1,VM*%
%TO.N,+12V*%
X117110000Y-62620000D03*
%TO.P,U2,2,VCC*%
%TO.N,+3.3V*%
X119650000Y-62620000D03*
%TO.P,U2,3,GND*%
%TO.N,GND*%
X122190000Y-62620000D03*
%TO.P,U2,4,A01*%
%TO.N,Net-(J2-Pin_1)*%
X124730000Y-62620000D03*
%TO.P,U2,5,A02*%
%TO.N,Net-(J2-Pin_2)*%
X127270000Y-62620000D03*
%TO.P,U2,6,B02*%
%TO.N,Net-(J3-Pin_2)*%
X129810000Y-62620000D03*
%TO.P,U2,7,B01*%
%TO.N,Net-(J3-Pin_1)*%
X132350000Y-62620000D03*
%TO.P,U2,8,GND*%
%TO.N,GND*%
X134890000Y-62620000D03*
%TO.P,U2,9,GND*%
X134890000Y-47380000D03*
%TO.P,U2,10,PWMB*%
%TO.N,PWMB*%
X132350000Y-47380000D03*
%TO.P,U2,11,BI2*%
%TO.N,BIn2*%
X129810000Y-47380000D03*
%TO.P,U2,12,BI1*%
%TO.N,BIn1*%
X127270000Y-47380000D03*
%TO.P,U2,13,STBY*%
%TO.N,+3.3V*%
X124730000Y-47380000D03*
%TO.P,U2,14,AI1*%
%TO.N,AIn1*%
X122190000Y-47380000D03*
%TO.P,U2,15,AI2*%
%TO.N,AIn2*%
X119650000Y-47380000D03*
%TO.P,U2,16,PWMA*%
%TO.N,PWMA*%
X117110000Y-47380000D03*
%TD*%
D15*
%TO.N,+5V*%
X102150000Y-47850000D03*
X108600000Y-43400000D03*
%TO.N,+3.3V*%
X98600000Y-49200000D03*
X116000000Y-51000000D03*
X106800000Y-41000000D03*
X113500000Y-48500000D03*
%TD*%
D16*
%TO.N,+12V*%
X119172500Y-42150000D02*
X117993500Y-42150000D01*
X117993500Y-42150000D02*
X114900000Y-45243500D01*
X114900000Y-45243500D02*
X114900000Y-60410000D01*
X114900000Y-60410000D02*
X117110000Y-62620000D01*
%TO.N,+5V*%
X106600000Y-43400000D02*
X108600000Y-43400000D01*
X102150000Y-47850000D02*
X106600000Y-43400000D01*
%TO.N,+3.3V*%
X106800000Y-41000000D02*
X98600000Y-49200000D01*
X110800000Y-45800000D02*
X110800000Y-41100000D01*
X116000000Y-58970000D02*
X116000000Y-51000000D01*
X119650000Y-62620000D02*
X116000000Y-58970000D01*
X109045000Y-39345000D02*
X109045000Y-38300000D01*
X110800000Y-41100000D02*
X109045000Y-39345000D01*
X113500000Y-48500000D02*
X110800000Y-45800000D01*
%TD*%
%TA.AperFunction,Conductor*%
%TO.N,GND*%
G36*
X143842539Y-36020185D02*
G01*
X143888294Y-36072989D01*
X143899500Y-36124500D01*
X143899500Y-65875500D01*
X143879815Y-65942539D01*
X143827011Y-65988294D01*
X143775500Y-65999500D01*
X72124500Y-65999500D01*
X72057461Y-65979815D01*
X72011706Y-65927011D01*
X72000500Y-65875500D01*
X72000500Y-65210230D01*
X72020185Y-65143191D01*
X72072989Y-65097436D01*
X72142147Y-65087492D01*
X72198810Y-65110963D01*
X72241861Y-65143191D01*
X72242668Y-65143795D01*
X72242671Y-65143797D01*
X72377517Y-65194091D01*
X72377516Y-65194091D01*
X72384444Y-65194835D01*
X72437127Y-65200500D01*
X74532872Y-65200499D01*
X74592483Y-65194091D01*
X74727331Y-65143796D01*
X74842546Y-65057546D01*
X74928796Y-64942331D01*
X74928797Y-64942326D01*
X74933047Y-64934546D01*
X74936135Y-64936232D01*
X74967873Y-64893790D01*
X75033324Y-64869339D01*
X75101605Y-64884155D01*
X75118398Y-64895165D01*
X75201768Y-64960055D01*
X75201771Y-64960057D01*
X75420385Y-65078364D01*
X75420396Y-65078369D01*
X75655506Y-65159083D01*
X75900707Y-65200000D01*
X76149293Y-65200000D01*
X76394493Y-65159083D01*
X76629603Y-65078369D01*
X76629614Y-65078364D01*
X76848228Y-64960057D01*
X76848231Y-64960055D01*
X76895056Y-64923609D01*
X76162575Y-64191128D01*
X76221853Y-64175245D01*
X76338147Y-64108102D01*
X76433102Y-64013147D01*
X76500245Y-63896853D01*
X76516128Y-63837575D01*
X77248434Y-64569882D01*
X77259861Y-64568697D01*
X77328573Y-64581360D01*
X77373092Y-64621194D01*
X77373683Y-64620735D01*
X77376218Y-64623992D01*
X77376456Y-64624205D01*
X77376831Y-64624780D01*
X77376836Y-64624785D01*
X77545256Y-64807738D01*
X77741491Y-64960474D01*
X77741493Y-64960475D01*
X77959332Y-65078364D01*
X77960190Y-65078828D01*
X78147673Y-65143191D01*
X78193964Y-65159083D01*
X78195386Y-65159571D01*
X78440665Y-65200500D01*
X78689335Y-65200500D01*
X78934614Y-65159571D01*
X79169810Y-65078828D01*
X79388509Y-64960474D01*
X79584744Y-64807738D01*
X79743771Y-64634988D01*
X79803657Y-64598999D01*
X79873495Y-64601099D01*
X79926228Y-64634988D01*
X80085256Y-64807738D01*
X80281491Y-64960474D01*
X80281493Y-64960475D01*
X80499332Y-65078364D01*
X80500190Y-65078828D01*
X80687673Y-65143191D01*
X80733964Y-65159083D01*
X80735386Y-65159571D01*
X80980665Y-65200500D01*
X81229335Y-65200500D01*
X81474614Y-65159571D01*
X81709810Y-65078828D01*
X81928509Y-64960474D01*
X82124744Y-64807738D01*
X82283771Y-64634988D01*
X82343657Y-64598999D01*
X82413495Y-64601099D01*
X82466228Y-64634988D01*
X82625256Y-64807738D01*
X82821491Y-64960474D01*
X82821493Y-64960475D01*
X83039332Y-65078364D01*
X83040190Y-65078828D01*
X83227673Y-65143191D01*
X83273964Y-65159083D01*
X83275386Y-65159571D01*
X83520665Y-65200500D01*
X83769335Y-65200500D01*
X84014614Y-65159571D01*
X84249810Y-65078828D01*
X84468509Y-64960474D01*
X84664744Y-64807738D01*
X84823771Y-64634988D01*
X84883657Y-64598999D01*
X84953495Y-64601099D01*
X85006228Y-64634988D01*
X85165256Y-64807738D01*
X85361491Y-64960474D01*
X85361493Y-64960475D01*
X85579332Y-65078364D01*
X85580190Y-65078828D01*
X85767673Y-65143191D01*
X85813964Y-65159083D01*
X85815386Y-65159571D01*
X86060665Y-65200500D01*
X86309335Y-65200500D01*
X86554614Y-65159571D01*
X86789810Y-65078828D01*
X87008509Y-64960474D01*
X87204744Y-64807738D01*
X87363771Y-64634988D01*
X87423657Y-64598999D01*
X87493495Y-64601099D01*
X87546228Y-64634988D01*
X87705256Y-64807738D01*
X87901491Y-64960474D01*
X87901493Y-64960475D01*
X88119332Y-65078364D01*
X88120190Y-65078828D01*
X88307673Y-65143191D01*
X88353964Y-65159083D01*
X88355386Y-65159571D01*
X88600665Y-65200500D01*
X88849335Y-65200500D01*
X89094614Y-65159571D01*
X89329810Y-65078828D01*
X89548509Y-64960474D01*
X89744744Y-64807738D01*
X89903771Y-64634988D01*
X89963657Y-64598999D01*
X90033495Y-64601099D01*
X90086228Y-64634988D01*
X90245256Y-64807738D01*
X90441491Y-64960474D01*
X90441493Y-64960475D01*
X90659332Y-65078364D01*
X90660190Y-65078828D01*
X90847673Y-65143191D01*
X90893964Y-65159083D01*
X90895386Y-65159571D01*
X91140665Y-65200500D01*
X91389335Y-65200500D01*
X91634614Y-65159571D01*
X91869810Y-65078828D01*
X92088509Y-64960474D01*
X92284744Y-64807738D01*
X92443771Y-64634988D01*
X92503657Y-64598999D01*
X92573495Y-64601099D01*
X92626228Y-64634988D01*
X92785256Y-64807738D01*
X92981491Y-64960474D01*
X92981493Y-64960475D01*
X93199332Y-65078364D01*
X93200190Y-65078828D01*
X93387673Y-65143191D01*
X93433964Y-65159083D01*
X93435386Y-65159571D01*
X93680665Y-65200500D01*
X93929335Y-65200500D01*
X94174614Y-65159571D01*
X94409810Y-65078828D01*
X94628509Y-64960474D01*
X94824744Y-64807738D01*
X94983771Y-64634988D01*
X95043657Y-64598999D01*
X95113495Y-64601099D01*
X95166228Y-64634988D01*
X95325256Y-64807738D01*
X95521491Y-64960474D01*
X95521493Y-64960475D01*
X95739332Y-65078364D01*
X95740190Y-65078828D01*
X95927673Y-65143191D01*
X95973964Y-65159083D01*
X95975386Y-65159571D01*
X96220665Y-65200500D01*
X96469335Y-65200500D01*
X96714614Y-65159571D01*
X96949810Y-65078828D01*
X97168509Y-64960474D01*
X97364744Y-64807738D01*
X97523771Y-64634988D01*
X97583657Y-64598999D01*
X97653495Y-64601099D01*
X97706228Y-64634988D01*
X97865256Y-64807738D01*
X98061491Y-64960474D01*
X98061493Y-64960475D01*
X98279332Y-65078364D01*
X98280190Y-65078828D01*
X98467673Y-65143191D01*
X98513964Y-65159083D01*
X98515386Y-65159571D01*
X98760665Y-65200500D01*
X99009335Y-65200500D01*
X99254614Y-65159571D01*
X99489810Y-65078828D01*
X99708509Y-64960474D01*
X99904744Y-64807738D01*
X100063771Y-64634988D01*
X100123657Y-64598999D01*
X100193495Y-64601099D01*
X100246228Y-64634988D01*
X100405256Y-64807738D01*
X100601491Y-64960474D01*
X100601493Y-64960475D01*
X100819332Y-65078364D01*
X100820190Y-65078828D01*
X101007673Y-65143191D01*
X101053964Y-65159083D01*
X101055386Y-65159571D01*
X101300665Y-65200500D01*
X101549335Y-65200500D01*
X101794614Y-65159571D01*
X102029810Y-65078828D01*
X102248509Y-64960474D01*
X102444744Y-64807738D01*
X102603771Y-64634988D01*
X102663657Y-64598999D01*
X102733495Y-64601099D01*
X102786228Y-64634988D01*
X102945256Y-64807738D01*
X103141491Y-64960474D01*
X103141493Y-64960475D01*
X103359332Y-65078364D01*
X103360190Y-65078828D01*
X103547673Y-65143191D01*
X103593964Y-65159083D01*
X103595386Y-65159571D01*
X103840665Y-65200500D01*
X104089335Y-65200500D01*
X104334614Y-65159571D01*
X104569810Y-65078828D01*
X104788509Y-64960474D01*
X104984744Y-64807738D01*
X105143771Y-64634988D01*
X105203657Y-64598999D01*
X105273495Y-64601099D01*
X105326228Y-64634988D01*
X105485256Y-64807738D01*
X105681491Y-64960474D01*
X105681493Y-64960475D01*
X105899332Y-65078364D01*
X105900190Y-65078828D01*
X106087673Y-65143191D01*
X106133964Y-65159083D01*
X106135386Y-65159571D01*
X106380665Y-65200500D01*
X106629335Y-65200500D01*
X106874614Y-65159571D01*
X107109810Y-65078828D01*
X107328509Y-64960474D01*
X107524744Y-64807738D01*
X107683771Y-64634988D01*
X107743657Y-64598999D01*
X107813495Y-64601099D01*
X107866228Y-64634988D01*
X108025256Y-64807738D01*
X108221491Y-64960474D01*
X108221493Y-64960475D01*
X108439332Y-65078364D01*
X108440190Y-65078828D01*
X108627673Y-65143191D01*
X108673964Y-65159083D01*
X108675386Y-65159571D01*
X108920665Y-65200500D01*
X109169335Y-65200500D01*
X109414614Y-65159571D01*
X109649810Y-65078828D01*
X109868509Y-64960474D01*
X110064744Y-64807738D01*
X110233164Y-64624785D01*
X110369173Y-64416607D01*
X110469063Y-64188881D01*
X110530108Y-63947821D01*
X110530109Y-63947812D01*
X110544842Y-63770013D01*
X110569995Y-63704828D01*
X110626397Y-63663590D01*
X110696140Y-63659392D01*
X110757082Y-63693566D01*
X110788191Y-63748157D01*
X110793279Y-63767143D01*
X110813842Y-63843887D01*
X110901650Y-64055876D01*
X110901657Y-64055890D01*
X111016392Y-64254617D01*
X111156081Y-64436661D01*
X111156089Y-64436670D01*
X111318330Y-64598911D01*
X111318338Y-64598918D01*
X111318339Y-64598919D01*
X111352044Y-64624782D01*
X111500382Y-64738607D01*
X111500385Y-64738608D01*
X111500388Y-64738611D01*
X111699112Y-64853344D01*
X111699117Y-64853346D01*
X111699123Y-64853349D01*
X111737727Y-64869339D01*
X111911113Y-64941158D01*
X112132762Y-65000548D01*
X112360266Y-65030500D01*
X112360273Y-65030500D01*
X112589727Y-65030500D01*
X112589734Y-65030500D01*
X112817238Y-65000548D01*
X113038887Y-64941158D01*
X113250888Y-64853344D01*
X113449612Y-64738611D01*
X113631661Y-64598919D01*
X113631665Y-64598914D01*
X113631670Y-64598911D01*
X113793911Y-64436670D01*
X113793914Y-64436665D01*
X113793919Y-64436661D01*
X113933611Y-64254612D01*
X114048344Y-64055888D01*
X114136158Y-63843887D01*
X114195548Y-63622238D01*
X114225500Y-63394734D01*
X114225500Y-63165266D01*
X114195548Y-62937762D01*
X114136158Y-62716113D01*
X114059265Y-62530477D01*
X114048349Y-62504123D01*
X114048346Y-62504117D01*
X114048344Y-62504112D01*
X113933611Y-62305388D01*
X113933608Y-62305385D01*
X113933607Y-62305382D01*
X113793918Y-62123338D01*
X113793911Y-62123330D01*
X113631670Y-61961089D01*
X113631661Y-61961081D01*
X113449617Y-61821392D01*
X113250890Y-61706657D01*
X113250876Y-61706650D01*
X113038887Y-61618842D01*
X112817238Y-61559452D01*
X112779215Y-61554446D01*
X112589741Y-61529500D01*
X112589734Y-61529500D01*
X112360266Y-61529500D01*
X112360258Y-61529500D01*
X112143715Y-61558009D01*
X112132762Y-61559452D01*
X112039076Y-61584554D01*
X111911112Y-61618842D01*
X111699123Y-61706650D01*
X111699109Y-61706657D01*
X111500382Y-61821392D01*
X111318338Y-61961081D01*
X111156081Y-62123338D01*
X111016392Y-62305382D01*
X110901657Y-62504109D01*
X110901650Y-62504123D01*
X110813842Y-62716112D01*
X110754453Y-62937759D01*
X110754451Y-62937770D01*
X110724500Y-63165258D01*
X110724500Y-63225028D01*
X110704815Y-63292067D01*
X110652011Y-63337822D01*
X110582853Y-63347766D01*
X110519297Y-63318741D01*
X110481523Y-63259963D01*
X110480294Y-63255469D01*
X110469062Y-63211117D01*
X110427860Y-63117187D01*
X110369173Y-62983393D01*
X110292587Y-62866169D01*
X110233166Y-62775217D01*
X110150119Y-62685004D01*
X110064744Y-62592262D01*
X109868509Y-62439526D01*
X109868507Y-62439525D01*
X109868506Y-62439524D01*
X109649811Y-62321172D01*
X109649802Y-62321169D01*
X109414616Y-62240429D01*
X109169335Y-62199500D01*
X108920665Y-62199500D01*
X108675383Y-62240429D01*
X108440197Y-62321169D01*
X108440188Y-62321172D01*
X108221493Y-62439524D01*
X108025257Y-62592261D01*
X107866230Y-62765010D01*
X107806342Y-62801001D01*
X107736504Y-62798900D01*
X107683770Y-62765010D01*
X107610119Y-62685004D01*
X107524744Y-62592262D01*
X107328509Y-62439526D01*
X107328507Y-62439525D01*
X107328506Y-62439524D01*
X107109811Y-62321172D01*
X107109802Y-62321169D01*
X106874616Y-62240429D01*
X106629335Y-62199500D01*
X106380665Y-62199500D01*
X106135383Y-62240429D01*
X105900197Y-62321169D01*
X105900188Y-62321172D01*
X105681493Y-62439524D01*
X105485257Y-62592261D01*
X105326230Y-62765010D01*
X105266342Y-62801001D01*
X105196504Y-62798900D01*
X105143770Y-62765010D01*
X105070119Y-62685004D01*
X104984744Y-62592262D01*
X104788509Y-62439526D01*
X104788507Y-62439525D01*
X104788506Y-62439524D01*
X104569811Y-62321172D01*
X104569802Y-62321169D01*
X104334616Y-62240429D01*
X104089335Y-62199500D01*
X103840665Y-62199500D01*
X103595383Y-62240429D01*
X103360197Y-62321169D01*
X103360188Y-62321172D01*
X103141493Y-62439524D01*
X102945257Y-62592261D01*
X102786230Y-62765010D01*
X102726342Y-62801001D01*
X102656504Y-62798900D01*
X102603770Y-62765010D01*
X102530119Y-62685004D01*
X102444744Y-62592262D01*
X102248509Y-62439526D01*
X102248507Y-62439525D01*
X102248506Y-62439524D01*
X102029811Y-62321172D01*
X102029802Y-62321169D01*
X101794616Y-62240429D01*
X101549335Y-62199500D01*
X101300665Y-62199500D01*
X101055383Y-62240429D01*
X100820197Y-62321169D01*
X100820188Y-62321172D01*
X100601493Y-62439524D01*
X100405257Y-62592261D01*
X100246230Y-62765010D01*
X100186342Y-62801001D01*
X100116504Y-62798900D01*
X100063770Y-62765010D01*
X99990119Y-62685004D01*
X99904744Y-62592262D01*
X99708509Y-62439526D01*
X99708507Y-62439525D01*
X99708506Y-62439524D01*
X99489811Y-62321172D01*
X99489802Y-62321169D01*
X99254616Y-62240429D01*
X99009335Y-62199500D01*
X98760665Y-62199500D01*
X98515383Y-62240429D01*
X98280197Y-62321169D01*
X98280188Y-62321172D01*
X98061493Y-62439524D01*
X97865257Y-62592261D01*
X97706230Y-62765010D01*
X97646342Y-62801001D01*
X97576504Y-62798900D01*
X97523770Y-62765010D01*
X97450119Y-62685004D01*
X97364744Y-62592262D01*
X97168509Y-62439526D01*
X97168507Y-62439525D01*
X97168506Y-62439524D01*
X96949811Y-62321172D01*
X96949802Y-62321169D01*
X96714616Y-62240429D01*
X96469335Y-62199500D01*
X96220665Y-62199500D01*
X95975383Y-62240429D01*
X95740197Y-62321169D01*
X95740188Y-62321172D01*
X95521493Y-62439524D01*
X95325257Y-62592261D01*
X95166230Y-62765010D01*
X95106342Y-62801001D01*
X95036504Y-62798900D01*
X94983770Y-62765010D01*
X94910119Y-62685004D01*
X94824744Y-62592262D01*
X94628509Y-62439526D01*
X94628507Y-62439525D01*
X94628506Y-62439524D01*
X94409811Y-62321172D01*
X94409802Y-62321169D01*
X94174616Y-62240429D01*
X93929335Y-62199500D01*
X93680665Y-62199500D01*
X93435383Y-62240429D01*
X93200197Y-62321169D01*
X93200188Y-62321172D01*
X92981493Y-62439524D01*
X92785257Y-62592261D01*
X92626230Y-62765010D01*
X92566342Y-62801001D01*
X92496504Y-62798900D01*
X92443770Y-62765010D01*
X92370119Y-62685004D01*
X92284744Y-62592262D01*
X92088509Y-62439526D01*
X92088507Y-62439525D01*
X92088506Y-62439524D01*
X91869811Y-62321172D01*
X91869802Y-62321169D01*
X91634616Y-62240429D01*
X91389335Y-62199500D01*
X91140665Y-62199500D01*
X90895383Y-62240429D01*
X90660197Y-62321169D01*
X90660188Y-62321172D01*
X90441493Y-62439524D01*
X90245257Y-62592261D01*
X90086230Y-62765010D01*
X90026342Y-62801001D01*
X89956504Y-62798900D01*
X89903770Y-62765010D01*
X89830119Y-62685004D01*
X89744744Y-62592262D01*
X89548509Y-62439526D01*
X89548507Y-62439525D01*
X89548506Y-62439524D01*
X89329811Y-62321172D01*
X89329802Y-62321169D01*
X89094616Y-62240429D01*
X88849335Y-62199500D01*
X88600665Y-62199500D01*
X88355383Y-62240429D01*
X88120197Y-62321169D01*
X88120188Y-62321172D01*
X87901493Y-62439524D01*
X87705257Y-62592261D01*
X87546230Y-62765010D01*
X87486342Y-62801001D01*
X87416504Y-62798900D01*
X87363770Y-62765010D01*
X87290119Y-62685004D01*
X87204744Y-62592262D01*
X87008509Y-62439526D01*
X87008507Y-62439525D01*
X87008506Y-62439524D01*
X86789811Y-62321172D01*
X86789802Y-62321169D01*
X86554616Y-62240429D01*
X86309335Y-62199500D01*
X86060665Y-62199500D01*
X85815383Y-62240429D01*
X85580197Y-62321169D01*
X85580188Y-62321172D01*
X85361493Y-62439524D01*
X85165257Y-62592261D01*
X85006230Y-62765010D01*
X84946342Y-62801001D01*
X84876504Y-62798900D01*
X84823770Y-62765010D01*
X84750119Y-62685004D01*
X84664744Y-62592262D01*
X84468509Y-62439526D01*
X84468507Y-62439525D01*
X84468506Y-62439524D01*
X84249811Y-62321172D01*
X84249802Y-62321169D01*
X84014616Y-62240429D01*
X83769335Y-62199500D01*
X83520665Y-62199500D01*
X83275383Y-62240429D01*
X83040197Y-62321169D01*
X83040188Y-62321172D01*
X82821493Y-62439524D01*
X82625257Y-62592261D01*
X82466230Y-62765010D01*
X82406342Y-62801001D01*
X82336504Y-62798900D01*
X82283770Y-62765010D01*
X82210119Y-62685004D01*
X82124744Y-62592262D01*
X81928509Y-62439526D01*
X81928507Y-62439525D01*
X81928506Y-62439524D01*
X81709811Y-62321172D01*
X81709802Y-62321169D01*
X81474616Y-62240429D01*
X81229335Y-62199500D01*
X80980665Y-62199500D01*
X80735383Y-62240429D01*
X80500197Y-62321169D01*
X80500188Y-62321172D01*
X80281493Y-62439524D01*
X80085257Y-62592261D01*
X79926230Y-62765010D01*
X79866342Y-62801001D01*
X79796504Y-62798900D01*
X79743770Y-62765010D01*
X79670119Y-62685004D01*
X79584744Y-62592262D01*
X79388509Y-62439526D01*
X79388507Y-62439525D01*
X79388506Y-62439524D01*
X79169811Y-62321172D01*
X79169802Y-62321169D01*
X78934616Y-62240429D01*
X78689335Y-62199500D01*
X78440665Y-62199500D01*
X78195383Y-62240429D01*
X77960197Y-62321169D01*
X77960188Y-62321172D01*
X77741493Y-62439524D01*
X77545257Y-62592261D01*
X77376837Y-62775213D01*
X77376829Y-62775224D01*
X77376455Y-62775797D01*
X77376242Y-62775978D01*
X77373690Y-62779258D01*
X77373014Y-62778732D01*
X77323304Y-62821147D01*
X77259865Y-62831302D01*
X77248434Y-62830116D01*
X76516127Y-63562423D01*
X76500245Y-63503147D01*
X76433102Y-63386853D01*
X76338147Y-63291898D01*
X76221853Y-63224755D01*
X76162574Y-63208871D01*
X76895057Y-62476389D01*
X76848229Y-62439943D01*
X76629614Y-62321635D01*
X76629603Y-62321630D01*
X76394493Y-62240916D01*
X76149293Y-62200000D01*
X75900707Y-62200000D01*
X75655506Y-62240916D01*
X75420396Y-62321630D01*
X75420385Y-62321635D01*
X75201771Y-62439942D01*
X75201769Y-62439943D01*
X75118397Y-62504835D01*
X75053403Y-62530477D01*
X74984863Y-62516910D01*
X74934538Y-62468442D01*
X74933120Y-62465413D01*
X74933047Y-62465454D01*
X74928793Y-62457664D01*
X74842547Y-62342455D01*
X74842544Y-62342452D01*
X74727335Y-62256206D01*
X74727328Y-62256202D01*
X74592482Y-62205908D01*
X74592483Y-62205908D01*
X74532883Y-62199501D01*
X74532881Y-62199500D01*
X74532873Y-62199500D01*
X74532864Y-62199500D01*
X72437129Y-62199500D01*
X72437123Y-62199501D01*
X72377516Y-62205908D01*
X72242671Y-62256202D01*
X72242668Y-62256204D01*
X72198811Y-62289036D01*
X72133347Y-62313453D01*
X72065074Y-62298601D01*
X72015668Y-62249196D01*
X72000500Y-62189769D01*
X72000500Y-39187717D01*
X72020185Y-39120678D01*
X72072989Y-39074923D01*
X72142147Y-39064979D01*
X72205703Y-39094004D01*
X72228309Y-39119896D01*
X72296833Y-39224782D01*
X72296836Y-39224785D01*
X72465256Y-39407738D01*
X72661491Y-39560474D01*
X72703842Y-39583393D01*
X72879332Y-39678364D01*
X72880190Y-39678828D01*
X73009476Y-39723212D01*
X73113964Y-39759083D01*
X73115386Y-39759571D01*
X73360665Y-39800500D01*
X73609335Y-39800500D01*
X73854614Y-39759571D01*
X74089810Y-39678828D01*
X74308509Y-39560474D01*
X74504744Y-39407738D01*
X74673164Y-39224785D01*
X74673533Y-39224219D01*
X74673745Y-39224038D01*
X74676322Y-39220729D01*
X74677002Y-39221258D01*
X74726676Y-39178860D01*
X74790138Y-39168697D01*
X74801564Y-39169882D01*
X75533871Y-38437575D01*
X75549755Y-38496853D01*
X75616898Y-38613147D01*
X75711853Y-38708102D01*
X75828147Y-38775245D01*
X75887424Y-38791128D01*
X75154942Y-39523609D01*
X75201768Y-39560055D01*
X75201770Y-39560056D01*
X75420385Y-39678364D01*
X75420396Y-39678369D01*
X75655506Y-39759083D01*
X75900707Y-39800000D01*
X76149293Y-39800000D01*
X76394493Y-39759083D01*
X76629603Y-39678369D01*
X76629614Y-39678364D01*
X76848228Y-39560057D01*
X76848231Y-39560055D01*
X76895056Y-39523609D01*
X76162575Y-38791128D01*
X76221853Y-38775245D01*
X76338147Y-38708102D01*
X76433102Y-38613147D01*
X76500245Y-38496853D01*
X76516128Y-38437575D01*
X77248434Y-39169882D01*
X77259861Y-39168697D01*
X77328573Y-39181360D01*
X77373092Y-39221194D01*
X77373683Y-39220735D01*
X77376218Y-39223992D01*
X77376456Y-39224205D01*
X77376831Y-39224780D01*
X77376836Y-39224785D01*
X77545256Y-39407738D01*
X77741491Y-39560474D01*
X77783842Y-39583393D01*
X77959332Y-39678364D01*
X77960190Y-39678828D01*
X78089476Y-39723212D01*
X78193964Y-39759083D01*
X78195386Y-39759571D01*
X78440665Y-39800500D01*
X78689335Y-39800500D01*
X78934614Y-39759571D01*
X79169810Y-39678828D01*
X79388509Y-39560474D01*
X79584744Y-39407738D01*
X79743771Y-39234988D01*
X79803657Y-39198999D01*
X79873495Y-39201099D01*
X79926228Y-39234988D01*
X80085256Y-39407738D01*
X80281491Y-39560474D01*
X80323842Y-39583393D01*
X80499332Y-39678364D01*
X80500190Y-39678828D01*
X80629476Y-39723212D01*
X80733964Y-39759083D01*
X80735386Y-39759571D01*
X80980665Y-39800500D01*
X81229335Y-39800500D01*
X81474614Y-39759571D01*
X81709810Y-39678828D01*
X81928509Y-39560474D01*
X82124744Y-39407738D01*
X82283771Y-39234988D01*
X82343657Y-39198999D01*
X82413495Y-39201099D01*
X82466228Y-39234988D01*
X82625256Y-39407738D01*
X82821491Y-39560474D01*
X82863842Y-39583393D01*
X83039332Y-39678364D01*
X83040190Y-39678828D01*
X83169476Y-39723212D01*
X83273964Y-39759083D01*
X83275386Y-39759571D01*
X83520665Y-39800500D01*
X83769335Y-39800500D01*
X84014614Y-39759571D01*
X84249810Y-39678828D01*
X84468509Y-39560474D01*
X84664744Y-39407738D01*
X84823771Y-39234988D01*
X84883657Y-39198999D01*
X84953495Y-39201099D01*
X85006228Y-39234988D01*
X85165256Y-39407738D01*
X85361491Y-39560474D01*
X85403842Y-39583393D01*
X85579332Y-39678364D01*
X85580190Y-39678828D01*
X85709476Y-39723212D01*
X85813964Y-39759083D01*
X85815386Y-39759571D01*
X86060665Y-39800500D01*
X86309335Y-39800500D01*
X86554614Y-39759571D01*
X86789810Y-39678828D01*
X87008509Y-39560474D01*
X87204744Y-39407738D01*
X87363771Y-39234988D01*
X87423657Y-39198999D01*
X87493495Y-39201099D01*
X87546228Y-39234988D01*
X87705256Y-39407738D01*
X87901491Y-39560474D01*
X87943842Y-39583393D01*
X88119332Y-39678364D01*
X88120190Y-39678828D01*
X88249476Y-39723212D01*
X88353964Y-39759083D01*
X88355386Y-39759571D01*
X88600665Y-39800500D01*
X88849335Y-39800500D01*
X89094614Y-39759571D01*
X89329810Y-39678828D01*
X89548509Y-39560474D01*
X89744744Y-39407738D01*
X89903771Y-39234988D01*
X89963657Y-39198999D01*
X90033495Y-39201099D01*
X90086228Y-39234988D01*
X90245256Y-39407738D01*
X90441491Y-39560474D01*
X90483842Y-39583393D01*
X90659332Y-39678364D01*
X90660190Y-39678828D01*
X90789476Y-39723212D01*
X90893964Y-39759083D01*
X90895386Y-39759571D01*
X91140665Y-39800500D01*
X91389335Y-39800500D01*
X91634614Y-39759571D01*
X91869810Y-39678828D01*
X92088509Y-39560474D01*
X92284744Y-39407738D01*
X92443771Y-39234988D01*
X92503657Y-39198999D01*
X92573495Y-39201099D01*
X92626228Y-39234988D01*
X92785256Y-39407738D01*
X92981491Y-39560474D01*
X93023842Y-39583393D01*
X93199332Y-39678364D01*
X93200190Y-39678828D01*
X93329476Y-39723212D01*
X93433964Y-39759083D01*
X93435386Y-39759571D01*
X93680665Y-39800500D01*
X93929335Y-39800500D01*
X94174614Y-39759571D01*
X94409810Y-39678828D01*
X94628509Y-39560474D01*
X94824744Y-39407738D01*
X94983771Y-39234988D01*
X95043657Y-39198999D01*
X95113495Y-39201099D01*
X95166228Y-39234988D01*
X95325256Y-39407738D01*
X95521491Y-39560474D01*
X95563842Y-39583393D01*
X95739332Y-39678364D01*
X95740190Y-39678828D01*
X95869476Y-39723212D01*
X95973964Y-39759083D01*
X95975386Y-39759571D01*
X96220665Y-39800500D01*
X96469335Y-39800500D01*
X96714614Y-39759571D01*
X96949810Y-39678828D01*
X97168509Y-39560474D01*
X97364744Y-39407738D01*
X97523771Y-39234988D01*
X97583657Y-39198999D01*
X97653495Y-39201099D01*
X97706228Y-39234988D01*
X97865256Y-39407738D01*
X98061491Y-39560474D01*
X98103842Y-39583393D01*
X98279332Y-39678364D01*
X98280190Y-39678828D01*
X98409476Y-39723212D01*
X98513964Y-39759083D01*
X98515386Y-39759571D01*
X98760665Y-39800500D01*
X99009335Y-39800500D01*
X99254614Y-39759571D01*
X99489810Y-39678828D01*
X99708509Y-39560474D01*
X99904744Y-39407738D01*
X100063771Y-39234988D01*
X100123657Y-39198999D01*
X100193495Y-39201099D01*
X100246228Y-39234988D01*
X100405256Y-39407738D01*
X100601491Y-39560474D01*
X100643842Y-39583393D01*
X100819332Y-39678364D01*
X100820190Y-39678828D01*
X100949476Y-39723212D01*
X101053964Y-39759083D01*
X101055386Y-39759571D01*
X101300665Y-39800500D01*
X101549335Y-39800500D01*
X101794614Y-39759571D01*
X102029810Y-39678828D01*
X102248509Y-39560474D01*
X102444744Y-39407738D01*
X102603771Y-39234988D01*
X102663657Y-39198999D01*
X102733495Y-39201099D01*
X102786228Y-39234988D01*
X102945256Y-39407738D01*
X103141491Y-39560474D01*
X103183842Y-39583393D01*
X103359332Y-39678364D01*
X103360190Y-39678828D01*
X103489476Y-39723212D01*
X103593964Y-39759083D01*
X103595386Y-39759571D01*
X103840665Y-39800500D01*
X104089335Y-39800500D01*
X104334614Y-39759571D01*
X104569810Y-39678828D01*
X104788509Y-39560474D01*
X104984744Y-39407738D01*
X105143771Y-39234988D01*
X105203657Y-39198999D01*
X105273495Y-39201099D01*
X105326228Y-39234988D01*
X105485256Y-39407738D01*
X105681491Y-39560474D01*
X105723842Y-39583393D01*
X105899332Y-39678364D01*
X105900190Y-39678828D01*
X106029476Y-39723212D01*
X106133964Y-39759083D01*
X106135386Y-39759571D01*
X106265211Y-39781234D01*
X106328095Y-39811684D01*
X106364535Y-39871299D01*
X106362961Y-39941150D01*
X106323871Y-39999062D01*
X106310079Y-40008970D01*
X106133957Y-40118020D01*
X105983237Y-40255418D01*
X105860327Y-40418178D01*
X105769422Y-40600739D01*
X105769417Y-40600752D01*
X105713603Y-40796917D01*
X105694437Y-41003745D01*
X105668651Y-41068682D01*
X105658647Y-41079984D01*
X98675451Y-48063181D01*
X98614128Y-48096666D01*
X98587770Y-48099500D01*
X98498024Y-48099500D01*
X98297544Y-48136976D01*
X98297541Y-48136976D01*
X98297541Y-48136977D01*
X98107364Y-48210651D01*
X98107357Y-48210655D01*
X97933960Y-48318017D01*
X97933958Y-48318019D01*
X97783237Y-48455418D01*
X97660327Y-48618178D01*
X97569422Y-48800739D01*
X97569417Y-48800752D01*
X97513602Y-48996917D01*
X97494785Y-49199999D01*
X97494785Y-49200000D01*
X97513602Y-49403082D01*
X97569417Y-49599247D01*
X97569422Y-49599260D01*
X97660327Y-49781821D01*
X97783237Y-49944581D01*
X97933958Y-50081980D01*
X97933960Y-50081982D01*
X97992159Y-50118017D01*
X98107363Y-50189348D01*
X98297544Y-50263024D01*
X98498024Y-50300500D01*
X98498026Y-50300500D01*
X98701974Y-50300500D01*
X98701976Y-50300500D01*
X98902456Y-50263024D01*
X99092637Y-50189348D01*
X99266041Y-50081981D01*
X99416764Y-49944579D01*
X99539673Y-49781821D01*
X99630582Y-49599250D01*
X99686397Y-49403083D01*
X99705215Y-49200000D01*
X99705214Y-49199999D01*
X99705562Y-49196254D01*
X99731348Y-49131317D01*
X99741344Y-49120022D01*
X100857848Y-48003518D01*
X100919169Y-47970035D01*
X100988861Y-47975019D01*
X101044794Y-48016891D01*
X101064793Y-48057266D01*
X101119417Y-48249247D01*
X101119422Y-48249260D01*
X101210327Y-48431821D01*
X101333237Y-48594581D01*
X101483958Y-48731980D01*
X101483960Y-48731982D01*
X101511733Y-48749178D01*
X101657363Y-48839348D01*
X101847544Y-48913024D01*
X102048024Y-48950500D01*
X102048026Y-48950500D01*
X102251974Y-48950500D01*
X102251976Y-48950500D01*
X102452456Y-48913024D01*
X102642637Y-48839348D01*
X102816041Y-48731981D01*
X102944122Y-48615219D01*
X102966762Y-48594581D01*
X102966764Y-48594579D01*
X103089673Y-48431821D01*
X103180582Y-48249250D01*
X103236397Y-48053083D01*
X103255215Y-47850000D01*
X103255214Y-47849999D01*
X103255562Y-47846254D01*
X103281348Y-47781317D01*
X103291344Y-47770022D01*
X106874548Y-44186819D01*
X106935871Y-44153334D01*
X106962229Y-44150500D01*
X107741693Y-44150500D01*
X107808732Y-44170185D01*
X107825231Y-44182863D01*
X107933958Y-44281980D01*
X107933960Y-44281982D01*
X108033141Y-44343392D01*
X108107363Y-44389348D01*
X108297544Y-44463024D01*
X108498024Y-44500500D01*
X108498026Y-44500500D01*
X108701974Y-44500500D01*
X108701976Y-44500500D01*
X108902456Y-44463024D01*
X109092637Y-44389348D01*
X109266041Y-44281981D01*
X109416764Y-44144579D01*
X109539673Y-43981821D01*
X109630582Y-43799250D01*
X109686397Y-43603083D01*
X109705215Y-43400000D01*
X109698088Y-43323091D01*
X109686397Y-43196917D01*
X109650663Y-43071328D01*
X109630582Y-43000750D01*
X109539673Y-42818179D01*
X109416764Y-42655421D01*
X109416762Y-42655418D01*
X109266041Y-42518019D01*
X109266039Y-42518017D01*
X109092642Y-42410655D01*
X109092635Y-42410651D01*
X108950605Y-42355629D01*
X108902456Y-42336976D01*
X108701976Y-42299500D01*
X108498024Y-42299500D01*
X108297544Y-42336976D01*
X108297541Y-42336976D01*
X108297541Y-42336977D01*
X108107364Y-42410651D01*
X108107357Y-42410655D01*
X107933960Y-42518017D01*
X107933958Y-42518019D01*
X107825231Y-42617137D01*
X107762427Y-42647754D01*
X107741693Y-42649500D01*
X106526071Y-42649500D01*
X106522412Y-42649860D01*
X106520515Y-42649500D01*
X106519990Y-42649500D01*
X106519990Y-42649400D01*
X106453767Y-42636834D01*
X106403063Y-42588763D01*
X106386396Y-42520910D01*
X106409059Y-42454818D01*
X106422585Y-42438781D01*
X106724548Y-42136818D01*
X106785871Y-42103334D01*
X106812229Y-42100500D01*
X106901974Y-42100500D01*
X106901976Y-42100500D01*
X107102456Y-42063024D01*
X107292637Y-41989348D01*
X107466041Y-41881981D01*
X107616764Y-41744579D01*
X107739673Y-41581821D01*
X107830582Y-41399250D01*
X107886397Y-41203083D01*
X107905215Y-41000000D01*
X107902481Y-40970500D01*
X107886397Y-40796917D01*
X107871484Y-40744505D01*
X107830582Y-40600750D01*
X107790622Y-40520500D01*
X107775707Y-40490546D01*
X107739673Y-40418179D01*
X107650432Y-40300005D01*
X107616762Y-40255418D01*
X107466041Y-40118019D01*
X107466039Y-40118017D01*
X107292642Y-40010655D01*
X107292635Y-40010651D01*
X107102454Y-39936975D01*
X107082740Y-39933290D01*
X107020459Y-39901622D01*
X106985187Y-39841309D01*
X106988121Y-39771501D01*
X107028331Y-39714361D01*
X107065260Y-39694121D01*
X107109810Y-39678828D01*
X107328509Y-39560474D01*
X107524744Y-39407738D01*
X107683771Y-39234988D01*
X107743657Y-39198999D01*
X107813495Y-39201099D01*
X107866228Y-39234988D01*
X108025256Y-39407738D01*
X108147764Y-39503090D01*
X108221488Y-39560472D01*
X108221497Y-39560478D01*
X108312228Y-39609578D01*
X108361820Y-39658797D01*
X108367773Y-39671180D01*
X108370940Y-39678827D01*
X108379916Y-39700495D01*
X108395093Y-39723209D01*
X108395094Y-39723212D01*
X108462046Y-39823414D01*
X108462052Y-39823421D01*
X110013181Y-41374549D01*
X110046666Y-41435872D01*
X110049500Y-41462230D01*
X110049500Y-45873918D01*
X110049500Y-45873920D01*
X110049499Y-45873920D01*
X110078340Y-46018907D01*
X110078343Y-46018917D01*
X110134914Y-46155492D01*
X110134915Y-46155494D01*
X110134916Y-46155495D01*
X110140275Y-46163516D01*
X110167812Y-46204727D01*
X110167813Y-46204730D01*
X110217046Y-46278414D01*
X110217052Y-46278421D01*
X112358647Y-48420014D01*
X112392132Y-48481337D01*
X112394437Y-48496253D01*
X112407023Y-48632071D01*
X112413603Y-48703083D01*
X112426719Y-48749181D01*
X112469417Y-48899247D01*
X112469422Y-48899260D01*
X112560327Y-49081821D01*
X112683237Y-49244581D01*
X112833958Y-49381980D01*
X112833960Y-49381982D01*
X112868038Y-49403082D01*
X113007363Y-49489348D01*
X113197544Y-49563024D01*
X113398024Y-49600500D01*
X113398026Y-49600500D01*
X113601974Y-49600500D01*
X113601976Y-49600500D01*
X113802456Y-49563024D01*
X113980706Y-49493969D01*
X114050330Y-49488108D01*
X114112070Y-49520818D01*
X114146325Y-49581715D01*
X114149500Y-49609597D01*
X114149500Y-60483918D01*
X114149500Y-60483920D01*
X114149499Y-60483920D01*
X114178340Y-60628907D01*
X114178343Y-60628917D01*
X114234914Y-60765492D01*
X114267812Y-60814727D01*
X114267813Y-60814730D01*
X114317046Y-60888414D01*
X114317052Y-60888421D01*
X115618849Y-62190217D01*
X115652334Y-62251540D01*
X115651374Y-62308336D01*
X115634789Y-62373829D01*
X115634789Y-62373832D01*
X115614392Y-62619994D01*
X115614392Y-62620005D01*
X115634789Y-62866165D01*
X115695428Y-63105623D01*
X115761156Y-63255469D01*
X115794652Y-63331831D01*
X115877513Y-63458659D01*
X115927770Y-63535584D01*
X115929755Y-63538621D01*
X116097052Y-63720355D01*
X116097055Y-63720357D01*
X116097058Y-63720360D01*
X116291971Y-63872067D01*
X116291977Y-63872071D01*
X116291980Y-63872073D01*
X116431950Y-63947821D01*
X116508376Y-63989181D01*
X116509221Y-63989638D01*
X116630536Y-64031285D01*
X116742846Y-64069842D01*
X116742848Y-64069842D01*
X116742850Y-64069843D01*
X116986494Y-64110500D01*
X116986495Y-64110500D01*
X117233505Y-64110500D01*
X117233506Y-64110500D01*
X117477150Y-64069843D01*
X117710779Y-63989638D01*
X117928020Y-63872073D01*
X117928559Y-63871654D01*
X118059147Y-63770013D01*
X118122948Y-63720355D01*
X118288772Y-63540220D01*
X118348657Y-63504232D01*
X118418495Y-63506332D01*
X118471227Y-63540220D01*
X118637052Y-63720355D01*
X118637055Y-63720357D01*
X118637058Y-63720360D01*
X118831971Y-63872067D01*
X118831977Y-63872071D01*
X118831980Y-63872073D01*
X118971950Y-63947821D01*
X119048376Y-63989181D01*
X119049221Y-63989638D01*
X119170536Y-64031285D01*
X119282846Y-64069842D01*
X119282848Y-64069842D01*
X119282850Y-64069843D01*
X119526494Y-64110500D01*
X119526495Y-64110500D01*
X119773505Y-64110500D01*
X119773506Y-64110500D01*
X120017150Y-64069843D01*
X120250779Y-63989638D01*
X120468020Y-63872073D01*
X120468559Y-63871654D01*
X120599147Y-63770013D01*
X120662948Y-63720355D01*
X120830245Y-63538621D01*
X120832223Y-63535592D01*
X120833352Y-63534628D01*
X120833397Y-63534572D01*
X120833408Y-63534581D01*
X120885365Y-63490232D01*
X120948830Y-63480068D01*
X120973790Y-63482656D01*
X121581304Y-62875141D01*
X121605116Y-62932627D01*
X121677345Y-63040725D01*
X121769275Y-63132655D01*
X121877373Y-63204884D01*
X121934857Y-63228694D01*
X121327068Y-63836483D01*
X121372256Y-63871653D01*
X121589421Y-63989178D01*
X121589429Y-63989181D01*
X121822970Y-64069356D01*
X122066535Y-64110000D01*
X122313465Y-64110000D01*
X122557029Y-64069356D01*
X122790570Y-63989181D01*
X122790578Y-63989178D01*
X123007743Y-63871654D01*
X123052930Y-63836483D01*
X122445142Y-63228695D01*
X122502627Y-63204884D01*
X122610725Y-63132655D01*
X122702655Y-63040725D01*
X122774884Y-62932627D01*
X122798694Y-62875142D01*
X123406208Y-63482656D01*
X123431170Y-63480068D01*
X123499883Y-63492731D01*
X123547770Y-63535583D01*
X123549755Y-63538621D01*
X123717052Y-63720355D01*
X123717055Y-63720357D01*
X123717058Y-63720360D01*
X123911971Y-63872067D01*
X123911977Y-63872071D01*
X123911980Y-63872073D01*
X124051950Y-63947821D01*
X124128376Y-63989181D01*
X124129221Y-63989638D01*
X124250536Y-64031285D01*
X124362846Y-64069842D01*
X124362848Y-64069842D01*
X124362850Y-64069843D01*
X124606494Y-64110500D01*
X124606495Y-64110500D01*
X124853505Y-64110500D01*
X124853506Y-64110500D01*
X125097150Y-64069843D01*
X125330779Y-63989638D01*
X125548020Y-63872073D01*
X125548559Y-63871654D01*
X125679147Y-63770013D01*
X125742948Y-63720355D01*
X125908772Y-63540220D01*
X125968657Y-63504232D01*
X126038495Y-63506332D01*
X126091227Y-63540220D01*
X126257052Y-63720355D01*
X126257055Y-63720357D01*
X126257058Y-63720360D01*
X126451971Y-63872067D01*
X126451977Y-63872071D01*
X126451980Y-63872073D01*
X126591950Y-63947821D01*
X126668376Y-63989181D01*
X126669221Y-63989638D01*
X126790536Y-64031285D01*
X126902846Y-64069842D01*
X126902848Y-64069842D01*
X126902850Y-64069843D01*
X127146494Y-64110500D01*
X127146495Y-64110500D01*
X127393505Y-64110500D01*
X127393506Y-64110500D01*
X127637150Y-64069843D01*
X127870779Y-63989638D01*
X128088020Y-63872073D01*
X128088559Y-63871654D01*
X128219147Y-63770013D01*
X128282948Y-63720355D01*
X128448772Y-63540220D01*
X128508657Y-63504232D01*
X128578495Y-63506332D01*
X128631227Y-63540220D01*
X128797052Y-63720355D01*
X128797055Y-63720357D01*
X128797058Y-63720360D01*
X128991971Y-63872067D01*
X128991977Y-63872071D01*
X128991980Y-63872073D01*
X129131950Y-63947821D01*
X129208376Y-63989181D01*
X129209221Y-63989638D01*
X129330536Y-64031285D01*
X129442846Y-64069842D01*
X129442848Y-64069842D01*
X129442850Y-64069843D01*
X129686494Y-64110500D01*
X129686495Y-64110500D01*
X129933505Y-64110500D01*
X129933506Y-64110500D01*
X130177150Y-64069843D01*
X130410779Y-63989638D01*
X130628020Y-63872073D01*
X130628559Y-63871654D01*
X130759147Y-63770013D01*
X130822948Y-63720355D01*
X130988772Y-63540220D01*
X131048657Y-63504232D01*
X131118495Y-63506332D01*
X131171227Y-63540220D01*
X131337052Y-63720355D01*
X131337055Y-63720357D01*
X131337058Y-63720360D01*
X131531971Y-63872067D01*
X131531977Y-63872071D01*
X131531980Y-63872073D01*
X131671950Y-63947821D01*
X131748376Y-63989181D01*
X131749221Y-63989638D01*
X131870536Y-64031285D01*
X131982846Y-64069842D01*
X131982848Y-64069842D01*
X131982850Y-64069843D01*
X132226494Y-64110500D01*
X132226495Y-64110500D01*
X132473505Y-64110500D01*
X132473506Y-64110500D01*
X132717150Y-64069843D01*
X132950779Y-63989638D01*
X133168020Y-63872073D01*
X133168559Y-63871654D01*
X133299147Y-63770013D01*
X133362948Y-63720355D01*
X133530245Y-63538621D01*
X133532223Y-63535592D01*
X133533352Y-63534628D01*
X133533397Y-63534572D01*
X133533408Y-63534581D01*
X133585365Y-63490232D01*
X133648830Y-63480068D01*
X133673790Y-63482656D01*
X134281304Y-62875141D01*
X134305116Y-62932627D01*
X134377345Y-63040725D01*
X134469275Y-63132655D01*
X134577373Y-63204884D01*
X134634857Y-63228694D01*
X134027068Y-63836483D01*
X134072256Y-63871653D01*
X134289421Y-63989178D01*
X134289429Y-63989181D01*
X134522970Y-64069356D01*
X134766535Y-64110000D01*
X135013465Y-64110000D01*
X135257029Y-64069356D01*
X135490570Y-63989181D01*
X135490578Y-63989178D01*
X135707743Y-63871654D01*
X135752930Y-63836483D01*
X135145142Y-63228695D01*
X135202627Y-63204884D01*
X135310725Y-63132655D01*
X135402655Y-63040725D01*
X135474884Y-62932627D01*
X135498694Y-62875142D01*
X136106209Y-63482657D01*
X136183083Y-63364994D01*
X139144357Y-63364994D01*
X139144357Y-63365005D01*
X139164890Y-63612812D01*
X139164892Y-63612824D01*
X139225936Y-63853881D01*
X139325826Y-64081606D01*
X139461833Y-64289782D01*
X139461836Y-64289785D01*
X139630256Y-64472738D01*
X139826491Y-64625474D01*
X140045190Y-64743828D01*
X140280386Y-64824571D01*
X140525665Y-64865500D01*
X140774335Y-64865500D01*
X141019614Y-64824571D01*
X141254810Y-64743828D01*
X141473509Y-64625474D01*
X141669744Y-64472738D01*
X141838164Y-64289785D01*
X141974173Y-64081607D01*
X142074063Y-63853881D01*
X142135108Y-63612821D01*
X142141124Y-63540222D01*
X142155643Y-63365005D01*
X142155643Y-63364994D01*
X142135109Y-63117187D01*
X142135107Y-63117175D01*
X142074063Y-62876118D01*
X141974174Y-62648396D01*
X141974173Y-62648393D01*
X141843256Y-62448009D01*
X141823070Y-62381122D01*
X141842250Y-62313936D01*
X141887642Y-62271356D01*
X141892323Y-62268798D01*
X141892331Y-62268796D01*
X142007546Y-62182546D01*
X142093796Y-62067331D01*
X142144091Y-61932483D01*
X142150500Y-61872873D01*
X142150499Y-59777128D01*
X142144091Y-59717517D01*
X142130794Y-59681867D01*
X142093797Y-59582671D01*
X142093793Y-59582664D01*
X142007547Y-59467455D01*
X142007544Y-59467452D01*
X141892335Y-59381206D01*
X141892328Y-59381202D01*
X141757482Y-59330908D01*
X141757483Y-59330908D01*
X141697883Y-59324501D01*
X141697881Y-59324500D01*
X141697873Y-59324500D01*
X141697864Y-59324500D01*
X139602129Y-59324500D01*
X139602123Y-59324501D01*
X139542516Y-59330908D01*
X139407671Y-59381202D01*
X139407664Y-59381206D01*
X139292455Y-59467452D01*
X139292452Y-59467455D01*
X139206206Y-59582664D01*
X139206202Y-59582671D01*
X139155908Y-59717517D01*
X139149501Y-59777116D01*
X139149501Y-59777123D01*
X139149500Y-59777135D01*
X139149500Y-61872870D01*
X139149501Y-61872876D01*
X139155908Y-61932483D01*
X139206202Y-62067328D01*
X139206206Y-62067335D01*
X139292452Y-62182544D01*
X139292455Y-62182547D01*
X139407664Y-62268793D01*
X139412361Y-62271358D01*
X139461766Y-62320764D01*
X139476617Y-62389037D01*
X139456742Y-62448011D01*
X139325826Y-62648393D01*
X139225936Y-62876118D01*
X139164892Y-63117175D01*
X139164890Y-63117187D01*
X139144357Y-63364994D01*
X136183083Y-63364994D01*
X136204904Y-63331595D01*
X136204909Y-63331587D01*
X136304098Y-63105460D01*
X136364715Y-62866090D01*
X136364717Y-62866079D01*
X136385107Y-62620006D01*
X136385107Y-62619993D01*
X136364717Y-62373920D01*
X136364715Y-62373909D01*
X136304098Y-62134539D01*
X136204906Y-61908406D01*
X136106209Y-61757341D01*
X135498694Y-62364856D01*
X135474884Y-62307373D01*
X135402655Y-62199275D01*
X135310725Y-62107345D01*
X135202627Y-62035116D01*
X135145142Y-62011305D01*
X135752931Y-61403516D01*
X135752931Y-61403515D01*
X135707743Y-61368346D01*
X135490578Y-61250821D01*
X135490570Y-61250818D01*
X135257029Y-61170643D01*
X135013465Y-61130000D01*
X134766535Y-61130000D01*
X134522970Y-61170643D01*
X134289429Y-61250818D01*
X134289421Y-61250821D01*
X134072252Y-61368348D01*
X134072251Y-61368349D01*
X134027068Y-61403514D01*
X134027068Y-61403516D01*
X134634857Y-62011305D01*
X134577373Y-62035116D01*
X134469275Y-62107345D01*
X134377345Y-62199275D01*
X134305116Y-62307373D01*
X134281305Y-62364857D01*
X133673790Y-61757342D01*
X133648827Y-61759931D01*
X133580115Y-61747266D01*
X133532223Y-61704407D01*
X133530245Y-61701379D01*
X133362948Y-61519645D01*
X133362943Y-61519641D01*
X133362941Y-61519639D01*
X133168028Y-61367932D01*
X133168022Y-61367928D01*
X132950780Y-61250362D01*
X132950771Y-61250359D01*
X132717153Y-61170157D01*
X132534417Y-61139664D01*
X132473506Y-61129500D01*
X132226494Y-61129500D01*
X132177765Y-61137631D01*
X131982846Y-61170157D01*
X131749228Y-61250359D01*
X131749219Y-61250362D01*
X131531977Y-61367928D01*
X131531971Y-61367932D01*
X131337058Y-61519639D01*
X131337055Y-61519642D01*
X131337052Y-61519644D01*
X131337052Y-61519645D01*
X131300407Y-61559453D01*
X131171230Y-61699777D01*
X131111343Y-61735767D01*
X131041505Y-61733667D01*
X130988770Y-61699777D01*
X130822948Y-61519645D01*
X130822943Y-61519641D01*
X130822941Y-61519639D01*
X130628028Y-61367932D01*
X130628022Y-61367928D01*
X130410780Y-61250362D01*
X130410771Y-61250359D01*
X130177153Y-61170157D01*
X129994417Y-61139664D01*
X129933506Y-61129500D01*
X129686494Y-61129500D01*
X129637765Y-61137631D01*
X129442846Y-61170157D01*
X129209228Y-61250359D01*
X129209219Y-61250362D01*
X128991977Y-61367928D01*
X128991971Y-61367932D01*
X128797058Y-61519639D01*
X128797055Y-61519642D01*
X128797052Y-61519644D01*
X128797052Y-61519645D01*
X128760407Y-61559453D01*
X128631230Y-61699777D01*
X128571343Y-61735767D01*
X128501505Y-61733667D01*
X128448770Y-61699777D01*
X128282948Y-61519645D01*
X128282943Y-61519641D01*
X128282941Y-61519639D01*
X128088028Y-61367932D01*
X128088022Y-61367928D01*
X127870780Y-61250362D01*
X127870771Y-61250359D01*
X127637153Y-61170157D01*
X127454417Y-61139664D01*
X127393506Y-61129500D01*
X127146494Y-61129500D01*
X127097765Y-61137631D01*
X126902846Y-61170157D01*
X126669228Y-61250359D01*
X126669219Y-61250362D01*
X126451977Y-61367928D01*
X126451971Y-61367932D01*
X126257058Y-61519639D01*
X126257055Y-61519642D01*
X126257052Y-61519644D01*
X126257052Y-61519645D01*
X126220407Y-61559453D01*
X126091230Y-61699777D01*
X126031343Y-61735767D01*
X125961505Y-61733667D01*
X125908770Y-61699777D01*
X125742948Y-61519645D01*
X125742943Y-61519641D01*
X125742941Y-61519639D01*
X125548028Y-61367932D01*
X125548022Y-61367928D01*
X125330780Y-61250362D01*
X125330771Y-61250359D01*
X125097153Y-61170157D01*
X124914417Y-61139664D01*
X124853506Y-61129500D01*
X124606494Y-61129500D01*
X124557765Y-61137631D01*
X124362846Y-61170157D01*
X124129228Y-61250359D01*
X124129219Y-61250362D01*
X123911977Y-61367928D01*
X123911971Y-61367932D01*
X123717058Y-61519639D01*
X123717055Y-61519642D01*
X123717052Y-61519644D01*
X123717052Y-61519645D01*
X123625735Y-61618842D01*
X123549753Y-61701381D01*
X123547767Y-61704421D01*
X123546635Y-61705386D01*
X123546604Y-61705427D01*
X123546595Y-61705420D01*
X123494617Y-61749774D01*
X123431172Y-61759931D01*
X123406208Y-61757342D01*
X122798694Y-62364856D01*
X122774884Y-62307373D01*
X122702655Y-62199275D01*
X122610725Y-62107345D01*
X122502627Y-62035116D01*
X122445142Y-62011305D01*
X123052931Y-61403516D01*
X123052931Y-61403515D01*
X123007743Y-61368346D01*
X122790578Y-61250821D01*
X122790570Y-61250818D01*
X122557029Y-61170643D01*
X122313465Y-61130000D01*
X122066535Y-61130000D01*
X121822970Y-61170643D01*
X121589429Y-61250818D01*
X121589421Y-61250821D01*
X121372252Y-61368348D01*
X121372251Y-61368349D01*
X121327068Y-61403514D01*
X121327068Y-61403516D01*
X121934857Y-62011305D01*
X121877373Y-62035116D01*
X121769275Y-62107345D01*
X121677345Y-62199275D01*
X121605116Y-62307373D01*
X121581305Y-62364857D01*
X120973790Y-61757342D01*
X120948827Y-61759931D01*
X120880115Y-61747266D01*
X120832223Y-61704407D01*
X120830245Y-61701379D01*
X120662948Y-61519645D01*
X120662943Y-61519641D01*
X120662941Y-61519639D01*
X120468028Y-61367932D01*
X120468022Y-61367928D01*
X120250780Y-61250362D01*
X120250771Y-61250359D01*
X120017153Y-61170157D01*
X119834417Y-61139664D01*
X119773506Y-61129500D01*
X119526494Y-61129500D01*
X119327531Y-61162701D01*
X119258165Y-61154319D01*
X119219440Y-61128073D01*
X118005557Y-59914190D01*
X116786819Y-58695451D01*
X116753334Y-58634128D01*
X116750500Y-58607770D01*
X116750500Y-54364994D01*
X139144357Y-54364994D01*
X139144357Y-54365005D01*
X139164890Y-54612812D01*
X139164892Y-54612824D01*
X139225936Y-54853881D01*
X139325826Y-55081606D01*
X139461833Y-55289782D01*
X139461836Y-55289785D01*
X139630256Y-55472738D01*
X139826491Y-55625474D01*
X140045190Y-55743828D01*
X140280386Y-55824571D01*
X140525665Y-55865500D01*
X140774335Y-55865500D01*
X141019614Y-55824571D01*
X141254810Y-55743828D01*
X141473509Y-55625474D01*
X141669744Y-55472738D01*
X141838164Y-55289785D01*
X141974173Y-55081607D01*
X142074063Y-54853881D01*
X142135108Y-54612821D01*
X142155643Y-54365000D01*
X142135108Y-54117179D01*
X142074063Y-53876119D01*
X141974173Y-53648393D01*
X141843256Y-53448009D01*
X141823070Y-53381122D01*
X141842250Y-53313936D01*
X141887642Y-53271356D01*
X141892323Y-53268798D01*
X141892331Y-53268796D01*
X142007546Y-53182546D01*
X142093796Y-53067331D01*
X142144091Y-52932483D01*
X142150500Y-52872873D01*
X142150499Y-50777128D01*
X142144091Y-50717517D01*
X142093796Y-50582669D01*
X142093795Y-50582668D01*
X142093793Y-50582664D01*
X142007547Y-50467455D01*
X142007544Y-50467452D01*
X141892335Y-50381206D01*
X141892328Y-50381202D01*
X141757482Y-50330908D01*
X141757483Y-50330908D01*
X141697883Y-50324501D01*
X141697881Y-50324500D01*
X141697873Y-50324500D01*
X141697864Y-50324500D01*
X139602129Y-50324500D01*
X139602123Y-50324501D01*
X139542516Y-50330908D01*
X139407671Y-50381202D01*
X139407664Y-50381206D01*
X139292455Y-50467452D01*
X139292452Y-50467455D01*
X139206206Y-50582664D01*
X139206202Y-50582671D01*
X139155908Y-50717517D01*
X139149501Y-50777116D01*
X139149501Y-50777123D01*
X139149500Y-50777135D01*
X139149500Y-52872870D01*
X139149501Y-52872876D01*
X139155908Y-52932483D01*
X139206202Y-53067328D01*
X139206206Y-53067335D01*
X139292452Y-53182544D01*
X139292455Y-53182547D01*
X139407664Y-53268793D01*
X139412361Y-53271358D01*
X139461766Y-53320764D01*
X139476617Y-53389037D01*
X139456742Y-53448011D01*
X139325826Y-53648393D01*
X139225936Y-53876118D01*
X139164892Y-54117175D01*
X139164890Y-54117187D01*
X139144357Y-54364994D01*
X116750500Y-54364994D01*
X116750500Y-51859738D01*
X116770185Y-51792699D01*
X116790962Y-51768101D01*
X116801938Y-51758093D01*
X116816764Y-51744579D01*
X116939673Y-51581821D01*
X117030582Y-51399250D01*
X117086397Y-51203083D01*
X117105215Y-51000000D01*
X117086397Y-50796917D01*
X117030582Y-50600750D01*
X117021576Y-50582664D01*
X116964208Y-50467452D01*
X116939673Y-50418179D01*
X116816764Y-50255421D01*
X116816762Y-50255418D01*
X116666041Y-50118019D01*
X116666039Y-50118017D01*
X116492642Y-50010655D01*
X116492635Y-50010651D01*
X116349498Y-49955200D01*
X116302456Y-49936976D01*
X116101976Y-49899500D01*
X115898024Y-49899500D01*
X115869169Y-49904893D01*
X115797284Y-49918331D01*
X115727769Y-49911299D01*
X115673091Y-49867802D01*
X115650609Y-49801648D01*
X115650500Y-49796442D01*
X115650500Y-48287698D01*
X115670185Y-48220659D01*
X115722989Y-48174904D01*
X115792147Y-48164960D01*
X115855703Y-48193985D01*
X115878309Y-48219877D01*
X115929750Y-48298615D01*
X115929753Y-48298619D01*
X115929755Y-48298621D01*
X116097052Y-48480355D01*
X116097055Y-48480357D01*
X116097058Y-48480360D01*
X116291971Y-48632067D01*
X116291977Y-48632071D01*
X116291980Y-48632073D01*
X116423193Y-48703082D01*
X116508376Y-48749181D01*
X116509221Y-48749638D01*
X116630536Y-48791285D01*
X116742846Y-48829842D01*
X116742848Y-48829842D01*
X116742850Y-48829843D01*
X116986494Y-48870500D01*
X116986495Y-48870500D01*
X117233505Y-48870500D01*
X117233506Y-48870500D01*
X117477150Y-48829843D01*
X117710779Y-48749638D01*
X117928020Y-48632073D01*
X117928559Y-48631654D01*
X118121686Y-48481337D01*
X118122948Y-48480355D01*
X118288772Y-48300220D01*
X118348657Y-48264232D01*
X118418495Y-48266332D01*
X118471227Y-48300220D01*
X118637052Y-48480355D01*
X118637055Y-48480357D01*
X118637058Y-48480360D01*
X118831971Y-48632067D01*
X118831977Y-48632071D01*
X118831980Y-48632073D01*
X118963193Y-48703082D01*
X119048376Y-48749181D01*
X119049221Y-48749638D01*
X119170536Y-48791285D01*
X119282846Y-48829842D01*
X119282848Y-48829842D01*
X119282850Y-48829843D01*
X119526494Y-48870500D01*
X119526495Y-48870500D01*
X119773505Y-48870500D01*
X119773506Y-48870500D01*
X120017150Y-48829843D01*
X120250779Y-48749638D01*
X120468020Y-48632073D01*
X120468559Y-48631654D01*
X120661686Y-48481337D01*
X120662948Y-48480355D01*
X120828772Y-48300220D01*
X120888657Y-48264232D01*
X120958495Y-48266332D01*
X121011227Y-48300220D01*
X121177052Y-48480355D01*
X121177055Y-48480357D01*
X121177058Y-48480360D01*
X121371971Y-48632067D01*
X121371977Y-48632071D01*
X121371980Y-48632073D01*
X121503193Y-48703082D01*
X121588376Y-48749181D01*
X121589221Y-48749638D01*
X121710536Y-48791285D01*
X121822846Y-48829842D01*
X121822848Y-48829842D01*
X121822850Y-48829843D01*
X122066494Y-48870500D01*
X122066495Y-48870500D01*
X122313505Y-48870500D01*
X122313506Y-48870500D01*
X122557150Y-48829843D01*
X122790779Y-48749638D01*
X123008020Y-48632073D01*
X123008559Y-48631654D01*
X123201686Y-48481337D01*
X123202948Y-48480355D01*
X123368772Y-48300220D01*
X123428657Y-48264232D01*
X123498495Y-48266332D01*
X123551227Y-48300220D01*
X123717052Y-48480355D01*
X123717055Y-48480357D01*
X123717058Y-48480360D01*
X123911971Y-48632067D01*
X123911977Y-48632071D01*
X123911980Y-48632073D01*
X124043193Y-48703082D01*
X124128376Y-48749181D01*
X124129221Y-48749638D01*
X124250536Y-48791285D01*
X124362846Y-48829842D01*
X124362848Y-48829842D01*
X124362850Y-48829843D01*
X124606494Y-48870500D01*
X124606495Y-48870500D01*
X124853505Y-48870500D01*
X124853506Y-48870500D01*
X125097150Y-48829843D01*
X125330779Y-48749638D01*
X125548020Y-48632073D01*
X125548559Y-48631654D01*
X125741686Y-48481337D01*
X125742948Y-48480355D01*
X125908772Y-48300220D01*
X125968657Y-48264232D01*
X126038495Y-48266332D01*
X126091227Y-48300220D01*
X126257052Y-48480355D01*
X126257055Y-48480357D01*
X126257058Y-48480360D01*
X126451971Y-48632067D01*
X126451977Y-48632071D01*
X126451980Y-48632073D01*
X126583193Y-48703082D01*
X126668376Y-48749181D01*
X126669221Y-48749638D01*
X126790536Y-48791285D01*
X126902846Y-48829842D01*
X126902848Y-48829842D01*
X126902850Y-48829843D01*
X127146494Y-48870500D01*
X127146495Y-48870500D01*
X127393505Y-48870500D01*
X127393506Y-48870500D01*
X127637150Y-48829843D01*
X127870779Y-48749638D01*
X128088020Y-48632073D01*
X128088559Y-48631654D01*
X128281686Y-48481337D01*
X128282948Y-48480355D01*
X128448772Y-48300220D01*
X128508657Y-48264232D01*
X128578495Y-48266332D01*
X128631227Y-48300220D01*
X128797052Y-48480355D01*
X128797055Y-48480357D01*
X128797058Y-48480360D01*
X128991971Y-48632067D01*
X128991977Y-48632071D01*
X128991980Y-48632073D01*
X129123193Y-48703082D01*
X129208376Y-48749181D01*
X129209221Y-48749638D01*
X129330536Y-48791285D01*
X129442846Y-48829842D01*
X129442848Y-48829842D01*
X129442850Y-48829843D01*
X129686494Y-48870500D01*
X129686495Y-48870500D01*
X129933505Y-48870500D01*
X129933506Y-48870500D01*
X130177150Y-48829843D01*
X130410779Y-48749638D01*
X130628020Y-48632073D01*
X130628559Y-48631654D01*
X130821686Y-48481337D01*
X130822948Y-48480355D01*
X130988772Y-48300220D01*
X131048657Y-48264232D01*
X131118495Y-48266332D01*
X131171227Y-48300220D01*
X131337052Y-48480355D01*
X131337055Y-48480357D01*
X131337058Y-48480360D01*
X131531971Y-48632067D01*
X131531977Y-48632071D01*
X131531980Y-48632073D01*
X131663193Y-48703082D01*
X131748376Y-48749181D01*
X131749221Y-48749638D01*
X131870536Y-48791285D01*
X131982846Y-48829842D01*
X131982848Y-48829842D01*
X131982850Y-48829843D01*
X132226494Y-48870500D01*
X132226495Y-48870500D01*
X132473505Y-48870500D01*
X132473506Y-48870500D01*
X132717150Y-48829843D01*
X132950779Y-48749638D01*
X133168020Y-48632073D01*
X133168559Y-48631654D01*
X133361686Y-48481337D01*
X133362948Y-48480355D01*
X133530245Y-48298621D01*
X133532223Y-48295592D01*
X133533352Y-48294628D01*
X133533397Y-48294572D01*
X133533408Y-48294581D01*
X133585365Y-48250232D01*
X133648830Y-48240068D01*
X133673790Y-48242656D01*
X134281304Y-47635141D01*
X134305116Y-47692627D01*
X134377345Y-47800725D01*
X134469275Y-47892655D01*
X134577373Y-47964884D01*
X134634857Y-47988694D01*
X134027068Y-48596483D01*
X134072256Y-48631653D01*
X134289421Y-48749178D01*
X134289429Y-48749181D01*
X134522970Y-48829356D01*
X134766535Y-48870000D01*
X135013465Y-48870000D01*
X135257029Y-48829356D01*
X135490570Y-48749181D01*
X135490578Y-48749178D01*
X135707743Y-48631654D01*
X135752930Y-48596483D01*
X135145142Y-47988695D01*
X135202627Y-47964884D01*
X135310725Y-47892655D01*
X135402655Y-47800725D01*
X135474884Y-47692627D01*
X135498694Y-47635142D01*
X136106209Y-48242657D01*
X136204904Y-48091595D01*
X136204909Y-48091587D01*
X136304098Y-47865460D01*
X136364715Y-47626090D01*
X136364717Y-47626079D01*
X136385107Y-47380006D01*
X136385107Y-47379993D01*
X136364717Y-47133920D01*
X136364715Y-47133909D01*
X136304098Y-46894539D01*
X136204906Y-46668406D01*
X136106209Y-46517341D01*
X135498694Y-47124856D01*
X135474884Y-47067373D01*
X135402655Y-46959275D01*
X135310725Y-46867345D01*
X135202627Y-46795116D01*
X135145142Y-46771305D01*
X135752931Y-46163516D01*
X135752931Y-46163515D01*
X135707743Y-46128346D01*
X135490578Y-46010821D01*
X135490570Y-46010818D01*
X135257029Y-45930643D01*
X135013465Y-45890000D01*
X134766535Y-45890000D01*
X134522970Y-45930643D01*
X134289429Y-46010818D01*
X134289421Y-46010821D01*
X134072252Y-46128348D01*
X134072251Y-46128349D01*
X134027068Y-46163514D01*
X134027068Y-46163516D01*
X134634857Y-46771305D01*
X134577373Y-46795116D01*
X134469275Y-46867345D01*
X134377345Y-46959275D01*
X134305116Y-47067373D01*
X134281305Y-47124857D01*
X133673790Y-46517342D01*
X133648827Y-46519931D01*
X133580115Y-46507266D01*
X133532223Y-46464407D01*
X133530245Y-46461379D01*
X133362948Y-46279645D01*
X133362943Y-46279641D01*
X133362941Y-46279639D01*
X133168028Y-46127932D01*
X133168022Y-46127928D01*
X132950780Y-46010362D01*
X132950771Y-46010359D01*
X132717153Y-45930157D01*
X132534417Y-45899664D01*
X132473506Y-45889500D01*
X132226494Y-45889500D01*
X132177765Y-45897631D01*
X131982846Y-45930157D01*
X131749228Y-46010359D01*
X131749219Y-46010362D01*
X131531977Y-46127928D01*
X131531971Y-46127932D01*
X131337058Y-46279639D01*
X131337055Y-46279642D01*
X131171230Y-46459777D01*
X131111343Y-46495767D01*
X131041505Y-46493667D01*
X130988770Y-46459777D01*
X130822948Y-46279645D01*
X130822943Y-46279641D01*
X130822941Y-46279639D01*
X130628028Y-46127932D01*
X130628022Y-46127928D01*
X130410780Y-46010362D01*
X130410771Y-46010359D01*
X130177153Y-45930157D01*
X129994417Y-45899664D01*
X129933506Y-45889500D01*
X129686494Y-45889500D01*
X129637765Y-45897631D01*
X129442846Y-45930157D01*
X129209228Y-46010359D01*
X129209219Y-46010362D01*
X128991977Y-46127928D01*
X128991971Y-46127932D01*
X128797058Y-46279639D01*
X128797055Y-46279642D01*
X128631230Y-46459777D01*
X128571343Y-46495767D01*
X128501505Y-46493667D01*
X128448770Y-46459777D01*
X128282948Y-46279645D01*
X128282943Y-46279641D01*
X128282941Y-46279639D01*
X128088028Y-46127932D01*
X128088022Y-46127928D01*
X127870780Y-46010362D01*
X127870771Y-46010359D01*
X127637153Y-45930157D01*
X127454417Y-45899664D01*
X127393506Y-45889500D01*
X127146494Y-45889500D01*
X127097765Y-45897631D01*
X126902846Y-45930157D01*
X126669228Y-46010359D01*
X126669219Y-46010362D01*
X126451977Y-46127928D01*
X126451971Y-46127932D01*
X126257058Y-46279639D01*
X126257055Y-46279642D01*
X126091230Y-46459777D01*
X126031343Y-46495767D01*
X125961505Y-46493667D01*
X125908770Y-46459777D01*
X125742948Y-46279645D01*
X125742943Y-46279641D01*
X125742941Y-46279639D01*
X125548028Y-46127932D01*
X125548022Y-46127928D01*
X125330780Y-46010362D01*
X125330771Y-46010359D01*
X125097153Y-45930157D01*
X124914417Y-45899664D01*
X124853506Y-45889500D01*
X124606494Y-45889500D01*
X124557765Y-45897631D01*
X124362846Y-45930157D01*
X124129228Y-46010359D01*
X124129219Y-46010362D01*
X123911977Y-46127928D01*
X123911971Y-46127932D01*
X123717058Y-46279639D01*
X123717055Y-46279642D01*
X123551230Y-46459777D01*
X123491343Y-46495767D01*
X123421505Y-46493667D01*
X123368770Y-46459777D01*
X123202948Y-46279645D01*
X123202943Y-46279641D01*
X123202941Y-46279639D01*
X123008028Y-46127932D01*
X123008022Y-46127928D01*
X122790780Y-46010362D01*
X122790771Y-46010359D01*
X122557153Y-45930157D01*
X122374417Y-45899664D01*
X122313506Y-45889500D01*
X122066494Y-45889500D01*
X122017765Y-45897631D01*
X121822846Y-45930157D01*
X121589228Y-46010359D01*
X121589219Y-46010362D01*
X121371977Y-46127928D01*
X121371971Y-46127932D01*
X121177058Y-46279639D01*
X121177055Y-46279642D01*
X121011230Y-46459777D01*
X120951343Y-46495767D01*
X120881505Y-46493667D01*
X120828770Y-46459777D01*
X120662948Y-46279645D01*
X120662943Y-46279641D01*
X120662941Y-46279639D01*
X120468028Y-46127932D01*
X120468022Y-46127928D01*
X120250780Y-46010362D01*
X120250771Y-46010359D01*
X120017153Y-45930157D01*
X119834417Y-45899664D01*
X119773506Y-45889500D01*
X119526494Y-45889500D01*
X119477765Y-45897631D01*
X119282846Y-45930157D01*
X119049228Y-46010359D01*
X119049219Y-46010362D01*
X118831977Y-46127928D01*
X118831971Y-46127932D01*
X118637058Y-46279639D01*
X118637055Y-46279642D01*
X118471230Y-46459777D01*
X118411343Y-46495767D01*
X118341505Y-46493667D01*
X118288770Y-46459777D01*
X118122948Y-46279645D01*
X118122943Y-46279641D01*
X118122941Y-46279639D01*
X117928028Y-46127932D01*
X117928022Y-46127928D01*
X117710780Y-46010362D01*
X117710771Y-46010359D01*
X117477153Y-45930157D01*
X117294417Y-45899664D01*
X117233506Y-45889500D01*
X116986494Y-45889500D01*
X116937765Y-45897631D01*
X116742846Y-45930157D01*
X116509228Y-46010359D01*
X116509219Y-46010362D01*
X116291977Y-46127928D01*
X116291971Y-46127932D01*
X116097058Y-46279639D01*
X116097055Y-46279642D01*
X115929752Y-46461382D01*
X115878309Y-46540123D01*
X115825162Y-46585479D01*
X115755931Y-46594903D01*
X115692595Y-46565401D01*
X115655264Y-46506340D01*
X115650500Y-46472301D01*
X115650500Y-45605728D01*
X115670185Y-45538689D01*
X115686814Y-45518052D01*
X117992706Y-43212159D01*
X118054027Y-43178676D01*
X118123719Y-43183660D01*
X118154691Y-43200573D01*
X118251165Y-43272793D01*
X118251168Y-43272795D01*
X118251171Y-43272797D01*
X118386017Y-43323091D01*
X118386016Y-43323091D01*
X118392944Y-43323835D01*
X118445627Y-43329500D01*
X119899372Y-43329499D01*
X119958983Y-43323091D01*
X120093831Y-43272796D01*
X120209046Y-43186546D01*
X120295296Y-43071331D01*
X120345591Y-42936483D01*
X120352000Y-42876873D01*
X120351999Y-42565482D01*
X120371683Y-42498446D01*
X120424487Y-42452691D01*
X120493646Y-42442747D01*
X120557201Y-42471772D01*
X120594976Y-42530550D01*
X120595265Y-42531550D01*
X120608403Y-42577726D01*
X120608405Y-42577730D01*
X120705800Y-42773323D01*
X120718630Y-42790314D01*
X120718631Y-42790315D01*
X121290774Y-42218172D01*
X121316463Y-42314044D01*
X121372416Y-42410956D01*
X121451544Y-42490084D01*
X121548456Y-42546037D01*
X121644327Y-42571725D01*
X121074425Y-43141625D01*
X121184725Y-43209919D01*
X121388470Y-43288850D01*
X121603253Y-43329000D01*
X121821747Y-43329000D01*
X122036528Y-43288850D01*
X122036529Y-43288850D01*
X122240281Y-43209916D01*
X122350573Y-43141625D01*
X121780673Y-42571725D01*
X121876544Y-42546037D01*
X121973456Y-42490084D01*
X122052584Y-42410956D01*
X122108537Y-42314044D01*
X122134225Y-42218172D01*
X122706367Y-42790314D01*
X122719199Y-42773323D01*
X122719203Y-42773316D01*
X122816594Y-42577731D01*
X122862973Y-42414723D01*
X122900252Y-42355629D01*
X122963562Y-42326071D01*
X123032801Y-42335433D01*
X123085988Y-42380742D01*
X123101506Y-42414722D01*
X123147935Y-42577905D01*
X123147941Y-42577920D01*
X123245369Y-42773581D01*
X123245374Y-42773589D01*
X123377104Y-42948027D01*
X123377105Y-42948028D01*
X123538647Y-43095294D01*
X123538649Y-43095295D01*
X123538650Y-43095296D01*
X123724495Y-43210366D01*
X123724501Y-43210369D01*
X123729127Y-43212161D01*
X123928332Y-43289333D01*
X124143203Y-43329500D01*
X124143205Y-43329500D01*
X124361795Y-43329500D01*
X124361797Y-43329500D01*
X124576668Y-43289333D01*
X124780501Y-43210368D01*
X124966353Y-43095294D01*
X125127895Y-42948028D01*
X125259627Y-42773587D01*
X125357063Y-42577910D01*
X125416884Y-42367661D01*
X125437053Y-42150000D01*
X125416884Y-41932339D01*
X125357063Y-41722090D01*
X125335521Y-41678828D01*
X125259630Y-41526418D01*
X125259625Y-41526410D01*
X125127895Y-41351972D01*
X124992641Y-41228671D01*
X124966353Y-41204706D01*
X124966350Y-41204704D01*
X124966349Y-41204703D01*
X124780504Y-41089633D01*
X124780498Y-41089630D01*
X124577912Y-41011149D01*
X124576668Y-41010667D01*
X124361797Y-40970500D01*
X124143203Y-40970500D01*
X123928332Y-41010667D01*
X123928329Y-41010667D01*
X123928329Y-41010668D01*
X123724501Y-41089630D01*
X123724495Y-41089633D01*
X123538650Y-41204703D01*
X123377104Y-41351972D01*
X123245374Y-41526410D01*
X123245369Y-41526418D01*
X123147941Y-41722079D01*
X123147935Y-41722094D01*
X123101506Y-41885277D01*
X123064227Y-41944371D01*
X123000917Y-41973928D01*
X122931678Y-41964566D01*
X122878491Y-41919256D01*
X122862973Y-41885277D01*
X122816593Y-41722267D01*
X122719199Y-41526675D01*
X122706368Y-41509684D01*
X122134225Y-42081826D01*
X122108537Y-41985956D01*
X122052584Y-41889044D01*
X121973456Y-41809916D01*
X121876544Y-41753963D01*
X121780673Y-41728274D01*
X122350573Y-41158373D01*
X122350572Y-41158372D01*
X122240280Y-41090082D01*
X122240274Y-41090080D01*
X122036529Y-41011149D01*
X121821747Y-40971000D01*
X121603253Y-40971000D01*
X121388471Y-41011149D01*
X121388470Y-41011149D01*
X121184726Y-41090079D01*
X121074425Y-41158373D01*
X121644327Y-41728274D01*
X121548456Y-41753963D01*
X121451544Y-41809916D01*
X121372416Y-41889044D01*
X121316463Y-41985956D01*
X121290774Y-42081827D01*
X120718631Y-41509684D01*
X120705797Y-41526681D01*
X120608405Y-41722269D01*
X120608402Y-41722275D01*
X120595265Y-41768450D01*
X120557986Y-41827544D01*
X120494676Y-41857101D01*
X120425437Y-41847739D01*
X120372250Y-41802429D01*
X120352003Y-41735557D01*
X120351999Y-41734516D01*
X120351999Y-41423129D01*
X120351998Y-41423123D01*
X120350344Y-41407738D01*
X120345591Y-41363517D01*
X120339745Y-41347844D01*
X120295297Y-41228671D01*
X120295293Y-41228664D01*
X120209047Y-41113455D01*
X120209044Y-41113452D01*
X120093835Y-41027206D01*
X120093828Y-41027202D01*
X119958982Y-40976908D01*
X119958983Y-40976908D01*
X119899383Y-40970501D01*
X119899381Y-40970500D01*
X119899373Y-40970500D01*
X119899364Y-40970500D01*
X118445629Y-40970500D01*
X118445623Y-40970501D01*
X118386016Y-40976908D01*
X118251171Y-41027202D01*
X118251164Y-41027206D01*
X118135955Y-41113452D01*
X118135952Y-41113455D01*
X118049706Y-41228664D01*
X118049703Y-41228669D01*
X118015475Y-41320440D01*
X117973603Y-41376373D01*
X117923481Y-41398724D01*
X117890739Y-41405236D01*
X117890738Y-41405235D01*
X117774593Y-41428339D01*
X117774583Y-41428342D01*
X117694581Y-41461479D01*
X117694582Y-41461480D01*
X117638006Y-41484915D01*
X117637996Y-41484920D01*
X117584789Y-41520473D01*
X117575900Y-41526413D01*
X117564090Y-41534304D01*
X117515086Y-41567046D01*
X117515081Y-41567050D01*
X114317050Y-44765080D01*
X114317044Y-44765088D01*
X114267812Y-44838768D01*
X114267813Y-44838769D01*
X114234921Y-44887996D01*
X114234914Y-44888008D01*
X114178342Y-45024586D01*
X114178340Y-45024592D01*
X114149500Y-45169579D01*
X114149500Y-47390403D01*
X114129815Y-47457442D01*
X114077011Y-47503197D01*
X114007853Y-47513141D01*
X113980706Y-47506030D01*
X113855285Y-47457442D01*
X113802456Y-47436976D01*
X113601976Y-47399500D01*
X113601974Y-47399500D01*
X113512229Y-47399500D01*
X113445190Y-47379815D01*
X113424548Y-47363181D01*
X111586819Y-45525451D01*
X111553334Y-45464128D01*
X111550500Y-45437770D01*
X111550500Y-41026079D01*
X111521659Y-40881092D01*
X111521658Y-40881091D01*
X111521658Y-40881087D01*
X111465084Y-40744505D01*
X111432186Y-40695270D01*
X111414238Y-40668408D01*
X111382956Y-40621589D01*
X111382952Y-40621584D01*
X110198896Y-39437528D01*
X110165411Y-39376205D01*
X110170395Y-39306513D01*
X110195346Y-39265864D01*
X110233164Y-39224785D01*
X110369173Y-39016607D01*
X110469063Y-38788881D01*
X110480294Y-38744530D01*
X110515834Y-38684375D01*
X110578254Y-38652983D01*
X110647737Y-38660321D01*
X110702223Y-38704060D01*
X110724412Y-38770312D01*
X110724500Y-38774971D01*
X110724500Y-38884741D01*
X110749446Y-39074215D01*
X110754452Y-39112238D01*
X110784453Y-39224205D01*
X110813842Y-39333887D01*
X110901650Y-39545876D01*
X110901657Y-39545890D01*
X110923309Y-39583393D01*
X111004031Y-39723208D01*
X111016392Y-39744617D01*
X111156081Y-39926661D01*
X111156089Y-39926670D01*
X111318330Y-40088911D01*
X111318338Y-40088918D01*
X111500382Y-40228607D01*
X111500385Y-40228608D01*
X111500388Y-40228611D01*
X111699112Y-40343344D01*
X111699117Y-40343346D01*
X111699123Y-40343349D01*
X111785171Y-40378991D01*
X111911113Y-40431158D01*
X112132762Y-40490548D01*
X112360266Y-40520500D01*
X112360273Y-40520500D01*
X112589727Y-40520500D01*
X112589734Y-40520500D01*
X112817238Y-40490548D01*
X113038887Y-40431158D01*
X113250888Y-40343344D01*
X113325973Y-40299994D01*
X129094357Y-40299994D01*
X129094357Y-40300005D01*
X129114890Y-40547812D01*
X129114892Y-40547824D01*
X129175936Y-40788881D01*
X129275826Y-41016606D01*
X129411833Y-41224782D01*
X129411836Y-41224785D01*
X129580256Y-41407738D01*
X129776491Y-41560474D01*
X129995190Y-41678828D01*
X130230386Y-41759571D01*
X130475665Y-41800500D01*
X130724335Y-41800500D01*
X130969614Y-41759571D01*
X131204810Y-41678828D01*
X131423509Y-41560474D01*
X131507201Y-41495333D01*
X131572192Y-41469692D01*
X131640732Y-41483258D01*
X131691057Y-41531726D01*
X131692290Y-41534361D01*
X131692396Y-41534304D01*
X131696649Y-41542093D01*
X131782809Y-41657187D01*
X131782812Y-41657190D01*
X131897906Y-41743350D01*
X131897913Y-41743354D01*
X132032620Y-41793596D01*
X132032627Y-41793598D01*
X132092155Y-41799999D01*
X132092172Y-41800000D01*
X132890000Y-41800000D01*
X132890000Y-40848482D01*
X132908409Y-40859111D01*
X133061009Y-40900000D01*
X133218991Y-40900000D01*
X133371591Y-40859111D01*
X133390000Y-40848482D01*
X133390000Y-41800000D01*
X134187828Y-41800000D01*
X134187844Y-41799999D01*
X134247372Y-41793598D01*
X134247379Y-41793596D01*
X134382086Y-41743354D01*
X134382093Y-41743350D01*
X134497187Y-41657190D01*
X134497190Y-41657187D01*
X134583350Y-41542093D01*
X134583354Y-41542086D01*
X134633596Y-41407379D01*
X134633598Y-41407372D01*
X134639999Y-41347844D01*
X134640000Y-41347827D01*
X134640000Y-40550000D01*
X133688482Y-40550000D01*
X133699111Y-40531591D01*
X133740000Y-40378991D01*
X133740000Y-40221009D01*
X133699111Y-40068409D01*
X133688482Y-40050000D01*
X134640000Y-40050000D01*
X134640000Y-39252172D01*
X134639999Y-39252155D01*
X134633598Y-39192627D01*
X134633596Y-39192620D01*
X134583354Y-39057913D01*
X134583350Y-39057906D01*
X134497190Y-38942812D01*
X134497187Y-38942809D01*
X134382093Y-38856649D01*
X134382086Y-38856645D01*
X134247379Y-38806403D01*
X134247372Y-38806401D01*
X134187844Y-38800000D01*
X133390000Y-38800000D01*
X133390000Y-39751517D01*
X133371591Y-39740889D01*
X133218991Y-39700000D01*
X133061009Y-39700000D01*
X132908409Y-39740889D01*
X132890000Y-39751517D01*
X132890000Y-38800000D01*
X132092155Y-38800000D01*
X132032627Y-38806401D01*
X132032620Y-38806403D01*
X131897913Y-38856645D01*
X131897906Y-38856649D01*
X131782812Y-38942809D01*
X131782809Y-38942812D01*
X131696649Y-39057906D01*
X131692396Y-39065696D01*
X131689217Y-39063960D01*
X131657596Y-39106135D01*
X131592113Y-39130502D01*
X131523851Y-39115598D01*
X131507199Y-39104665D01*
X131500595Y-39099525D01*
X131423509Y-39039526D01*
X131423507Y-39039525D01*
X131423506Y-39039524D01*
X131204811Y-38921172D01*
X131204802Y-38921169D01*
X130969616Y-38840429D01*
X130724335Y-38799500D01*
X130475665Y-38799500D01*
X130230383Y-38840429D01*
X129995197Y-38921169D01*
X129995188Y-38921172D01*
X129776493Y-39039524D01*
X129597475Y-39178860D01*
X129580256Y-39192262D01*
X129579920Y-39192627D01*
X129411833Y-39375217D01*
X129275826Y-39583393D01*
X129175936Y-39811118D01*
X129114892Y-40052175D01*
X129114890Y-40052187D01*
X129094357Y-40299994D01*
X113325973Y-40299994D01*
X113449612Y-40228611D01*
X113631661Y-40088919D01*
X113631665Y-40088914D01*
X113631670Y-40088911D01*
X113793911Y-39926670D01*
X113793914Y-39926665D01*
X113793919Y-39926661D01*
X113933611Y-39744612D01*
X114048344Y-39545888D01*
X114136158Y-39333887D01*
X114195548Y-39112238D01*
X114225500Y-38884734D01*
X114225500Y-38655266D01*
X114225274Y-38653553D01*
X114211354Y-38547821D01*
X114195548Y-38427762D01*
X114136158Y-38206113D01*
X114048344Y-37994112D01*
X113933611Y-37795388D01*
X113933608Y-37795385D01*
X113933607Y-37795382D01*
X113793918Y-37613338D01*
X113793911Y-37613330D01*
X113631670Y-37451089D01*
X113631661Y-37451081D01*
X113449617Y-37311392D01*
X113250890Y-37196657D01*
X113250876Y-37196650D01*
X113038887Y-37108842D01*
X112817238Y-37049452D01*
X112779215Y-37044446D01*
X112589741Y-37019500D01*
X112589734Y-37019500D01*
X112360266Y-37019500D01*
X112360258Y-37019500D01*
X112143715Y-37048009D01*
X112132762Y-37049452D01*
X112039076Y-37074554D01*
X111911112Y-37108842D01*
X111699123Y-37196650D01*
X111699109Y-37196657D01*
X111500382Y-37311392D01*
X111318338Y-37451081D01*
X111156081Y-37613338D01*
X111016392Y-37795382D01*
X110901657Y-37994109D01*
X110901650Y-37994123D01*
X110813843Y-38206110D01*
X110813842Y-38206113D01*
X110797213Y-38268176D01*
X110791357Y-38290030D01*
X110754992Y-38349690D01*
X110692145Y-38380219D01*
X110622769Y-38371924D01*
X110568891Y-38327439D01*
X110548006Y-38268179D01*
X110530108Y-38052179D01*
X110469063Y-37811119D01*
X110462160Y-37795382D01*
X110369173Y-37583393D01*
X110233166Y-37375217D01*
X110174408Y-37311389D01*
X110064744Y-37192262D01*
X109868509Y-37039526D01*
X109868507Y-37039525D01*
X109868506Y-37039524D01*
X109649811Y-36921172D01*
X109649802Y-36921169D01*
X109414616Y-36840429D01*
X109169335Y-36799500D01*
X108920665Y-36799500D01*
X108675383Y-36840429D01*
X108440197Y-36921169D01*
X108440188Y-36921172D01*
X108221493Y-37039524D01*
X108025257Y-37192261D01*
X107866230Y-37365010D01*
X107806342Y-37401001D01*
X107736504Y-37398900D01*
X107683770Y-37365010D01*
X107634408Y-37311389D01*
X107524744Y-37192262D01*
X107328509Y-37039526D01*
X107328507Y-37039525D01*
X107328506Y-37039524D01*
X107109811Y-36921172D01*
X107109802Y-36921169D01*
X106874616Y-36840429D01*
X106629335Y-36799500D01*
X106380665Y-36799500D01*
X106135383Y-36840429D01*
X105900197Y-36921169D01*
X105900188Y-36921172D01*
X105681493Y-37039524D01*
X105485257Y-37192261D01*
X105326230Y-37365010D01*
X105266342Y-37401001D01*
X105196504Y-37398900D01*
X105143770Y-37365010D01*
X105094408Y-37311389D01*
X104984744Y-37192262D01*
X104788509Y-37039526D01*
X104788507Y-37039525D01*
X104788506Y-37039524D01*
X104569811Y-36921172D01*
X104569802Y-36921169D01*
X104334616Y-36840429D01*
X104089335Y-36799500D01*
X103840665Y-36799500D01*
X103595383Y-36840429D01*
X103360197Y-36921169D01*
X103360188Y-36921172D01*
X103141493Y-37039524D01*
X102945257Y-37192261D01*
X102786230Y-37365010D01*
X102726342Y-37401001D01*
X102656504Y-37398900D01*
X102603770Y-37365010D01*
X102554408Y-37311389D01*
X102444744Y-37192262D01*
X102248509Y-37039526D01*
X102248507Y-37039525D01*
X102248506Y-37039524D01*
X102029811Y-36921172D01*
X102029802Y-36921169D01*
X101794616Y-36840429D01*
X101549335Y-36799500D01*
X101300665Y-36799500D01*
X101055383Y-36840429D01*
X100820197Y-36921169D01*
X100820188Y-36921172D01*
X100601493Y-37039524D01*
X100405257Y-37192261D01*
X100246230Y-37365010D01*
X100186342Y-37401001D01*
X100116504Y-37398900D01*
X100063770Y-37365010D01*
X100014408Y-37311389D01*
X99904744Y-37192262D01*
X99708509Y-37039526D01*
X99708507Y-37039525D01*
X99708506Y-37039524D01*
X99489811Y-36921172D01*
X99489802Y-36921169D01*
X99254616Y-36840429D01*
X99009335Y-36799500D01*
X98760665Y-36799500D01*
X98515383Y-36840429D01*
X98280197Y-36921169D01*
X98280188Y-36921172D01*
X98061493Y-37039524D01*
X97865257Y-37192261D01*
X97706230Y-37365010D01*
X97646342Y-37401001D01*
X97576504Y-37398900D01*
X97523770Y-37365010D01*
X97474408Y-37311389D01*
X97364744Y-37192262D01*
X97168509Y-37039526D01*
X97168507Y-37039525D01*
X97168506Y-37039524D01*
X96949811Y-36921172D01*
X96949802Y-36921169D01*
X96714616Y-36840429D01*
X96469335Y-36799500D01*
X96220665Y-36799500D01*
X95975383Y-36840429D01*
X95740197Y-36921169D01*
X95740188Y-36921172D01*
X95521493Y-37039524D01*
X95325257Y-37192261D01*
X95166230Y-37365010D01*
X95106342Y-37401001D01*
X95036504Y-37398900D01*
X94983770Y-37365010D01*
X94934408Y-37311389D01*
X94824744Y-37192262D01*
X94628509Y-37039526D01*
X94628507Y-37039525D01*
X94628506Y-37039524D01*
X94409811Y-36921172D01*
X94409802Y-36921169D01*
X94174616Y-36840429D01*
X93929335Y-36799500D01*
X93680665Y-36799500D01*
X93435383Y-36840429D01*
X93200197Y-36921169D01*
X93200188Y-36921172D01*
X92981493Y-37039524D01*
X92785257Y-37192261D01*
X92626230Y-37365010D01*
X92566342Y-37401001D01*
X92496504Y-37398900D01*
X92443770Y-37365010D01*
X92394408Y-37311389D01*
X92284744Y-37192262D01*
X92088509Y-37039526D01*
X92088507Y-37039525D01*
X92088506Y-37039524D01*
X91869811Y-36921172D01*
X91869802Y-36921169D01*
X91634616Y-36840429D01*
X91389335Y-36799500D01*
X91140665Y-36799500D01*
X90895383Y-36840429D01*
X90660197Y-36921169D01*
X90660188Y-36921172D01*
X90441493Y-37039524D01*
X90245257Y-37192261D01*
X90086230Y-37365010D01*
X90026342Y-37401001D01*
X89956504Y-37398900D01*
X89903770Y-37365010D01*
X89854408Y-37311389D01*
X89744744Y-37192262D01*
X89548509Y-37039526D01*
X89548507Y-37039525D01*
X89548506Y-37039524D01*
X89329811Y-36921172D01*
X89329802Y-36921169D01*
X89094616Y-36840429D01*
X88849335Y-36799500D01*
X88600665Y-36799500D01*
X88355383Y-36840429D01*
X88120197Y-36921169D01*
X88120188Y-36921172D01*
X87901493Y-37039524D01*
X87705257Y-37192261D01*
X87546230Y-37365010D01*
X87486342Y-37401001D01*
X87416504Y-37398900D01*
X87363770Y-37365010D01*
X87314408Y-37311389D01*
X87204744Y-37192262D01*
X87008509Y-37039526D01*
X87008507Y-37039525D01*
X87008506Y-37039524D01*
X86789811Y-36921172D01*
X86789802Y-36921169D01*
X86554616Y-36840429D01*
X86309335Y-36799500D01*
X86060665Y-36799500D01*
X85815383Y-36840429D01*
X85580197Y-36921169D01*
X85580188Y-36921172D01*
X85361493Y-37039524D01*
X85165257Y-37192261D01*
X85006230Y-37365010D01*
X84946342Y-37401001D01*
X84876504Y-37398900D01*
X84823770Y-37365010D01*
X84774408Y-37311389D01*
X84664744Y-37192262D01*
X84468509Y-37039526D01*
X84468507Y-37039525D01*
X84468506Y-37039524D01*
X84249811Y-36921172D01*
X84249802Y-36921169D01*
X84014616Y-36840429D01*
X83769335Y-36799500D01*
X83520665Y-36799500D01*
X83275383Y-36840429D01*
X83040197Y-36921169D01*
X83040188Y-36921172D01*
X82821493Y-37039524D01*
X82625257Y-37192261D01*
X82466230Y-37365010D01*
X82406342Y-37401001D01*
X82336504Y-37398900D01*
X82283770Y-37365010D01*
X82234408Y-37311389D01*
X82124744Y-37192262D01*
X81928509Y-37039526D01*
X81928507Y-37039525D01*
X81928506Y-37039524D01*
X81709811Y-36921172D01*
X81709802Y-36921169D01*
X81474616Y-36840429D01*
X81229335Y-36799500D01*
X80980665Y-36799500D01*
X80735383Y-36840429D01*
X80500197Y-36921169D01*
X80500188Y-36921172D01*
X80281493Y-37039524D01*
X80085257Y-37192261D01*
X79926230Y-37365010D01*
X79866342Y-37401001D01*
X79796504Y-37398900D01*
X79743770Y-37365010D01*
X79694408Y-37311389D01*
X79584744Y-37192262D01*
X79388509Y-37039526D01*
X79388507Y-37039525D01*
X79388506Y-37039524D01*
X79169811Y-36921172D01*
X79169802Y-36921169D01*
X78934616Y-36840429D01*
X78689335Y-36799500D01*
X78440665Y-36799500D01*
X78195383Y-36840429D01*
X77960197Y-36921169D01*
X77960188Y-36921172D01*
X77741493Y-37039524D01*
X77545257Y-37192261D01*
X77376837Y-37375213D01*
X77376829Y-37375224D01*
X77376455Y-37375797D01*
X77376242Y-37375978D01*
X77373690Y-37379258D01*
X77373014Y-37378732D01*
X77323304Y-37421147D01*
X77259865Y-37431302D01*
X77248434Y-37430116D01*
X76516127Y-38162423D01*
X76500245Y-38103147D01*
X76433102Y-37986853D01*
X76338147Y-37891898D01*
X76221853Y-37824755D01*
X76162575Y-37808872D01*
X76895057Y-37076390D01*
X76895056Y-37076389D01*
X76848229Y-37039943D01*
X76629614Y-36921635D01*
X76629603Y-36921630D01*
X76394493Y-36840916D01*
X76149293Y-36800000D01*
X75900707Y-36800000D01*
X75655506Y-36840916D01*
X75420396Y-36921630D01*
X75420390Y-36921632D01*
X75201761Y-37039949D01*
X75154942Y-37076388D01*
X75154942Y-37076390D01*
X75887424Y-37808871D01*
X75828147Y-37824755D01*
X75711853Y-37891898D01*
X75616898Y-37986853D01*
X75549755Y-38103147D01*
X75533872Y-38162424D01*
X74801564Y-37430116D01*
X74790135Y-37431302D01*
X74721423Y-37418637D01*
X74676910Y-37378802D01*
X74676317Y-37379265D01*
X74673768Y-37375991D01*
X74673535Y-37375782D01*
X74673166Y-37375218D01*
X74673165Y-37375217D01*
X74673164Y-37375215D01*
X74504744Y-37192262D01*
X74308509Y-37039526D01*
X74308507Y-37039525D01*
X74308506Y-37039524D01*
X74089811Y-36921172D01*
X74089802Y-36921169D01*
X73854616Y-36840429D01*
X73609335Y-36799500D01*
X73360665Y-36799500D01*
X73115383Y-36840429D01*
X72880197Y-36921169D01*
X72880188Y-36921172D01*
X72661493Y-37039524D01*
X72465257Y-37192261D01*
X72296833Y-37375217D01*
X72228309Y-37480103D01*
X72175162Y-37525460D01*
X72105931Y-37534884D01*
X72042595Y-37505382D01*
X72005264Y-37446322D01*
X72000500Y-37412282D01*
X72000500Y-36124500D01*
X72020185Y-36057461D01*
X72072989Y-36011706D01*
X72124500Y-36000500D01*
X143775500Y-36000500D01*
X143842539Y-36020185D01*
G37*
%TD.AperFunction*%
%TD*%
M02*
