%TF.GenerationSoftware,KiCad,Pcbnew,8.0.4*%
%TF.CreationDate,2025-02-11T11:06:42-05:00*%
%TF.ProjectId,plusle,706c7573-6c65-42e6-9b69-6361645f7063,rev?*%
%TF.SameCoordinates,Original*%
%TF.FileFunction,Drillmap*%
%TF.FilePolarity,Positive*%
%FSLAX45Y45*%
G04 Gerber Fmt 4.5, Leading zero omitted, Abs format (unit mm)*
G04 Created by KiCad (PCBNEW 8.0.4) date 2025-02-11 11:06:42*
%MOMM*%
%LPD*%
G01*
G04 APERTURE LIST*
%ADD10C,0.050000*%
%ADD11C,0.200000*%
%ADD12C,0.300000*%
G04 APERTURE END LIST*
D10*
X7150000Y-3550000D02*
X14440000Y-3550000D01*
X14440000Y-6650000D01*
X7150000Y-6650000D01*
X7150000Y-3550000D01*
D11*
D12*
X6402500Y-3727000D02*
X6702500Y-4027000D01*
X6702500Y-3727000D02*
X6402500Y-4027000D01*
X6402500Y-6178000D02*
X6702500Y-6478000D01*
X6702500Y-6178000D02*
X6402500Y-6478000D01*
X11097500Y-3727000D02*
X11397500Y-4027000D01*
X11397500Y-3727000D02*
X11097500Y-4027000D01*
X11097500Y-6178000D02*
X11397500Y-6478000D01*
X11397500Y-6178000D02*
X11097500Y-6478000D01*
D11*
X7408277Y-6963984D02*
X7408277Y-6763984D01*
X7408277Y-6763984D02*
X7455896Y-6763984D01*
X7455896Y-6763984D02*
X7484467Y-6773508D01*
X7484467Y-6773508D02*
X7503515Y-6792555D01*
X7503515Y-6792555D02*
X7513039Y-6811603D01*
X7513039Y-6811603D02*
X7522562Y-6849698D01*
X7522562Y-6849698D02*
X7522562Y-6878269D01*
X7522562Y-6878269D02*
X7513039Y-6916365D01*
X7513039Y-6916365D02*
X7503515Y-6935412D01*
X7503515Y-6935412D02*
X7484467Y-6954460D01*
X7484467Y-6954460D02*
X7455896Y-6963984D01*
X7455896Y-6963984D02*
X7408277Y-6963984D01*
X7608277Y-6963984D02*
X7608277Y-6830650D01*
X7608277Y-6868746D02*
X7617801Y-6849698D01*
X7617801Y-6849698D02*
X7627324Y-6840174D01*
X7627324Y-6840174D02*
X7646372Y-6830650D01*
X7646372Y-6830650D02*
X7665420Y-6830650D01*
X7732086Y-6963984D02*
X7732086Y-6830650D01*
X7732086Y-6763984D02*
X7722562Y-6773508D01*
X7722562Y-6773508D02*
X7732086Y-6783031D01*
X7732086Y-6783031D02*
X7741610Y-6773508D01*
X7741610Y-6773508D02*
X7732086Y-6763984D01*
X7732086Y-6763984D02*
X7732086Y-6783031D01*
X7855896Y-6963984D02*
X7836848Y-6954460D01*
X7836848Y-6954460D02*
X7827324Y-6935412D01*
X7827324Y-6935412D02*
X7827324Y-6763984D01*
X7960658Y-6963984D02*
X7941610Y-6954460D01*
X7941610Y-6954460D02*
X7932086Y-6935412D01*
X7932086Y-6935412D02*
X7932086Y-6763984D01*
X8189229Y-6963984D02*
X8189229Y-6763984D01*
X8189229Y-6763984D02*
X8255896Y-6906841D01*
X8255896Y-6906841D02*
X8322562Y-6763984D01*
X8322562Y-6763984D02*
X8322562Y-6963984D01*
X8503515Y-6963984D02*
X8503515Y-6859222D01*
X8503515Y-6859222D02*
X8493991Y-6840174D01*
X8493991Y-6840174D02*
X8474944Y-6830650D01*
X8474944Y-6830650D02*
X8436848Y-6830650D01*
X8436848Y-6830650D02*
X8417801Y-6840174D01*
X8503515Y-6954460D02*
X8484467Y-6963984D01*
X8484467Y-6963984D02*
X8436848Y-6963984D01*
X8436848Y-6963984D02*
X8417801Y-6954460D01*
X8417801Y-6954460D02*
X8408277Y-6935412D01*
X8408277Y-6935412D02*
X8408277Y-6916365D01*
X8408277Y-6916365D02*
X8417801Y-6897317D01*
X8417801Y-6897317D02*
X8436848Y-6887793D01*
X8436848Y-6887793D02*
X8484467Y-6887793D01*
X8484467Y-6887793D02*
X8503515Y-6878269D01*
X8598753Y-6830650D02*
X8598753Y-7030650D01*
X8598753Y-6840174D02*
X8617801Y-6830650D01*
X8617801Y-6830650D02*
X8655896Y-6830650D01*
X8655896Y-6830650D02*
X8674944Y-6840174D01*
X8674944Y-6840174D02*
X8684467Y-6849698D01*
X8684467Y-6849698D02*
X8693991Y-6868746D01*
X8693991Y-6868746D02*
X8693991Y-6925888D01*
X8693991Y-6925888D02*
X8684467Y-6944936D01*
X8684467Y-6944936D02*
X8674944Y-6954460D01*
X8674944Y-6954460D02*
X8655896Y-6963984D01*
X8655896Y-6963984D02*
X8617801Y-6963984D01*
X8617801Y-6963984D02*
X8598753Y-6954460D01*
X8779705Y-6944936D02*
X8789229Y-6954460D01*
X8789229Y-6954460D02*
X8779705Y-6963984D01*
X8779705Y-6963984D02*
X8770182Y-6954460D01*
X8770182Y-6954460D02*
X8779705Y-6944936D01*
X8779705Y-6944936D02*
X8779705Y-6963984D01*
X8779705Y-6840174D02*
X8789229Y-6849698D01*
X8789229Y-6849698D02*
X8779705Y-6859222D01*
X8779705Y-6859222D02*
X8770182Y-6849698D01*
X8770182Y-6849698D02*
X8779705Y-6840174D01*
X8779705Y-6840174D02*
X8779705Y-6859222D01*
X6947500Y-7192500D02*
X7147500Y-7392500D01*
X7147500Y-7192500D02*
X6947500Y-7392500D01*
X7389229Y-7183984D02*
X7513039Y-7183984D01*
X7513039Y-7183984D02*
X7446372Y-7260174D01*
X7446372Y-7260174D02*
X7474943Y-7260174D01*
X7474943Y-7260174D02*
X7493991Y-7269698D01*
X7493991Y-7269698D02*
X7503515Y-7279222D01*
X7503515Y-7279222D02*
X7513039Y-7298269D01*
X7513039Y-7298269D02*
X7513039Y-7345888D01*
X7513039Y-7345888D02*
X7503515Y-7364936D01*
X7503515Y-7364936D02*
X7493991Y-7374460D01*
X7493991Y-7374460D02*
X7474943Y-7383984D01*
X7474943Y-7383984D02*
X7417801Y-7383984D01*
X7417801Y-7383984D02*
X7398753Y-7374460D01*
X7398753Y-7374460D02*
X7389229Y-7364936D01*
X7598753Y-7364936D02*
X7608277Y-7374460D01*
X7608277Y-7374460D02*
X7598753Y-7383984D01*
X7598753Y-7383984D02*
X7589229Y-7374460D01*
X7589229Y-7374460D02*
X7598753Y-7364936D01*
X7598753Y-7364936D02*
X7598753Y-7383984D01*
X7732086Y-7183984D02*
X7751134Y-7183984D01*
X7751134Y-7183984D02*
X7770182Y-7193508D01*
X7770182Y-7193508D02*
X7779705Y-7203031D01*
X7779705Y-7203031D02*
X7789229Y-7222079D01*
X7789229Y-7222079D02*
X7798753Y-7260174D01*
X7798753Y-7260174D02*
X7798753Y-7307793D01*
X7798753Y-7307793D02*
X7789229Y-7345888D01*
X7789229Y-7345888D02*
X7779705Y-7364936D01*
X7779705Y-7364936D02*
X7770182Y-7374460D01*
X7770182Y-7374460D02*
X7751134Y-7383984D01*
X7751134Y-7383984D02*
X7732086Y-7383984D01*
X7732086Y-7383984D02*
X7713039Y-7374460D01*
X7713039Y-7374460D02*
X7703515Y-7364936D01*
X7703515Y-7364936D02*
X7693991Y-7345888D01*
X7693991Y-7345888D02*
X7684467Y-7307793D01*
X7684467Y-7307793D02*
X7684467Y-7260174D01*
X7684467Y-7260174D02*
X7693991Y-7222079D01*
X7693991Y-7222079D02*
X7703515Y-7203031D01*
X7703515Y-7203031D02*
X7713039Y-7193508D01*
X7713039Y-7193508D02*
X7732086Y-7183984D01*
X7922562Y-7183984D02*
X7941610Y-7183984D01*
X7941610Y-7183984D02*
X7960658Y-7193508D01*
X7960658Y-7193508D02*
X7970182Y-7203031D01*
X7970182Y-7203031D02*
X7979705Y-7222079D01*
X7979705Y-7222079D02*
X7989229Y-7260174D01*
X7989229Y-7260174D02*
X7989229Y-7307793D01*
X7989229Y-7307793D02*
X7979705Y-7345888D01*
X7979705Y-7345888D02*
X7970182Y-7364936D01*
X7970182Y-7364936D02*
X7960658Y-7374460D01*
X7960658Y-7374460D02*
X7941610Y-7383984D01*
X7941610Y-7383984D02*
X7922562Y-7383984D01*
X7922562Y-7383984D02*
X7903515Y-7374460D01*
X7903515Y-7374460D02*
X7893991Y-7364936D01*
X7893991Y-7364936D02*
X7884467Y-7345888D01*
X7884467Y-7345888D02*
X7874943Y-7307793D01*
X7874943Y-7307793D02*
X7874943Y-7260174D01*
X7874943Y-7260174D02*
X7884467Y-7222079D01*
X7884467Y-7222079D02*
X7893991Y-7203031D01*
X7893991Y-7203031D02*
X7903515Y-7193508D01*
X7903515Y-7193508D02*
X7922562Y-7183984D01*
X8113039Y-7183984D02*
X8132086Y-7183984D01*
X8132086Y-7183984D02*
X8151134Y-7193508D01*
X8151134Y-7193508D02*
X8160658Y-7203031D01*
X8160658Y-7203031D02*
X8170182Y-7222079D01*
X8170182Y-7222079D02*
X8179705Y-7260174D01*
X8179705Y-7260174D02*
X8179705Y-7307793D01*
X8179705Y-7307793D02*
X8170182Y-7345888D01*
X8170182Y-7345888D02*
X8160658Y-7364936D01*
X8160658Y-7364936D02*
X8151134Y-7374460D01*
X8151134Y-7374460D02*
X8132086Y-7383984D01*
X8132086Y-7383984D02*
X8113039Y-7383984D01*
X8113039Y-7383984D02*
X8093991Y-7374460D01*
X8093991Y-7374460D02*
X8084467Y-7364936D01*
X8084467Y-7364936D02*
X8074943Y-7345888D01*
X8074943Y-7345888D02*
X8065420Y-7307793D01*
X8065420Y-7307793D02*
X8065420Y-7260174D01*
X8065420Y-7260174D02*
X8074943Y-7222079D01*
X8074943Y-7222079D02*
X8084467Y-7203031D01*
X8084467Y-7203031D02*
X8093991Y-7193508D01*
X8093991Y-7193508D02*
X8113039Y-7183984D01*
X8265420Y-7383984D02*
X8265420Y-7250650D01*
X8265420Y-7269698D02*
X8274943Y-7260174D01*
X8274943Y-7260174D02*
X8293991Y-7250650D01*
X8293991Y-7250650D02*
X8322563Y-7250650D01*
X8322563Y-7250650D02*
X8341610Y-7260174D01*
X8341610Y-7260174D02*
X8351134Y-7279222D01*
X8351134Y-7279222D02*
X8351134Y-7383984D01*
X8351134Y-7279222D02*
X8360658Y-7260174D01*
X8360658Y-7260174D02*
X8379705Y-7250650D01*
X8379705Y-7250650D02*
X8408277Y-7250650D01*
X8408277Y-7250650D02*
X8427325Y-7260174D01*
X8427325Y-7260174D02*
X8436848Y-7279222D01*
X8436848Y-7279222D02*
X8436848Y-7383984D01*
X8532086Y-7383984D02*
X8532086Y-7250650D01*
X8532086Y-7269698D02*
X8541610Y-7260174D01*
X8541610Y-7260174D02*
X8560658Y-7250650D01*
X8560658Y-7250650D02*
X8589229Y-7250650D01*
X8589229Y-7250650D02*
X8608277Y-7260174D01*
X8608277Y-7260174D02*
X8617801Y-7279222D01*
X8617801Y-7279222D02*
X8617801Y-7383984D01*
X8617801Y-7279222D02*
X8627325Y-7260174D01*
X8627325Y-7260174D02*
X8646372Y-7250650D01*
X8646372Y-7250650D02*
X8674944Y-7250650D01*
X8674944Y-7250650D02*
X8693991Y-7260174D01*
X8693991Y-7260174D02*
X8703515Y-7279222D01*
X8703515Y-7279222D02*
X8703515Y-7383984D01*
X9093991Y-7174460D02*
X8922563Y-7431603D01*
X9351134Y-7183984D02*
X9370182Y-7183984D01*
X9370182Y-7183984D02*
X9389229Y-7193508D01*
X9389229Y-7193508D02*
X9398753Y-7203031D01*
X9398753Y-7203031D02*
X9408277Y-7222079D01*
X9408277Y-7222079D02*
X9417801Y-7260174D01*
X9417801Y-7260174D02*
X9417801Y-7307793D01*
X9417801Y-7307793D02*
X9408277Y-7345888D01*
X9408277Y-7345888D02*
X9398753Y-7364936D01*
X9398753Y-7364936D02*
X9389229Y-7374460D01*
X9389229Y-7374460D02*
X9370182Y-7383984D01*
X9370182Y-7383984D02*
X9351134Y-7383984D01*
X9351134Y-7383984D02*
X9332087Y-7374460D01*
X9332087Y-7374460D02*
X9322563Y-7364936D01*
X9322563Y-7364936D02*
X9313039Y-7345888D01*
X9313039Y-7345888D02*
X9303515Y-7307793D01*
X9303515Y-7307793D02*
X9303515Y-7260174D01*
X9303515Y-7260174D02*
X9313039Y-7222079D01*
X9313039Y-7222079D02*
X9322563Y-7203031D01*
X9322563Y-7203031D02*
X9332087Y-7193508D01*
X9332087Y-7193508D02*
X9351134Y-7183984D01*
X9503515Y-7364936D02*
X9513039Y-7374460D01*
X9513039Y-7374460D02*
X9503515Y-7383984D01*
X9503515Y-7383984D02*
X9493991Y-7374460D01*
X9493991Y-7374460D02*
X9503515Y-7364936D01*
X9503515Y-7364936D02*
X9503515Y-7383984D01*
X9703515Y-7383984D02*
X9589229Y-7383984D01*
X9646372Y-7383984D02*
X9646372Y-7183984D01*
X9646372Y-7183984D02*
X9627325Y-7212555D01*
X9627325Y-7212555D02*
X9608277Y-7231603D01*
X9608277Y-7231603D02*
X9589229Y-7241127D01*
X9893991Y-7383984D02*
X9779706Y-7383984D01*
X9836848Y-7383984D02*
X9836848Y-7183984D01*
X9836848Y-7183984D02*
X9817801Y-7212555D01*
X9817801Y-7212555D02*
X9798753Y-7231603D01*
X9798753Y-7231603D02*
X9779706Y-7241127D01*
X10008277Y-7269698D02*
X9989229Y-7260174D01*
X9989229Y-7260174D02*
X9979706Y-7250650D01*
X9979706Y-7250650D02*
X9970182Y-7231603D01*
X9970182Y-7231603D02*
X9970182Y-7222079D01*
X9970182Y-7222079D02*
X9979706Y-7203031D01*
X9979706Y-7203031D02*
X9989229Y-7193508D01*
X9989229Y-7193508D02*
X10008277Y-7183984D01*
X10008277Y-7183984D02*
X10046372Y-7183984D01*
X10046372Y-7183984D02*
X10065420Y-7193508D01*
X10065420Y-7193508D02*
X10074944Y-7203031D01*
X10074944Y-7203031D02*
X10084468Y-7222079D01*
X10084468Y-7222079D02*
X10084468Y-7231603D01*
X10084468Y-7231603D02*
X10074944Y-7250650D01*
X10074944Y-7250650D02*
X10065420Y-7260174D01*
X10065420Y-7260174D02*
X10046372Y-7269698D01*
X10046372Y-7269698D02*
X10008277Y-7269698D01*
X10008277Y-7269698D02*
X9989229Y-7279222D01*
X9989229Y-7279222D02*
X9979706Y-7288746D01*
X9979706Y-7288746D02*
X9970182Y-7307793D01*
X9970182Y-7307793D02*
X9970182Y-7345888D01*
X9970182Y-7345888D02*
X9979706Y-7364936D01*
X9979706Y-7364936D02*
X9989229Y-7374460D01*
X9989229Y-7374460D02*
X10008277Y-7383984D01*
X10008277Y-7383984D02*
X10046372Y-7383984D01*
X10046372Y-7383984D02*
X10065420Y-7374460D01*
X10065420Y-7374460D02*
X10074944Y-7364936D01*
X10074944Y-7364936D02*
X10084468Y-7345888D01*
X10084468Y-7345888D02*
X10084468Y-7307793D01*
X10084468Y-7307793D02*
X10074944Y-7288746D01*
X10074944Y-7288746D02*
X10065420Y-7279222D01*
X10065420Y-7279222D02*
X10046372Y-7269698D01*
X10274944Y-7383984D02*
X10160658Y-7383984D01*
X10217801Y-7383984D02*
X10217801Y-7183984D01*
X10217801Y-7183984D02*
X10198753Y-7212555D01*
X10198753Y-7212555D02*
X10179706Y-7231603D01*
X10179706Y-7231603D02*
X10160658Y-7241127D01*
X10351134Y-7183984D02*
X10351134Y-7222079D01*
X10427325Y-7183984D02*
X10427325Y-7222079D01*
X10722563Y-7460174D02*
X10713039Y-7450650D01*
X10713039Y-7450650D02*
X10693991Y-7422079D01*
X10693991Y-7422079D02*
X10684468Y-7403031D01*
X10684468Y-7403031D02*
X10674944Y-7374460D01*
X10674944Y-7374460D02*
X10665420Y-7326841D01*
X10665420Y-7326841D02*
X10665420Y-7288746D01*
X10665420Y-7288746D02*
X10674944Y-7241127D01*
X10674944Y-7241127D02*
X10684468Y-7212555D01*
X10684468Y-7212555D02*
X10693991Y-7193508D01*
X10693991Y-7193508D02*
X10713039Y-7164936D01*
X10713039Y-7164936D02*
X10722563Y-7155412D01*
X10884468Y-7250650D02*
X10884468Y-7383984D01*
X10836849Y-7174460D02*
X10789230Y-7317317D01*
X10789230Y-7317317D02*
X10913039Y-7317317D01*
X11141611Y-7383984D02*
X11141611Y-7183984D01*
X11227325Y-7383984D02*
X11227325Y-7279222D01*
X11227325Y-7279222D02*
X11217801Y-7260174D01*
X11217801Y-7260174D02*
X11198753Y-7250650D01*
X11198753Y-7250650D02*
X11170182Y-7250650D01*
X11170182Y-7250650D02*
X11151134Y-7260174D01*
X11151134Y-7260174D02*
X11141611Y-7269698D01*
X11351134Y-7383984D02*
X11332087Y-7374460D01*
X11332087Y-7374460D02*
X11322563Y-7364936D01*
X11322563Y-7364936D02*
X11313039Y-7345888D01*
X11313039Y-7345888D02*
X11313039Y-7288746D01*
X11313039Y-7288746D02*
X11322563Y-7269698D01*
X11322563Y-7269698D02*
X11332087Y-7260174D01*
X11332087Y-7260174D02*
X11351134Y-7250650D01*
X11351134Y-7250650D02*
X11379706Y-7250650D01*
X11379706Y-7250650D02*
X11398753Y-7260174D01*
X11398753Y-7260174D02*
X11408277Y-7269698D01*
X11408277Y-7269698D02*
X11417801Y-7288746D01*
X11417801Y-7288746D02*
X11417801Y-7345888D01*
X11417801Y-7345888D02*
X11408277Y-7364936D01*
X11408277Y-7364936D02*
X11398753Y-7374460D01*
X11398753Y-7374460D02*
X11379706Y-7383984D01*
X11379706Y-7383984D02*
X11351134Y-7383984D01*
X11532087Y-7383984D02*
X11513039Y-7374460D01*
X11513039Y-7374460D02*
X11503515Y-7355412D01*
X11503515Y-7355412D02*
X11503515Y-7183984D01*
X11684468Y-7374460D02*
X11665420Y-7383984D01*
X11665420Y-7383984D02*
X11627325Y-7383984D01*
X11627325Y-7383984D02*
X11608277Y-7374460D01*
X11608277Y-7374460D02*
X11598753Y-7355412D01*
X11598753Y-7355412D02*
X11598753Y-7279222D01*
X11598753Y-7279222D02*
X11608277Y-7260174D01*
X11608277Y-7260174D02*
X11627325Y-7250650D01*
X11627325Y-7250650D02*
X11665420Y-7250650D01*
X11665420Y-7250650D02*
X11684468Y-7260174D01*
X11684468Y-7260174D02*
X11693991Y-7279222D01*
X11693991Y-7279222D02*
X11693991Y-7298269D01*
X11693991Y-7298269D02*
X11598753Y-7317317D01*
X11770182Y-7374460D02*
X11789230Y-7383984D01*
X11789230Y-7383984D02*
X11827325Y-7383984D01*
X11827325Y-7383984D02*
X11846372Y-7374460D01*
X11846372Y-7374460D02*
X11855896Y-7355412D01*
X11855896Y-7355412D02*
X11855896Y-7345888D01*
X11855896Y-7345888D02*
X11846372Y-7326841D01*
X11846372Y-7326841D02*
X11827325Y-7317317D01*
X11827325Y-7317317D02*
X11798753Y-7317317D01*
X11798753Y-7317317D02*
X11779706Y-7307793D01*
X11779706Y-7307793D02*
X11770182Y-7288746D01*
X11770182Y-7288746D02*
X11770182Y-7279222D01*
X11770182Y-7279222D02*
X11779706Y-7260174D01*
X11779706Y-7260174D02*
X11798753Y-7250650D01*
X11798753Y-7250650D02*
X11827325Y-7250650D01*
X11827325Y-7250650D02*
X11846372Y-7260174D01*
X11922563Y-7460174D02*
X11932087Y-7450650D01*
X11932087Y-7450650D02*
X11951134Y-7422079D01*
X11951134Y-7422079D02*
X11960658Y-7403031D01*
X11960658Y-7403031D02*
X11970182Y-7374460D01*
X11970182Y-7374460D02*
X11979706Y-7326841D01*
X11979706Y-7326841D02*
X11979706Y-7288746D01*
X11979706Y-7288746D02*
X11970182Y-7241127D01*
X11970182Y-7241127D02*
X11960658Y-7212555D01*
X11960658Y-7212555D02*
X11951134Y-7193508D01*
X11951134Y-7193508D02*
X11932087Y-7164936D01*
X11932087Y-7164936D02*
X11922563Y-7155412D01*
X12284468Y-7460174D02*
X12274944Y-7450650D01*
X12274944Y-7450650D02*
X12255896Y-7422079D01*
X12255896Y-7422079D02*
X12246372Y-7403031D01*
X12246372Y-7403031D02*
X12236849Y-7374460D01*
X12236849Y-7374460D02*
X12227325Y-7326841D01*
X12227325Y-7326841D02*
X12227325Y-7288746D01*
X12227325Y-7288746D02*
X12236849Y-7241127D01*
X12236849Y-7241127D02*
X12246372Y-7212555D01*
X12246372Y-7212555D02*
X12255896Y-7193508D01*
X12255896Y-7193508D02*
X12274944Y-7164936D01*
X12274944Y-7164936D02*
X12284468Y-7155412D01*
X12360658Y-7250650D02*
X12360658Y-7383984D01*
X12360658Y-7269698D02*
X12370182Y-7260174D01*
X12370182Y-7260174D02*
X12389230Y-7250650D01*
X12389230Y-7250650D02*
X12417801Y-7250650D01*
X12417801Y-7250650D02*
X12436849Y-7260174D01*
X12436849Y-7260174D02*
X12446372Y-7279222D01*
X12446372Y-7279222D02*
X12446372Y-7383984D01*
X12570182Y-7383984D02*
X12551134Y-7374460D01*
X12551134Y-7374460D02*
X12541611Y-7364936D01*
X12541611Y-7364936D02*
X12532087Y-7345888D01*
X12532087Y-7345888D02*
X12532087Y-7288746D01*
X12532087Y-7288746D02*
X12541611Y-7269698D01*
X12541611Y-7269698D02*
X12551134Y-7260174D01*
X12551134Y-7260174D02*
X12570182Y-7250650D01*
X12570182Y-7250650D02*
X12598753Y-7250650D01*
X12598753Y-7250650D02*
X12617801Y-7260174D01*
X12617801Y-7260174D02*
X12627325Y-7269698D01*
X12627325Y-7269698D02*
X12636849Y-7288746D01*
X12636849Y-7288746D02*
X12636849Y-7345888D01*
X12636849Y-7345888D02*
X12627325Y-7364936D01*
X12627325Y-7364936D02*
X12617801Y-7374460D01*
X12617801Y-7374460D02*
X12598753Y-7383984D01*
X12598753Y-7383984D02*
X12570182Y-7383984D01*
X12693992Y-7250650D02*
X12770182Y-7250650D01*
X12722563Y-7183984D02*
X12722563Y-7355412D01*
X12722563Y-7355412D02*
X12732087Y-7374460D01*
X12732087Y-7374460D02*
X12751134Y-7383984D01*
X12751134Y-7383984D02*
X12770182Y-7383984D01*
X12989230Y-7250650D02*
X12989230Y-7450650D01*
X12989230Y-7260174D02*
X13008277Y-7250650D01*
X13008277Y-7250650D02*
X13046373Y-7250650D01*
X13046373Y-7250650D02*
X13065420Y-7260174D01*
X13065420Y-7260174D02*
X13074944Y-7269698D01*
X13074944Y-7269698D02*
X13084468Y-7288746D01*
X13084468Y-7288746D02*
X13084468Y-7345888D01*
X13084468Y-7345888D02*
X13074944Y-7364936D01*
X13074944Y-7364936D02*
X13065420Y-7374460D01*
X13065420Y-7374460D02*
X13046373Y-7383984D01*
X13046373Y-7383984D02*
X13008277Y-7383984D01*
X13008277Y-7383984D02*
X12989230Y-7374460D01*
X13198753Y-7383984D02*
X13179706Y-7374460D01*
X13179706Y-7374460D02*
X13170182Y-7355412D01*
X13170182Y-7355412D02*
X13170182Y-7183984D01*
X13360658Y-7383984D02*
X13360658Y-7279222D01*
X13360658Y-7279222D02*
X13351134Y-7260174D01*
X13351134Y-7260174D02*
X13332087Y-7250650D01*
X13332087Y-7250650D02*
X13293992Y-7250650D01*
X13293992Y-7250650D02*
X13274944Y-7260174D01*
X13360658Y-7374460D02*
X13341611Y-7383984D01*
X13341611Y-7383984D02*
X13293992Y-7383984D01*
X13293992Y-7383984D02*
X13274944Y-7374460D01*
X13274944Y-7374460D02*
X13265420Y-7355412D01*
X13265420Y-7355412D02*
X13265420Y-7336365D01*
X13265420Y-7336365D02*
X13274944Y-7317317D01*
X13274944Y-7317317D02*
X13293992Y-7307793D01*
X13293992Y-7307793D02*
X13341611Y-7307793D01*
X13341611Y-7307793D02*
X13360658Y-7298269D01*
X13427325Y-7250650D02*
X13503515Y-7250650D01*
X13455896Y-7183984D02*
X13455896Y-7355412D01*
X13455896Y-7355412D02*
X13465420Y-7374460D01*
X13465420Y-7374460D02*
X13484468Y-7383984D01*
X13484468Y-7383984D02*
X13503515Y-7383984D01*
X13646373Y-7374460D02*
X13627325Y-7383984D01*
X13627325Y-7383984D02*
X13589230Y-7383984D01*
X13589230Y-7383984D02*
X13570182Y-7374460D01*
X13570182Y-7374460D02*
X13560658Y-7355412D01*
X13560658Y-7355412D02*
X13560658Y-7279222D01*
X13560658Y-7279222D02*
X13570182Y-7260174D01*
X13570182Y-7260174D02*
X13589230Y-7250650D01*
X13589230Y-7250650D02*
X13627325Y-7250650D01*
X13627325Y-7250650D02*
X13646373Y-7260174D01*
X13646373Y-7260174D02*
X13655896Y-7279222D01*
X13655896Y-7279222D02*
X13655896Y-7298269D01*
X13655896Y-7298269D02*
X13560658Y-7317317D01*
X13827325Y-7383984D02*
X13827325Y-7183984D01*
X13827325Y-7374460D02*
X13808277Y-7383984D01*
X13808277Y-7383984D02*
X13770182Y-7383984D01*
X13770182Y-7383984D02*
X13751134Y-7374460D01*
X13751134Y-7374460D02*
X13741611Y-7364936D01*
X13741611Y-7364936D02*
X13732087Y-7345888D01*
X13732087Y-7345888D02*
X13732087Y-7288746D01*
X13732087Y-7288746D02*
X13741611Y-7269698D01*
X13741611Y-7269698D02*
X13751134Y-7260174D01*
X13751134Y-7260174D02*
X13770182Y-7250650D01*
X13770182Y-7250650D02*
X13808277Y-7250650D01*
X13808277Y-7250650D02*
X13827325Y-7260174D01*
X13903515Y-7460174D02*
X13913039Y-7450650D01*
X13913039Y-7450650D02*
X13932087Y-7422079D01*
X13932087Y-7422079D02*
X13941611Y-7403031D01*
X13941611Y-7403031D02*
X13951134Y-7374460D01*
X13951134Y-7374460D02*
X13960658Y-7326841D01*
X13960658Y-7326841D02*
X13960658Y-7288746D01*
X13960658Y-7288746D02*
X13951134Y-7241127D01*
X13951134Y-7241127D02*
X13941611Y-7212555D01*
X13941611Y-7212555D02*
X13932087Y-7193508D01*
X13932087Y-7193508D02*
X13913039Y-7164936D01*
X13913039Y-7164936D02*
X13903515Y-7155412D01*
M02*
