%TF.GenerationSoftware,KiCad,Pcbnew,8.0.4*%
%TF.CreationDate,2025-02-11T11:06:45-05:00*%
%TF.ProjectId,plusle,706c7573-6c65-42e6-9b69-6361645f7063,rev?*%
%TF.SameCoordinates,Original*%
%TF.FileFunction,Legend,Bot*%
%TF.FilePolarity,Positive*%
%FSLAX46Y46*%
G04 Gerber Fmt 4.6, Leading zero omitted, Abs format (unit mm)*
G04 Created by KiCad (PCBNEW 8.0.4) date 2025-02-11 11:06:45*
%MOMM*%
%LPD*%
G01*
G04 APERTURE LIST*
%ADD10C,0.100000*%
G04 APERTURE END LIST*
D10*
X143502068Y-36718010D02*
X143216353Y-36718010D01*
X143580639Y-36889439D02*
X143305639Y-36289439D01*
X143305639Y-36289439D02*
X143180639Y-36889439D01*
X142894925Y-36889439D02*
X142948496Y-36860868D01*
X142948496Y-36860868D02*
X142969925Y-36803725D01*
X142969925Y-36803725D02*
X142905639Y-36289439D01*
X142434210Y-36860868D02*
X142494924Y-36889439D01*
X142494924Y-36889439D02*
X142609210Y-36889439D01*
X142609210Y-36889439D02*
X142662781Y-36860868D01*
X142662781Y-36860868D02*
X142684210Y-36803725D01*
X142684210Y-36803725D02*
X142655639Y-36575153D01*
X142655639Y-36575153D02*
X142619924Y-36518010D01*
X142619924Y-36518010D02*
X142559210Y-36489439D01*
X142559210Y-36489439D02*
X142444924Y-36489439D01*
X142444924Y-36489439D02*
X142391353Y-36518010D01*
X142391353Y-36518010D02*
X142369924Y-36575153D01*
X142369924Y-36575153D02*
X142377067Y-36632296D01*
X142377067Y-36632296D02*
X142669924Y-36689439D01*
X142209210Y-36889439D02*
X141844924Y-36489439D01*
X142159210Y-36489439D02*
X141894924Y-36889439D01*
X141209210Y-36889439D02*
X141134210Y-36289439D01*
X141134210Y-36289439D02*
X140905638Y-36289439D01*
X140905638Y-36289439D02*
X140852067Y-36318010D01*
X140852067Y-36318010D02*
X140827067Y-36346582D01*
X140827067Y-36346582D02*
X140805638Y-36403725D01*
X140805638Y-36403725D02*
X140816353Y-36489439D01*
X140816353Y-36489439D02*
X140852067Y-36546582D01*
X140852067Y-36546582D02*
X140884210Y-36575153D01*
X140884210Y-36575153D02*
X140944924Y-36603725D01*
X140944924Y-36603725D02*
X141173496Y-36603725D01*
X140377067Y-36860868D02*
X140437781Y-36889439D01*
X140437781Y-36889439D02*
X140552067Y-36889439D01*
X140552067Y-36889439D02*
X140605638Y-36860868D01*
X140605638Y-36860868D02*
X140627067Y-36803725D01*
X140627067Y-36803725D02*
X140598496Y-36575153D01*
X140598496Y-36575153D02*
X140562781Y-36518010D01*
X140562781Y-36518010D02*
X140502067Y-36489439D01*
X140502067Y-36489439D02*
X140387781Y-36489439D01*
X140387781Y-36489439D02*
X140334210Y-36518010D01*
X140334210Y-36518010D02*
X140312781Y-36575153D01*
X140312781Y-36575153D02*
X140319924Y-36632296D01*
X140319924Y-36632296D02*
X140612781Y-36689439D01*
X140044924Y-36489439D02*
X140094924Y-36889439D01*
X140052067Y-36546582D02*
X140019924Y-36518010D01*
X140019924Y-36518010D02*
X139959210Y-36489439D01*
X139959210Y-36489439D02*
X139873495Y-36489439D01*
X139873495Y-36489439D02*
X139819924Y-36518010D01*
X139819924Y-36518010D02*
X139798495Y-36575153D01*
X139798495Y-36575153D02*
X139837781Y-36889439D01*
X139244924Y-36489439D02*
X139305638Y-36975153D01*
X139305638Y-36975153D02*
X139341353Y-37032296D01*
X139341353Y-37032296D02*
X139373495Y-37060868D01*
X139373495Y-37060868D02*
X139434210Y-37089439D01*
X139434210Y-37089439D02*
X139519924Y-37089439D01*
X139519924Y-37089439D02*
X139573495Y-37060868D01*
X139291353Y-36860868D02*
X139352067Y-36889439D01*
X139352067Y-36889439D02*
X139466353Y-36889439D01*
X139466353Y-36889439D02*
X139519924Y-36860868D01*
X139519924Y-36860868D02*
X139544924Y-36832296D01*
X139544924Y-36832296D02*
X139566353Y-36775153D01*
X139566353Y-36775153D02*
X139544924Y-36603725D01*
X139544924Y-36603725D02*
X139509210Y-36546582D01*
X139509210Y-36546582D02*
X139477067Y-36518010D01*
X139477067Y-36518010D02*
X139416353Y-36489439D01*
X139416353Y-36489439D02*
X139302067Y-36489439D01*
X139302067Y-36489439D02*
X139248495Y-36518010D01*
X143519925Y-37826834D02*
X143437782Y-37855405D01*
X143437782Y-37855405D02*
X143294925Y-37855405D01*
X143294925Y-37855405D02*
X143234211Y-37826834D01*
X143234211Y-37826834D02*
X143202068Y-37798262D01*
X143202068Y-37798262D02*
X143166353Y-37741119D01*
X143166353Y-37741119D02*
X143159211Y-37683976D01*
X143159211Y-37683976D02*
X143180639Y-37626834D01*
X143180639Y-37626834D02*
X143205639Y-37598262D01*
X143205639Y-37598262D02*
X143259211Y-37569691D01*
X143259211Y-37569691D02*
X143369925Y-37541119D01*
X143369925Y-37541119D02*
X143423496Y-37512548D01*
X143423496Y-37512548D02*
X143448496Y-37483976D01*
X143448496Y-37483976D02*
X143469925Y-37426834D01*
X143469925Y-37426834D02*
X143462782Y-37369691D01*
X143462782Y-37369691D02*
X143427068Y-37312548D01*
X143427068Y-37312548D02*
X143394925Y-37283976D01*
X143394925Y-37283976D02*
X143334211Y-37255405D01*
X143334211Y-37255405D02*
X143191353Y-37255405D01*
X143191353Y-37255405D02*
X143109211Y-37283976D01*
X142873496Y-37455405D02*
X142948496Y-38055405D01*
X142877067Y-37483976D02*
X142816353Y-37455405D01*
X142816353Y-37455405D02*
X142702067Y-37455405D01*
X142702067Y-37455405D02*
X142648496Y-37483976D01*
X142648496Y-37483976D02*
X142623496Y-37512548D01*
X142623496Y-37512548D02*
X142602067Y-37569691D01*
X142602067Y-37569691D02*
X142623496Y-37741119D01*
X142623496Y-37741119D02*
X142659210Y-37798262D01*
X142659210Y-37798262D02*
X142691353Y-37826834D01*
X142691353Y-37826834D02*
X142752067Y-37855405D01*
X142752067Y-37855405D02*
X142866353Y-37855405D01*
X142866353Y-37855405D02*
X142919924Y-37826834D01*
X142380639Y-37855405D02*
X142330639Y-37455405D01*
X142344925Y-37569691D02*
X142309210Y-37512548D01*
X142309210Y-37512548D02*
X142277067Y-37483976D01*
X142277067Y-37483976D02*
X142216353Y-37455405D01*
X142216353Y-37455405D02*
X142159210Y-37455405D01*
X142009210Y-37855405D02*
X141959210Y-37455405D01*
X141934210Y-37255405D02*
X141966353Y-37283976D01*
X141966353Y-37283976D02*
X141941353Y-37312548D01*
X141941353Y-37312548D02*
X141909210Y-37283976D01*
X141909210Y-37283976D02*
X141934210Y-37255405D01*
X141934210Y-37255405D02*
X141941353Y-37312548D01*
X141673496Y-37455405D02*
X141723496Y-37855405D01*
X141680639Y-37512548D02*
X141648496Y-37483976D01*
X141648496Y-37483976D02*
X141587782Y-37455405D01*
X141587782Y-37455405D02*
X141502067Y-37455405D01*
X141502067Y-37455405D02*
X141448496Y-37483976D01*
X141448496Y-37483976D02*
X141427067Y-37541119D01*
X141427067Y-37541119D02*
X141466353Y-37855405D01*
X140873496Y-37455405D02*
X140934210Y-37941119D01*
X140934210Y-37941119D02*
X140969925Y-37998262D01*
X140969925Y-37998262D02*
X141002067Y-38026834D01*
X141002067Y-38026834D02*
X141062782Y-38055405D01*
X141062782Y-38055405D02*
X141148496Y-38055405D01*
X141148496Y-38055405D02*
X141202067Y-38026834D01*
X140919925Y-37826834D02*
X140980639Y-37855405D01*
X140980639Y-37855405D02*
X141094925Y-37855405D01*
X141094925Y-37855405D02*
X141148496Y-37826834D01*
X141148496Y-37826834D02*
X141173496Y-37798262D01*
X141173496Y-37798262D02*
X141194925Y-37741119D01*
X141194925Y-37741119D02*
X141173496Y-37569691D01*
X141173496Y-37569691D02*
X141137782Y-37512548D01*
X141137782Y-37512548D02*
X141105639Y-37483976D01*
X141105639Y-37483976D02*
X141044925Y-37455405D01*
X141044925Y-37455405D02*
X140930639Y-37455405D01*
X140930639Y-37455405D02*
X140877067Y-37483976D01*
X140141353Y-37312548D02*
X140109210Y-37283976D01*
X140109210Y-37283976D02*
X140048496Y-37255405D01*
X140048496Y-37255405D02*
X139905639Y-37255405D01*
X139905639Y-37255405D02*
X139852067Y-37283976D01*
X139852067Y-37283976D02*
X139827067Y-37312548D01*
X139827067Y-37312548D02*
X139805639Y-37369691D01*
X139805639Y-37369691D02*
X139812782Y-37426834D01*
X139812782Y-37426834D02*
X139852067Y-37512548D01*
X139852067Y-37512548D02*
X140237782Y-37855405D01*
X140237782Y-37855405D02*
X139866353Y-37855405D01*
X139419924Y-37255405D02*
X139362781Y-37255405D01*
X139362781Y-37255405D02*
X139309210Y-37283976D01*
X139309210Y-37283976D02*
X139284210Y-37312548D01*
X139284210Y-37312548D02*
X139262781Y-37369691D01*
X139262781Y-37369691D02*
X139248496Y-37483976D01*
X139248496Y-37483976D02*
X139266353Y-37626834D01*
X139266353Y-37626834D02*
X139309210Y-37741119D01*
X139309210Y-37741119D02*
X139344924Y-37798262D01*
X139344924Y-37798262D02*
X139377067Y-37826834D01*
X139377067Y-37826834D02*
X139437781Y-37855405D01*
X139437781Y-37855405D02*
X139494924Y-37855405D01*
X139494924Y-37855405D02*
X139548496Y-37826834D01*
X139548496Y-37826834D02*
X139573496Y-37798262D01*
X139573496Y-37798262D02*
X139594924Y-37741119D01*
X139594924Y-37741119D02*
X139609210Y-37626834D01*
X139609210Y-37626834D02*
X139591353Y-37483976D01*
X139591353Y-37483976D02*
X139548496Y-37369691D01*
X139548496Y-37369691D02*
X139512781Y-37312548D01*
X139512781Y-37312548D02*
X139480638Y-37283976D01*
X139480638Y-37283976D02*
X139419924Y-37255405D01*
X138998495Y-37312548D02*
X138966352Y-37283976D01*
X138966352Y-37283976D02*
X138905638Y-37255405D01*
X138905638Y-37255405D02*
X138762781Y-37255405D01*
X138762781Y-37255405D02*
X138709209Y-37283976D01*
X138709209Y-37283976D02*
X138684209Y-37312548D01*
X138684209Y-37312548D02*
X138662781Y-37369691D01*
X138662781Y-37369691D02*
X138669924Y-37426834D01*
X138669924Y-37426834D02*
X138709209Y-37512548D01*
X138709209Y-37512548D02*
X139094924Y-37855405D01*
X139094924Y-37855405D02*
X138723495Y-37855405D01*
X138105638Y-37255405D02*
X138391352Y-37255405D01*
X138391352Y-37255405D02*
X138455638Y-37541119D01*
X138455638Y-37541119D02*
X138423495Y-37512548D01*
X138423495Y-37512548D02*
X138362780Y-37483976D01*
X138362780Y-37483976D02*
X138219923Y-37483976D01*
X138219923Y-37483976D02*
X138166352Y-37512548D01*
X138166352Y-37512548D02*
X138141352Y-37541119D01*
X138141352Y-37541119D02*
X138119923Y-37598262D01*
X138119923Y-37598262D02*
X138137780Y-37741119D01*
X138137780Y-37741119D02*
X138173495Y-37798262D01*
X138173495Y-37798262D02*
X138205638Y-37826834D01*
X138205638Y-37826834D02*
X138266352Y-37855405D01*
X138266352Y-37855405D02*
X138409209Y-37855405D01*
X138409209Y-37855405D02*
X138462780Y-37826834D01*
X138462780Y-37826834D02*
X138487780Y-37798262D01*
X143409211Y-38821371D02*
X143462782Y-38792800D01*
X143462782Y-38792800D02*
X143484211Y-38735657D01*
X143484211Y-38735657D02*
X143419925Y-38221371D01*
X142873496Y-38421371D02*
X142923496Y-38821371D01*
X143130639Y-38421371D02*
X143169925Y-38735657D01*
X143169925Y-38735657D02*
X143148496Y-38792800D01*
X143148496Y-38792800D02*
X143094925Y-38821371D01*
X143094925Y-38821371D02*
X143009210Y-38821371D01*
X143009210Y-38821371D02*
X142948496Y-38792800D01*
X142948496Y-38792800D02*
X142916353Y-38764228D01*
X142587782Y-38421371D02*
X142637782Y-38821371D01*
X142594925Y-38478514D02*
X142562782Y-38449942D01*
X142562782Y-38449942D02*
X142502068Y-38421371D01*
X142502068Y-38421371D02*
X142416353Y-38421371D01*
X142416353Y-38421371D02*
X142362782Y-38449942D01*
X142362782Y-38449942D02*
X142341353Y-38507085D01*
X142341353Y-38507085D02*
X142380639Y-38821371D01*
X142009211Y-38821371D02*
X142062782Y-38792800D01*
X142062782Y-38792800D02*
X142087782Y-38764228D01*
X142087782Y-38764228D02*
X142109211Y-38707085D01*
X142109211Y-38707085D02*
X142087782Y-38535657D01*
X142087782Y-38535657D02*
X142052068Y-38478514D01*
X142052068Y-38478514D02*
X142019925Y-38449942D01*
X142019925Y-38449942D02*
X141959211Y-38421371D01*
X141959211Y-38421371D02*
X141873496Y-38421371D01*
X141873496Y-38421371D02*
X141819925Y-38449942D01*
X141819925Y-38449942D02*
X141794925Y-38478514D01*
X141794925Y-38478514D02*
X141773496Y-38535657D01*
X141773496Y-38535657D02*
X141794925Y-38707085D01*
X141794925Y-38707085D02*
X141830639Y-38764228D01*
X141830639Y-38764228D02*
X141862782Y-38792800D01*
X141862782Y-38792800D02*
X141923496Y-38821371D01*
X141923496Y-38821371D02*
X142009211Y-38821371D01*
X141609211Y-38821371D02*
X141244925Y-38421371D01*
X141559211Y-38421371D02*
X141294925Y-38821371D01*
X141066354Y-38821371D02*
X141016354Y-38421371D01*
X141030640Y-38535657D02*
X140994925Y-38478514D01*
X140994925Y-38478514D02*
X140962782Y-38449942D01*
X140962782Y-38449942D02*
X140902068Y-38421371D01*
X140902068Y-38421371D02*
X140844925Y-38421371D01*
X140609211Y-38821371D02*
X140662782Y-38792800D01*
X140662782Y-38792800D02*
X140687782Y-38764228D01*
X140687782Y-38764228D02*
X140709211Y-38707085D01*
X140709211Y-38707085D02*
X140687782Y-38535657D01*
X140687782Y-38535657D02*
X140652068Y-38478514D01*
X140652068Y-38478514D02*
X140619925Y-38449942D01*
X140619925Y-38449942D02*
X140559211Y-38421371D01*
X140559211Y-38421371D02*
X140473496Y-38421371D01*
X140473496Y-38421371D02*
X140419925Y-38449942D01*
X140419925Y-38449942D02*
X140394925Y-38478514D01*
X140394925Y-38478514D02*
X140373496Y-38535657D01*
X140373496Y-38535657D02*
X140394925Y-38707085D01*
X140394925Y-38707085D02*
X140430639Y-38764228D01*
X140430639Y-38764228D02*
X140462782Y-38792800D01*
X140462782Y-38792800D02*
X140523496Y-38821371D01*
X140523496Y-38821371D02*
X140609211Y-38821371D01*
X140152068Y-38821371D02*
X140077068Y-38221371D01*
X140105639Y-38449942D02*
X140044925Y-38421371D01*
X140044925Y-38421371D02*
X139930639Y-38421371D01*
X139930639Y-38421371D02*
X139877068Y-38449942D01*
X139877068Y-38449942D02*
X139852068Y-38478514D01*
X139852068Y-38478514D02*
X139830639Y-38535657D01*
X139830639Y-38535657D02*
X139852068Y-38707085D01*
X139852068Y-38707085D02*
X139887782Y-38764228D01*
X139887782Y-38764228D02*
X139919925Y-38792800D01*
X139919925Y-38792800D02*
X139980639Y-38821371D01*
X139980639Y-38821371D02*
X140094925Y-38821371D01*
X140094925Y-38821371D02*
X140148496Y-38792800D01*
X139523497Y-38821371D02*
X139577068Y-38792800D01*
X139577068Y-38792800D02*
X139602068Y-38764228D01*
X139602068Y-38764228D02*
X139623497Y-38707085D01*
X139623497Y-38707085D02*
X139602068Y-38535657D01*
X139602068Y-38535657D02*
X139566354Y-38478514D01*
X139566354Y-38478514D02*
X139534211Y-38449942D01*
X139534211Y-38449942D02*
X139473497Y-38421371D01*
X139473497Y-38421371D02*
X139387782Y-38421371D01*
X139387782Y-38421371D02*
X139334211Y-38449942D01*
X139334211Y-38449942D02*
X139309211Y-38478514D01*
X139309211Y-38478514D02*
X139287782Y-38535657D01*
X139287782Y-38535657D02*
X139309211Y-38707085D01*
X139309211Y-38707085D02*
X139344925Y-38764228D01*
X139344925Y-38764228D02*
X139377068Y-38792800D01*
X139377068Y-38792800D02*
X139437782Y-38821371D01*
X139437782Y-38821371D02*
X139523497Y-38821371D01*
X139102068Y-38421371D02*
X138873497Y-38421371D01*
X138991354Y-38221371D02*
X139055640Y-38735657D01*
X139055640Y-38735657D02*
X139034211Y-38792800D01*
X139034211Y-38792800D02*
X138980640Y-38821371D01*
X138980640Y-38821371D02*
X138923497Y-38821371D01*
X138723497Y-38821371D02*
X138673497Y-38421371D01*
X138648497Y-38221371D02*
X138680640Y-38249942D01*
X138680640Y-38249942D02*
X138655640Y-38278514D01*
X138655640Y-38278514D02*
X138623497Y-38249942D01*
X138623497Y-38249942D02*
X138648497Y-38221371D01*
X138648497Y-38221371D02*
X138655640Y-38278514D01*
X138177069Y-38792800D02*
X138237783Y-38821371D01*
X138237783Y-38821371D02*
X138352069Y-38821371D01*
X138352069Y-38821371D02*
X138405640Y-38792800D01*
X138405640Y-38792800D02*
X138430640Y-38764228D01*
X138430640Y-38764228D02*
X138452069Y-38707085D01*
X138452069Y-38707085D02*
X138430640Y-38535657D01*
X138430640Y-38535657D02*
X138394926Y-38478514D01*
X138394926Y-38478514D02*
X138362783Y-38449942D01*
X138362783Y-38449942D02*
X138302069Y-38421371D01*
X138302069Y-38421371D02*
X138187783Y-38421371D01*
X138187783Y-38421371D02*
X138134211Y-38449942D01*
X137948497Y-38792800D02*
X137894925Y-38821371D01*
X137894925Y-38821371D02*
X137780640Y-38821371D01*
X137780640Y-38821371D02*
X137719925Y-38792800D01*
X137719925Y-38792800D02*
X137684211Y-38735657D01*
X137684211Y-38735657D02*
X137680640Y-38707085D01*
X137680640Y-38707085D02*
X137702068Y-38649942D01*
X137702068Y-38649942D02*
X137755640Y-38621371D01*
X137755640Y-38621371D02*
X137841354Y-38621371D01*
X137841354Y-38621371D02*
X137894925Y-38592800D01*
X137894925Y-38592800D02*
X137916354Y-38535657D01*
X137916354Y-38535657D02*
X137912783Y-38507085D01*
X137912783Y-38507085D02*
X137877068Y-38449942D01*
X137877068Y-38449942D02*
X137816354Y-38421371D01*
X137816354Y-38421371D02*
X137730640Y-38421371D01*
X137730640Y-38421371D02*
X137677068Y-38449942D01*
X137430640Y-38764228D02*
X137405640Y-38792800D01*
X137405640Y-38792800D02*
X137437783Y-38821371D01*
X137437783Y-38821371D02*
X137462783Y-38792800D01*
X137462783Y-38792800D02*
X137430640Y-38764228D01*
X137430640Y-38764228D02*
X137437783Y-38821371D01*
X136891355Y-38792800D02*
X136952069Y-38821371D01*
X136952069Y-38821371D02*
X137066355Y-38821371D01*
X137066355Y-38821371D02*
X137119926Y-38792800D01*
X137119926Y-38792800D02*
X137144926Y-38764228D01*
X137144926Y-38764228D02*
X137166355Y-38707085D01*
X137166355Y-38707085D02*
X137144926Y-38535657D01*
X137144926Y-38535657D02*
X137109212Y-38478514D01*
X137109212Y-38478514D02*
X137077069Y-38449942D01*
X137077069Y-38449942D02*
X137016355Y-38421371D01*
X137016355Y-38421371D02*
X136902069Y-38421371D01*
X136902069Y-38421371D02*
X136848497Y-38449942D01*
X136552069Y-38821371D02*
X136605640Y-38792800D01*
X136605640Y-38792800D02*
X136630640Y-38764228D01*
X136630640Y-38764228D02*
X136652069Y-38707085D01*
X136652069Y-38707085D02*
X136630640Y-38535657D01*
X136630640Y-38535657D02*
X136594926Y-38478514D01*
X136594926Y-38478514D02*
X136562783Y-38449942D01*
X136562783Y-38449942D02*
X136502069Y-38421371D01*
X136502069Y-38421371D02*
X136416354Y-38421371D01*
X136416354Y-38421371D02*
X136362783Y-38449942D01*
X136362783Y-38449942D02*
X136337783Y-38478514D01*
X136337783Y-38478514D02*
X136316354Y-38535657D01*
X136316354Y-38535657D02*
X136337783Y-38707085D01*
X136337783Y-38707085D02*
X136373497Y-38764228D01*
X136373497Y-38764228D02*
X136405640Y-38792800D01*
X136405640Y-38792800D02*
X136466354Y-38821371D01*
X136466354Y-38821371D02*
X136552069Y-38821371D01*
X136094926Y-38821371D02*
X136044926Y-38421371D01*
X136052069Y-38478514D02*
X136019926Y-38449942D01*
X136019926Y-38449942D02*
X135959212Y-38421371D01*
X135959212Y-38421371D02*
X135873497Y-38421371D01*
X135873497Y-38421371D02*
X135819926Y-38449942D01*
X135819926Y-38449942D02*
X135798497Y-38507085D01*
X135798497Y-38507085D02*
X135837783Y-38821371D01*
X135798497Y-38507085D02*
X135762783Y-38449942D01*
X135762783Y-38449942D02*
X135702069Y-38421371D01*
X135702069Y-38421371D02*
X135616354Y-38421371D01*
X135616354Y-38421371D02*
X135562783Y-38449942D01*
X135562783Y-38449942D02*
X135541354Y-38507085D01*
X135541354Y-38507085D02*
X135580640Y-38821371D01*
M02*
