%TF.GenerationSoftware,KiCad,Pcbnew,8.0.4*%
%TF.CreationDate,2025-02-11T11:06:45-05:00*%
%TF.ProjectId,plusle,706c7573-6c65-42e6-9b69-6361645f7063,rev?*%
%TF.SameCoordinates,Original*%
%TF.FileFunction,Soldermask,Top*%
%TF.FilePolarity,Negative*%
%FSLAX46Y46*%
G04 Gerber Fmt 4.6, Leading zero omitted, Abs format (unit mm)*
G04 Created by KiCad (PCBNEW 8.0.4) date 2025-02-11 11:06:45*
%MOMM*%
%LPD*%
G01*
G04 APERTURE LIST*
G04 Aperture macros list*
%AMRoundRect*
0 Rectangle with rounded corners*
0 $1 Rounding radius*
0 $2 $3 $4 $5 $6 $7 $8 $9 X,Y pos of 4 corners*
0 Add a 4 corners polygon primitive as box body*
4,1,4,$2,$3,$4,$5,$6,$7,$8,$9,$2,$3,0*
0 Add four circle primitives for the rounded corners*
1,1,$1+$1,$2,$3*
1,1,$1+$1,$4,$5*
1,1,$1+$1,$6,$7*
1,1,$1+$1,$8,$9*
0 Add four rect primitives between the rounded corners*
20,1,$1+$1,$2,$3,$4,$5,0*
20,1,$1+$1,$4,$5,$6,$7,0*
20,1,$1+$1,$6,$7,$8,$9,0*
20,1,$1+$1,$8,$9,$2,$3,0*%
G04 Aperture macros list end*
%ADD10R,2.000000X2.000000*%
%ADD11C,2.000000*%
%ADD12C,3.000000*%
%ADD13RoundRect,0.102000X1.000000X-1.000000X1.000000X1.000000X-1.000000X1.000000X-1.000000X-1.000000X0*%
%ADD14C,2.204000*%
%ADD15RoundRect,0.102000X-0.679000X-0.679000X0.679000X-0.679000X0.679000X0.679000X-0.679000X0.679000X0*%
%ADD16C,1.562000*%
%ADD17C,2.184000*%
G04 APERTURE END LIST*
D10*
%TO.C,J2*%
X140650000Y-51825000D03*
D11*
X140650000Y-54365000D03*
%TD*%
D12*
%TO.C,U1*%
X65525000Y-63280000D03*
X112475000Y-63280000D03*
X65525000Y-38770000D03*
X112475000Y-38770000D03*
D13*
X73485000Y-63700000D03*
D14*
X76025000Y-63700000D03*
X78565000Y-63700000D03*
X81105000Y-63700000D03*
X83645000Y-63700000D03*
X86185000Y-63700000D03*
X88725000Y-63700000D03*
X91265000Y-63700000D03*
X93805000Y-63700000D03*
X96345000Y-63700000D03*
X98885000Y-63700000D03*
X101425000Y-63700000D03*
X103965000Y-63700000D03*
X106505000Y-63700000D03*
X109045000Y-63700000D03*
X109045000Y-38300000D03*
X106505000Y-38300000D03*
X103965000Y-38300000D03*
X101425000Y-38300000D03*
X98885000Y-38300000D03*
X96345000Y-38300000D03*
X93805000Y-38300000D03*
X91265000Y-38300000D03*
X88725000Y-38300000D03*
X86185000Y-38300000D03*
X83645000Y-38300000D03*
X81105000Y-38300000D03*
X78565000Y-38300000D03*
X76025000Y-38300000D03*
X73485000Y-38300000D03*
%TD*%
D15*
%TO.C,PS1*%
X119172500Y-42150000D03*
D16*
X121712500Y-42150000D03*
X124252500Y-42150000D03*
%TD*%
D10*
%TO.C,J3*%
X140650000Y-60825000D03*
D11*
X140650000Y-63365000D03*
%TD*%
D10*
%TO.C,J1*%
X133140000Y-40300000D03*
D11*
X130600000Y-40300000D03*
%TD*%
D17*
%TO.C,U2*%
X117110000Y-62620000D03*
X119650000Y-62620000D03*
X122190000Y-62620000D03*
X124730000Y-62620000D03*
X127270000Y-62620000D03*
X129810000Y-62620000D03*
X132350000Y-62620000D03*
X134890000Y-62620000D03*
X134890000Y-47380000D03*
X132350000Y-47380000D03*
X129810000Y-47380000D03*
X127270000Y-47380000D03*
X124730000Y-47380000D03*
X122190000Y-47380000D03*
X119650000Y-47380000D03*
X117110000Y-47380000D03*
%TD*%
M02*
