%TF.GenerationSoftware,KiCad,Pcbnew,8.0.4*%
%TF.CreationDate,2025-02-26T16:08:11-05:00*%
%TF.ProjectId,plusle,706c7573-6c65-42e6-9b69-6361645f7063,rev?*%
%TF.SameCoordinates,Original*%
%TF.FileFunction,Legend,Top*%
%TF.FilePolarity,Positive*%
%FSLAX46Y46*%
G04 Gerber Fmt 4.6, Leading zero omitted, Abs format (unit mm)*
G04 Created by KiCad (PCBNEW 8.0.4) date 2025-02-26 16:08:11*
%MOMM*%
%LPD*%
G01*
G04 APERTURE LIST*
%ADD10C,0.100000*%
%ADD11C,0.127000*%
%ADD12C,0.200000*%
%ADD13C,0.000000*%
%ADD14C,0.150000*%
%ADD15C,0.120000*%
G04 APERTURE END LIST*
D10*
X57961027Y-45785780D02*
X58199122Y-45785780D01*
X57913408Y-45928637D02*
X58080074Y-45428637D01*
X58080074Y-45428637D02*
X58246741Y-45928637D01*
X58484836Y-45928637D02*
X58437217Y-45904828D01*
X58437217Y-45904828D02*
X58413407Y-45857208D01*
X58413407Y-45857208D02*
X58413407Y-45428637D01*
X58865788Y-45904828D02*
X58818169Y-45928637D01*
X58818169Y-45928637D02*
X58722931Y-45928637D01*
X58722931Y-45928637D02*
X58675312Y-45904828D01*
X58675312Y-45904828D02*
X58651503Y-45857208D01*
X58651503Y-45857208D02*
X58651503Y-45666732D01*
X58651503Y-45666732D02*
X58675312Y-45619113D01*
X58675312Y-45619113D02*
X58722931Y-45595304D01*
X58722931Y-45595304D02*
X58818169Y-45595304D01*
X58818169Y-45595304D02*
X58865788Y-45619113D01*
X58865788Y-45619113D02*
X58889598Y-45666732D01*
X58889598Y-45666732D02*
X58889598Y-45714351D01*
X58889598Y-45714351D02*
X58651503Y-45761970D01*
X59056264Y-45928637D02*
X59318169Y-45595304D01*
X59056264Y-45595304D02*
X59318169Y-45928637D01*
X59889597Y-45928637D02*
X59889597Y-45428637D01*
X59889597Y-45428637D02*
X60080073Y-45428637D01*
X60080073Y-45428637D02*
X60127692Y-45452447D01*
X60127692Y-45452447D02*
X60151502Y-45476256D01*
X60151502Y-45476256D02*
X60175311Y-45523875D01*
X60175311Y-45523875D02*
X60175311Y-45595304D01*
X60175311Y-45595304D02*
X60151502Y-45642923D01*
X60151502Y-45642923D02*
X60127692Y-45666732D01*
X60127692Y-45666732D02*
X60080073Y-45690542D01*
X60080073Y-45690542D02*
X59889597Y-45690542D01*
X60580073Y-45904828D02*
X60532454Y-45928637D01*
X60532454Y-45928637D02*
X60437216Y-45928637D01*
X60437216Y-45928637D02*
X60389597Y-45904828D01*
X60389597Y-45904828D02*
X60365788Y-45857208D01*
X60365788Y-45857208D02*
X60365788Y-45666732D01*
X60365788Y-45666732D02*
X60389597Y-45619113D01*
X60389597Y-45619113D02*
X60437216Y-45595304D01*
X60437216Y-45595304D02*
X60532454Y-45595304D01*
X60532454Y-45595304D02*
X60580073Y-45619113D01*
X60580073Y-45619113D02*
X60603883Y-45666732D01*
X60603883Y-45666732D02*
X60603883Y-45714351D01*
X60603883Y-45714351D02*
X60365788Y-45761970D01*
X60818168Y-45595304D02*
X60818168Y-45928637D01*
X60818168Y-45642923D02*
X60841978Y-45619113D01*
X60841978Y-45619113D02*
X60889597Y-45595304D01*
X60889597Y-45595304D02*
X60961025Y-45595304D01*
X60961025Y-45595304D02*
X61008644Y-45619113D01*
X61008644Y-45619113D02*
X61032454Y-45666732D01*
X61032454Y-45666732D02*
X61032454Y-45928637D01*
X61484835Y-45595304D02*
X61484835Y-46000066D01*
X61484835Y-46000066D02*
X61461025Y-46047685D01*
X61461025Y-46047685D02*
X61437216Y-46071494D01*
X61437216Y-46071494D02*
X61389597Y-46095304D01*
X61389597Y-46095304D02*
X61318168Y-46095304D01*
X61318168Y-46095304D02*
X61270549Y-46071494D01*
X61484835Y-45904828D02*
X61437216Y-45928637D01*
X61437216Y-45928637D02*
X61341978Y-45928637D01*
X61341978Y-45928637D02*
X61294359Y-45904828D01*
X61294359Y-45904828D02*
X61270549Y-45881018D01*
X61270549Y-45881018D02*
X61246740Y-45833399D01*
X61246740Y-45833399D02*
X61246740Y-45690542D01*
X61246740Y-45690542D02*
X61270549Y-45642923D01*
X61270549Y-45642923D02*
X61294359Y-45619113D01*
X61294359Y-45619113D02*
X61341978Y-45595304D01*
X61341978Y-45595304D02*
X61437216Y-45595304D01*
X61437216Y-45595304D02*
X61484835Y-45619113D01*
X58056265Y-46733609D02*
X58008646Y-46709800D01*
X58008646Y-46709800D02*
X57984836Y-46662180D01*
X57984836Y-46662180D02*
X57984836Y-46233609D01*
X58461027Y-46400276D02*
X58461027Y-46733609D01*
X58246741Y-46400276D02*
X58246741Y-46662180D01*
X58246741Y-46662180D02*
X58270551Y-46709800D01*
X58270551Y-46709800D02*
X58318170Y-46733609D01*
X58318170Y-46733609D02*
X58389598Y-46733609D01*
X58389598Y-46733609D02*
X58437217Y-46709800D01*
X58437217Y-46709800D02*
X58461027Y-46685990D01*
X58699122Y-46400276D02*
X58699122Y-46733609D01*
X58699122Y-46447895D02*
X58722932Y-46424085D01*
X58722932Y-46424085D02*
X58770551Y-46400276D01*
X58770551Y-46400276D02*
X58841979Y-46400276D01*
X58841979Y-46400276D02*
X58889598Y-46424085D01*
X58889598Y-46424085D02*
X58913408Y-46471704D01*
X58913408Y-46471704D02*
X58913408Y-46733609D01*
X59222932Y-46733609D02*
X59175313Y-46709800D01*
X59175313Y-46709800D02*
X59151503Y-46685990D01*
X59151503Y-46685990D02*
X59127694Y-46638371D01*
X59127694Y-46638371D02*
X59127694Y-46495514D01*
X59127694Y-46495514D02*
X59151503Y-46447895D01*
X59151503Y-46447895D02*
X59175313Y-46424085D01*
X59175313Y-46424085D02*
X59222932Y-46400276D01*
X59222932Y-46400276D02*
X59294360Y-46400276D01*
X59294360Y-46400276D02*
X59341979Y-46424085D01*
X59341979Y-46424085D02*
X59365789Y-46447895D01*
X59365789Y-46447895D02*
X59389598Y-46495514D01*
X59389598Y-46495514D02*
X59389598Y-46638371D01*
X59389598Y-46638371D02*
X59365789Y-46685990D01*
X59365789Y-46685990D02*
X59341979Y-46709800D01*
X59341979Y-46709800D02*
X59294360Y-46733609D01*
X59294360Y-46733609D02*
X59222932Y-46733609D01*
X59556265Y-46733609D02*
X59818170Y-46400276D01*
X59556265Y-46400276D02*
X59818170Y-46733609D01*
X60008646Y-46733609D02*
X60008646Y-46400276D01*
X60008646Y-46495514D02*
X60032456Y-46447895D01*
X60032456Y-46447895D02*
X60056265Y-46424085D01*
X60056265Y-46424085D02*
X60103884Y-46400276D01*
X60103884Y-46400276D02*
X60151503Y-46400276D01*
X60389599Y-46733609D02*
X60341980Y-46709800D01*
X60341980Y-46709800D02*
X60318170Y-46685990D01*
X60318170Y-46685990D02*
X60294361Y-46638371D01*
X60294361Y-46638371D02*
X60294361Y-46495514D01*
X60294361Y-46495514D02*
X60318170Y-46447895D01*
X60318170Y-46447895D02*
X60341980Y-46424085D01*
X60341980Y-46424085D02*
X60389599Y-46400276D01*
X60389599Y-46400276D02*
X60461027Y-46400276D01*
X60461027Y-46400276D02*
X60508646Y-46424085D01*
X60508646Y-46424085D02*
X60532456Y-46447895D01*
X60532456Y-46447895D02*
X60556265Y-46495514D01*
X60556265Y-46495514D02*
X60556265Y-46638371D01*
X60556265Y-46638371D02*
X60532456Y-46685990D01*
X60532456Y-46685990D02*
X60508646Y-46709800D01*
X60508646Y-46709800D02*
X60461027Y-46733609D01*
X60461027Y-46733609D02*
X60389599Y-46733609D01*
X60770551Y-46733609D02*
X60770551Y-46233609D01*
X60770551Y-46424085D02*
X60818170Y-46400276D01*
X60818170Y-46400276D02*
X60913408Y-46400276D01*
X60913408Y-46400276D02*
X60961027Y-46424085D01*
X60961027Y-46424085D02*
X60984837Y-46447895D01*
X60984837Y-46447895D02*
X61008646Y-46495514D01*
X61008646Y-46495514D02*
X61008646Y-46638371D01*
X61008646Y-46638371D02*
X60984837Y-46685990D01*
X60984837Y-46685990D02*
X60961027Y-46709800D01*
X60961027Y-46709800D02*
X60913408Y-46733609D01*
X60913408Y-46733609D02*
X60818170Y-46733609D01*
X60818170Y-46733609D02*
X60770551Y-46709800D01*
X61294361Y-46733609D02*
X61246742Y-46709800D01*
X61246742Y-46709800D02*
X61222932Y-46685990D01*
X61222932Y-46685990D02*
X61199123Y-46638371D01*
X61199123Y-46638371D02*
X61199123Y-46495514D01*
X61199123Y-46495514D02*
X61222932Y-46447895D01*
X61222932Y-46447895D02*
X61246742Y-46424085D01*
X61246742Y-46424085D02*
X61294361Y-46400276D01*
X61294361Y-46400276D02*
X61365789Y-46400276D01*
X61365789Y-46400276D02*
X61413408Y-46424085D01*
X61413408Y-46424085D02*
X61437218Y-46447895D01*
X61437218Y-46447895D02*
X61461027Y-46495514D01*
X61461027Y-46495514D02*
X61461027Y-46638371D01*
X61461027Y-46638371D02*
X61437218Y-46685990D01*
X61437218Y-46685990D02*
X61413408Y-46709800D01*
X61413408Y-46709800D02*
X61365789Y-46733609D01*
X61365789Y-46733609D02*
X61294361Y-46733609D01*
X61603885Y-46400276D02*
X61794361Y-46400276D01*
X61675313Y-46233609D02*
X61675313Y-46662180D01*
X61675313Y-46662180D02*
X61699123Y-46709800D01*
X61699123Y-46709800D02*
X61746742Y-46733609D01*
X61746742Y-46733609D02*
X61794361Y-46733609D01*
X61961027Y-46733609D02*
X61961027Y-46400276D01*
X61961027Y-46233609D02*
X61937218Y-46257419D01*
X61937218Y-46257419D02*
X61961027Y-46281228D01*
X61961027Y-46281228D02*
X61984837Y-46257419D01*
X61984837Y-46257419D02*
X61961027Y-46233609D01*
X61961027Y-46233609D02*
X61961027Y-46281228D01*
X62413408Y-46709800D02*
X62365789Y-46733609D01*
X62365789Y-46733609D02*
X62270551Y-46733609D01*
X62270551Y-46733609D02*
X62222932Y-46709800D01*
X62222932Y-46709800D02*
X62199122Y-46685990D01*
X62199122Y-46685990D02*
X62175313Y-46638371D01*
X62175313Y-46638371D02*
X62175313Y-46495514D01*
X62175313Y-46495514D02*
X62199122Y-46447895D01*
X62199122Y-46447895D02*
X62222932Y-46424085D01*
X62222932Y-46424085D02*
X62270551Y-46400276D01*
X62270551Y-46400276D02*
X62365789Y-46400276D01*
X62365789Y-46400276D02*
X62413408Y-46424085D01*
X62603884Y-46709800D02*
X62651503Y-46733609D01*
X62651503Y-46733609D02*
X62746741Y-46733609D01*
X62746741Y-46733609D02*
X62794360Y-46709800D01*
X62794360Y-46709800D02*
X62818169Y-46662180D01*
X62818169Y-46662180D02*
X62818169Y-46638371D01*
X62818169Y-46638371D02*
X62794360Y-46590752D01*
X62794360Y-46590752D02*
X62746741Y-46566942D01*
X62746741Y-46566942D02*
X62675312Y-46566942D01*
X62675312Y-46566942D02*
X62627693Y-46543133D01*
X62627693Y-46543133D02*
X62603884Y-46495514D01*
X62603884Y-46495514D02*
X62603884Y-46471704D01*
X62603884Y-46471704D02*
X62627693Y-46424085D01*
X62627693Y-46424085D02*
X62675312Y-46400276D01*
X62675312Y-46400276D02*
X62746741Y-46400276D01*
X62746741Y-46400276D02*
X62794360Y-46424085D01*
X63032455Y-46685990D02*
X63056265Y-46709800D01*
X63056265Y-46709800D02*
X63032455Y-46733609D01*
X63032455Y-46733609D02*
X63008646Y-46709800D01*
X63008646Y-46709800D02*
X63032455Y-46685990D01*
X63032455Y-46685990D02*
X63032455Y-46733609D01*
X63484836Y-46709800D02*
X63437217Y-46733609D01*
X63437217Y-46733609D02*
X63341979Y-46733609D01*
X63341979Y-46733609D02*
X63294360Y-46709800D01*
X63294360Y-46709800D02*
X63270550Y-46685990D01*
X63270550Y-46685990D02*
X63246741Y-46638371D01*
X63246741Y-46638371D02*
X63246741Y-46495514D01*
X63246741Y-46495514D02*
X63270550Y-46447895D01*
X63270550Y-46447895D02*
X63294360Y-46424085D01*
X63294360Y-46424085D02*
X63341979Y-46400276D01*
X63341979Y-46400276D02*
X63437217Y-46400276D01*
X63437217Y-46400276D02*
X63484836Y-46424085D01*
X63770550Y-46733609D02*
X63722931Y-46709800D01*
X63722931Y-46709800D02*
X63699121Y-46685990D01*
X63699121Y-46685990D02*
X63675312Y-46638371D01*
X63675312Y-46638371D02*
X63675312Y-46495514D01*
X63675312Y-46495514D02*
X63699121Y-46447895D01*
X63699121Y-46447895D02*
X63722931Y-46424085D01*
X63722931Y-46424085D02*
X63770550Y-46400276D01*
X63770550Y-46400276D02*
X63841978Y-46400276D01*
X63841978Y-46400276D02*
X63889597Y-46424085D01*
X63889597Y-46424085D02*
X63913407Y-46447895D01*
X63913407Y-46447895D02*
X63937216Y-46495514D01*
X63937216Y-46495514D02*
X63937216Y-46638371D01*
X63937216Y-46638371D02*
X63913407Y-46685990D01*
X63913407Y-46685990D02*
X63889597Y-46709800D01*
X63889597Y-46709800D02*
X63841978Y-46733609D01*
X63841978Y-46733609D02*
X63770550Y-46733609D01*
X64151502Y-46733609D02*
X64151502Y-46400276D01*
X64151502Y-46447895D02*
X64175312Y-46424085D01*
X64175312Y-46424085D02*
X64222931Y-46400276D01*
X64222931Y-46400276D02*
X64294359Y-46400276D01*
X64294359Y-46400276D02*
X64341978Y-46424085D01*
X64341978Y-46424085D02*
X64365788Y-46471704D01*
X64365788Y-46471704D02*
X64365788Y-46733609D01*
X64365788Y-46471704D02*
X64389597Y-46424085D01*
X64389597Y-46424085D02*
X64437216Y-46400276D01*
X64437216Y-46400276D02*
X64508645Y-46400276D01*
X64508645Y-46400276D02*
X64556264Y-46424085D01*
X64556264Y-46424085D02*
X64580074Y-46471704D01*
X64580074Y-46471704D02*
X64580074Y-46733609D01*
X30384836Y-45828637D02*
X30384836Y-45328637D01*
X30384836Y-45328637D02*
X30575312Y-45328637D01*
X30575312Y-45328637D02*
X30622931Y-45352447D01*
X30622931Y-45352447D02*
X30646741Y-45376256D01*
X30646741Y-45376256D02*
X30670550Y-45423875D01*
X30670550Y-45423875D02*
X30670550Y-45495304D01*
X30670550Y-45495304D02*
X30646741Y-45542923D01*
X30646741Y-45542923D02*
X30622931Y-45566732D01*
X30622931Y-45566732D02*
X30575312Y-45590542D01*
X30575312Y-45590542D02*
X30384836Y-45590542D01*
X30956265Y-45828637D02*
X30908646Y-45804828D01*
X30908646Y-45804828D02*
X30884836Y-45757208D01*
X30884836Y-45757208D02*
X30884836Y-45328637D01*
X31361027Y-45495304D02*
X31361027Y-45828637D01*
X31146741Y-45495304D02*
X31146741Y-45757208D01*
X31146741Y-45757208D02*
X31170551Y-45804828D01*
X31170551Y-45804828D02*
X31218170Y-45828637D01*
X31218170Y-45828637D02*
X31289598Y-45828637D01*
X31289598Y-45828637D02*
X31337217Y-45804828D01*
X31337217Y-45804828D02*
X31361027Y-45781018D01*
X31575313Y-45804828D02*
X31622932Y-45828637D01*
X31622932Y-45828637D02*
X31718170Y-45828637D01*
X31718170Y-45828637D02*
X31765789Y-45804828D01*
X31765789Y-45804828D02*
X31789598Y-45757208D01*
X31789598Y-45757208D02*
X31789598Y-45733399D01*
X31789598Y-45733399D02*
X31765789Y-45685780D01*
X31765789Y-45685780D02*
X31718170Y-45661970D01*
X31718170Y-45661970D02*
X31646741Y-45661970D01*
X31646741Y-45661970D02*
X31599122Y-45638161D01*
X31599122Y-45638161D02*
X31575313Y-45590542D01*
X31575313Y-45590542D02*
X31575313Y-45566732D01*
X31575313Y-45566732D02*
X31599122Y-45519113D01*
X31599122Y-45519113D02*
X31646741Y-45495304D01*
X31646741Y-45495304D02*
X31718170Y-45495304D01*
X31718170Y-45495304D02*
X31765789Y-45519113D01*
X32075313Y-45828637D02*
X32027694Y-45804828D01*
X32027694Y-45804828D02*
X32003884Y-45757208D01*
X32003884Y-45757208D02*
X32003884Y-45328637D01*
X32456265Y-45804828D02*
X32408646Y-45828637D01*
X32408646Y-45828637D02*
X32313408Y-45828637D01*
X32313408Y-45828637D02*
X32265789Y-45804828D01*
X32265789Y-45804828D02*
X32241980Y-45757208D01*
X32241980Y-45757208D02*
X32241980Y-45566732D01*
X32241980Y-45566732D02*
X32265789Y-45519113D01*
X32265789Y-45519113D02*
X32313408Y-45495304D01*
X32313408Y-45495304D02*
X32408646Y-45495304D01*
X32408646Y-45495304D02*
X32456265Y-45519113D01*
X32456265Y-45519113D02*
X32480075Y-45566732D01*
X32480075Y-45566732D02*
X32480075Y-45614351D01*
X32480075Y-45614351D02*
X32241980Y-45661970D01*
X30670550Y-46633609D02*
X30503884Y-46395514D01*
X30384836Y-46633609D02*
X30384836Y-46133609D01*
X30384836Y-46133609D02*
X30575312Y-46133609D01*
X30575312Y-46133609D02*
X30622931Y-46157419D01*
X30622931Y-46157419D02*
X30646741Y-46181228D01*
X30646741Y-46181228D02*
X30670550Y-46228847D01*
X30670550Y-46228847D02*
X30670550Y-46300276D01*
X30670550Y-46300276D02*
X30646741Y-46347895D01*
X30646741Y-46347895D02*
X30622931Y-46371704D01*
X30622931Y-46371704D02*
X30575312Y-46395514D01*
X30575312Y-46395514D02*
X30384836Y-46395514D01*
X31170550Y-46585990D02*
X31146741Y-46609800D01*
X31146741Y-46609800D02*
X31075312Y-46633609D01*
X31075312Y-46633609D02*
X31027693Y-46633609D01*
X31027693Y-46633609D02*
X30956265Y-46609800D01*
X30956265Y-46609800D02*
X30908646Y-46562180D01*
X30908646Y-46562180D02*
X30884836Y-46514561D01*
X30884836Y-46514561D02*
X30861027Y-46419323D01*
X30861027Y-46419323D02*
X30861027Y-46347895D01*
X30861027Y-46347895D02*
X30884836Y-46252657D01*
X30884836Y-46252657D02*
X30908646Y-46205038D01*
X30908646Y-46205038D02*
X30956265Y-46157419D01*
X30956265Y-46157419D02*
X31027693Y-46133609D01*
X31027693Y-46133609D02*
X31075312Y-46133609D01*
X31075312Y-46133609D02*
X31146741Y-46157419D01*
X31146741Y-46157419D02*
X31170550Y-46181228D01*
X31765788Y-46633609D02*
X31765788Y-46133609D01*
X31765788Y-46133609D02*
X31932455Y-46490752D01*
X31932455Y-46490752D02*
X32099121Y-46133609D01*
X32099121Y-46133609D02*
X32099121Y-46633609D01*
X32337217Y-46633609D02*
X32337217Y-46300276D01*
X32337217Y-46133609D02*
X32313408Y-46157419D01*
X32313408Y-46157419D02*
X32337217Y-46181228D01*
X32337217Y-46181228D02*
X32361027Y-46157419D01*
X32361027Y-46157419D02*
X32337217Y-46133609D01*
X32337217Y-46133609D02*
X32337217Y-46181228D01*
X32575312Y-46300276D02*
X32575312Y-46633609D01*
X32575312Y-46347895D02*
X32599122Y-46324085D01*
X32599122Y-46324085D02*
X32646741Y-46300276D01*
X32646741Y-46300276D02*
X32718169Y-46300276D01*
X32718169Y-46300276D02*
X32765788Y-46324085D01*
X32765788Y-46324085D02*
X32789598Y-46371704D01*
X32789598Y-46371704D02*
X32789598Y-46633609D01*
X33027693Y-46633609D02*
X33027693Y-46300276D01*
X33027693Y-46133609D02*
X33003884Y-46157419D01*
X33003884Y-46157419D02*
X33027693Y-46181228D01*
X33027693Y-46181228D02*
X33051503Y-46157419D01*
X33051503Y-46157419D02*
X33027693Y-46133609D01*
X33027693Y-46133609D02*
X33027693Y-46181228D01*
X33622931Y-46609800D02*
X33694359Y-46633609D01*
X33694359Y-46633609D02*
X33813407Y-46633609D01*
X33813407Y-46633609D02*
X33861026Y-46609800D01*
X33861026Y-46609800D02*
X33884835Y-46585990D01*
X33884835Y-46585990D02*
X33908645Y-46538371D01*
X33908645Y-46538371D02*
X33908645Y-46490752D01*
X33908645Y-46490752D02*
X33884835Y-46443133D01*
X33884835Y-46443133D02*
X33861026Y-46419323D01*
X33861026Y-46419323D02*
X33813407Y-46395514D01*
X33813407Y-46395514D02*
X33718169Y-46371704D01*
X33718169Y-46371704D02*
X33670550Y-46347895D01*
X33670550Y-46347895D02*
X33646740Y-46324085D01*
X33646740Y-46324085D02*
X33622931Y-46276466D01*
X33622931Y-46276466D02*
X33622931Y-46228847D01*
X33622931Y-46228847D02*
X33646740Y-46181228D01*
X33646740Y-46181228D02*
X33670550Y-46157419D01*
X33670550Y-46157419D02*
X33718169Y-46133609D01*
X33718169Y-46133609D02*
X33837216Y-46133609D01*
X33837216Y-46133609D02*
X33908645Y-46157419D01*
X34337216Y-46300276D02*
X34337216Y-46633609D01*
X34122930Y-46300276D02*
X34122930Y-46562180D01*
X34122930Y-46562180D02*
X34146740Y-46609800D01*
X34146740Y-46609800D02*
X34194359Y-46633609D01*
X34194359Y-46633609D02*
X34265787Y-46633609D01*
X34265787Y-46633609D02*
X34313406Y-46609800D01*
X34313406Y-46609800D02*
X34337216Y-46585990D01*
X34575311Y-46633609D02*
X34575311Y-46300276D01*
X34575311Y-46347895D02*
X34599121Y-46324085D01*
X34599121Y-46324085D02*
X34646740Y-46300276D01*
X34646740Y-46300276D02*
X34718168Y-46300276D01*
X34718168Y-46300276D02*
X34765787Y-46324085D01*
X34765787Y-46324085D02*
X34789597Y-46371704D01*
X34789597Y-46371704D02*
X34789597Y-46633609D01*
X34789597Y-46371704D02*
X34813406Y-46324085D01*
X34813406Y-46324085D02*
X34861025Y-46300276D01*
X34861025Y-46300276D02*
X34932454Y-46300276D01*
X34932454Y-46300276D02*
X34980073Y-46324085D01*
X34980073Y-46324085D02*
X35003883Y-46371704D01*
X35003883Y-46371704D02*
X35003883Y-46633609D01*
X35313407Y-46633609D02*
X35265788Y-46609800D01*
X35265788Y-46609800D02*
X35241978Y-46585990D01*
X35241978Y-46585990D02*
X35218169Y-46538371D01*
X35218169Y-46538371D02*
X35218169Y-46395514D01*
X35218169Y-46395514D02*
X35241978Y-46347895D01*
X35241978Y-46347895D02*
X35265788Y-46324085D01*
X35265788Y-46324085D02*
X35313407Y-46300276D01*
X35313407Y-46300276D02*
X35384835Y-46300276D01*
X35384835Y-46300276D02*
X35432454Y-46324085D01*
X35432454Y-46324085D02*
X35456264Y-46347895D01*
X35456264Y-46347895D02*
X35480073Y-46395514D01*
X35480073Y-46395514D02*
X35480073Y-46538371D01*
X35480073Y-46538371D02*
X35456264Y-46585990D01*
X35456264Y-46585990D02*
X35432454Y-46609800D01*
X35432454Y-46609800D02*
X35384835Y-46633609D01*
X35384835Y-46633609D02*
X35313407Y-46633609D01*
D11*
%TO.C,SW1*%
X80400000Y-27560000D02*
X80400000Y-32640000D01*
X70600000Y-27560000D02*
X80400000Y-27560000D01*
X80400000Y-32640000D02*
X75500000Y-32640000D01*
X75500000Y-32640000D02*
X74900000Y-32640000D01*
X75500000Y-32640000D02*
X75500000Y-32940000D01*
X74900000Y-32640000D02*
X70600000Y-32640000D01*
X70600000Y-32640000D02*
X70600000Y-27560000D01*
X75500000Y-32940000D02*
X74900000Y-32940000D01*
X74900000Y-32940000D02*
X74900000Y-32640000D01*
D12*
X79600000Y-29100000D02*
G75*
G02*
X79400000Y-29100000I-100000J0D01*
G01*
X79400000Y-29100000D02*
G75*
G02*
X79600000Y-29100000I100000J0D01*
G01*
D13*
%TO.C,G\u002A\u002A\u002A*%
G36*
X55900551Y-35500000D02*
G01*
X55900551Y-39000551D01*
X52400000Y-39000551D01*
X48899449Y-39000551D01*
X48899449Y-37264278D01*
X50285667Y-37264278D01*
X50530705Y-37264278D01*
X50775744Y-37264278D01*
X50775744Y-37187265D01*
X50775744Y-37110253D01*
X50628721Y-37110253D01*
X50481698Y-37110253D01*
X50481698Y-36732194D01*
X50481698Y-36354134D01*
X50885930Y-36354134D01*
X50890346Y-36686687D01*
X50891848Y-36792001D01*
X50893467Y-36873356D01*
X50895600Y-36934793D01*
X50898644Y-36980357D01*
X50902994Y-37014090D01*
X50909048Y-37040035D01*
X50917203Y-37062235D01*
X50927854Y-37084733D01*
X50929768Y-37088535D01*
X50984121Y-37167313D01*
X51056074Y-37224909D01*
X51143986Y-37260486D01*
X51246215Y-37273208D01*
X51289621Y-37271794D01*
X51331680Y-37264278D01*
X51797905Y-37264278D01*
X51895920Y-37264278D01*
X51993936Y-37264278D01*
X51993936Y-36959780D01*
X51993936Y-36655282D01*
X52197064Y-36959780D01*
X52400193Y-37264278D01*
X52491111Y-37264278D01*
X52582028Y-37264278D01*
X52582028Y-36830209D01*
X52725228Y-36830209D01*
X52737969Y-36933488D01*
X52767162Y-37019277D01*
X52816175Y-37094846D01*
X52876742Y-37157202D01*
X52966547Y-37219842D01*
X53067838Y-37259103D01*
X53175636Y-37274261D01*
X53284959Y-37264589D01*
X53307578Y-37257196D01*
X53758214Y-37257196D01*
X53771058Y-37260623D01*
X53804963Y-37263138D01*
X53852989Y-37264259D01*
X53860346Y-37264278D01*
X53962478Y-37264278D01*
X54045875Y-37117619D01*
X54078730Y-37060930D01*
X54106892Y-37014366D01*
X54127408Y-36982676D01*
X54137322Y-36970605D01*
X54137398Y-36970596D01*
X54147593Y-36981576D01*
X54169374Y-37011751D01*
X54199553Y-37056524D01*
X54234946Y-37111297D01*
X54235413Y-37112034D01*
X54271633Y-37167714D01*
X54303589Y-37214157D01*
X54327797Y-37246473D01*
X54340694Y-37259745D01*
X54361772Y-37262167D01*
X54401935Y-37262756D01*
X54450230Y-37261465D01*
X54544375Y-37257277D01*
X54408608Y-37047243D01*
X54364431Y-36978553D01*
X54325550Y-36917439D01*
X54294544Y-36868006D01*
X54273987Y-36834357D01*
X54266601Y-36821095D01*
X54270955Y-36803029D01*
X54287729Y-36767474D01*
X54313952Y-36720336D01*
X54333532Y-36688074D01*
X54375939Y-36620319D01*
X54422992Y-36545138D01*
X54466009Y-36476405D01*
X54474990Y-36462054D01*
X54543278Y-36352939D01*
X54434971Y-36357037D01*
X54326664Y-36361135D01*
X54247090Y-36498371D01*
X54214777Y-36553683D01*
X54187494Y-36599608D01*
X54168336Y-36630986D01*
X54160642Y-36642481D01*
X54150924Y-36634096D01*
X54129318Y-36606252D01*
X54098898Y-36563159D01*
X54062735Y-36509032D01*
X54057993Y-36501745D01*
X53962217Y-36354134D01*
X53858717Y-36354134D01*
X53804185Y-36355253D01*
X53773328Y-36359159D01*
X53761886Y-36366679D01*
X53762381Y-36372803D01*
X53772085Y-36390188D01*
X53794532Y-36426771D01*
X53827077Y-36478351D01*
X53867074Y-36540728D01*
X53903720Y-36597209D01*
X54037895Y-36802946D01*
X53898054Y-37026530D01*
X53854222Y-37096970D01*
X53816014Y-37159056D01*
X53785739Y-37208981D01*
X53765705Y-37242936D01*
X53758220Y-37257117D01*
X53758214Y-37257196D01*
X53307578Y-37257196D01*
X53386293Y-37231468D01*
X53476386Y-37175688D01*
X53553653Y-37099021D01*
X53611810Y-37007811D01*
X53615342Y-37000307D01*
X53645134Y-36904950D01*
X53653965Y-36800774D01*
X53641833Y-36697428D01*
X53615521Y-36618496D01*
X53555396Y-36517670D01*
X53477631Y-36437682D01*
X53396404Y-36386056D01*
X53354527Y-36367139D01*
X53316919Y-36355537D01*
X53274242Y-36349546D01*
X53217157Y-36347465D01*
X53184123Y-36347350D01*
X53086275Y-36352796D01*
X53006826Y-36370898D01*
X52937820Y-36404846D01*
X52871301Y-36457827D01*
X52845636Y-36482984D01*
X52784401Y-36558695D01*
X52745397Y-36640480D01*
X52726627Y-36734101D01*
X52725228Y-36830209D01*
X52582028Y-36830209D01*
X52582028Y-36809206D01*
X52582028Y-36354134D01*
X52491287Y-36354134D01*
X52400546Y-36354134D01*
X52396772Y-36657293D01*
X52392999Y-36960453D01*
X52191354Y-36657293D01*
X51989709Y-36354134D01*
X51893807Y-36354134D01*
X51797905Y-36354134D01*
X51797905Y-36809206D01*
X51797905Y-37264278D01*
X51331680Y-37264278D01*
X51379279Y-37255772D01*
X51446278Y-37230069D01*
X51494218Y-37200048D01*
X51537479Y-37163564D01*
X51553638Y-37145491D01*
X51576402Y-37113657D01*
X51594068Y-37082397D01*
X51607283Y-37047664D01*
X51616694Y-37005410D01*
X51622948Y-36951588D01*
X51626694Y-36882150D01*
X51628236Y-36809206D01*
X51628578Y-36793048D01*
X51629248Y-36680236D01*
X51629264Y-36672684D01*
X51629878Y-36354134D01*
X51540029Y-36354134D01*
X51450179Y-36354134D01*
X51445460Y-36665683D01*
X51443592Y-36770407D01*
X51441355Y-36850988D01*
X51438430Y-36911290D01*
X51434500Y-36955174D01*
X51429247Y-36986504D01*
X51422355Y-37009142D01*
X51416146Y-37022324D01*
X51384588Y-37065024D01*
X51343017Y-37089653D01*
X51284579Y-37099607D01*
X51258820Y-37100252D01*
X51192844Y-37094641D01*
X51146138Y-37075544D01*
X51111849Y-37039568D01*
X51101494Y-37022324D01*
X51093213Y-37003577D01*
X51086802Y-36978940D01*
X51081944Y-36944551D01*
X51078322Y-36896548D01*
X51075617Y-36831068D01*
X51073512Y-36744250D01*
X51072180Y-36665683D01*
X51067461Y-36354134D01*
X50976695Y-36354134D01*
X50885930Y-36354134D01*
X50481698Y-36354134D01*
X50383682Y-36354134D01*
X50285667Y-36354134D01*
X50285667Y-36809206D01*
X50285667Y-37264278D01*
X48899449Y-37264278D01*
X48899449Y-36809206D01*
X48899449Y-35500000D01*
X48899449Y-34847299D01*
X51032889Y-34847299D01*
X51032970Y-34848460D01*
X51052732Y-35007091D01*
X51090028Y-35149920D01*
X51147547Y-35284890D01*
X51225016Y-35415530D01*
X51337615Y-35559387D01*
X51468398Y-35682274D01*
X51615845Y-35783118D01*
X51778437Y-35860848D01*
X51921228Y-35906392D01*
X52006314Y-35921366D01*
X52109673Y-35929370D01*
X52222505Y-35930591D01*
X52336009Y-35925216D01*
X52441384Y-35913432D01*
X52529829Y-35895428D01*
X52537515Y-35893260D01*
X52604807Y-35870608D01*
X52679386Y-35840912D01*
X52739674Y-35813226D01*
X52794047Y-35783664D01*
X52851901Y-35748685D01*
X52907087Y-35712423D01*
X52953458Y-35679014D01*
X52984866Y-35652596D01*
X52993641Y-35642373D01*
X52983633Y-35636913D01*
X52950779Y-35631123D01*
X52900215Y-35625694D01*
X52837134Y-35621319D01*
X52723057Y-35612513D01*
X52626921Y-35598318D01*
X52538873Y-35576789D01*
X52449063Y-35545978D01*
X52442006Y-35543248D01*
X52400603Y-35527143D01*
X52367519Y-35513706D01*
X52344478Y-35502694D01*
X52333204Y-35493863D01*
X52335418Y-35486969D01*
X52352844Y-35481771D01*
X52387205Y-35478024D01*
X52440223Y-35475484D01*
X52513623Y-35473909D01*
X52609125Y-35473056D01*
X52728455Y-35472681D01*
X52873333Y-35472540D01*
X52943025Y-35472492D01*
X53097422Y-35472265D01*
X53226071Y-35471797D01*
X53331229Y-35471017D01*
X53415149Y-35469853D01*
X53480089Y-35468236D01*
X53528303Y-35466095D01*
X53562049Y-35463360D01*
X53583581Y-35459960D01*
X53595156Y-35455825D01*
X53598735Y-35452011D01*
X53595644Y-35434354D01*
X53583304Y-35395502D01*
X53563498Y-35340002D01*
X53538007Y-35272398D01*
X53508613Y-35197236D01*
X53477099Y-35119061D01*
X53445246Y-35042420D01*
X53414837Y-34971859D01*
X53387653Y-34911921D01*
X53383844Y-34903876D01*
X53360803Y-34855559D01*
X52850063Y-34859229D01*
X52339323Y-34862899D01*
X52254143Y-35117466D01*
X52227097Y-35197285D01*
X52202530Y-35267897D01*
X52181985Y-35325016D01*
X52167004Y-35364359D01*
X52159130Y-35381643D01*
X52158914Y-35381888D01*
X52145899Y-35376280D01*
X52117606Y-35353858D01*
X52078061Y-35318097D01*
X52031287Y-35272473D01*
X52025893Y-35267021D01*
X51908042Y-35128745D01*
X51813908Y-34978677D01*
X51743705Y-34819494D01*
X51697644Y-34653879D01*
X51675938Y-34484508D01*
X51678801Y-34314063D01*
X51706445Y-34145223D01*
X51759083Y-33980668D01*
X51836927Y-33823076D01*
X51903275Y-33722741D01*
X51933146Y-33680926D01*
X51954451Y-33648702D01*
X51963475Y-33631762D01*
X51963404Y-33630608D01*
X51948931Y-33632439D01*
X51914846Y-33641310D01*
X51868098Y-33655386D01*
X51860915Y-33657675D01*
X51692326Y-33725428D01*
X51539343Y-33814381D01*
X51403483Y-33922350D01*
X51286263Y-34047154D01*
X51189202Y-34186609D01*
X51113816Y-34338534D01*
X51061624Y-34500746D01*
X51034142Y-34671062D01*
X51032889Y-34847299D01*
X48899449Y-34847299D01*
X48899449Y-31999449D01*
X52400000Y-31999449D01*
X55900551Y-31999449D01*
X55900551Y-35500000D01*
G37*
G36*
X53280479Y-36519205D02*
G01*
X53291729Y-36523052D01*
X53328977Y-36543127D01*
X53367333Y-36572266D01*
X53370903Y-36575560D01*
X53413596Y-36623383D01*
X53439893Y-36674211D01*
X53452998Y-36736559D01*
X53456147Y-36802205D01*
X53448207Y-36897250D01*
X53422316Y-36972909D01*
X53377017Y-37032425D01*
X53339391Y-37062085D01*
X53279573Y-37089345D01*
X53208308Y-37103875D01*
X53137845Y-37104088D01*
X53093109Y-37093980D01*
X53021845Y-37056889D01*
X52970009Y-37003845D01*
X52944403Y-36959753D01*
X52919208Y-36882153D01*
X52912429Y-36797908D01*
X52923025Y-36714521D01*
X52949961Y-36639490D01*
X52992197Y-36580317D01*
X52997617Y-36575203D01*
X53056457Y-36538247D01*
X53130122Y-36515370D01*
X53208250Y-36508410D01*
X53280479Y-36519205D01*
G37*
G36*
X53517929Y-35367638D02*
G01*
X53529805Y-35395728D01*
X53534178Y-35409644D01*
X53520632Y-35410924D01*
X53481816Y-35412117D01*
X53420464Y-35413197D01*
X53339311Y-35414138D01*
X53241091Y-35414914D01*
X53128539Y-35415499D01*
X53004389Y-35415865D01*
X52876075Y-35415987D01*
X52743321Y-35415861D01*
X52619526Y-35415502D01*
X52507422Y-35414934D01*
X52409744Y-35414183D01*
X52329228Y-35413275D01*
X52268607Y-35412233D01*
X52230615Y-35411084D01*
X52217971Y-35409897D01*
X52222411Y-35393734D01*
X52231627Y-35367890D01*
X52245282Y-35331973D01*
X52873481Y-35331973D01*
X53501679Y-35331973D01*
X53517929Y-35367638D01*
G37*
G36*
X53408171Y-35111439D02*
G01*
X53489741Y-35303969D01*
X52874859Y-35303969D01*
X52746674Y-35303729D01*
X52627542Y-35303042D01*
X52520290Y-35301958D01*
X52427748Y-35300529D01*
X52352744Y-35298802D01*
X52298108Y-35296830D01*
X52266669Y-35294663D01*
X52259978Y-35293057D01*
X52264200Y-35276445D01*
X52275776Y-35238501D01*
X52293068Y-35184412D01*
X52302050Y-35157077D01*
X53149469Y-35157077D01*
X53157170Y-35172215D01*
X53174782Y-35183424D01*
X53190944Y-35173857D01*
X53201468Y-35152432D01*
X53194863Y-35139270D01*
X53176926Y-35128990D01*
X53161089Y-35137628D01*
X53149469Y-35157077D01*
X52302050Y-35157077D01*
X52314440Y-35119370D01*
X52320723Y-35100526D01*
X52323256Y-35092954D01*
X53027543Y-35092954D01*
X53034112Y-35093936D01*
X53055291Y-35105686D01*
X53065828Y-35124221D01*
X53074540Y-35144452D01*
X53083580Y-35139422D01*
X53088221Y-35131668D01*
X53109536Y-35105931D01*
X53120391Y-35097882D01*
X53131200Y-35086049D01*
X53123254Y-35067229D01*
X53117711Y-35060015D01*
X53190988Y-35060015D01*
X53192031Y-35067399D01*
X53209677Y-35079656D01*
X53224111Y-35070031D01*
X53226130Y-35059370D01*
X53216838Y-35045238D01*
X53205207Y-35046835D01*
X53190988Y-35060015D01*
X53117711Y-35060015D01*
X53113971Y-35055147D01*
X53088162Y-35023359D01*
X53050085Y-35058647D01*
X53027746Y-35082478D01*
X53027543Y-35092954D01*
X52323256Y-35092954D01*
X52381467Y-34918908D01*
X52854034Y-34918908D01*
X53326600Y-34918908D01*
X53408171Y-35111439D01*
G37*
D14*
%TO.C,U4*%
X48675000Y-32175000D02*
X48675000Y-36325000D01*
X43525000Y-32175000D02*
X43525000Y-36325000D01*
D15*
X48905000Y-31815000D02*
X48575000Y-31575000D01*
X48905000Y-31335000D01*
X48905000Y-31815000D01*
G36*
X48905000Y-31815000D02*
G01*
X48575000Y-31575000D01*
X48905000Y-31335000D01*
X48905000Y-31815000D01*
G37*
D14*
%TO.C,U3*%
X35975000Y-32175000D02*
X35975000Y-36325000D01*
X30825000Y-32175000D02*
X30825000Y-36325000D01*
D15*
X36205000Y-31815000D02*
X35875000Y-31575000D01*
X36205000Y-31335000D01*
X36205000Y-31815000D01*
G36*
X36205000Y-31815000D02*
G01*
X35875000Y-31575000D01*
X36205000Y-31335000D01*
X36205000Y-31815000D01*
G37*
%TO.C,R4*%
X73975000Y-37140000D02*
X73975000Y-39060000D01*
X73975000Y-39060000D02*
X76835000Y-39060000D01*
X76835000Y-37140000D02*
X73975000Y-37140000D01*
%TO.C,R3*%
X73875000Y-33840000D02*
X73875000Y-35760000D01*
X73875000Y-35760000D02*
X76735000Y-35760000D01*
X76735000Y-33840000D02*
X73875000Y-33840000D01*
%TO.C,R2*%
X41835000Y-31672936D02*
X41835000Y-32127064D01*
X40365000Y-31672936D02*
X40365000Y-32127064D01*
%TO.C,R1*%
X29135000Y-31672936D02*
X29135000Y-32127064D01*
X27665000Y-31672936D02*
X27665000Y-32127064D01*
%TO.C,J4*%
X46055000Y-45570000D02*
X46055000Y-46900000D01*
X44725000Y-45570000D02*
X46055000Y-45570000D01*
X43455000Y-45570000D02*
X38315000Y-45570000D01*
X43455000Y-45570000D02*
X43455000Y-48230000D01*
X38315000Y-45570000D02*
X38315000Y-48230000D01*
X43455000Y-48230000D02*
X38315000Y-48230000D01*
%TO.C,J3*%
X82480000Y-41040000D02*
X81680000Y-41040000D01*
X82480000Y-42080000D02*
X82480000Y-41040000D01*
X76420000Y-48020000D02*
X76420000Y-41280000D01*
X82240000Y-48020000D02*
X82240000Y-41280000D01*
X82240000Y-41280000D02*
X76420000Y-41280000D01*
X82240000Y-48020000D02*
X76420000Y-48020000D01*
X82240000Y-46301000D02*
X76420000Y-46301000D01*
X82240000Y-43200000D02*
X76420000Y-43200000D01*
X82240000Y-42200000D02*
X76420000Y-42200000D01*
%TO.C,J2*%
X75780000Y-41040000D02*
X74980000Y-41040000D01*
X75780000Y-42080000D02*
X75780000Y-41040000D01*
X69720000Y-48020000D02*
X69720000Y-41280000D01*
X75540000Y-48020000D02*
X75540000Y-41280000D01*
X75540000Y-41280000D02*
X69720000Y-41280000D01*
X75540000Y-48020000D02*
X69720000Y-48020000D01*
X75540000Y-46301000D02*
X69720000Y-46301000D01*
X75540000Y-43200000D02*
X69720000Y-43200000D01*
X75540000Y-42200000D02*
X69720000Y-42200000D01*
%TO.C,J1*%
X47345000Y-48230000D02*
X47345000Y-46900000D01*
X48675000Y-48230000D02*
X47345000Y-48230000D01*
X49945000Y-48230000D02*
X55085000Y-48230000D01*
X49945000Y-48230000D02*
X49945000Y-45570000D01*
X55085000Y-48230000D02*
X55085000Y-45570000D01*
X49945000Y-45570000D02*
X55085000Y-45570000D01*
%TO.C,F1*%
X70750000Y-35797936D02*
X70750000Y-37002064D01*
X72570000Y-35797936D02*
X72570000Y-37002064D01*
%TO.C,D2*%
X80306267Y-38810000D02*
X80013733Y-38810000D01*
X80306267Y-37790000D02*
X80013733Y-37790000D01*
%TO.C,D1*%
X80306267Y-35610000D02*
X80013733Y-35610000D01*
X80306267Y-34590000D02*
X80013733Y-34590000D01*
%TO.C,C8*%
X41835000Y-36238748D02*
X41835000Y-36761252D01*
X40365000Y-36238748D02*
X40365000Y-36761252D01*
%TO.C,C7*%
X29135000Y-36238748D02*
X29135000Y-36761252D01*
X27665000Y-36238748D02*
X27665000Y-36761252D01*
%TO.C,C3*%
X64161252Y-40735000D02*
X63638748Y-40735000D01*
X64161252Y-39265000D02*
X63638748Y-39265000D01*
%TO.C,C2*%
X64161252Y-37435000D02*
X63638748Y-37435000D01*
X64161252Y-35965000D02*
X63638748Y-35965000D01*
%TO.C,C1*%
X64161252Y-34135000D02*
X63638748Y-34135000D01*
X64161252Y-32665000D02*
X63638748Y-32665000D01*
%TO.C,A1*%
X69080000Y-26760000D02*
X66410000Y-26760000D01*
X63870000Y-26760000D02*
X25640000Y-26760000D01*
X25640000Y-26760000D02*
X25640000Y-31840000D01*
X66410000Y-29430000D02*
X66410000Y-26760000D01*
X63870000Y-29430000D02*
X63870000Y-26760000D01*
X63870000Y-29430000D02*
X66410000Y-29430000D01*
X63870000Y-29430000D02*
X28310000Y-29430000D01*
X28310000Y-29430000D02*
X28310000Y-26760000D01*
X33520000Y-31840000D02*
X33520000Y-39720000D01*
X23100000Y-31840000D02*
X33520000Y-31840000D01*
X33520000Y-39720000D02*
X23100000Y-39720000D01*
X23100000Y-39720000D02*
X23100000Y-31840000D01*
X66410000Y-42130000D02*
X28310000Y-42130000D01*
X66410000Y-42130000D02*
X66410000Y-44800000D01*
X28310000Y-42130000D02*
X28310000Y-44800000D01*
X69080000Y-44800000D02*
X69080000Y-26760000D01*
X25640000Y-44800000D02*
X25640000Y-39720000D01*
X25640000Y-44800000D02*
X69080000Y-44800000D01*
%TD*%
M02*
