%TF.GenerationSoftware,KiCad,Pcbnew,8.0.4*%
%TF.CreationDate,2025-02-26T16:08:11-05:00*%
%TF.ProjectId,plusle,706c7573-6c65-42e6-9b69-6361645f7063,rev?*%
%TF.SameCoordinates,Original*%
%TF.FileFunction,Soldermask,Bot*%
%TF.FilePolarity,Negative*%
%FSLAX46Y46*%
G04 Gerber Fmt 4.6, Leading zero omitted, Abs format (unit mm)*
G04 Created by KiCad (PCBNEW 8.0.4) date 2025-02-26 16:08:11*
%MOMM*%
%LPD*%
G01*
G04 APERTURE LIST*
G04 Aperture macros list*
%AMRoundRect*
0 Rectangle with rounded corners*
0 $1 Rounding radius*
0 $2 $3 $4 $5 $6 $7 $8 $9 X,Y pos of 4 corners*
0 Add a 4 corners polygon primitive as box body*
4,1,4,$2,$3,$4,$5,$6,$7,$8,$9,$2,$3,0*
0 Add four circle primitives for the rounded corners*
1,1,$1+$1,$2,$3*
1,1,$1+$1,$4,$5*
1,1,$1+$1,$6,$7*
1,1,$1+$1,$8,$9*
0 Add four rect primitives between the rounded corners*
20,1,$1+$1,$2,$3,$4,$5,0*
20,1,$1+$1,$4,$5,$6,$7,0*
20,1,$1+$1,$6,$7,$8,$9,0*
20,1,$1+$1,$8,$9,$2,$3,0*%
G04 Aperture macros list end*
%ADD10RoundRect,0.102000X-0.654000X0.654000X-0.654000X-0.654000X0.654000X-0.654000X0.654000X0.654000X0*%
%ADD11C,1.512000*%
%ADD12C,1.400000*%
%ADD13R,3.500000X3.500000*%
%ADD14C,3.500000*%
%ADD15C,0.770000*%
%ADD16R,1.700000X1.700000*%
%ADD17O,1.700000X1.700000*%
%ADD18C,2.000000*%
%ADD19R,2.000000X2.000000*%
%ADD20C,2.200000*%
%ADD21RoundRect,0.250000X0.337500X0.475000X-0.337500X0.475000X-0.337500X-0.475000X0.337500X-0.475000X0*%
%ADD22R,1.600000X1.600000*%
%ADD23O,1.600000X1.600000*%
G04 APERTURE END LIST*
D10*
%TO.C,SW1*%
X78040000Y-29100000D03*
D11*
X72960000Y-29100000D03*
%TD*%
D12*
%TO.C,J5*%
X68000000Y-43000000D03*
X68000000Y-32000000D03*
D13*
X58000000Y-35000000D03*
D14*
X58000000Y-40000000D03*
%TD*%
D15*
%TO.C,U4*%
X47400000Y-33600000D03*
X46100000Y-33600000D03*
X44800000Y-33600000D03*
X47400000Y-34900000D03*
X46100000Y-34900000D03*
X44800000Y-34900000D03*
%TD*%
%TO.C,U3*%
X34700000Y-33600000D03*
X33400000Y-33600000D03*
X32100000Y-33600000D03*
X34700000Y-34900000D03*
X33400000Y-34900000D03*
X32100000Y-34900000D03*
%TD*%
D16*
%TO.C,J4*%
X44725000Y-46900000D03*
D17*
X42185000Y-46900000D03*
X39645000Y-46900000D03*
%TD*%
D18*
%TO.C,J3*%
X78060000Y-44800000D03*
D19*
X80600000Y-44800000D03*
%TD*%
D18*
%TO.C,J2*%
X71360000Y-44800000D03*
D19*
X73900000Y-44800000D03*
%TD*%
D16*
%TO.C,J1*%
X48675000Y-46900000D03*
D17*
X51215000Y-46900000D03*
X53755000Y-46900000D03*
%TD*%
D20*
%TO.C,H1*%
X27800000Y-46600000D03*
%TD*%
D21*
%TO.C,C6*%
X53937500Y-33200000D03*
X51862500Y-33200000D03*
%TD*%
%TO.C,C5*%
X53937500Y-36500000D03*
X51862500Y-36500000D03*
%TD*%
%TO.C,C4*%
X53937500Y-39800000D03*
X51862500Y-39800000D03*
%TD*%
D22*
%TO.C,A1*%
X65140000Y-28160000D03*
D23*
X62600000Y-28160000D03*
X60060000Y-28160000D03*
X57520000Y-28160000D03*
X54980000Y-28160000D03*
X52440000Y-28160000D03*
X49900000Y-28160000D03*
X47360000Y-28160000D03*
X44820000Y-28160000D03*
X42280000Y-28160000D03*
X39740000Y-28160000D03*
X37200000Y-28160000D03*
X34660000Y-28160000D03*
X32120000Y-28160000D03*
X29580000Y-28160000D03*
X29580000Y-43400000D03*
X32120000Y-43400000D03*
X34660000Y-43400000D03*
X37200000Y-43400000D03*
X39740000Y-43400000D03*
X42280000Y-43400000D03*
X44820000Y-43400000D03*
X47360000Y-43400000D03*
X49900000Y-43400000D03*
X52440000Y-43400000D03*
X54980000Y-43400000D03*
X57520000Y-43400000D03*
X60060000Y-43400000D03*
X62600000Y-43400000D03*
X65140000Y-43400000D03*
%TD*%
D20*
%TO.C,H2*%
X67300000Y-46600000D03*
%TD*%
M02*
