%TF.GenerationSoftware,KiCad,Pcbnew,8.0.4*%
%TF.CreationDate,2025-02-26T16:08:11-05:00*%
%TF.ProjectId,plusle,706c7573-6c65-42e6-9b69-6361645f7063,rev?*%
%TF.SameCoordinates,Original*%
%TF.FileFunction,Copper,L2,Bot*%
%TF.FilePolarity,Positive*%
%FSLAX46Y46*%
G04 Gerber Fmt 4.6, Leading zero omitted, Abs format (unit mm)*
G04 Created by KiCad (PCBNEW 8.0.4) date 2025-02-26 16:08:11*
%MOMM*%
%LPD*%
G01*
G04 APERTURE LIST*
G04 Aperture macros list*
%AMRoundRect*
0 Rectangle with rounded corners*
0 $1 Rounding radius*
0 $2 $3 $4 $5 $6 $7 $8 $9 X,Y pos of 4 corners*
0 Add a 4 corners polygon primitive as box body*
4,1,4,$2,$3,$4,$5,$6,$7,$8,$9,$2,$3,0*
0 Add four circle primitives for the rounded corners*
1,1,$1+$1,$2,$3*
1,1,$1+$1,$4,$5*
1,1,$1+$1,$6,$7*
1,1,$1+$1,$8,$9*
0 Add four rect primitives between the rounded corners*
20,1,$1+$1,$2,$3,$4,$5,0*
20,1,$1+$1,$4,$5,$6,$7,0*
20,1,$1+$1,$6,$7,$8,$9,0*
20,1,$1+$1,$8,$9,$2,$3,0*%
G04 Aperture macros list end*
%TA.AperFunction,ComponentPad*%
%ADD10R,1.308000X1.308000*%
%TD*%
%TA.AperFunction,ComponentPad*%
%ADD11C,1.308000*%
%TD*%
%TA.AperFunction,ComponentPad*%
%ADD12C,1.400000*%
%TD*%
%TA.AperFunction,ComponentPad*%
%ADD13R,3.500000X3.500000*%
%TD*%
%TA.AperFunction,ComponentPad*%
%ADD14C,3.500000*%
%TD*%
%TA.AperFunction,ComponentPad*%
%ADD15C,0.630000*%
%TD*%
%TA.AperFunction,SMDPad,CuDef*%
%ADD16R,3.300000X2.600000*%
%TD*%
%TA.AperFunction,ComponentPad*%
%ADD17R,1.700000X1.700000*%
%TD*%
%TA.AperFunction,ComponentPad*%
%ADD18O,1.700000X1.700000*%
%TD*%
%TA.AperFunction,ComponentPad*%
%ADD19C,2.000000*%
%TD*%
%TA.AperFunction,ComponentPad*%
%ADD20R,2.000000X2.000000*%
%TD*%
%TA.AperFunction,SMDPad,CuDef*%
%ADD21RoundRect,0.250000X0.337500X0.475000X-0.337500X0.475000X-0.337500X-0.475000X0.337500X-0.475000X0*%
%TD*%
%TA.AperFunction,ComponentPad*%
%ADD22R,1.600000X1.600000*%
%TD*%
%TA.AperFunction,ComponentPad*%
%ADD23O,1.600000X1.600000*%
%TD*%
%TA.AperFunction,ViaPad*%
%ADD24C,0.600000*%
%TD*%
%TA.AperFunction,ViaPad*%
%ADD25C,1.200000*%
%TD*%
%TA.AperFunction,Conductor*%
%ADD26C,0.500000*%
%TD*%
G04 APERTURE END LIST*
D10*
%TO.P,SW1,1,A*%
%TO.N,Net-(SW1-A)*%
X78040000Y-29100000D03*
D11*
%TO.P,SW1,3,B*%
%TO.N,Net-(J5-Pin_2)*%
X72960000Y-29100000D03*
%TD*%
D12*
%TO.P,J5,*%
%TO.N,*%
X68000000Y-43000000D03*
X68000000Y-32000000D03*
D13*
%TO.P,J5,1,Pin_1*%
%TO.N,GND*%
X58000000Y-35000000D03*
D14*
%TO.P,J5,2,Pin_2*%
%TO.N,Net-(J5-Pin_2)*%
X58000000Y-40000000D03*
%TD*%
D15*
%TO.P,U4,9,GND*%
%TO.N,GND*%
X47400000Y-33600000D03*
X46100000Y-33600000D03*
X44800000Y-33600000D03*
D16*
X46100000Y-34250000D03*
D15*
X47400000Y-34900000D03*
X46100000Y-34900000D03*
X44800000Y-34900000D03*
%TD*%
%TO.P,U3,9,GND*%
%TO.N,GND*%
X34700000Y-33600000D03*
X33400000Y-33600000D03*
X32100000Y-33600000D03*
D16*
X33400000Y-34250000D03*
D15*
X34700000Y-34900000D03*
X33400000Y-34900000D03*
X32100000Y-34900000D03*
%TD*%
D17*
%TO.P,J4,1,Pin_1*%
%TO.N,RCSignalA*%
X44725000Y-46900000D03*
D18*
%TO.P,J4,2,Pin_2*%
%TO.N,Arduino5V*%
X42185000Y-46900000D03*
%TO.P,J4,3,Pin_3*%
%TO.N,GND*%
X39645000Y-46900000D03*
%TD*%
D19*
%TO.P,J3,2,Pin_2*%
%TO.N,Net-(J3-Pin_2)*%
X78060000Y-44800000D03*
D20*
%TO.P,J3,1,Pin_1*%
%TO.N,Net-(J3-Pin_1)*%
X80600000Y-44800000D03*
%TD*%
D19*
%TO.P,J2,2,Pin_2*%
%TO.N,Net-(J2-Pin_2)*%
X71360000Y-44800000D03*
D20*
%TO.P,J2,1,Pin_1*%
%TO.N,Net-(J2-Pin_1)*%
X73900000Y-44800000D03*
%TD*%
D17*
%TO.P,J1,1,Pin_1*%
%TO.N,RCSignalB*%
X48675000Y-46900000D03*
D18*
%TO.P,J1,2,Pin_2*%
%TO.N,Arduino5V*%
X51215000Y-46900000D03*
%TO.P,J1,3,Pin_3*%
%TO.N,GND*%
X53755000Y-46900000D03*
%TD*%
D21*
%TO.P,C6,1*%
%TO.N,Arduino5V*%
X53937500Y-33200000D03*
%TO.P,C6,2*%
%TO.N,GND*%
X51862500Y-33200000D03*
%TD*%
%TO.P,C5,1*%
%TO.N,Arduino5V*%
X53937500Y-36500000D03*
%TO.P,C5,2*%
%TO.N,GND*%
X51862500Y-36500000D03*
%TD*%
%TO.P,C4,1*%
%TO.N,Arduino5V*%
X53937500Y-39800000D03*
%TO.P,C4,2*%
%TO.N,GND*%
X51862500Y-39800000D03*
%TD*%
D22*
%TO.P,A1,1,D1/TX*%
%TO.N,unconnected-(A1-D1{slash}TX-Pad1)*%
X65140000Y-28160000D03*
D23*
%TO.P,A1,2,D0/RX*%
%TO.N,unconnected-(A1-D0{slash}RX-Pad2)*%
X62600000Y-28160000D03*
%TO.P,A1,3,~{RESET}*%
%TO.N,Arduino5V*%
X60060000Y-28160000D03*
%TO.P,A1,4,GND*%
%TO.N,GND*%
X57520000Y-28160000D03*
%TO.P,A1,5,D2*%
%TO.N,unconnected-(A1-D2-Pad5)*%
X54980000Y-28160000D03*
%TO.P,A1,6,D3*%
%TO.N,unconnected-(A1-D3-Pad6)*%
X52440000Y-28160000D03*
%TO.P,A1,7,D4*%
%TO.N,unconnected-(A1-D4-Pad7)*%
X49900000Y-28160000D03*
%TO.P,A1,8,D5*%
%TO.N,BIn2*%
X47360000Y-28160000D03*
%TO.P,A1,9,D6*%
%TO.N,BIn1*%
X44820000Y-28160000D03*
%TO.P,A1,10,D7*%
%TO.N,unconnected-(A1-D7-Pad10)*%
X42280000Y-28160000D03*
%TO.P,A1,11,D8*%
%TO.N,unconnected-(A1-D8-Pad11)*%
X39740000Y-28160000D03*
%TO.P,A1,12,D9*%
%TO.N,unconnected-(A1-D9-Pad12)*%
X37200000Y-28160000D03*
%TO.P,A1,13,D10*%
%TO.N,AIn2*%
X34660000Y-28160000D03*
%TO.P,A1,14,D11*%
%TO.N,AIn1*%
X32120000Y-28160000D03*
%TO.P,A1,15,D12*%
%TO.N,unconnected-(A1-D12-Pad15)*%
X29580000Y-28160000D03*
%TO.P,A1,16,D13*%
%TO.N,unconnected-(A1-D13-Pad16)*%
X29580000Y-43400000D03*
%TO.P,A1,17,3V3*%
%TO.N,unconnected-(A1-3V3-Pad17)*%
X32120000Y-43400000D03*
%TO.P,A1,18,AREF*%
%TO.N,unconnected-(A1-AREF-Pad18)*%
X34660000Y-43400000D03*
%TO.P,A1,19,A0*%
%TO.N,unconnected-(A1-A0-Pad19)*%
X37200000Y-43400000D03*
%TO.P,A1,20,A1*%
%TO.N,unconnected-(A1-A1-Pad20)*%
X39740000Y-43400000D03*
%TO.P,A1,21,A2*%
%TO.N,unconnected-(A1-A2-Pad21)*%
X42280000Y-43400000D03*
%TO.P,A1,22,A3*%
%TO.N,RCSignalA*%
X44820000Y-43400000D03*
%TO.P,A1,23,A4*%
%TO.N,RCSignalB*%
X47360000Y-43400000D03*
%TO.P,A1,24,A5*%
%TO.N,unconnected-(A1-A5-Pad24)*%
X49900000Y-43400000D03*
%TO.P,A1,25,A6*%
%TO.N,unconnected-(A1-A6-Pad25)*%
X52440000Y-43400000D03*
%TO.P,A1,26,A7*%
%TO.N,unconnected-(A1-A7-Pad26)*%
X54980000Y-43400000D03*
%TO.P,A1,27,+5V*%
%TO.N,Arduino5V*%
X57520000Y-43400000D03*
%TO.P,A1,28,~{RESET}*%
X60060000Y-43400000D03*
%TO.P,A1,29,GND*%
%TO.N,GND*%
X62600000Y-43400000D03*
%TO.P,A1,30,VIN*%
%TO.N,ArduinoVIN*%
X65140000Y-43400000D03*
%TD*%
D24*
%TO.N,GND*%
X52900000Y-34800000D03*
X67100000Y-28900000D03*
X67800000Y-28900000D03*
X55300000Y-36100000D03*
X55300000Y-35100000D03*
D25*
X35200000Y-47100000D03*
X33300000Y-47100000D03*
X61500000Y-47300000D03*
X59900000Y-47300000D03*
X52900000Y-30600000D03*
X51200000Y-30600000D03*
%TO.N,ArduinoVIN*%
X31800000Y-39300000D03*
X38700000Y-38300000D03*
X44250000Y-39350000D03*
X52900000Y-41500000D03*
X56600000Y-46000000D03*
%TO.N,Net-(J3-Pin_1)*%
X69800000Y-30400000D03*
%TO.N,Net-(J2-Pin_1)*%
X61100000Y-33200000D03*
%TO.N,Net-(J2-Pin_2)*%
X60700000Y-38400000D03*
%TO.N,Net-(J5-Pin_2)*%
X67077537Y-39977537D03*
%TO.N,Net-(J3-Pin_2)*%
X67400000Y-33800000D03*
%TD*%
D26*
%TO.N,GND*%
X51862500Y-31637500D02*
X52900000Y-30600000D01*
X51862500Y-33200000D02*
X51862500Y-31637500D01*
X55080000Y-30600000D02*
X52900000Y-30600000D01*
X57520000Y-28160000D02*
X55080000Y-30600000D01*
%TO.N,Net-(J3-Pin_1)*%
X80600000Y-41200000D02*
X80600000Y-44800000D01*
X69800000Y-30400000D02*
X80600000Y-41200000D01*
%TO.N,GND*%
X52900000Y-35462500D02*
X51862500Y-36500000D01*
X52900000Y-34800000D02*
X52900000Y-35462500D01*
X51862500Y-33762500D02*
X52900000Y-34800000D01*
X51862500Y-33200000D02*
X51862500Y-33762500D01*
%TO.N,ArduinoVIN*%
X52900000Y-41500000D02*
X52700000Y-41300000D01*
X46200000Y-41300000D02*
X44250000Y-39350000D01*
X52700000Y-41300000D02*
X46200000Y-41300000D01*
X37700000Y-39300000D02*
X31800000Y-39300000D01*
X38700000Y-38300000D02*
X37700000Y-39300000D01*
%TO.N,Arduino5V*%
X53015000Y-45100000D02*
X54300000Y-45100000D01*
X54300000Y-45100000D02*
X55820000Y-45100000D01*
X43985000Y-45100000D02*
X54300000Y-45100000D01*
X51215000Y-46900000D02*
X53015000Y-45100000D01*
%TO.N,ArduinoVIN*%
X62540000Y-46000000D02*
X56600000Y-46000000D01*
X65140000Y-43400000D02*
X62540000Y-46000000D01*
%TO.N,Arduino5V*%
X55020000Y-33200000D02*
X60060000Y-28160000D01*
X53937500Y-33200000D02*
X55020000Y-33200000D01*
%TO.N,Net-(J3-Pin_2)*%
X78060000Y-41560000D02*
X78060000Y-44800000D01*
X70300000Y-33800000D02*
X78060000Y-41560000D01*
X67400000Y-33800000D02*
X70300000Y-33800000D01*
%TO.N,Net-(J2-Pin_1)*%
X73900000Y-42300000D02*
X73900000Y-44800000D01*
X65000000Y-33400000D02*
X73900000Y-42300000D01*
X61100000Y-33200000D02*
X61300000Y-33400000D01*
X61300000Y-33400000D02*
X65000000Y-33400000D01*
%TO.N,Net-(J2-Pin_2)*%
X71360000Y-41760000D02*
X71360000Y-44800000D01*
X68000000Y-38400000D02*
X71360000Y-41760000D01*
X60700000Y-38400000D02*
X68000000Y-38400000D01*
%TO.N,Net-(J5-Pin_2)*%
X67077537Y-39977537D02*
X67055074Y-40000000D01*
X67055074Y-40000000D02*
X58000000Y-40000000D01*
%TO.N,Arduino5V*%
X55820000Y-45100000D02*
X57520000Y-43400000D01*
X42185000Y-46900000D02*
X43985000Y-45100000D01*
X53937500Y-39817500D02*
X57520000Y-43400000D01*
X53937500Y-36500000D02*
X53937500Y-39817500D01*
X53937500Y-36500000D02*
X53937500Y-39800000D01*
X53937500Y-33200000D02*
X53937500Y-36500000D01*
%TD*%
%TA.AperFunction,Conductor*%
%TO.N,GND*%
G36*
X28567990Y-27120185D02*
G01*
X28613745Y-27172989D01*
X28623689Y-27242147D01*
X28594664Y-27305703D01*
X28588632Y-27312181D01*
X28579954Y-27320858D01*
X28449432Y-27507265D01*
X28449431Y-27507267D01*
X28353261Y-27713502D01*
X28353258Y-27713511D01*
X28294366Y-27933302D01*
X28294364Y-27933313D01*
X28274532Y-28159998D01*
X28274532Y-28160001D01*
X28294364Y-28386686D01*
X28294366Y-28386697D01*
X28353258Y-28606488D01*
X28353261Y-28606497D01*
X28449431Y-28812732D01*
X28449432Y-28812734D01*
X28579954Y-28999141D01*
X28740858Y-29160045D01*
X28740861Y-29160047D01*
X28927266Y-29290568D01*
X29133504Y-29386739D01*
X29353308Y-29445635D01*
X29515230Y-29459801D01*
X29579998Y-29465468D01*
X29580000Y-29465468D01*
X29580002Y-29465468D01*
X29636807Y-29460498D01*
X29806692Y-29445635D01*
X30026496Y-29386739D01*
X30232734Y-29290568D01*
X30419139Y-29160047D01*
X30580047Y-28999139D01*
X30710568Y-28812734D01*
X30737618Y-28754724D01*
X30783790Y-28702285D01*
X30850983Y-28683133D01*
X30917865Y-28703348D01*
X30962382Y-28754725D01*
X30989429Y-28812728D01*
X30989432Y-28812734D01*
X31119954Y-28999141D01*
X31280858Y-29160045D01*
X31280861Y-29160047D01*
X31467266Y-29290568D01*
X31673504Y-29386739D01*
X31893308Y-29445635D01*
X32055230Y-29459801D01*
X32119998Y-29465468D01*
X32120000Y-29465468D01*
X32120002Y-29465468D01*
X32176807Y-29460498D01*
X32346692Y-29445635D01*
X32566496Y-29386739D01*
X32772734Y-29290568D01*
X32959139Y-29160047D01*
X33120047Y-28999139D01*
X33250568Y-28812734D01*
X33277618Y-28754724D01*
X33323790Y-28702285D01*
X33390983Y-28683133D01*
X33457865Y-28703348D01*
X33502382Y-28754725D01*
X33529429Y-28812728D01*
X33529432Y-28812734D01*
X33659954Y-28999141D01*
X33820858Y-29160045D01*
X33820861Y-29160047D01*
X34007266Y-29290568D01*
X34213504Y-29386739D01*
X34433308Y-29445635D01*
X34595230Y-29459801D01*
X34659998Y-29465468D01*
X34660000Y-29465468D01*
X34660002Y-29465468D01*
X34716807Y-29460498D01*
X34886692Y-29445635D01*
X35106496Y-29386739D01*
X35312734Y-29290568D01*
X35499139Y-29160047D01*
X35660047Y-28999139D01*
X35790568Y-28812734D01*
X35817618Y-28754724D01*
X35863790Y-28702285D01*
X35930983Y-28683133D01*
X35997865Y-28703348D01*
X36042382Y-28754725D01*
X36069429Y-28812728D01*
X36069432Y-28812734D01*
X36199954Y-28999141D01*
X36360858Y-29160045D01*
X36360861Y-29160047D01*
X36547266Y-29290568D01*
X36753504Y-29386739D01*
X36973308Y-29445635D01*
X37135230Y-29459801D01*
X37199998Y-29465468D01*
X37200000Y-29465468D01*
X37200002Y-29465468D01*
X37256807Y-29460498D01*
X37426692Y-29445635D01*
X37646496Y-29386739D01*
X37852734Y-29290568D01*
X38039139Y-29160047D01*
X38200047Y-28999139D01*
X38330568Y-28812734D01*
X38357618Y-28754724D01*
X38403790Y-28702285D01*
X38470983Y-28683133D01*
X38537865Y-28703348D01*
X38582382Y-28754725D01*
X38609429Y-28812728D01*
X38609432Y-28812734D01*
X38739954Y-28999141D01*
X38900858Y-29160045D01*
X38900861Y-29160047D01*
X39087266Y-29290568D01*
X39293504Y-29386739D01*
X39513308Y-29445635D01*
X39675230Y-29459801D01*
X39739998Y-29465468D01*
X39740000Y-29465468D01*
X39740002Y-29465468D01*
X39796807Y-29460498D01*
X39966692Y-29445635D01*
X40186496Y-29386739D01*
X40392734Y-29290568D01*
X40579139Y-29160047D01*
X40740047Y-28999139D01*
X40870568Y-28812734D01*
X40897618Y-28754724D01*
X40943790Y-28702285D01*
X41010983Y-28683133D01*
X41077865Y-28703348D01*
X41122382Y-28754725D01*
X41149429Y-28812728D01*
X41149432Y-28812734D01*
X41279954Y-28999141D01*
X41440858Y-29160045D01*
X41440861Y-29160047D01*
X41627266Y-29290568D01*
X41833504Y-29386739D01*
X42053308Y-29445635D01*
X42215230Y-29459801D01*
X42279998Y-29465468D01*
X42280000Y-29465468D01*
X42280002Y-29465468D01*
X42336807Y-29460498D01*
X42506692Y-29445635D01*
X42726496Y-29386739D01*
X42932734Y-29290568D01*
X43119139Y-29160047D01*
X43280047Y-28999139D01*
X43410568Y-28812734D01*
X43437618Y-28754724D01*
X43483790Y-28702285D01*
X43550983Y-28683133D01*
X43617865Y-28703348D01*
X43662382Y-28754725D01*
X43689429Y-28812728D01*
X43689432Y-28812734D01*
X43819954Y-28999141D01*
X43980858Y-29160045D01*
X43980861Y-29160047D01*
X44167266Y-29290568D01*
X44373504Y-29386739D01*
X44593308Y-29445635D01*
X44755230Y-29459801D01*
X44819998Y-29465468D01*
X44820000Y-29465468D01*
X44820002Y-29465468D01*
X44876807Y-29460498D01*
X45046692Y-29445635D01*
X45266496Y-29386739D01*
X45472734Y-29290568D01*
X45659139Y-29160047D01*
X45820047Y-28999139D01*
X45950568Y-28812734D01*
X45977618Y-28754724D01*
X46023790Y-28702285D01*
X46090983Y-28683133D01*
X46157865Y-28703348D01*
X46202382Y-28754725D01*
X46229429Y-28812728D01*
X46229432Y-28812734D01*
X46359954Y-28999141D01*
X46520858Y-29160045D01*
X46520861Y-29160047D01*
X46707266Y-29290568D01*
X46913504Y-29386739D01*
X47133308Y-29445635D01*
X47295230Y-29459801D01*
X47359998Y-29465468D01*
X47360000Y-29465468D01*
X47360002Y-29465468D01*
X47416807Y-29460498D01*
X47586692Y-29445635D01*
X47806496Y-29386739D01*
X48012734Y-29290568D01*
X48199139Y-29160047D01*
X48360047Y-28999139D01*
X48490568Y-28812734D01*
X48517618Y-28754724D01*
X48563790Y-28702285D01*
X48630983Y-28683133D01*
X48697865Y-28703348D01*
X48742382Y-28754725D01*
X48769429Y-28812728D01*
X48769432Y-28812734D01*
X48899954Y-28999141D01*
X49060858Y-29160045D01*
X49060861Y-29160047D01*
X49247266Y-29290568D01*
X49453504Y-29386739D01*
X49673308Y-29445635D01*
X49835230Y-29459801D01*
X49899998Y-29465468D01*
X49900000Y-29465468D01*
X49900002Y-29465468D01*
X49956807Y-29460498D01*
X50126692Y-29445635D01*
X50346496Y-29386739D01*
X50552734Y-29290568D01*
X50739139Y-29160047D01*
X50900047Y-28999139D01*
X51030568Y-28812734D01*
X51057618Y-28754724D01*
X51103790Y-28702285D01*
X51170983Y-28683133D01*
X51237865Y-28703348D01*
X51282382Y-28754725D01*
X51309429Y-28812728D01*
X51309432Y-28812734D01*
X51439954Y-28999141D01*
X51600858Y-29160045D01*
X51600861Y-29160047D01*
X51787266Y-29290568D01*
X51993504Y-29386739D01*
X52213308Y-29445635D01*
X52375230Y-29459801D01*
X52439998Y-29465468D01*
X52440000Y-29465468D01*
X52440002Y-29465468D01*
X52496807Y-29460498D01*
X52666692Y-29445635D01*
X52886496Y-29386739D01*
X53092734Y-29290568D01*
X53279139Y-29160047D01*
X53440047Y-28999139D01*
X53570568Y-28812734D01*
X53597618Y-28754724D01*
X53643790Y-28702285D01*
X53710983Y-28683133D01*
X53777865Y-28703348D01*
X53822382Y-28754725D01*
X53849429Y-28812728D01*
X53849432Y-28812734D01*
X53979954Y-28999141D01*
X54140858Y-29160045D01*
X54140861Y-29160047D01*
X54327266Y-29290568D01*
X54533504Y-29386739D01*
X54753308Y-29445635D01*
X54915230Y-29459801D01*
X54979998Y-29465468D01*
X54980000Y-29465468D01*
X54980002Y-29465468D01*
X55036807Y-29460498D01*
X55206692Y-29445635D01*
X55426496Y-29386739D01*
X55632734Y-29290568D01*
X55819139Y-29160047D01*
X55980047Y-28999139D01*
X56110568Y-28812734D01*
X56137895Y-28754129D01*
X56184064Y-28701695D01*
X56251257Y-28682542D01*
X56318139Y-28702757D01*
X56362657Y-28754133D01*
X56389865Y-28812482D01*
X56520342Y-28998820D01*
X56681179Y-29159657D01*
X56867517Y-29290134D01*
X57073673Y-29386265D01*
X57073682Y-29386269D01*
X57293389Y-29445139D01*
X57293400Y-29445141D01*
X57414785Y-29455761D01*
X57479854Y-29481213D01*
X57520833Y-29537804D01*
X57524711Y-29607566D01*
X57491659Y-29666970D01*
X54972680Y-32185950D01*
X54911357Y-32219435D01*
X54841665Y-32214451D01*
X54797318Y-32185950D01*
X54743657Y-32132289D01*
X54743656Y-32132288D01*
X54594334Y-32040186D01*
X54427797Y-31985001D01*
X54427795Y-31985000D01*
X54325010Y-31974500D01*
X53549998Y-31974500D01*
X53549980Y-31974501D01*
X53447203Y-31985000D01*
X53447200Y-31985001D01*
X53280668Y-32040185D01*
X53280663Y-32040187D01*
X53131342Y-32132289D01*
X53007288Y-32256343D01*
X53007283Y-32256349D01*
X53005241Y-32259661D01*
X53003247Y-32261453D01*
X53002807Y-32262011D01*
X53002711Y-32261935D01*
X52953291Y-32306383D01*
X52884328Y-32317602D01*
X52820247Y-32289755D01*
X52794168Y-32259656D01*
X52792319Y-32256659D01*
X52792316Y-32256655D01*
X52668345Y-32132684D01*
X52519124Y-32040643D01*
X52519119Y-32040641D01*
X52352697Y-31985494D01*
X52352690Y-31985493D01*
X52249986Y-31975000D01*
X52112500Y-31975000D01*
X52112500Y-34424999D01*
X52249972Y-34424999D01*
X52249986Y-34424998D01*
X52352697Y-34414505D01*
X52519119Y-34359358D01*
X52519124Y-34359356D01*
X52668345Y-34267315D01*
X52792318Y-34143342D01*
X52794165Y-34140348D01*
X52795969Y-34138724D01*
X52796798Y-34137677D01*
X52796976Y-34137818D01*
X52846110Y-34093621D01*
X52915073Y-34082396D01*
X52979156Y-34110236D01*
X53005243Y-34140341D01*
X53007288Y-34143656D01*
X53007289Y-34143657D01*
X53131345Y-34267713D01*
X53137013Y-34272195D01*
X53135570Y-34274019D01*
X53174820Y-34317654D01*
X53187000Y-34371248D01*
X53187000Y-35328752D01*
X53167315Y-35395791D01*
X53136002Y-35426531D01*
X53137011Y-35427807D01*
X53131343Y-35432288D01*
X53007288Y-35556343D01*
X53007283Y-35556349D01*
X53005241Y-35559661D01*
X53003247Y-35561453D01*
X53002807Y-35562011D01*
X53002711Y-35561935D01*
X52953291Y-35606383D01*
X52884328Y-35617602D01*
X52820247Y-35589755D01*
X52794168Y-35559656D01*
X52792319Y-35556659D01*
X52792316Y-35556655D01*
X52668345Y-35432684D01*
X52519124Y-35340643D01*
X52519119Y-35340641D01*
X52352697Y-35285494D01*
X52352690Y-35285493D01*
X52249986Y-35275000D01*
X52112500Y-35275000D01*
X52112500Y-37724999D01*
X52249972Y-37724999D01*
X52249986Y-37724998D01*
X52352697Y-37714505D01*
X52519119Y-37659358D01*
X52519124Y-37659356D01*
X52668345Y-37567315D01*
X52792318Y-37443342D01*
X52794165Y-37440348D01*
X52795969Y-37438724D01*
X52796798Y-37437677D01*
X52796976Y-37437818D01*
X52846110Y-37393621D01*
X52915073Y-37382396D01*
X52979156Y-37410236D01*
X53005243Y-37440341D01*
X53007288Y-37443656D01*
X53007289Y-37443657D01*
X53131345Y-37567713D01*
X53137013Y-37572195D01*
X53135570Y-37574019D01*
X53174820Y-37617654D01*
X53187000Y-37671248D01*
X53187000Y-38628752D01*
X53167315Y-38695791D01*
X53136002Y-38726531D01*
X53137011Y-38727807D01*
X53131343Y-38732288D01*
X53007288Y-38856343D01*
X53007283Y-38856349D01*
X53005241Y-38859661D01*
X53003247Y-38861453D01*
X53002807Y-38862011D01*
X53002711Y-38861935D01*
X52953291Y-38906383D01*
X52884328Y-38917602D01*
X52820247Y-38889755D01*
X52794168Y-38859656D01*
X52792319Y-38856659D01*
X52792316Y-38856655D01*
X52668345Y-38732684D01*
X52519124Y-38640643D01*
X52519119Y-38640641D01*
X52352697Y-38585494D01*
X52352690Y-38585493D01*
X52249986Y-38575000D01*
X52112500Y-38575000D01*
X52112500Y-39926000D01*
X52092815Y-39993039D01*
X52040011Y-40038794D01*
X51988500Y-40050000D01*
X50775001Y-40050000D01*
X50775001Y-40324989D01*
X50783982Y-40412899D01*
X50771212Y-40481592D01*
X50723331Y-40532476D01*
X50660624Y-40549500D01*
X46562229Y-40549500D01*
X46495190Y-40529815D01*
X46474548Y-40513181D01*
X45391351Y-39429983D01*
X45357866Y-39368660D01*
X45355561Y-39353743D01*
X45355214Y-39350004D01*
X45355215Y-39350000D01*
X45348267Y-39275013D01*
X50775000Y-39275013D01*
X50775000Y-39550000D01*
X51612500Y-39550000D01*
X51612500Y-38575000D01*
X51475027Y-38575000D01*
X51475012Y-38575001D01*
X51372302Y-38585494D01*
X51205880Y-38640641D01*
X51205875Y-38640643D01*
X51056654Y-38732684D01*
X50932684Y-38856654D01*
X50840643Y-39005875D01*
X50840641Y-39005880D01*
X50785494Y-39172302D01*
X50785493Y-39172309D01*
X50775000Y-39275013D01*
X45348267Y-39275013D01*
X45336397Y-39146917D01*
X45280582Y-38950750D01*
X45264076Y-38917602D01*
X45233573Y-38856342D01*
X45189673Y-38768179D01*
X45124847Y-38682335D01*
X45066762Y-38605418D01*
X44916041Y-38468019D01*
X44916039Y-38468017D01*
X44742642Y-38360655D01*
X44742635Y-38360651D01*
X44613571Y-38310652D01*
X44552456Y-38286976D01*
X44351976Y-38249500D01*
X44148024Y-38249500D01*
X43947544Y-38286976D01*
X43947541Y-38286976D01*
X43947541Y-38286977D01*
X43757364Y-38360651D01*
X43757357Y-38360655D01*
X43583960Y-38468017D01*
X43583958Y-38468019D01*
X43433237Y-38605418D01*
X43310327Y-38768178D01*
X43219422Y-38950739D01*
X43219417Y-38950752D01*
X43163602Y-39146917D01*
X43144785Y-39349999D01*
X43144785Y-39350000D01*
X43163602Y-39553082D01*
X43219417Y-39749247D01*
X43219422Y-39749260D01*
X43310327Y-39931821D01*
X43433237Y-40094581D01*
X43583958Y-40231980D01*
X43583960Y-40231982D01*
X43651917Y-40274059D01*
X43757363Y-40339348D01*
X43947544Y-40413024D01*
X44148024Y-40450500D01*
X44237770Y-40450500D01*
X44304809Y-40470185D01*
X44325451Y-40486819D01*
X45008952Y-41170319D01*
X45617048Y-41778415D01*
X45617049Y-41778416D01*
X45673181Y-41834548D01*
X45721585Y-41882952D01*
X45844498Y-41965080D01*
X45844511Y-41965087D01*
X45981082Y-42021656D01*
X45981087Y-42021658D01*
X45981091Y-42021658D01*
X45981092Y-42021659D01*
X46126079Y-42050500D01*
X46126082Y-42050500D01*
X46626656Y-42050500D01*
X46693695Y-42070185D01*
X46739450Y-42122989D01*
X46749394Y-42192147D01*
X46720369Y-42255703D01*
X46697779Y-42276075D01*
X46520858Y-42399954D01*
X46359954Y-42560858D01*
X46229432Y-42747265D01*
X46229431Y-42747267D01*
X46202382Y-42805275D01*
X46156209Y-42857714D01*
X46089016Y-42876866D01*
X46022135Y-42856650D01*
X45977618Y-42805275D01*
X45950686Y-42747520D01*
X45950568Y-42747266D01*
X45822578Y-42564476D01*
X45820045Y-42560858D01*
X45659141Y-42399954D01*
X45472734Y-42269432D01*
X45472732Y-42269431D01*
X45266497Y-42173261D01*
X45266488Y-42173258D01*
X45046697Y-42114366D01*
X45046693Y-42114365D01*
X45046692Y-42114365D01*
X45046691Y-42114364D01*
X45046686Y-42114364D01*
X44820002Y-42094532D01*
X44819998Y-42094532D01*
X44593313Y-42114364D01*
X44593302Y-42114366D01*
X44373511Y-42173258D01*
X44373502Y-42173261D01*
X44167267Y-42269431D01*
X44167265Y-42269432D01*
X43980858Y-42399954D01*
X43819954Y-42560858D01*
X43689432Y-42747265D01*
X43689431Y-42747267D01*
X43662382Y-42805275D01*
X43616209Y-42857714D01*
X43549016Y-42876866D01*
X43482135Y-42856650D01*
X43437618Y-42805275D01*
X43410686Y-42747520D01*
X43410568Y-42747266D01*
X43282578Y-42564476D01*
X43280045Y-42560858D01*
X43119141Y-42399954D01*
X42932734Y-42269432D01*
X42932732Y-42269431D01*
X42726497Y-42173261D01*
X42726488Y-42173258D01*
X42506697Y-42114366D01*
X42506693Y-42114365D01*
X42506692Y-42114365D01*
X42506691Y-42114364D01*
X42506686Y-42114364D01*
X42280002Y-42094532D01*
X42279998Y-42094532D01*
X42053313Y-42114364D01*
X42053302Y-42114366D01*
X41833511Y-42173258D01*
X41833502Y-42173261D01*
X41627267Y-42269431D01*
X41627265Y-42269432D01*
X41440858Y-42399954D01*
X41279954Y-42560858D01*
X41149432Y-42747265D01*
X41149431Y-42747267D01*
X41122382Y-42805275D01*
X41076209Y-42857714D01*
X41009016Y-42876866D01*
X40942135Y-42856650D01*
X40897618Y-42805275D01*
X40870686Y-42747520D01*
X40870568Y-42747266D01*
X40742578Y-42564476D01*
X40740045Y-42560858D01*
X40579141Y-42399954D01*
X40392734Y-42269432D01*
X40392732Y-42269431D01*
X40186497Y-42173261D01*
X40186488Y-42173258D01*
X39966697Y-42114366D01*
X39966693Y-42114365D01*
X39966692Y-42114365D01*
X39966691Y-42114364D01*
X39966686Y-42114364D01*
X39740002Y-42094532D01*
X39739998Y-42094532D01*
X39513313Y-42114364D01*
X39513302Y-42114366D01*
X39293511Y-42173258D01*
X39293502Y-42173261D01*
X39087267Y-42269431D01*
X39087265Y-42269432D01*
X38900858Y-42399954D01*
X38739954Y-42560858D01*
X38609432Y-42747265D01*
X38609431Y-42747267D01*
X38582382Y-42805275D01*
X38536209Y-42857714D01*
X38469016Y-42876866D01*
X38402135Y-42856650D01*
X38357618Y-42805275D01*
X38330686Y-42747520D01*
X38330568Y-42747266D01*
X38202578Y-42564476D01*
X38200045Y-42560858D01*
X38039141Y-42399954D01*
X37852734Y-42269432D01*
X37852732Y-42269431D01*
X37646497Y-42173261D01*
X37646488Y-42173258D01*
X37426697Y-42114366D01*
X37426693Y-42114365D01*
X37426692Y-42114365D01*
X37426691Y-42114364D01*
X37426686Y-42114364D01*
X37200002Y-42094532D01*
X37199998Y-42094532D01*
X36973313Y-42114364D01*
X36973302Y-42114366D01*
X36753511Y-42173258D01*
X36753502Y-42173261D01*
X36547267Y-42269431D01*
X36547265Y-42269432D01*
X36360858Y-42399954D01*
X36199954Y-42560858D01*
X36069432Y-42747265D01*
X36069431Y-42747267D01*
X36042382Y-42805275D01*
X35996209Y-42857714D01*
X35929016Y-42876866D01*
X35862135Y-42856650D01*
X35817618Y-42805275D01*
X35790686Y-42747520D01*
X35790568Y-42747266D01*
X35662578Y-42564476D01*
X35660045Y-42560858D01*
X35499141Y-42399954D01*
X35312734Y-42269432D01*
X35312732Y-42269431D01*
X35106497Y-42173261D01*
X35106488Y-42173258D01*
X34886697Y-42114366D01*
X34886693Y-42114365D01*
X34886692Y-42114365D01*
X34886691Y-42114364D01*
X34886686Y-42114364D01*
X34660002Y-42094532D01*
X34659998Y-42094532D01*
X34433313Y-42114364D01*
X34433302Y-42114366D01*
X34213511Y-42173258D01*
X34213502Y-42173261D01*
X34007267Y-42269431D01*
X34007265Y-42269432D01*
X33820858Y-42399954D01*
X33659954Y-42560858D01*
X33529432Y-42747265D01*
X33529431Y-42747267D01*
X33502382Y-42805275D01*
X33456209Y-42857714D01*
X33389016Y-42876866D01*
X33322135Y-42856650D01*
X33277618Y-42805275D01*
X33250686Y-42747520D01*
X33250568Y-42747266D01*
X33122578Y-42564476D01*
X33120045Y-42560858D01*
X32959141Y-42399954D01*
X32772734Y-42269432D01*
X32772732Y-42269431D01*
X32566497Y-42173261D01*
X32566488Y-42173258D01*
X32346697Y-42114366D01*
X32346693Y-42114365D01*
X32346692Y-42114365D01*
X32346691Y-42114364D01*
X32346686Y-42114364D01*
X32120002Y-42094532D01*
X32119998Y-42094532D01*
X31893313Y-42114364D01*
X31893302Y-42114366D01*
X31673511Y-42173258D01*
X31673502Y-42173261D01*
X31467267Y-42269431D01*
X31467265Y-42269432D01*
X31280858Y-42399954D01*
X31119954Y-42560858D01*
X30989432Y-42747265D01*
X30989431Y-42747267D01*
X30962382Y-42805275D01*
X30916209Y-42857714D01*
X30849016Y-42876866D01*
X30782135Y-42856650D01*
X30737618Y-42805275D01*
X30710686Y-42747520D01*
X30710568Y-42747266D01*
X30582578Y-42564476D01*
X30580045Y-42560858D01*
X30419141Y-42399954D01*
X30232734Y-42269432D01*
X30232732Y-42269431D01*
X30026497Y-42173261D01*
X30026488Y-42173258D01*
X29806697Y-42114366D01*
X29806693Y-42114365D01*
X29806692Y-42114365D01*
X29806691Y-42114364D01*
X29806686Y-42114364D01*
X29580002Y-42094532D01*
X29579998Y-42094532D01*
X29353313Y-42114364D01*
X29353302Y-42114366D01*
X29133511Y-42173258D01*
X29133502Y-42173261D01*
X28927267Y-42269431D01*
X28927265Y-42269432D01*
X28740858Y-42399954D01*
X28579954Y-42560858D01*
X28449432Y-42747265D01*
X28449431Y-42747267D01*
X28353261Y-42953502D01*
X28353258Y-42953511D01*
X28294366Y-43173302D01*
X28294364Y-43173313D01*
X28274532Y-43399998D01*
X28274532Y-43400001D01*
X28294364Y-43626686D01*
X28294366Y-43626697D01*
X28353258Y-43846488D01*
X28353261Y-43846497D01*
X28449431Y-44052732D01*
X28449432Y-44052734D01*
X28579954Y-44239141D01*
X28740858Y-44400045D01*
X28740861Y-44400047D01*
X28927266Y-44530568D01*
X29133504Y-44626739D01*
X29353308Y-44685635D01*
X29515230Y-44699801D01*
X29579998Y-44705468D01*
X29580000Y-44705468D01*
X29580002Y-44705468D01*
X29636673Y-44700509D01*
X29806692Y-44685635D01*
X30026496Y-44626739D01*
X30232734Y-44530568D01*
X30419139Y-44400047D01*
X30580047Y-44239139D01*
X30710568Y-44052734D01*
X30737618Y-43994724D01*
X30783790Y-43942285D01*
X30850983Y-43923133D01*
X30917865Y-43943348D01*
X30962382Y-43994725D01*
X30989429Y-44052728D01*
X30989432Y-44052734D01*
X31119954Y-44239141D01*
X31280858Y-44400045D01*
X31280861Y-44400047D01*
X31467266Y-44530568D01*
X31673504Y-44626739D01*
X31893308Y-44685635D01*
X32055230Y-44699801D01*
X32119998Y-44705468D01*
X32120000Y-44705468D01*
X32120002Y-44705468D01*
X32176673Y-44700509D01*
X32346692Y-44685635D01*
X32566496Y-44626739D01*
X32772734Y-44530568D01*
X32959139Y-44400047D01*
X33120047Y-44239139D01*
X33250568Y-44052734D01*
X33277618Y-43994724D01*
X33323790Y-43942285D01*
X33390983Y-43923133D01*
X33457865Y-43943348D01*
X33502382Y-43994725D01*
X33529429Y-44052728D01*
X33529432Y-44052734D01*
X33659954Y-44239141D01*
X33820858Y-44400045D01*
X33820861Y-44400047D01*
X34007266Y-44530568D01*
X34213504Y-44626739D01*
X34433308Y-44685635D01*
X34595230Y-44699801D01*
X34659998Y-44705468D01*
X34660000Y-44705468D01*
X34660002Y-44705468D01*
X34716673Y-44700509D01*
X34886692Y-44685635D01*
X35106496Y-44626739D01*
X35312734Y-44530568D01*
X35499139Y-44400047D01*
X35660047Y-44239139D01*
X35790568Y-44052734D01*
X35817618Y-43994724D01*
X35863790Y-43942285D01*
X35930983Y-43923133D01*
X35997865Y-43943348D01*
X36042382Y-43994725D01*
X36069429Y-44052728D01*
X36069432Y-44052734D01*
X36199954Y-44239141D01*
X36360858Y-44400045D01*
X36360861Y-44400047D01*
X36547266Y-44530568D01*
X36753504Y-44626739D01*
X36973308Y-44685635D01*
X37135230Y-44699801D01*
X37199998Y-44705468D01*
X37200000Y-44705468D01*
X37200002Y-44705468D01*
X37256673Y-44700509D01*
X37426692Y-44685635D01*
X37646496Y-44626739D01*
X37852734Y-44530568D01*
X38039139Y-44400047D01*
X38200047Y-44239139D01*
X38330568Y-44052734D01*
X38357618Y-43994724D01*
X38403790Y-43942285D01*
X38470983Y-43923133D01*
X38537865Y-43943348D01*
X38582382Y-43994725D01*
X38609429Y-44052728D01*
X38609432Y-44052734D01*
X38739954Y-44239141D01*
X38900858Y-44400045D01*
X38900861Y-44400047D01*
X39087266Y-44530568D01*
X39293504Y-44626739D01*
X39513308Y-44685635D01*
X39675230Y-44699801D01*
X39739998Y-44705468D01*
X39740000Y-44705468D01*
X39740002Y-44705468D01*
X39796673Y-44700509D01*
X39966692Y-44685635D01*
X40186496Y-44626739D01*
X40392734Y-44530568D01*
X40579139Y-44400047D01*
X40740047Y-44239139D01*
X40870568Y-44052734D01*
X40897618Y-43994724D01*
X40943790Y-43942285D01*
X41010983Y-43923133D01*
X41077865Y-43943348D01*
X41122382Y-43994725D01*
X41149429Y-44052728D01*
X41149432Y-44052734D01*
X41279954Y-44239141D01*
X41440858Y-44400045D01*
X41440861Y-44400047D01*
X41627266Y-44530568D01*
X41833504Y-44626739D01*
X42053308Y-44685635D01*
X42215230Y-44699801D01*
X42279998Y-44705468D01*
X42280000Y-44705468D01*
X42280002Y-44705468D01*
X42336673Y-44700509D01*
X42506692Y-44685635D01*
X42726496Y-44626739D01*
X42932734Y-44530568D01*
X43119139Y-44400047D01*
X43280047Y-44239139D01*
X43410568Y-44052734D01*
X43437618Y-43994724D01*
X43483790Y-43942285D01*
X43550983Y-43923133D01*
X43617865Y-43943348D01*
X43662382Y-43994725D01*
X43689429Y-44052728D01*
X43689432Y-44052734D01*
X43794781Y-44203190D01*
X43817108Y-44269397D01*
X43800097Y-44337164D01*
X43749149Y-44384976D01*
X43740659Y-44388874D01*
X43629508Y-44434914D01*
X43629498Y-44434919D01*
X43506584Y-44517048D01*
X43506580Y-44517051D01*
X42496501Y-45527130D01*
X42435178Y-45560615D01*
X42398013Y-45562977D01*
X42185002Y-45544341D01*
X42184999Y-45544341D01*
X41949596Y-45564936D01*
X41949586Y-45564938D01*
X41721344Y-45626094D01*
X41721335Y-45626098D01*
X41507171Y-45725964D01*
X41507169Y-45725965D01*
X41313597Y-45861505D01*
X41146508Y-46028594D01*
X41016269Y-46214595D01*
X40961692Y-46258219D01*
X40892193Y-46265412D01*
X40829839Y-46233890D01*
X40813119Y-46214594D01*
X40683113Y-46028926D01*
X40683108Y-46028920D01*
X40516082Y-45861894D01*
X40322578Y-45726399D01*
X40108492Y-45626570D01*
X40108486Y-45626567D01*
X39895000Y-45569364D01*
X39895000Y-46466988D01*
X39837993Y-46434075D01*
X39710826Y-46400000D01*
X39579174Y-46400000D01*
X39452007Y-46434075D01*
X39395000Y-46466988D01*
X39395000Y-45569364D01*
X39394999Y-45569364D01*
X39181513Y-45626567D01*
X39181507Y-45626570D01*
X38967422Y-45726399D01*
X38967420Y-45726400D01*
X38773926Y-45861886D01*
X38773920Y-45861891D01*
X38606891Y-46028920D01*
X38606886Y-46028926D01*
X38471400Y-46222420D01*
X38471399Y-46222422D01*
X38371570Y-46436507D01*
X38371567Y-46436513D01*
X38314364Y-46649999D01*
X38314364Y-46650000D01*
X39211988Y-46650000D01*
X39179075Y-46707007D01*
X39145000Y-46834174D01*
X39145000Y-46965826D01*
X39179075Y-47092993D01*
X39211988Y-47150000D01*
X38314364Y-47150000D01*
X38371567Y-47363486D01*
X38371570Y-47363492D01*
X38471399Y-47577578D01*
X38606894Y-47771082D01*
X38723631Y-47887819D01*
X38757116Y-47949142D01*
X38752132Y-48018834D01*
X38710260Y-48074767D01*
X38644796Y-48099184D01*
X38635950Y-48099500D01*
X28338226Y-48099500D01*
X28271187Y-48079815D01*
X28225432Y-48027011D01*
X28215488Y-47957853D01*
X28244513Y-47894297D01*
X28299906Y-47857569D01*
X28318412Y-47851557D01*
X28507816Y-47755051D01*
X28529789Y-47739086D01*
X28679786Y-47630109D01*
X28679788Y-47630106D01*
X28679792Y-47630104D01*
X28830104Y-47479792D01*
X28830106Y-47479788D01*
X28830109Y-47479786D01*
X28955048Y-47307820D01*
X28955047Y-47307820D01*
X28955051Y-47307816D01*
X29051557Y-47118412D01*
X29117246Y-46916243D01*
X29150500Y-46706287D01*
X29150500Y-46493713D01*
X29117246Y-46283757D01*
X29051557Y-46081588D01*
X28955051Y-45892184D01*
X28955049Y-45892181D01*
X28955048Y-45892179D01*
X28830109Y-45720213D01*
X28679786Y-45569890D01*
X28507820Y-45444951D01*
X28318414Y-45348444D01*
X28318413Y-45348443D01*
X28318412Y-45348443D01*
X28116243Y-45282754D01*
X28116241Y-45282753D01*
X28116240Y-45282753D01*
X27954957Y-45257208D01*
X27906287Y-45249500D01*
X27693713Y-45249500D01*
X27645042Y-45257208D01*
X27483760Y-45282753D01*
X27281585Y-45348444D01*
X27092179Y-45444951D01*
X26920213Y-45569890D01*
X26769890Y-45720213D01*
X26644951Y-45892179D01*
X26548445Y-46081582D01*
X26548443Y-46081587D01*
X26548443Y-46081588D01*
X26542429Y-46100094D01*
X26502992Y-46157768D01*
X26438633Y-46184965D01*
X26369787Y-46173050D01*
X26318312Y-46125805D01*
X26300500Y-46061773D01*
X26300500Y-39299999D01*
X30694785Y-39299999D01*
X30694785Y-39300000D01*
X30713602Y-39503082D01*
X30769417Y-39699247D01*
X30769422Y-39699260D01*
X30860327Y-39881821D01*
X30983237Y-40044581D01*
X31133958Y-40181980D01*
X31133960Y-40181982D01*
X31233141Y-40243392D01*
X31307363Y-40289348D01*
X31497544Y-40363024D01*
X31698024Y-40400500D01*
X31698026Y-40400500D01*
X31901974Y-40400500D01*
X31901976Y-40400500D01*
X32102456Y-40363024D01*
X32292637Y-40289348D01*
X32466041Y-40181981D01*
X32537486Y-40116850D01*
X32574769Y-40082863D01*
X32637573Y-40052246D01*
X32658307Y-40050500D01*
X37773920Y-40050500D01*
X37871462Y-40031096D01*
X37918913Y-40021658D01*
X38055495Y-39965084D01*
X38147483Y-39903620D01*
X38178416Y-39882952D01*
X38624549Y-39436819D01*
X38685872Y-39403334D01*
X38712230Y-39400500D01*
X38801974Y-39400500D01*
X38801976Y-39400500D01*
X39002456Y-39363024D01*
X39192637Y-39289348D01*
X39366041Y-39181981D01*
X39516764Y-39044579D01*
X39639673Y-38881821D01*
X39730582Y-38699250D01*
X39786397Y-38503083D01*
X39805215Y-38300000D01*
X39786397Y-38096917D01*
X39730582Y-37900750D01*
X39639673Y-37718179D01*
X39526893Y-37568834D01*
X39516762Y-37555418D01*
X39366041Y-37418019D01*
X39366039Y-37418017D01*
X39192642Y-37310655D01*
X39192635Y-37310651D01*
X39019544Y-37243596D01*
X39002456Y-37236976D01*
X38801976Y-37199500D01*
X38598024Y-37199500D01*
X38397544Y-37236976D01*
X38397541Y-37236976D01*
X38397541Y-37236977D01*
X38207364Y-37310651D01*
X38207357Y-37310655D01*
X38033960Y-37418017D01*
X38033958Y-37418019D01*
X37883237Y-37555418D01*
X37760327Y-37718178D01*
X37669422Y-37900739D01*
X37669417Y-37900752D01*
X37613603Y-38096917D01*
X37594437Y-38303745D01*
X37568651Y-38368682D01*
X37558648Y-38379984D01*
X37425449Y-38513182D01*
X37364129Y-38546666D01*
X37337770Y-38549500D01*
X32658307Y-38549500D01*
X32591268Y-38529815D01*
X32574769Y-38517137D01*
X32466041Y-38418019D01*
X32466039Y-38418017D01*
X32292642Y-38310655D01*
X32292635Y-38310651D01*
X32134784Y-38249500D01*
X32102456Y-38236976D01*
X31901976Y-38199500D01*
X31698024Y-38199500D01*
X31497544Y-38236976D01*
X31497541Y-38236976D01*
X31497541Y-38236977D01*
X31307364Y-38310651D01*
X31307357Y-38310655D01*
X31133960Y-38418017D01*
X31133958Y-38418019D01*
X30983237Y-38555418D01*
X30860327Y-38718178D01*
X30769422Y-38900739D01*
X30769417Y-38900752D01*
X30713602Y-39096917D01*
X30694785Y-39299999D01*
X26300500Y-39299999D01*
X26300500Y-37024986D01*
X50775001Y-37024986D01*
X50785494Y-37127697D01*
X50840641Y-37294119D01*
X50840643Y-37294124D01*
X50932684Y-37443345D01*
X51056654Y-37567315D01*
X51205875Y-37659356D01*
X51205880Y-37659358D01*
X51372302Y-37714505D01*
X51372309Y-37714506D01*
X51475019Y-37724999D01*
X51612499Y-37724999D01*
X51612500Y-37724998D01*
X51612500Y-36750000D01*
X50775001Y-36750000D01*
X50775001Y-37024986D01*
X26300500Y-37024986D01*
X26300500Y-35597844D01*
X31250000Y-35597844D01*
X31256401Y-35657372D01*
X31256403Y-35657379D01*
X31306645Y-35792086D01*
X31306649Y-35792093D01*
X31392809Y-35907187D01*
X31392812Y-35907190D01*
X31507906Y-35993350D01*
X31507913Y-35993354D01*
X31642620Y-36043596D01*
X31642627Y-36043598D01*
X31702155Y-36049999D01*
X31702172Y-36050000D01*
X33150000Y-36050000D01*
X33650000Y-36050000D01*
X35097828Y-36050000D01*
X35097844Y-36049999D01*
X35157372Y-36043598D01*
X35157379Y-36043596D01*
X35292086Y-35993354D01*
X35292093Y-35993350D01*
X35407187Y-35907190D01*
X35407190Y-35907187D01*
X35493350Y-35792093D01*
X35493354Y-35792086D01*
X35543596Y-35657379D01*
X35543598Y-35657372D01*
X35549999Y-35597844D01*
X43950000Y-35597844D01*
X43956401Y-35657372D01*
X43956403Y-35657379D01*
X44006645Y-35792086D01*
X44006649Y-35792093D01*
X44092809Y-35907187D01*
X44092812Y-35907190D01*
X44207906Y-35993350D01*
X44207913Y-35993354D01*
X44342620Y-36043596D01*
X44342627Y-36043598D01*
X44402155Y-36049999D01*
X44402172Y-36050000D01*
X45850000Y-36050000D01*
X46350000Y-36050000D01*
X47797828Y-36050000D01*
X47797844Y-36049999D01*
X47857372Y-36043598D01*
X47857379Y-36043596D01*
X47992086Y-35993354D01*
X47992093Y-35993350D01*
X48016588Y-35975013D01*
X50775000Y-35975013D01*
X50775000Y-36250000D01*
X51612500Y-36250000D01*
X51612500Y-35275000D01*
X51475027Y-35275000D01*
X51475012Y-35275001D01*
X51372302Y-35285494D01*
X51205880Y-35340641D01*
X51205875Y-35340643D01*
X51056654Y-35432684D01*
X50932684Y-35556654D01*
X50840643Y-35705875D01*
X50840641Y-35705880D01*
X50785494Y-35872302D01*
X50785493Y-35872309D01*
X50775000Y-35975013D01*
X48016588Y-35975013D01*
X48107187Y-35907190D01*
X48107190Y-35907187D01*
X48193350Y-35792093D01*
X48193354Y-35792086D01*
X48243596Y-35657379D01*
X48243598Y-35657372D01*
X48249999Y-35597844D01*
X48250000Y-35597827D01*
X48250000Y-34500000D01*
X46350000Y-34500000D01*
X46350000Y-36050000D01*
X45850000Y-36050000D01*
X45850000Y-34867179D01*
X45935000Y-34867179D01*
X45935000Y-34932821D01*
X45960119Y-34993465D01*
X46006535Y-35039881D01*
X46067179Y-35065000D01*
X46132821Y-35065000D01*
X46193465Y-35039881D01*
X46239881Y-34993465D01*
X46265000Y-34932821D01*
X46265000Y-34867179D01*
X46239881Y-34806535D01*
X46193465Y-34760119D01*
X46132821Y-34735000D01*
X46067179Y-34735000D01*
X46006535Y-34760119D01*
X45960119Y-34806535D01*
X45935000Y-34867179D01*
X45850000Y-34867179D01*
X45850000Y-34500000D01*
X43950000Y-34500000D01*
X43950000Y-35597844D01*
X35549999Y-35597844D01*
X35550000Y-35597827D01*
X35550000Y-34500000D01*
X33650000Y-34500000D01*
X33650000Y-36050000D01*
X33150000Y-36050000D01*
X33150000Y-34867179D01*
X33235000Y-34867179D01*
X33235000Y-34932821D01*
X33260119Y-34993465D01*
X33306535Y-35039881D01*
X33367179Y-35065000D01*
X33432821Y-35065000D01*
X33493465Y-35039881D01*
X33539881Y-34993465D01*
X33565000Y-34932821D01*
X33565000Y-34867179D01*
X33539881Y-34806535D01*
X33493465Y-34760119D01*
X33432821Y-34735000D01*
X33367179Y-34735000D01*
X33306535Y-34760119D01*
X33260119Y-34806535D01*
X33235000Y-34867179D01*
X33150000Y-34867179D01*
X33150000Y-34500000D01*
X31250000Y-34500000D01*
X31250000Y-35597844D01*
X26300500Y-35597844D01*
X26300500Y-32902155D01*
X31250000Y-32902155D01*
X31250000Y-34000000D01*
X33150000Y-34000000D01*
X33650000Y-34000000D01*
X35550000Y-34000000D01*
X35550000Y-32902172D01*
X35549999Y-32902155D01*
X43950000Y-32902155D01*
X43950000Y-34000000D01*
X45850000Y-34000000D01*
X46350000Y-34000000D01*
X48250000Y-34000000D01*
X48250000Y-33724986D01*
X50775001Y-33724986D01*
X50785494Y-33827697D01*
X50840641Y-33994119D01*
X50840643Y-33994124D01*
X50932684Y-34143345D01*
X51056654Y-34267315D01*
X51205875Y-34359356D01*
X51205880Y-34359358D01*
X51372302Y-34414505D01*
X51372309Y-34414506D01*
X51475019Y-34424999D01*
X51612499Y-34424999D01*
X51612500Y-34424998D01*
X51612500Y-33450000D01*
X50775001Y-33450000D01*
X50775001Y-33724986D01*
X48250000Y-33724986D01*
X48250000Y-32902172D01*
X48249999Y-32902155D01*
X48243598Y-32842627D01*
X48243596Y-32842620D01*
X48193354Y-32707913D01*
X48193350Y-32707906D01*
X48168726Y-32675013D01*
X50775000Y-32675013D01*
X50775000Y-32950000D01*
X51612500Y-32950000D01*
X51612500Y-31975000D01*
X51475027Y-31975000D01*
X51475012Y-31975001D01*
X51372302Y-31985494D01*
X51205880Y-32040641D01*
X51205875Y-32040643D01*
X51056654Y-32132684D01*
X50932684Y-32256654D01*
X50840643Y-32405875D01*
X50840641Y-32405880D01*
X50785494Y-32572302D01*
X50785493Y-32572309D01*
X50775000Y-32675013D01*
X48168726Y-32675013D01*
X48107190Y-32592812D01*
X48107187Y-32592809D01*
X47992093Y-32506649D01*
X47992086Y-32506645D01*
X47857379Y-32456403D01*
X47857372Y-32456401D01*
X47797844Y-32450000D01*
X46350000Y-32450000D01*
X46350000Y-34000000D01*
X45850000Y-34000000D01*
X45850000Y-33567179D01*
X45935000Y-33567179D01*
X45935000Y-33632821D01*
X45960119Y-33693465D01*
X46006535Y-33739881D01*
X46067179Y-33765000D01*
X46132821Y-33765000D01*
X46193465Y-33739881D01*
X46239881Y-33693465D01*
X46265000Y-33632821D01*
X46265000Y-33567179D01*
X46239881Y-33506535D01*
X46193465Y-33460119D01*
X46132821Y-33435000D01*
X46067179Y-33435000D01*
X46006535Y-33460119D01*
X45960119Y-33506535D01*
X45935000Y-33567179D01*
X45850000Y-33567179D01*
X45850000Y-32450000D01*
X44402155Y-32450000D01*
X44342627Y-32456401D01*
X44342620Y-32456403D01*
X44207913Y-32506645D01*
X44207906Y-32506649D01*
X44092812Y-32592809D01*
X44092809Y-32592812D01*
X44006649Y-32707906D01*
X44006645Y-32707913D01*
X43956403Y-32842620D01*
X43956401Y-32842627D01*
X43950000Y-32902155D01*
X35549999Y-32902155D01*
X35543598Y-32842627D01*
X35543596Y-32842620D01*
X35493354Y-32707913D01*
X35493350Y-32707906D01*
X35407190Y-32592812D01*
X35407187Y-32592809D01*
X35292093Y-32506649D01*
X35292086Y-32506645D01*
X35157379Y-32456403D01*
X35157372Y-32456401D01*
X35097844Y-32450000D01*
X33650000Y-32450000D01*
X33650000Y-34000000D01*
X33150000Y-34000000D01*
X33150000Y-33567179D01*
X33235000Y-33567179D01*
X33235000Y-33632821D01*
X33260119Y-33693465D01*
X33306535Y-33739881D01*
X33367179Y-33765000D01*
X33432821Y-33765000D01*
X33493465Y-33739881D01*
X33539881Y-33693465D01*
X33565000Y-33632821D01*
X33565000Y-33567179D01*
X33539881Y-33506535D01*
X33493465Y-33460119D01*
X33432821Y-33435000D01*
X33367179Y-33435000D01*
X33306535Y-33460119D01*
X33260119Y-33506535D01*
X33235000Y-33567179D01*
X33150000Y-33567179D01*
X33150000Y-32450000D01*
X31702155Y-32450000D01*
X31642627Y-32456401D01*
X31642620Y-32456403D01*
X31507913Y-32506645D01*
X31507906Y-32506649D01*
X31392812Y-32592809D01*
X31392809Y-32592812D01*
X31306649Y-32707906D01*
X31306645Y-32707913D01*
X31256403Y-32842620D01*
X31256401Y-32842627D01*
X31250000Y-32902155D01*
X26300500Y-32902155D01*
X26300500Y-27224500D01*
X26320185Y-27157461D01*
X26372989Y-27111706D01*
X26424500Y-27100500D01*
X28500951Y-27100500D01*
X28567990Y-27120185D01*
G37*
%TD.AperFunction*%
%TA.AperFunction,Conductor*%
G36*
X70004809Y-34570185D02*
G01*
X70025451Y-34586819D01*
X77273181Y-41834548D01*
X77306666Y-41895871D01*
X77309500Y-41922229D01*
X77309500Y-43426128D01*
X77289815Y-43493167D01*
X77244522Y-43535179D01*
X77236491Y-43539526D01*
X77205426Y-43563705D01*
X77040257Y-43692261D01*
X76871833Y-43875217D01*
X76735826Y-44083393D01*
X76635936Y-44311118D01*
X76574892Y-44552175D01*
X76574890Y-44552187D01*
X76554357Y-44799994D01*
X76554357Y-44800005D01*
X76574890Y-45047812D01*
X76574892Y-45047824D01*
X76635936Y-45288881D01*
X76735826Y-45516606D01*
X76871833Y-45724782D01*
X76904245Y-45759991D01*
X77040256Y-45907738D01*
X77236491Y-46060474D01*
X77345840Y-46119651D01*
X77416274Y-46157768D01*
X77455190Y-46178828D01*
X77690386Y-46259571D01*
X77935665Y-46300500D01*
X78184335Y-46300500D01*
X78429614Y-46259571D01*
X78664810Y-46178828D01*
X78883509Y-46060474D01*
X78966786Y-45995657D01*
X79031780Y-45970014D01*
X79100320Y-45983580D01*
X79150644Y-46032049D01*
X79151841Y-46034607D01*
X79151953Y-46034546D01*
X79156206Y-46042335D01*
X79242452Y-46157544D01*
X79242455Y-46157547D01*
X79357664Y-46243793D01*
X79357671Y-46243797D01*
X79492517Y-46294091D01*
X79492516Y-46294091D01*
X79499444Y-46294835D01*
X79552127Y-46300500D01*
X81647872Y-46300499D01*
X81707483Y-46294091D01*
X81842331Y-46243796D01*
X81957546Y-46157546D01*
X82043796Y-46042331D01*
X82048920Y-46028594D01*
X82059318Y-46000715D01*
X82101189Y-45944781D01*
X82166653Y-45920364D01*
X82234926Y-45935215D01*
X82284332Y-45984620D01*
X82299500Y-46044048D01*
X82299500Y-47975500D01*
X82279815Y-48042539D01*
X82227011Y-48088294D01*
X82175500Y-48099500D01*
X67838226Y-48099500D01*
X67771187Y-48079815D01*
X67725432Y-48027011D01*
X67715488Y-47957853D01*
X67744513Y-47894297D01*
X67799906Y-47857569D01*
X67818412Y-47851557D01*
X68007816Y-47755051D01*
X68029789Y-47739086D01*
X68179786Y-47630109D01*
X68179788Y-47630106D01*
X68179792Y-47630104D01*
X68330104Y-47479792D01*
X68330106Y-47479788D01*
X68330109Y-47479786D01*
X68455048Y-47307820D01*
X68455047Y-47307820D01*
X68455051Y-47307816D01*
X68551557Y-47118412D01*
X68617246Y-46916243D01*
X68650500Y-46706287D01*
X68650500Y-46493713D01*
X68617246Y-46283757D01*
X68551557Y-46081588D01*
X68455051Y-45892184D01*
X68455049Y-45892181D01*
X68455048Y-45892179D01*
X68330109Y-45720213D01*
X68179786Y-45569890D01*
X68007820Y-45444951D01*
X67818414Y-45348444D01*
X67818413Y-45348443D01*
X67818412Y-45348443D01*
X67616243Y-45282754D01*
X67616241Y-45282753D01*
X67616240Y-45282753D01*
X67454957Y-45257208D01*
X67406287Y-45249500D01*
X67193713Y-45249500D01*
X67145042Y-45257208D01*
X66983760Y-45282753D01*
X66781585Y-45348444D01*
X66592179Y-45444951D01*
X66420213Y-45569890D01*
X66269890Y-45720213D01*
X66144951Y-45892179D01*
X66048444Y-46081585D01*
X65982753Y-46283760D01*
X65949500Y-46493713D01*
X65949500Y-46706286D01*
X65977327Y-46881982D01*
X65982754Y-46916243D01*
X66035153Y-47077511D01*
X66048444Y-47118414D01*
X66144951Y-47307820D01*
X66269890Y-47479786D01*
X66420213Y-47630109D01*
X66592179Y-47755048D01*
X66592181Y-47755049D01*
X66592184Y-47755051D01*
X66781588Y-47851557D01*
X66800092Y-47857569D01*
X66857768Y-47897006D01*
X66884966Y-47961365D01*
X66873051Y-48030211D01*
X66825807Y-48081687D01*
X66761774Y-48099500D01*
X54764050Y-48099500D01*
X54697011Y-48079815D01*
X54651256Y-48027011D01*
X54641312Y-47957853D01*
X54670337Y-47894297D01*
X54676369Y-47887819D01*
X54793105Y-47771082D01*
X54928600Y-47577578D01*
X55028429Y-47363492D01*
X55028432Y-47363486D01*
X55085636Y-47150000D01*
X54188012Y-47150000D01*
X54220925Y-47092993D01*
X54255000Y-46965826D01*
X54255000Y-46834174D01*
X54220925Y-46707007D01*
X54188012Y-46650000D01*
X55085636Y-46650000D01*
X55085635Y-46649999D01*
X55028432Y-46436513D01*
X55028429Y-46436507D01*
X54928600Y-46222422D01*
X54928599Y-46222420D01*
X54804805Y-46045623D01*
X54782478Y-45979417D01*
X54799488Y-45911650D01*
X54850436Y-45863837D01*
X54906380Y-45850500D01*
X55372617Y-45850500D01*
X55439656Y-45870185D01*
X55485411Y-45922989D01*
X55496087Y-45985941D01*
X55494785Y-46000000D01*
X55494785Y-46000001D01*
X55513602Y-46203082D01*
X55569417Y-46399247D01*
X55569422Y-46399260D01*
X55660327Y-46581821D01*
X55783237Y-46744581D01*
X55933958Y-46881980D01*
X55933960Y-46881982D01*
X55989294Y-46916243D01*
X56107363Y-46989348D01*
X56297544Y-47063024D01*
X56498024Y-47100500D01*
X56498026Y-47100500D01*
X56701974Y-47100500D01*
X56701976Y-47100500D01*
X56902456Y-47063024D01*
X57092637Y-46989348D01*
X57266041Y-46881981D01*
X57337486Y-46816850D01*
X57374769Y-46782863D01*
X57437573Y-46752246D01*
X57458307Y-46750500D01*
X62613920Y-46750500D01*
X62711462Y-46731096D01*
X62758913Y-46721658D01*
X62895495Y-46665084D01*
X62948277Y-46629816D01*
X63018416Y-46582952D01*
X64874652Y-44726714D01*
X64935973Y-44693231D01*
X64973135Y-44690869D01*
X65116366Y-44703400D01*
X65139999Y-44705468D01*
X65140000Y-44705468D01*
X65140002Y-44705468D01*
X65196673Y-44700509D01*
X65366692Y-44685635D01*
X65586496Y-44626739D01*
X65792734Y-44530568D01*
X65979139Y-44400047D01*
X66140047Y-44239139D01*
X66270568Y-44052734D01*
X66366739Y-43846496D01*
X66425635Y-43626692D01*
X66445468Y-43400000D01*
X66425635Y-43173308D01*
X66379197Y-42999999D01*
X66794357Y-42999999D01*
X66794357Y-43000000D01*
X66814884Y-43221535D01*
X66814885Y-43221537D01*
X66875769Y-43435523D01*
X66875775Y-43435538D01*
X66974938Y-43634683D01*
X66974943Y-43634691D01*
X67109020Y-43812238D01*
X67273437Y-43962123D01*
X67273439Y-43962125D01*
X67462595Y-44079245D01*
X67462596Y-44079245D01*
X67462599Y-44079247D01*
X67670060Y-44159618D01*
X67888757Y-44200500D01*
X67888759Y-44200500D01*
X68111241Y-44200500D01*
X68111243Y-44200500D01*
X68329940Y-44159618D01*
X68537401Y-44079247D01*
X68726562Y-43962124D01*
X68890981Y-43812236D01*
X69025058Y-43634689D01*
X69124229Y-43435528D01*
X69185115Y-43221536D01*
X69205643Y-43000000D01*
X69192458Y-42857714D01*
X69185115Y-42778464D01*
X69185114Y-42778462D01*
X69176310Y-42747520D01*
X69124229Y-42564472D01*
X69124224Y-42564461D01*
X69025061Y-42365316D01*
X69025056Y-42365308D01*
X68890979Y-42187761D01*
X68726562Y-42037876D01*
X68726560Y-42037874D01*
X68537404Y-41920754D01*
X68537398Y-41920752D01*
X68329940Y-41840382D01*
X68111243Y-41799500D01*
X67888757Y-41799500D01*
X67670060Y-41840382D01*
X67538864Y-41891207D01*
X67462601Y-41920752D01*
X67462595Y-41920754D01*
X67273439Y-42037874D01*
X67273437Y-42037876D01*
X67109020Y-42187761D01*
X66974943Y-42365308D01*
X66974938Y-42365316D01*
X66875775Y-42564461D01*
X66875769Y-42564476D01*
X66814885Y-42778462D01*
X66814884Y-42778464D01*
X66794357Y-42999999D01*
X66379197Y-42999999D01*
X66366739Y-42953504D01*
X66270568Y-42747266D01*
X66142578Y-42564476D01*
X66140045Y-42560858D01*
X65979141Y-42399954D01*
X65792734Y-42269432D01*
X65792732Y-42269431D01*
X65586497Y-42173261D01*
X65586488Y-42173258D01*
X65366697Y-42114366D01*
X65366693Y-42114365D01*
X65366692Y-42114365D01*
X65366691Y-42114364D01*
X65366686Y-42114364D01*
X65140002Y-42094532D01*
X65139998Y-42094532D01*
X64913313Y-42114364D01*
X64913302Y-42114366D01*
X64693511Y-42173258D01*
X64693502Y-42173261D01*
X64487267Y-42269431D01*
X64487265Y-42269432D01*
X64300858Y-42399954D01*
X64139954Y-42560858D01*
X64068974Y-42662230D01*
X64009432Y-42747266D01*
X64009315Y-42747518D01*
X63982106Y-42805867D01*
X63935933Y-42858306D01*
X63868739Y-42877457D01*
X63801858Y-42857241D01*
X63757342Y-42805865D01*
X63730135Y-42747520D01*
X63730134Y-42747518D01*
X63599657Y-42561179D01*
X63438820Y-42400342D01*
X63252482Y-42269865D01*
X63046328Y-42173734D01*
X62850000Y-42121127D01*
X62850000Y-42966988D01*
X62792993Y-42934075D01*
X62665826Y-42900000D01*
X62534174Y-42900000D01*
X62407007Y-42934075D01*
X62350000Y-42966988D01*
X62350000Y-42121127D01*
X62153671Y-42173734D01*
X61947517Y-42269865D01*
X61761179Y-42400342D01*
X61600342Y-42561179D01*
X61469867Y-42747515D01*
X61442657Y-42805867D01*
X61396484Y-42858306D01*
X61329290Y-42877457D01*
X61262409Y-42857241D01*
X61217893Y-42805865D01*
X61190685Y-42747518D01*
X61190568Y-42747266D01*
X61062578Y-42564476D01*
X61060045Y-42560858D01*
X60899141Y-42399954D01*
X60712734Y-42269432D01*
X60712732Y-42269431D01*
X60506497Y-42173261D01*
X60506488Y-42173258D01*
X60286697Y-42114366D01*
X60286693Y-42114365D01*
X60286692Y-42114365D01*
X60286691Y-42114364D01*
X60286686Y-42114364D01*
X60060002Y-42094532D01*
X60059998Y-42094532D01*
X59833313Y-42114364D01*
X59833302Y-42114366D01*
X59613511Y-42173258D01*
X59613502Y-42173261D01*
X59407267Y-42269431D01*
X59407265Y-42269432D01*
X59220858Y-42399954D01*
X59059954Y-42560858D01*
X58929432Y-42747265D01*
X58929431Y-42747267D01*
X58902382Y-42805275D01*
X58856209Y-42857714D01*
X58789016Y-42876866D01*
X58722135Y-42856650D01*
X58677618Y-42805275D01*
X58650686Y-42747520D01*
X58650568Y-42747266D01*
X58522578Y-42564476D01*
X58520045Y-42560858D01*
X58375712Y-42416525D01*
X58342227Y-42355202D01*
X58347211Y-42285510D01*
X58389083Y-42229577D01*
X58439200Y-42207227D01*
X58583722Y-42178481D01*
X58863077Y-42083652D01*
X59127665Y-41953172D01*
X59372957Y-41789273D01*
X59594758Y-41594758D01*
X59789273Y-41372957D01*
X59953172Y-41127665D01*
X60083652Y-40863077D01*
X60093305Y-40834639D01*
X60133495Y-40777486D01*
X60198204Y-40751134D01*
X60210724Y-40750500D01*
X66243871Y-40750500D01*
X66310910Y-40770185D01*
X66327409Y-40782863D01*
X66411495Y-40859517D01*
X66411497Y-40859519D01*
X66510678Y-40920929D01*
X66584900Y-40966885D01*
X66775081Y-41040561D01*
X66975561Y-41078037D01*
X66975563Y-41078037D01*
X67179511Y-41078037D01*
X67179513Y-41078037D01*
X67379993Y-41040561D01*
X67570174Y-40966885D01*
X67743578Y-40859518D01*
X67894301Y-40722116D01*
X68017210Y-40559358D01*
X68108119Y-40376787D01*
X68163934Y-40180620D01*
X68182752Y-39977537D01*
X68180388Y-39952029D01*
X68193802Y-39883461D01*
X68242159Y-39833028D01*
X68310104Y-39816745D01*
X68376067Y-39839781D01*
X68391540Y-39852907D01*
X70573181Y-42034548D01*
X70606666Y-42095871D01*
X70609500Y-42122229D01*
X70609500Y-43426128D01*
X70589815Y-43493167D01*
X70544522Y-43535179D01*
X70536491Y-43539526D01*
X70505426Y-43563705D01*
X70340257Y-43692261D01*
X70171833Y-43875217D01*
X70035826Y-44083393D01*
X69935936Y-44311118D01*
X69874892Y-44552175D01*
X69874890Y-44552187D01*
X69854357Y-44799994D01*
X69854357Y-44800005D01*
X69874890Y-45047812D01*
X69874892Y-45047824D01*
X69935936Y-45288881D01*
X70035826Y-45516606D01*
X70171833Y-45724782D01*
X70204245Y-45759991D01*
X70340256Y-45907738D01*
X70536491Y-46060474D01*
X70645840Y-46119651D01*
X70716274Y-46157768D01*
X70755190Y-46178828D01*
X70990386Y-46259571D01*
X71235665Y-46300500D01*
X71484335Y-46300500D01*
X71729614Y-46259571D01*
X71964810Y-46178828D01*
X72183509Y-46060474D01*
X72266786Y-45995657D01*
X72331780Y-45970014D01*
X72400320Y-45983580D01*
X72450644Y-46032049D01*
X72451841Y-46034607D01*
X72451953Y-46034546D01*
X72456206Y-46042335D01*
X72542452Y-46157544D01*
X72542455Y-46157547D01*
X72657664Y-46243793D01*
X72657671Y-46243797D01*
X72792517Y-46294091D01*
X72792516Y-46294091D01*
X72799444Y-46294835D01*
X72852127Y-46300500D01*
X74947872Y-46300499D01*
X75007483Y-46294091D01*
X75142331Y-46243796D01*
X75257546Y-46157546D01*
X75343796Y-46042331D01*
X75394091Y-45907483D01*
X75400500Y-45847873D01*
X75400499Y-43752128D01*
X75394091Y-43692517D01*
X75388933Y-43678689D01*
X75343797Y-43557671D01*
X75343793Y-43557664D01*
X75257547Y-43442455D01*
X75257544Y-43442452D01*
X75142335Y-43356206D01*
X75142328Y-43356202D01*
X75007482Y-43305908D01*
X75007483Y-43305908D01*
X74947883Y-43299501D01*
X74947881Y-43299500D01*
X74947873Y-43299500D01*
X74947865Y-43299500D01*
X74774500Y-43299500D01*
X74707461Y-43279815D01*
X74661706Y-43227011D01*
X74650500Y-43175500D01*
X74650500Y-42226080D01*
X74639993Y-42173262D01*
X74639993Y-42173261D01*
X74621659Y-42081088D01*
X74568674Y-41953172D01*
X74565084Y-41944505D01*
X74501619Y-41849522D01*
X74501619Y-41849521D01*
X74501617Y-41849520D01*
X74482952Y-41821584D01*
X67708675Y-35047307D01*
X67675190Y-34985984D01*
X67680174Y-34916292D01*
X67722046Y-34860359D01*
X67751557Y-34844002D01*
X67892637Y-34789348D01*
X68066041Y-34681981D01*
X68170429Y-34586819D01*
X68174769Y-34582863D01*
X68237573Y-34552246D01*
X68258307Y-34550500D01*
X69937770Y-34550500D01*
X70004809Y-34570185D01*
G37*
%TD.AperFunction*%
%TA.AperFunction,Conductor*%
G36*
X82242539Y-27120185D02*
G01*
X82288294Y-27172989D01*
X82299500Y-27224500D01*
X82299500Y-43555951D01*
X82279815Y-43622990D01*
X82227011Y-43668745D01*
X82157853Y-43678689D01*
X82094297Y-43649664D01*
X82059318Y-43599284D01*
X82043797Y-43557671D01*
X82043793Y-43557664D01*
X81957547Y-43442455D01*
X81957544Y-43442452D01*
X81842335Y-43356206D01*
X81842328Y-43356202D01*
X81707482Y-43305908D01*
X81707483Y-43305908D01*
X81647883Y-43299501D01*
X81647881Y-43299500D01*
X81647873Y-43299500D01*
X81647865Y-43299500D01*
X81474500Y-43299500D01*
X81407461Y-43279815D01*
X81361706Y-43227011D01*
X81350500Y-43175500D01*
X81350500Y-41126079D01*
X81321659Y-40981092D01*
X81321658Y-40981091D01*
X81321658Y-40981087D01*
X81271303Y-40859518D01*
X81265087Y-40844511D01*
X81265080Y-40844498D01*
X81182952Y-40721585D01*
X81182951Y-40721584D01*
X81078416Y-40617049D01*
X70941351Y-30479983D01*
X70907866Y-30418660D01*
X70905561Y-30403743D01*
X70905214Y-30400004D01*
X70905215Y-30400000D01*
X70886397Y-30196917D01*
X70830582Y-30000750D01*
X70828380Y-29996328D01*
X70771010Y-29881112D01*
X70739673Y-29818179D01*
X70658260Y-29710370D01*
X70616762Y-29655418D01*
X70466041Y-29518019D01*
X70466039Y-29518017D01*
X70292642Y-29410655D01*
X70292635Y-29410651D01*
X70197546Y-29373814D01*
X70102456Y-29336976D01*
X69901976Y-29299500D01*
X69698024Y-29299500D01*
X69497544Y-29336976D01*
X69497541Y-29336976D01*
X69497541Y-29336977D01*
X69307364Y-29410651D01*
X69307357Y-29410655D01*
X69133960Y-29518017D01*
X69133958Y-29518019D01*
X68983237Y-29655418D01*
X68860327Y-29818178D01*
X68769422Y-30000739D01*
X68769417Y-30000752D01*
X68713602Y-30196917D01*
X68694785Y-30399999D01*
X68694785Y-30400000D01*
X68713602Y-30603082D01*
X68769417Y-30799248D01*
X68770914Y-30803111D01*
X68776771Y-30872735D01*
X68744057Y-30934473D01*
X68683159Y-30968723D01*
X68613410Y-30964613D01*
X68590008Y-30953325D01*
X68537401Y-30920753D01*
X68537398Y-30920752D01*
X68329940Y-30840382D01*
X68111243Y-30799500D01*
X67888757Y-30799500D01*
X67670060Y-30840382D01*
X67538864Y-30891207D01*
X67462601Y-30920752D01*
X67462595Y-30920754D01*
X67273439Y-31037874D01*
X67273437Y-31037876D01*
X67109020Y-31187761D01*
X66974943Y-31365308D01*
X66974938Y-31365316D01*
X66875775Y-31564461D01*
X66875769Y-31564476D01*
X66814885Y-31778462D01*
X66814884Y-31778464D01*
X66794357Y-31999999D01*
X66794357Y-32000000D01*
X66814884Y-32221535D01*
X66814885Y-32221537D01*
X66875769Y-32435523D01*
X66875775Y-32435538D01*
X66976833Y-32638489D01*
X66989094Y-32707275D01*
X66962221Y-32771770D01*
X66912465Y-32808048D01*
X66912491Y-32808099D01*
X66912190Y-32808248D01*
X66910632Y-32809385D01*
X66907368Y-32810649D01*
X66907359Y-32810653D01*
X66733960Y-32918017D01*
X66733958Y-32918019D01*
X66583237Y-33055418D01*
X66460327Y-33218178D01*
X66369422Y-33400739D01*
X66369419Y-33400747D01*
X66359094Y-33437035D01*
X66321813Y-33496127D01*
X66258503Y-33525684D01*
X66189263Y-33516320D01*
X66152147Y-33490779D01*
X65478421Y-32817052D01*
X65478414Y-32817046D01*
X65404729Y-32767812D01*
X65404729Y-32767813D01*
X65355491Y-32734913D01*
X65218917Y-32678343D01*
X65218907Y-32678340D01*
X65073920Y-32649500D01*
X65073918Y-32649500D01*
X62125070Y-32649500D01*
X62058031Y-32629815D01*
X62026116Y-32600227D01*
X62020516Y-32592812D01*
X61916764Y-32455421D01*
X61916762Y-32455418D01*
X61766041Y-32318019D01*
X61766039Y-32318017D01*
X61592642Y-32210655D01*
X61592635Y-32210651D01*
X61497546Y-32173814D01*
X61402456Y-32136976D01*
X61201976Y-32099500D01*
X60998024Y-32099500D01*
X60797544Y-32136976D01*
X60797541Y-32136976D01*
X60797541Y-32136977D01*
X60607364Y-32210651D01*
X60607357Y-32210655D01*
X60433960Y-32318017D01*
X60433958Y-32318019D01*
X60283237Y-32455418D01*
X60160327Y-32618178D01*
X60104581Y-32730131D01*
X60057078Y-32781368D01*
X59989415Y-32798789D01*
X59950248Y-32791041D01*
X59857379Y-32756403D01*
X59857372Y-32756401D01*
X59797844Y-32750000D01*
X58250000Y-32750000D01*
X58250000Y-34081116D01*
X58093567Y-34050000D01*
X57906433Y-34050000D01*
X57750000Y-34081116D01*
X57750000Y-32750000D01*
X56830730Y-32750000D01*
X56763691Y-32730315D01*
X56717936Y-32677511D01*
X56707992Y-32608353D01*
X56737017Y-32544797D01*
X56743049Y-32538319D01*
X59026869Y-30254498D01*
X59794652Y-29486714D01*
X59855973Y-29453231D01*
X59893135Y-29450869D01*
X60036366Y-29463400D01*
X60059999Y-29465468D01*
X60060000Y-29465468D01*
X60060002Y-29465468D01*
X60116807Y-29460498D01*
X60286692Y-29445635D01*
X60506496Y-29386739D01*
X60712734Y-29290568D01*
X60899139Y-29160047D01*
X61060047Y-28999139D01*
X61190568Y-28812734D01*
X61217618Y-28754724D01*
X61263790Y-28702285D01*
X61330983Y-28683133D01*
X61397865Y-28703348D01*
X61442382Y-28754725D01*
X61469429Y-28812728D01*
X61469432Y-28812734D01*
X61599954Y-28999141D01*
X61760858Y-29160045D01*
X61760861Y-29160047D01*
X61947266Y-29290568D01*
X62153504Y-29386739D01*
X62373308Y-29445635D01*
X62535230Y-29459801D01*
X62599998Y-29465468D01*
X62600000Y-29465468D01*
X62600002Y-29465468D01*
X62656807Y-29460498D01*
X62826692Y-29445635D01*
X63046496Y-29386739D01*
X63252734Y-29290568D01*
X63439139Y-29160047D01*
X63600047Y-28999139D01*
X63617272Y-28974539D01*
X63671848Y-28930913D01*
X63741346Y-28923718D01*
X63803701Y-28955239D01*
X63839116Y-29015468D01*
X63842138Y-29032406D01*
X63845908Y-29067483D01*
X63896202Y-29202328D01*
X63896206Y-29202335D01*
X63982452Y-29317544D01*
X63982455Y-29317547D01*
X64097664Y-29403793D01*
X64097671Y-29403797D01*
X64232517Y-29454091D01*
X64232516Y-29454091D01*
X64239444Y-29454835D01*
X64292127Y-29460500D01*
X65987872Y-29460499D01*
X66047483Y-29454091D01*
X66182331Y-29403796D01*
X66297546Y-29317546D01*
X66383796Y-29202331D01*
X66421963Y-29099999D01*
X71800554Y-29099999D01*
X71800554Y-29100000D01*
X71820295Y-29313047D01*
X71820296Y-29313050D01*
X71878846Y-29518835D01*
X71878849Y-29518841D01*
X71974219Y-29710370D01*
X72103159Y-29881114D01*
X72261278Y-30025258D01*
X72261283Y-30025261D01*
X72261286Y-30025263D01*
X72443186Y-30137891D01*
X72443187Y-30137891D01*
X72443190Y-30137893D01*
X72642703Y-30215185D01*
X72853020Y-30254500D01*
X72853022Y-30254500D01*
X73066978Y-30254500D01*
X73066980Y-30254500D01*
X73277297Y-30215185D01*
X73476810Y-30137893D01*
X73658722Y-30025258D01*
X73816841Y-29881114D01*
X73945781Y-29710370D01*
X74041151Y-29518840D01*
X74041151Y-29518837D01*
X74041153Y-29518835D01*
X74078872Y-29386265D01*
X74099704Y-29313048D01*
X74119446Y-29100000D01*
X74099704Y-28886952D01*
X74078587Y-28812732D01*
X74041153Y-28681164D01*
X74041150Y-28681158D01*
X73980257Y-28558868D01*
X73945781Y-28489630D01*
X73876687Y-28398135D01*
X76885500Y-28398135D01*
X76885500Y-29801870D01*
X76885501Y-29801876D01*
X76891908Y-29861483D01*
X76942202Y-29996328D01*
X76942206Y-29996335D01*
X77028452Y-30111544D01*
X77028455Y-30111547D01*
X77143664Y-30197793D01*
X77143671Y-30197797D01*
X77278517Y-30248091D01*
X77278516Y-30248091D01*
X77285444Y-30248835D01*
X77338127Y-30254500D01*
X78741872Y-30254499D01*
X78801483Y-30248091D01*
X78936331Y-30197796D01*
X79051546Y-30111546D01*
X79137796Y-29996331D01*
X79188091Y-29861483D01*
X79194500Y-29801873D01*
X79194499Y-28398128D01*
X79188091Y-28338517D01*
X79180769Y-28318887D01*
X79137797Y-28203671D01*
X79137793Y-28203664D01*
X79051547Y-28088455D01*
X79051544Y-28088452D01*
X78936335Y-28002206D01*
X78936328Y-28002202D01*
X78801482Y-27951908D01*
X78801483Y-27951908D01*
X78741883Y-27945501D01*
X78741881Y-27945500D01*
X78741873Y-27945500D01*
X78741864Y-27945500D01*
X77338129Y-27945500D01*
X77338123Y-27945501D01*
X77278516Y-27951908D01*
X77143671Y-28002202D01*
X77143664Y-28002206D01*
X77028455Y-28088452D01*
X77028452Y-28088455D01*
X76942206Y-28203664D01*
X76942202Y-28203671D01*
X76891908Y-28338517D01*
X76886969Y-28384462D01*
X76885501Y-28398123D01*
X76885500Y-28398135D01*
X73876687Y-28398135D01*
X73816841Y-28318886D01*
X73658722Y-28174742D01*
X73658716Y-28174738D01*
X73658713Y-28174736D01*
X73476813Y-28062108D01*
X73476807Y-28062106D01*
X73277297Y-27984815D01*
X73066980Y-27945500D01*
X72853020Y-27945500D01*
X72642703Y-27984815D01*
X72597812Y-28002206D01*
X72443192Y-28062106D01*
X72443186Y-28062108D01*
X72261286Y-28174736D01*
X72261283Y-28174738D01*
X72261279Y-28174740D01*
X72261278Y-28174742D01*
X72103159Y-28318886D01*
X72103158Y-28318887D01*
X71974219Y-28489629D01*
X71878849Y-28681158D01*
X71878846Y-28681164D01*
X71820296Y-28886949D01*
X71820295Y-28886952D01*
X71800554Y-29099999D01*
X66421963Y-29099999D01*
X66434091Y-29067483D01*
X66440500Y-29007873D01*
X66440499Y-27312128D01*
X66434091Y-27252517D01*
X66433262Y-27244804D01*
X66434657Y-27244654D01*
X66437950Y-27183244D01*
X66478818Y-27126573D01*
X66543837Y-27100993D01*
X66554886Y-27100500D01*
X82175500Y-27100500D01*
X82242539Y-27120185D01*
G37*
%TD.AperFunction*%
%TA.AperFunction,Conductor*%
G36*
X55669332Y-33714548D02*
G01*
X55725266Y-33756418D01*
X55749684Y-33821883D01*
X55750000Y-33830730D01*
X55750000Y-34750000D01*
X57081116Y-34750000D01*
X57050000Y-34906433D01*
X57050000Y-35093567D01*
X57081116Y-35250000D01*
X55750000Y-35250000D01*
X55750000Y-36797844D01*
X55756401Y-36857372D01*
X55756403Y-36857379D01*
X55806645Y-36992086D01*
X55806649Y-36992093D01*
X55892809Y-37107187D01*
X55892812Y-37107190D01*
X56007906Y-37193350D01*
X56007913Y-37193354D01*
X56142620Y-37243596D01*
X56142627Y-37243598D01*
X56202155Y-37249999D01*
X56202172Y-37250000D01*
X57750000Y-37250000D01*
X57750000Y-35918883D01*
X57906433Y-35950000D01*
X58093567Y-35950000D01*
X58250000Y-35918883D01*
X58250000Y-37250000D01*
X59797828Y-37250000D01*
X59797844Y-37249999D01*
X59857372Y-37243598D01*
X59857379Y-37243596D01*
X59992086Y-37193354D01*
X59992093Y-37193350D01*
X60107187Y-37107190D01*
X60107190Y-37107187D01*
X60193350Y-36992093D01*
X60193354Y-36992086D01*
X60243596Y-36857379D01*
X60243598Y-36857372D01*
X60249999Y-36797844D01*
X60250000Y-36797827D01*
X60250000Y-35250000D01*
X58918884Y-35250000D01*
X58950000Y-35093567D01*
X58950000Y-34906433D01*
X58918884Y-34750000D01*
X60250000Y-34750000D01*
X60250000Y-34190701D01*
X60269685Y-34123662D01*
X60322489Y-34077907D01*
X60391647Y-34067963D01*
X60439277Y-34085274D01*
X60607363Y-34189348D01*
X60797544Y-34263024D01*
X60998024Y-34300500D01*
X60998026Y-34300500D01*
X61201974Y-34300500D01*
X61201976Y-34300500D01*
X61402456Y-34263024D01*
X61592637Y-34189348D01*
X61616067Y-34174840D01*
X61625383Y-34169073D01*
X61690660Y-34150500D01*
X64637770Y-34150500D01*
X64704809Y-34170185D01*
X64725451Y-34186819D01*
X67976451Y-37437819D01*
X68009936Y-37499142D01*
X68004952Y-37568834D01*
X67963080Y-37624767D01*
X67897616Y-37649184D01*
X67888770Y-37649500D01*
X61558307Y-37649500D01*
X61491268Y-37629815D01*
X61474769Y-37617137D01*
X61366041Y-37518019D01*
X61366039Y-37518017D01*
X61192642Y-37410655D01*
X61192635Y-37410651D01*
X61097546Y-37373814D01*
X61002456Y-37336976D01*
X60801976Y-37299500D01*
X60598024Y-37299500D01*
X60397544Y-37336976D01*
X60397541Y-37336976D01*
X60397541Y-37336977D01*
X60207364Y-37410651D01*
X60207357Y-37410655D01*
X60033960Y-37518017D01*
X60033958Y-37518019D01*
X59883237Y-37655418D01*
X59760327Y-37818178D01*
X59669422Y-38000739D01*
X59669417Y-38000752D01*
X59616047Y-38188324D01*
X59578767Y-38247417D01*
X59515457Y-38276974D01*
X59446218Y-38267612D01*
X59415022Y-38247617D01*
X59372955Y-38210725D01*
X59127667Y-38046829D01*
X59127660Y-38046825D01*
X58863080Y-37916349D01*
X58583730Y-37821521D01*
X58583724Y-37821519D01*
X58583722Y-37821519D01*
X58294380Y-37763966D01*
X58294373Y-37763965D01*
X58294363Y-37763964D01*
X58000007Y-37744671D01*
X57999993Y-37744671D01*
X57705636Y-37763964D01*
X57705624Y-37763965D01*
X57705620Y-37763966D01*
X57705612Y-37763967D01*
X57705609Y-37763968D01*
X57416283Y-37821518D01*
X57416269Y-37821521D01*
X57136919Y-37916349D01*
X56872334Y-38046828D01*
X56627041Y-38210728D01*
X56405241Y-38405241D01*
X56210728Y-38627041D01*
X56046828Y-38872334D01*
X55916349Y-39136919D01*
X55821521Y-39416269D01*
X55821518Y-39416283D01*
X55763968Y-39705609D01*
X55763964Y-39705636D01*
X55744671Y-39999992D01*
X55744671Y-39999996D01*
X55744671Y-40000000D01*
X55756510Y-40180619D01*
X55762634Y-40274059D01*
X55747376Y-40342242D01*
X55697677Y-40391353D01*
X55629317Y-40405798D01*
X55563999Y-40380992D01*
X55551218Y-40369850D01*
X55061818Y-39880450D01*
X55028333Y-39819127D01*
X55025499Y-39792769D01*
X55025499Y-39274998D01*
X55025498Y-39274981D01*
X55014999Y-39172203D01*
X55014998Y-39172200D01*
X55003307Y-39136919D01*
X54959814Y-39005666D01*
X54867712Y-38856344D01*
X54743656Y-38732288D01*
X54737989Y-38727807D01*
X54739430Y-38725984D01*
X54700175Y-38682335D01*
X54688000Y-38628752D01*
X54688000Y-37671248D01*
X54707685Y-37604209D01*
X54738996Y-37573471D01*
X54737987Y-37572195D01*
X54743654Y-37567713D01*
X54743653Y-37567713D01*
X54743656Y-37567712D01*
X54867712Y-37443656D01*
X54959814Y-37294334D01*
X55014999Y-37127797D01*
X55025500Y-37025009D01*
X55025499Y-35974992D01*
X55014999Y-35872203D01*
X54959814Y-35705666D01*
X54867712Y-35556344D01*
X54743656Y-35432288D01*
X54737989Y-35427807D01*
X54739430Y-35425984D01*
X54700175Y-35382335D01*
X54688000Y-35328752D01*
X54688000Y-34371248D01*
X54707685Y-34304209D01*
X54738996Y-34273471D01*
X54737987Y-34272195D01*
X54743654Y-34267713D01*
X54743653Y-34267713D01*
X54743656Y-34267712D01*
X54867712Y-34143656D01*
X54950519Y-34009402D01*
X55002467Y-33962679D01*
X55056058Y-33950500D01*
X55093920Y-33950500D01*
X55191462Y-33931096D01*
X55238913Y-33921658D01*
X55375495Y-33865084D01*
X55431299Y-33827797D01*
X55498416Y-33782952D01*
X55538318Y-33743050D01*
X55599641Y-33709564D01*
X55669332Y-33714548D01*
G37*
%TD.AperFunction*%
%TD*%
M02*
