M48
; DRILL file {KiCad 8.0.4} date 2025-02-26T16:08:06-0500
; FORMAT={-:-/ absolute / metric / decimal}
; #@! TF.CreationDate,2025-02-26T16:08:06-05:00
; #@! TF.GenerationSoftware,Kicad,Pcbnew,8.0.4
; #@! TF.FileFunction,Plated,1,2,PTH
FMAT,2
METRIC
; #@! TA.AperFunction,Plated,PTH,ViaDrill
T1C0.300
; #@! TA.AperFunction,Plated,PTH,ComponentDrill
T2C0.330
; #@! TA.AperFunction,Plated,PTH,ViaDrill
T3C0.600
; #@! TA.AperFunction,Plated,PTH,ComponentDrill
T4C0.800
; #@! TA.AperFunction,Plated,PTH,ComponentDrill
T5C1.000
; #@! TA.AperFunction,Plated,PTH,ComponentDrill
T6C1.200
; #@! TA.AperFunction,Plated,PTH,ComponentDrill
T7C1.900
%
G90
G05
T1
X52.9Y-34.8
X55.3Y-35.1
X55.3Y-36.1
X67.1Y-28.9
X67.8Y-28.9
T2
X32.1Y-33.6
X32.1Y-34.9
X33.4Y-33.6
X33.4Y-34.9
X34.7Y-33.6
X34.7Y-34.9
X44.8Y-33.6
X44.8Y-34.9
X46.1Y-33.6
X46.1Y-34.9
X47.4Y-33.6
X47.4Y-34.9
T3
X31.8Y-39.3
X33.3Y-47.1
X35.2Y-47.1
X38.7Y-38.3
X44.25Y-39.35
X51.2Y-30.6
X52.9Y-30.6
X52.9Y-41.5
X56.6Y-46.0
X59.9Y-47.3
X60.7Y-38.4
X61.1Y-33.2
X61.5Y-47.3
X67.078Y-39.978
X67.4Y-33.8
X69.8Y-30.4
T4
X72.96Y-29.1
X78.04Y-29.1
T5
X29.58Y-28.16
X29.58Y-43.4
X32.12Y-28.16
X32.12Y-43.4
X34.66Y-28.16
X34.66Y-43.4
X37.2Y-28.16
X37.2Y-43.4
X39.645Y-46.9
X39.74Y-28.16
X39.74Y-43.4
X42.185Y-46.9
X42.28Y-28.16
X42.28Y-43.4
X44.725Y-46.9
X44.82Y-28.16
X44.82Y-43.4
X47.36Y-28.16
X47.36Y-43.4
X48.675Y-46.9
X49.9Y-28.16
X49.9Y-43.4
X51.215Y-46.9
X52.44Y-28.16
X52.44Y-43.4
X53.755Y-46.9
X54.98Y-28.16
X54.98Y-43.4
X57.52Y-28.16
X57.52Y-43.4
X60.06Y-28.16
X60.06Y-43.4
X62.6Y-28.16
X62.6Y-43.4
X65.14Y-28.16
X65.14Y-43.4
X68.0Y-32.0
X68.0Y-43.0
T6
X71.36Y-44.8
X73.9Y-44.8
X78.06Y-44.8
X80.6Y-44.8
T7
X58.0Y-35.0
X58.0Y-40.0
M30
