%TF.GenerationSoftware,KiCad,Pcbnew,8.0.4*%
%TF.CreationDate,2025-02-26T16:08:05-05:00*%
%TF.ProjectId,plusle,706c7573-6c65-42e6-9b69-6361645f7063,rev?*%
%TF.SameCoordinates,Original*%
%TF.FileFunction,Drillmap*%
%TF.FilePolarity,Positive*%
%FSLAX45Y45*%
G04 Gerber Fmt 4.5, Leading zero omitted, Abs format (unit mm)*
G04 Created by KiCad (PCBNEW 8.0.4) date 2025-02-26 16:08:05*
%MOMM*%
%LPD*%
G01*
G04 APERTURE LIST*
%ADD10C,0.050000*%
%ADD11C,0.200000*%
%ADD12C,0.220000*%
G04 APERTURE END LIST*
D10*
X2580000Y-4860000D02*
X2580000Y-2660000D01*
X8280000Y-4860000D02*
X2580000Y-4860000D01*
X8280000Y-2660000D02*
X8280000Y-4860000D01*
X8230000Y-2660000D02*
X8280000Y-2660000D01*
X2580000Y-2660000D02*
X8230000Y-2660000D01*
D11*
D12*
X2670000Y-4550000D02*
X2890000Y-4770000D01*
X2890000Y-4550000D02*
X2670000Y-4770000D01*
X6620000Y-4550000D02*
X6840000Y-4770000D01*
X6840000Y-4550000D02*
X6620000Y-4770000D01*
D11*
X2838277Y-5173984D02*
X2838277Y-4973984D01*
X2838277Y-4973984D02*
X2885896Y-4973984D01*
X2885896Y-4973984D02*
X2914467Y-4983508D01*
X2914467Y-4983508D02*
X2933515Y-5002555D01*
X2933515Y-5002555D02*
X2943039Y-5021603D01*
X2943039Y-5021603D02*
X2952562Y-5059698D01*
X2952562Y-5059698D02*
X2952562Y-5088270D01*
X2952562Y-5088270D02*
X2943039Y-5126365D01*
X2943039Y-5126365D02*
X2933515Y-5145412D01*
X2933515Y-5145412D02*
X2914467Y-5164460D01*
X2914467Y-5164460D02*
X2885896Y-5173984D01*
X2885896Y-5173984D02*
X2838277Y-5173984D01*
X3038277Y-5173984D02*
X3038277Y-5040650D01*
X3038277Y-5078746D02*
X3047801Y-5059698D01*
X3047801Y-5059698D02*
X3057324Y-5050174D01*
X3057324Y-5050174D02*
X3076372Y-5040650D01*
X3076372Y-5040650D02*
X3095420Y-5040650D01*
X3162086Y-5173984D02*
X3162086Y-5040650D01*
X3162086Y-4973984D02*
X3152562Y-4983508D01*
X3152562Y-4983508D02*
X3162086Y-4993031D01*
X3162086Y-4993031D02*
X3171610Y-4983508D01*
X3171610Y-4983508D02*
X3162086Y-4973984D01*
X3162086Y-4973984D02*
X3162086Y-4993031D01*
X3285896Y-5173984D02*
X3266848Y-5164460D01*
X3266848Y-5164460D02*
X3257324Y-5145412D01*
X3257324Y-5145412D02*
X3257324Y-4973984D01*
X3390658Y-5173984D02*
X3371610Y-5164460D01*
X3371610Y-5164460D02*
X3362086Y-5145412D01*
X3362086Y-5145412D02*
X3362086Y-4973984D01*
X3619229Y-5173984D02*
X3619229Y-4973984D01*
X3619229Y-4973984D02*
X3685896Y-5116841D01*
X3685896Y-5116841D02*
X3752562Y-4973984D01*
X3752562Y-4973984D02*
X3752562Y-5173984D01*
X3933515Y-5173984D02*
X3933515Y-5069222D01*
X3933515Y-5069222D02*
X3923991Y-5050174D01*
X3923991Y-5050174D02*
X3904943Y-5040650D01*
X3904943Y-5040650D02*
X3866848Y-5040650D01*
X3866848Y-5040650D02*
X3847801Y-5050174D01*
X3933515Y-5164460D02*
X3914467Y-5173984D01*
X3914467Y-5173984D02*
X3866848Y-5173984D01*
X3866848Y-5173984D02*
X3847801Y-5164460D01*
X3847801Y-5164460D02*
X3838277Y-5145412D01*
X3838277Y-5145412D02*
X3838277Y-5126365D01*
X3838277Y-5126365D02*
X3847801Y-5107317D01*
X3847801Y-5107317D02*
X3866848Y-5097793D01*
X3866848Y-5097793D02*
X3914467Y-5097793D01*
X3914467Y-5097793D02*
X3933515Y-5088270D01*
X4028753Y-5040650D02*
X4028753Y-5240650D01*
X4028753Y-5050174D02*
X4047801Y-5040650D01*
X4047801Y-5040650D02*
X4085896Y-5040650D01*
X4085896Y-5040650D02*
X4104943Y-5050174D01*
X4104943Y-5050174D02*
X4114467Y-5059698D01*
X4114467Y-5059698D02*
X4123991Y-5078746D01*
X4123991Y-5078746D02*
X4123991Y-5135889D01*
X4123991Y-5135889D02*
X4114467Y-5154936D01*
X4114467Y-5154936D02*
X4104943Y-5164460D01*
X4104943Y-5164460D02*
X4085896Y-5173984D01*
X4085896Y-5173984D02*
X4047801Y-5173984D01*
X4047801Y-5173984D02*
X4028753Y-5164460D01*
X4209705Y-5154936D02*
X4219229Y-5164460D01*
X4219229Y-5164460D02*
X4209705Y-5173984D01*
X4209705Y-5173984D02*
X4200182Y-5164460D01*
X4200182Y-5164460D02*
X4209705Y-5154936D01*
X4209705Y-5154936D02*
X4209705Y-5173984D01*
X4209705Y-5050174D02*
X4219229Y-5059698D01*
X4219229Y-5059698D02*
X4209705Y-5069222D01*
X4209705Y-5069222D02*
X4200182Y-5059698D01*
X4200182Y-5059698D02*
X4209705Y-5050174D01*
X4209705Y-5050174D02*
X4209705Y-5069222D01*
X2377500Y-5402500D02*
X2577500Y-5602500D01*
X2577500Y-5402500D02*
X2377500Y-5602500D01*
X2828753Y-5413031D02*
X2838277Y-5403508D01*
X2838277Y-5403508D02*
X2857324Y-5393984D01*
X2857324Y-5393984D02*
X2904943Y-5393984D01*
X2904943Y-5393984D02*
X2923991Y-5403508D01*
X2923991Y-5403508D02*
X2933515Y-5413031D01*
X2933515Y-5413031D02*
X2943039Y-5432079D01*
X2943039Y-5432079D02*
X2943039Y-5451127D01*
X2943039Y-5451127D02*
X2933515Y-5479698D01*
X2933515Y-5479698D02*
X2819229Y-5593984D01*
X2819229Y-5593984D02*
X2943039Y-5593984D01*
X3028753Y-5574936D02*
X3038277Y-5584460D01*
X3038277Y-5584460D02*
X3028753Y-5593984D01*
X3028753Y-5593984D02*
X3019229Y-5584460D01*
X3019229Y-5584460D02*
X3028753Y-5574936D01*
X3028753Y-5574936D02*
X3028753Y-5593984D01*
X3114467Y-5413031D02*
X3123991Y-5403508D01*
X3123991Y-5403508D02*
X3143039Y-5393984D01*
X3143039Y-5393984D02*
X3190658Y-5393984D01*
X3190658Y-5393984D02*
X3209705Y-5403508D01*
X3209705Y-5403508D02*
X3219229Y-5413031D01*
X3219229Y-5413031D02*
X3228753Y-5432079D01*
X3228753Y-5432079D02*
X3228753Y-5451127D01*
X3228753Y-5451127D02*
X3219229Y-5479698D01*
X3219229Y-5479698D02*
X3104943Y-5593984D01*
X3104943Y-5593984D02*
X3228753Y-5593984D01*
X3352562Y-5393984D02*
X3371610Y-5393984D01*
X3371610Y-5393984D02*
X3390658Y-5403508D01*
X3390658Y-5403508D02*
X3400182Y-5413031D01*
X3400182Y-5413031D02*
X3409705Y-5432079D01*
X3409705Y-5432079D02*
X3419229Y-5470174D01*
X3419229Y-5470174D02*
X3419229Y-5517793D01*
X3419229Y-5517793D02*
X3409705Y-5555889D01*
X3409705Y-5555889D02*
X3400182Y-5574936D01*
X3400182Y-5574936D02*
X3390658Y-5584460D01*
X3390658Y-5584460D02*
X3371610Y-5593984D01*
X3371610Y-5593984D02*
X3352562Y-5593984D01*
X3352562Y-5593984D02*
X3333515Y-5584460D01*
X3333515Y-5584460D02*
X3323991Y-5574936D01*
X3323991Y-5574936D02*
X3314467Y-5555889D01*
X3314467Y-5555889D02*
X3304943Y-5517793D01*
X3304943Y-5517793D02*
X3304943Y-5470174D01*
X3304943Y-5470174D02*
X3314467Y-5432079D01*
X3314467Y-5432079D02*
X3323991Y-5413031D01*
X3323991Y-5413031D02*
X3333515Y-5403508D01*
X3333515Y-5403508D02*
X3352562Y-5393984D01*
X3543039Y-5393984D02*
X3562086Y-5393984D01*
X3562086Y-5393984D02*
X3581134Y-5403508D01*
X3581134Y-5403508D02*
X3590658Y-5413031D01*
X3590658Y-5413031D02*
X3600182Y-5432079D01*
X3600182Y-5432079D02*
X3609705Y-5470174D01*
X3609705Y-5470174D02*
X3609705Y-5517793D01*
X3609705Y-5517793D02*
X3600182Y-5555889D01*
X3600182Y-5555889D02*
X3590658Y-5574936D01*
X3590658Y-5574936D02*
X3581134Y-5584460D01*
X3581134Y-5584460D02*
X3562086Y-5593984D01*
X3562086Y-5593984D02*
X3543039Y-5593984D01*
X3543039Y-5593984D02*
X3523991Y-5584460D01*
X3523991Y-5584460D02*
X3514467Y-5574936D01*
X3514467Y-5574936D02*
X3504943Y-5555889D01*
X3504943Y-5555889D02*
X3495420Y-5517793D01*
X3495420Y-5517793D02*
X3495420Y-5470174D01*
X3495420Y-5470174D02*
X3504943Y-5432079D01*
X3504943Y-5432079D02*
X3514467Y-5413031D01*
X3514467Y-5413031D02*
X3523991Y-5403508D01*
X3523991Y-5403508D02*
X3543039Y-5393984D01*
X3695420Y-5593984D02*
X3695420Y-5460650D01*
X3695420Y-5479698D02*
X3704943Y-5470174D01*
X3704943Y-5470174D02*
X3723991Y-5460650D01*
X3723991Y-5460650D02*
X3752563Y-5460650D01*
X3752563Y-5460650D02*
X3771610Y-5470174D01*
X3771610Y-5470174D02*
X3781134Y-5489222D01*
X3781134Y-5489222D02*
X3781134Y-5593984D01*
X3781134Y-5489222D02*
X3790658Y-5470174D01*
X3790658Y-5470174D02*
X3809705Y-5460650D01*
X3809705Y-5460650D02*
X3838277Y-5460650D01*
X3838277Y-5460650D02*
X3857324Y-5470174D01*
X3857324Y-5470174D02*
X3866848Y-5489222D01*
X3866848Y-5489222D02*
X3866848Y-5593984D01*
X3962086Y-5593984D02*
X3962086Y-5460650D01*
X3962086Y-5479698D02*
X3971610Y-5470174D01*
X3971610Y-5470174D02*
X3990658Y-5460650D01*
X3990658Y-5460650D02*
X4019229Y-5460650D01*
X4019229Y-5460650D02*
X4038277Y-5470174D01*
X4038277Y-5470174D02*
X4047801Y-5489222D01*
X4047801Y-5489222D02*
X4047801Y-5593984D01*
X4047801Y-5489222D02*
X4057324Y-5470174D01*
X4057324Y-5470174D02*
X4076372Y-5460650D01*
X4076372Y-5460650D02*
X4104943Y-5460650D01*
X4104943Y-5460650D02*
X4123991Y-5470174D01*
X4123991Y-5470174D02*
X4133515Y-5489222D01*
X4133515Y-5489222D02*
X4133515Y-5593984D01*
X4523991Y-5384460D02*
X4352563Y-5641603D01*
X4781134Y-5393984D02*
X4800182Y-5393984D01*
X4800182Y-5393984D02*
X4819229Y-5403508D01*
X4819229Y-5403508D02*
X4828753Y-5413031D01*
X4828753Y-5413031D02*
X4838277Y-5432079D01*
X4838277Y-5432079D02*
X4847801Y-5470174D01*
X4847801Y-5470174D02*
X4847801Y-5517793D01*
X4847801Y-5517793D02*
X4838277Y-5555889D01*
X4838277Y-5555889D02*
X4828753Y-5574936D01*
X4828753Y-5574936D02*
X4819229Y-5584460D01*
X4819229Y-5584460D02*
X4800182Y-5593984D01*
X4800182Y-5593984D02*
X4781134Y-5593984D01*
X4781134Y-5593984D02*
X4762087Y-5584460D01*
X4762087Y-5584460D02*
X4752563Y-5574936D01*
X4752563Y-5574936D02*
X4743039Y-5555889D01*
X4743039Y-5555889D02*
X4733515Y-5517793D01*
X4733515Y-5517793D02*
X4733515Y-5470174D01*
X4733515Y-5470174D02*
X4743039Y-5432079D01*
X4743039Y-5432079D02*
X4752563Y-5413031D01*
X4752563Y-5413031D02*
X4762087Y-5403508D01*
X4762087Y-5403508D02*
X4781134Y-5393984D01*
X4933515Y-5574936D02*
X4943039Y-5584460D01*
X4943039Y-5584460D02*
X4933515Y-5593984D01*
X4933515Y-5593984D02*
X4923991Y-5584460D01*
X4923991Y-5584460D02*
X4933515Y-5574936D01*
X4933515Y-5574936D02*
X4933515Y-5593984D01*
X5066848Y-5393984D02*
X5085896Y-5393984D01*
X5085896Y-5393984D02*
X5104944Y-5403508D01*
X5104944Y-5403508D02*
X5114468Y-5413031D01*
X5114468Y-5413031D02*
X5123991Y-5432079D01*
X5123991Y-5432079D02*
X5133515Y-5470174D01*
X5133515Y-5470174D02*
X5133515Y-5517793D01*
X5133515Y-5517793D02*
X5123991Y-5555889D01*
X5123991Y-5555889D02*
X5114468Y-5574936D01*
X5114468Y-5574936D02*
X5104944Y-5584460D01*
X5104944Y-5584460D02*
X5085896Y-5593984D01*
X5085896Y-5593984D02*
X5066848Y-5593984D01*
X5066848Y-5593984D02*
X5047801Y-5584460D01*
X5047801Y-5584460D02*
X5038277Y-5574936D01*
X5038277Y-5574936D02*
X5028753Y-5555889D01*
X5028753Y-5555889D02*
X5019229Y-5517793D01*
X5019229Y-5517793D02*
X5019229Y-5470174D01*
X5019229Y-5470174D02*
X5028753Y-5432079D01*
X5028753Y-5432079D02*
X5038277Y-5413031D01*
X5038277Y-5413031D02*
X5047801Y-5403508D01*
X5047801Y-5403508D02*
X5066848Y-5393984D01*
X5247801Y-5479698D02*
X5228753Y-5470174D01*
X5228753Y-5470174D02*
X5219229Y-5460650D01*
X5219229Y-5460650D02*
X5209706Y-5441603D01*
X5209706Y-5441603D02*
X5209706Y-5432079D01*
X5209706Y-5432079D02*
X5219229Y-5413031D01*
X5219229Y-5413031D02*
X5228753Y-5403508D01*
X5228753Y-5403508D02*
X5247801Y-5393984D01*
X5247801Y-5393984D02*
X5285896Y-5393984D01*
X5285896Y-5393984D02*
X5304944Y-5403508D01*
X5304944Y-5403508D02*
X5314468Y-5413031D01*
X5314468Y-5413031D02*
X5323991Y-5432079D01*
X5323991Y-5432079D02*
X5323991Y-5441603D01*
X5323991Y-5441603D02*
X5314468Y-5460650D01*
X5314468Y-5460650D02*
X5304944Y-5470174D01*
X5304944Y-5470174D02*
X5285896Y-5479698D01*
X5285896Y-5479698D02*
X5247801Y-5479698D01*
X5247801Y-5479698D02*
X5228753Y-5489222D01*
X5228753Y-5489222D02*
X5219229Y-5498746D01*
X5219229Y-5498746D02*
X5209706Y-5517793D01*
X5209706Y-5517793D02*
X5209706Y-5555889D01*
X5209706Y-5555889D02*
X5219229Y-5574936D01*
X5219229Y-5574936D02*
X5228753Y-5584460D01*
X5228753Y-5584460D02*
X5247801Y-5593984D01*
X5247801Y-5593984D02*
X5285896Y-5593984D01*
X5285896Y-5593984D02*
X5304944Y-5584460D01*
X5304944Y-5584460D02*
X5314468Y-5574936D01*
X5314468Y-5574936D02*
X5323991Y-5555889D01*
X5323991Y-5555889D02*
X5323991Y-5517793D01*
X5323991Y-5517793D02*
X5314468Y-5498746D01*
X5314468Y-5498746D02*
X5304944Y-5489222D01*
X5304944Y-5489222D02*
X5285896Y-5479698D01*
X5495420Y-5393984D02*
X5457325Y-5393984D01*
X5457325Y-5393984D02*
X5438277Y-5403508D01*
X5438277Y-5403508D02*
X5428753Y-5413031D01*
X5428753Y-5413031D02*
X5409706Y-5441603D01*
X5409706Y-5441603D02*
X5400182Y-5479698D01*
X5400182Y-5479698D02*
X5400182Y-5555889D01*
X5400182Y-5555889D02*
X5409706Y-5574936D01*
X5409706Y-5574936D02*
X5419229Y-5584460D01*
X5419229Y-5584460D02*
X5438277Y-5593984D01*
X5438277Y-5593984D02*
X5476372Y-5593984D01*
X5476372Y-5593984D02*
X5495420Y-5584460D01*
X5495420Y-5584460D02*
X5504944Y-5574936D01*
X5504944Y-5574936D02*
X5514468Y-5555889D01*
X5514468Y-5555889D02*
X5514468Y-5508270D01*
X5514468Y-5508270D02*
X5504944Y-5489222D01*
X5504944Y-5489222D02*
X5495420Y-5479698D01*
X5495420Y-5479698D02*
X5476372Y-5470174D01*
X5476372Y-5470174D02*
X5438277Y-5470174D01*
X5438277Y-5470174D02*
X5419229Y-5479698D01*
X5419229Y-5479698D02*
X5409706Y-5489222D01*
X5409706Y-5489222D02*
X5400182Y-5508270D01*
X5685896Y-5393984D02*
X5647801Y-5393984D01*
X5647801Y-5393984D02*
X5628753Y-5403508D01*
X5628753Y-5403508D02*
X5619229Y-5413031D01*
X5619229Y-5413031D02*
X5600182Y-5441603D01*
X5600182Y-5441603D02*
X5590658Y-5479698D01*
X5590658Y-5479698D02*
X5590658Y-5555889D01*
X5590658Y-5555889D02*
X5600182Y-5574936D01*
X5600182Y-5574936D02*
X5609706Y-5584460D01*
X5609706Y-5584460D02*
X5628753Y-5593984D01*
X5628753Y-5593984D02*
X5666848Y-5593984D01*
X5666848Y-5593984D02*
X5685896Y-5584460D01*
X5685896Y-5584460D02*
X5695420Y-5574936D01*
X5695420Y-5574936D02*
X5704944Y-5555889D01*
X5704944Y-5555889D02*
X5704944Y-5508270D01*
X5704944Y-5508270D02*
X5695420Y-5489222D01*
X5695420Y-5489222D02*
X5685896Y-5479698D01*
X5685896Y-5479698D02*
X5666848Y-5470174D01*
X5666848Y-5470174D02*
X5628753Y-5470174D01*
X5628753Y-5470174D02*
X5609706Y-5479698D01*
X5609706Y-5479698D02*
X5600182Y-5489222D01*
X5600182Y-5489222D02*
X5590658Y-5508270D01*
X5781134Y-5393984D02*
X5781134Y-5432079D01*
X5857325Y-5393984D02*
X5857325Y-5432079D01*
X6152563Y-5670174D02*
X6143039Y-5660650D01*
X6143039Y-5660650D02*
X6123991Y-5632079D01*
X6123991Y-5632079D02*
X6114468Y-5613031D01*
X6114468Y-5613031D02*
X6104944Y-5584460D01*
X6104944Y-5584460D02*
X6095420Y-5536841D01*
X6095420Y-5536841D02*
X6095420Y-5498746D01*
X6095420Y-5498746D02*
X6104944Y-5451127D01*
X6104944Y-5451127D02*
X6114468Y-5422555D01*
X6114468Y-5422555D02*
X6123991Y-5403508D01*
X6123991Y-5403508D02*
X6143039Y-5374936D01*
X6143039Y-5374936D02*
X6152563Y-5365412D01*
X6219229Y-5413031D02*
X6228753Y-5403508D01*
X6228753Y-5403508D02*
X6247801Y-5393984D01*
X6247801Y-5393984D02*
X6295420Y-5393984D01*
X6295420Y-5393984D02*
X6314468Y-5403508D01*
X6314468Y-5403508D02*
X6323991Y-5413031D01*
X6323991Y-5413031D02*
X6333515Y-5432079D01*
X6333515Y-5432079D02*
X6333515Y-5451127D01*
X6333515Y-5451127D02*
X6323991Y-5479698D01*
X6323991Y-5479698D02*
X6209706Y-5593984D01*
X6209706Y-5593984D02*
X6333515Y-5593984D01*
X6571610Y-5593984D02*
X6571610Y-5393984D01*
X6657325Y-5593984D02*
X6657325Y-5489222D01*
X6657325Y-5489222D02*
X6647801Y-5470174D01*
X6647801Y-5470174D02*
X6628753Y-5460650D01*
X6628753Y-5460650D02*
X6600182Y-5460650D01*
X6600182Y-5460650D02*
X6581134Y-5470174D01*
X6581134Y-5470174D02*
X6571610Y-5479698D01*
X6781134Y-5593984D02*
X6762087Y-5584460D01*
X6762087Y-5584460D02*
X6752563Y-5574936D01*
X6752563Y-5574936D02*
X6743039Y-5555889D01*
X6743039Y-5555889D02*
X6743039Y-5498746D01*
X6743039Y-5498746D02*
X6752563Y-5479698D01*
X6752563Y-5479698D02*
X6762087Y-5470174D01*
X6762087Y-5470174D02*
X6781134Y-5460650D01*
X6781134Y-5460650D02*
X6809706Y-5460650D01*
X6809706Y-5460650D02*
X6828753Y-5470174D01*
X6828753Y-5470174D02*
X6838277Y-5479698D01*
X6838277Y-5479698D02*
X6847801Y-5498746D01*
X6847801Y-5498746D02*
X6847801Y-5555889D01*
X6847801Y-5555889D02*
X6838277Y-5574936D01*
X6838277Y-5574936D02*
X6828753Y-5584460D01*
X6828753Y-5584460D02*
X6809706Y-5593984D01*
X6809706Y-5593984D02*
X6781134Y-5593984D01*
X6962087Y-5593984D02*
X6943039Y-5584460D01*
X6943039Y-5584460D02*
X6933515Y-5565412D01*
X6933515Y-5565412D02*
X6933515Y-5393984D01*
X7114468Y-5584460D02*
X7095420Y-5593984D01*
X7095420Y-5593984D02*
X7057325Y-5593984D01*
X7057325Y-5593984D02*
X7038277Y-5584460D01*
X7038277Y-5584460D02*
X7028753Y-5565412D01*
X7028753Y-5565412D02*
X7028753Y-5489222D01*
X7028753Y-5489222D02*
X7038277Y-5470174D01*
X7038277Y-5470174D02*
X7057325Y-5460650D01*
X7057325Y-5460650D02*
X7095420Y-5460650D01*
X7095420Y-5460650D02*
X7114468Y-5470174D01*
X7114468Y-5470174D02*
X7123991Y-5489222D01*
X7123991Y-5489222D02*
X7123991Y-5508270D01*
X7123991Y-5508270D02*
X7028753Y-5527317D01*
X7200182Y-5584460D02*
X7219230Y-5593984D01*
X7219230Y-5593984D02*
X7257325Y-5593984D01*
X7257325Y-5593984D02*
X7276372Y-5584460D01*
X7276372Y-5584460D02*
X7285896Y-5565412D01*
X7285896Y-5565412D02*
X7285896Y-5555889D01*
X7285896Y-5555889D02*
X7276372Y-5536841D01*
X7276372Y-5536841D02*
X7257325Y-5527317D01*
X7257325Y-5527317D02*
X7228753Y-5527317D01*
X7228753Y-5527317D02*
X7209706Y-5517793D01*
X7209706Y-5517793D02*
X7200182Y-5498746D01*
X7200182Y-5498746D02*
X7200182Y-5489222D01*
X7200182Y-5489222D02*
X7209706Y-5470174D01*
X7209706Y-5470174D02*
X7228753Y-5460650D01*
X7228753Y-5460650D02*
X7257325Y-5460650D01*
X7257325Y-5460650D02*
X7276372Y-5470174D01*
X7352563Y-5670174D02*
X7362087Y-5660650D01*
X7362087Y-5660650D02*
X7381134Y-5632079D01*
X7381134Y-5632079D02*
X7390658Y-5613031D01*
X7390658Y-5613031D02*
X7400182Y-5584460D01*
X7400182Y-5584460D02*
X7409706Y-5536841D01*
X7409706Y-5536841D02*
X7409706Y-5498746D01*
X7409706Y-5498746D02*
X7400182Y-5451127D01*
X7400182Y-5451127D02*
X7390658Y-5422555D01*
X7390658Y-5422555D02*
X7381134Y-5403508D01*
X7381134Y-5403508D02*
X7362087Y-5374936D01*
X7362087Y-5374936D02*
X7352563Y-5365412D01*
X7714468Y-5670174D02*
X7704944Y-5660650D01*
X7704944Y-5660650D02*
X7685896Y-5632079D01*
X7685896Y-5632079D02*
X7676372Y-5613031D01*
X7676372Y-5613031D02*
X7666849Y-5584460D01*
X7666849Y-5584460D02*
X7657325Y-5536841D01*
X7657325Y-5536841D02*
X7657325Y-5498746D01*
X7657325Y-5498746D02*
X7666849Y-5451127D01*
X7666849Y-5451127D02*
X7676372Y-5422555D01*
X7676372Y-5422555D02*
X7685896Y-5403508D01*
X7685896Y-5403508D02*
X7704944Y-5374936D01*
X7704944Y-5374936D02*
X7714468Y-5365412D01*
X7790658Y-5460650D02*
X7790658Y-5593984D01*
X7790658Y-5479698D02*
X7800182Y-5470174D01*
X7800182Y-5470174D02*
X7819230Y-5460650D01*
X7819230Y-5460650D02*
X7847801Y-5460650D01*
X7847801Y-5460650D02*
X7866849Y-5470174D01*
X7866849Y-5470174D02*
X7876372Y-5489222D01*
X7876372Y-5489222D02*
X7876372Y-5593984D01*
X8000182Y-5593984D02*
X7981134Y-5584460D01*
X7981134Y-5584460D02*
X7971611Y-5574936D01*
X7971611Y-5574936D02*
X7962087Y-5555889D01*
X7962087Y-5555889D02*
X7962087Y-5498746D01*
X7962087Y-5498746D02*
X7971611Y-5479698D01*
X7971611Y-5479698D02*
X7981134Y-5470174D01*
X7981134Y-5470174D02*
X8000182Y-5460650D01*
X8000182Y-5460650D02*
X8028753Y-5460650D01*
X8028753Y-5460650D02*
X8047801Y-5470174D01*
X8047801Y-5470174D02*
X8057325Y-5479698D01*
X8057325Y-5479698D02*
X8066849Y-5498746D01*
X8066849Y-5498746D02*
X8066849Y-5555889D01*
X8066849Y-5555889D02*
X8057325Y-5574936D01*
X8057325Y-5574936D02*
X8047801Y-5584460D01*
X8047801Y-5584460D02*
X8028753Y-5593984D01*
X8028753Y-5593984D02*
X8000182Y-5593984D01*
X8123992Y-5460650D02*
X8200182Y-5460650D01*
X8152563Y-5393984D02*
X8152563Y-5565412D01*
X8152563Y-5565412D02*
X8162087Y-5584460D01*
X8162087Y-5584460D02*
X8181134Y-5593984D01*
X8181134Y-5593984D02*
X8200182Y-5593984D01*
X8419230Y-5460650D02*
X8419230Y-5660650D01*
X8419230Y-5470174D02*
X8438277Y-5460650D01*
X8438277Y-5460650D02*
X8476373Y-5460650D01*
X8476373Y-5460650D02*
X8495420Y-5470174D01*
X8495420Y-5470174D02*
X8504944Y-5479698D01*
X8504944Y-5479698D02*
X8514468Y-5498746D01*
X8514468Y-5498746D02*
X8514468Y-5555889D01*
X8514468Y-5555889D02*
X8504944Y-5574936D01*
X8504944Y-5574936D02*
X8495420Y-5584460D01*
X8495420Y-5584460D02*
X8476373Y-5593984D01*
X8476373Y-5593984D02*
X8438277Y-5593984D01*
X8438277Y-5593984D02*
X8419230Y-5584460D01*
X8628754Y-5593984D02*
X8609706Y-5584460D01*
X8609706Y-5584460D02*
X8600182Y-5565412D01*
X8600182Y-5565412D02*
X8600182Y-5393984D01*
X8790658Y-5593984D02*
X8790658Y-5489222D01*
X8790658Y-5489222D02*
X8781135Y-5470174D01*
X8781135Y-5470174D02*
X8762087Y-5460650D01*
X8762087Y-5460650D02*
X8723992Y-5460650D01*
X8723992Y-5460650D02*
X8704944Y-5470174D01*
X8790658Y-5584460D02*
X8771611Y-5593984D01*
X8771611Y-5593984D02*
X8723992Y-5593984D01*
X8723992Y-5593984D02*
X8704944Y-5584460D01*
X8704944Y-5584460D02*
X8695420Y-5565412D01*
X8695420Y-5565412D02*
X8695420Y-5546365D01*
X8695420Y-5546365D02*
X8704944Y-5527317D01*
X8704944Y-5527317D02*
X8723992Y-5517793D01*
X8723992Y-5517793D02*
X8771611Y-5517793D01*
X8771611Y-5517793D02*
X8790658Y-5508270D01*
X8857325Y-5460650D02*
X8933515Y-5460650D01*
X8885896Y-5393984D02*
X8885896Y-5565412D01*
X8885896Y-5565412D02*
X8895420Y-5584460D01*
X8895420Y-5584460D02*
X8914468Y-5593984D01*
X8914468Y-5593984D02*
X8933515Y-5593984D01*
X9076373Y-5584460D02*
X9057325Y-5593984D01*
X9057325Y-5593984D02*
X9019230Y-5593984D01*
X9019230Y-5593984D02*
X9000182Y-5584460D01*
X9000182Y-5584460D02*
X8990658Y-5565412D01*
X8990658Y-5565412D02*
X8990658Y-5489222D01*
X8990658Y-5489222D02*
X9000182Y-5470174D01*
X9000182Y-5470174D02*
X9019230Y-5460650D01*
X9019230Y-5460650D02*
X9057325Y-5460650D01*
X9057325Y-5460650D02*
X9076373Y-5470174D01*
X9076373Y-5470174D02*
X9085896Y-5489222D01*
X9085896Y-5489222D02*
X9085896Y-5508270D01*
X9085896Y-5508270D02*
X8990658Y-5527317D01*
X9257325Y-5593984D02*
X9257325Y-5393984D01*
X9257325Y-5584460D02*
X9238277Y-5593984D01*
X9238277Y-5593984D02*
X9200182Y-5593984D01*
X9200182Y-5593984D02*
X9181135Y-5584460D01*
X9181135Y-5584460D02*
X9171611Y-5574936D01*
X9171611Y-5574936D02*
X9162087Y-5555889D01*
X9162087Y-5555889D02*
X9162087Y-5498746D01*
X9162087Y-5498746D02*
X9171611Y-5479698D01*
X9171611Y-5479698D02*
X9181135Y-5470174D01*
X9181135Y-5470174D02*
X9200182Y-5460650D01*
X9200182Y-5460650D02*
X9238277Y-5460650D01*
X9238277Y-5460650D02*
X9257325Y-5470174D01*
X9333516Y-5670174D02*
X9343039Y-5660650D01*
X9343039Y-5660650D02*
X9362087Y-5632079D01*
X9362087Y-5632079D02*
X9371611Y-5613031D01*
X9371611Y-5613031D02*
X9381135Y-5584460D01*
X9381135Y-5584460D02*
X9390658Y-5536841D01*
X9390658Y-5536841D02*
X9390658Y-5498746D01*
X9390658Y-5498746D02*
X9381135Y-5451127D01*
X9381135Y-5451127D02*
X9371611Y-5422555D01*
X9371611Y-5422555D02*
X9362087Y-5403508D01*
X9362087Y-5403508D02*
X9343039Y-5374936D01*
X9343039Y-5374936D02*
X9333516Y-5365412D01*
M02*
