%TF.GenerationSoftware,KiCad,Pcbnew,8.0.4*%
%TF.CreationDate,2025-02-26T16:08:05-05:00*%
%TF.ProjectId,plusle,706c7573-6c65-42e6-9b69-6361645f7063,rev?*%
%TF.SameCoordinates,Original*%
%TF.FileFunction,Drillmap*%
%TF.FilePolarity,Positive*%
%FSLAX45Y45*%
G04 Gerber Fmt 4.5, Leading zero omitted, Abs format (unit mm)*
G04 Created by KiCad (PCBNEW 8.0.4) date 2025-02-26 16:08:05*
%MOMM*%
%LPD*%
G01*
G04 APERTURE LIST*
%ADD10C,0.050000*%
%ADD11C,0.200000*%
%ADD12C,0.100000*%
%ADD13C,0.120000*%
%ADD14C,0.190000*%
G04 APERTURE END LIST*
D10*
X2580000Y-4860000D02*
X2580000Y-2660000D01*
X8280000Y-4860000D02*
X2580000Y-4860000D01*
X8280000Y-2660000D02*
X8280000Y-4860000D01*
X8230000Y-2660000D02*
X8280000Y-2660000D01*
X2580000Y-2660000D02*
X8230000Y-2660000D01*
D11*
D12*
X5275000Y-3465000D02*
X5305000Y-3495000D01*
X5305000Y-3465000D02*
X5275000Y-3495000D01*
X5515000Y-3495000D02*
X5545000Y-3525000D01*
X5545000Y-3495000D02*
X5515000Y-3525000D01*
X5515000Y-3595000D02*
X5545000Y-3625000D01*
X5545000Y-3595000D02*
X5515000Y-3625000D01*
X6695000Y-2875000D02*
X6725000Y-2905000D01*
X6725000Y-2875000D02*
X6695000Y-2905000D01*
X6765000Y-2875000D02*
X6795000Y-2905000D01*
X6795000Y-2875000D02*
X6765000Y-2905000D01*
X3226500Y-3360000D02*
G75*
G02*
X3193500Y-3360000I-16500J0D01*
G01*
X3193500Y-3360000D02*
G75*
G02*
X3226500Y-3360000I16500J0D01*
G01*
X3226500Y-3490000D02*
G75*
G02*
X3193500Y-3490000I-16500J0D01*
G01*
X3193500Y-3490000D02*
G75*
G02*
X3226500Y-3490000I16500J0D01*
G01*
X3356500Y-3360000D02*
G75*
G02*
X3323500Y-3360000I-16500J0D01*
G01*
X3323500Y-3360000D02*
G75*
G02*
X3356500Y-3360000I16500J0D01*
G01*
X3356500Y-3490000D02*
G75*
G02*
X3323500Y-3490000I-16500J0D01*
G01*
X3323500Y-3490000D02*
G75*
G02*
X3356500Y-3490000I16500J0D01*
G01*
X3486500Y-3360000D02*
G75*
G02*
X3453500Y-3360000I-16500J0D01*
G01*
X3453500Y-3360000D02*
G75*
G02*
X3486500Y-3360000I16500J0D01*
G01*
X3486500Y-3490000D02*
G75*
G02*
X3453500Y-3490000I-16500J0D01*
G01*
X3453500Y-3490000D02*
G75*
G02*
X3486500Y-3490000I16500J0D01*
G01*
X4496500Y-3360000D02*
G75*
G02*
X4463500Y-3360000I-16500J0D01*
G01*
X4463500Y-3360000D02*
G75*
G02*
X4496500Y-3360000I16500J0D01*
G01*
X4496500Y-3490000D02*
G75*
G02*
X4463500Y-3490000I-16500J0D01*
G01*
X4463500Y-3490000D02*
G75*
G02*
X4496500Y-3490000I16500J0D01*
G01*
X4626500Y-3360000D02*
G75*
G02*
X4593500Y-3360000I-16500J0D01*
G01*
X4593500Y-3360000D02*
G75*
G02*
X4626500Y-3360000I16500J0D01*
G01*
X4626500Y-3490000D02*
G75*
G02*
X4593500Y-3490000I-16500J0D01*
G01*
X4593500Y-3490000D02*
G75*
G02*
X4626500Y-3490000I16500J0D01*
G01*
X4756500Y-3360000D02*
G75*
G02*
X4723500Y-3360000I-16500J0D01*
G01*
X4723500Y-3360000D02*
G75*
G02*
X4756500Y-3360000I16500J0D01*
G01*
X4756500Y-3490000D02*
G75*
G02*
X4723500Y-3490000I-16500J0D01*
G01*
X4723500Y-3490000D02*
G75*
G02*
X4756500Y-3490000I16500J0D01*
G01*
X3180000Y-3900000D02*
X3180000Y-3960000D01*
X3150000Y-3930000D02*
X3210000Y-3930000D01*
X3330000Y-4680000D02*
X3330000Y-4740000D01*
X3300000Y-4710000D02*
X3360000Y-4710000D01*
X3520000Y-4680000D02*
X3520000Y-4740000D01*
X3490000Y-4710000D02*
X3550000Y-4710000D01*
X3870000Y-3800000D02*
X3870000Y-3860000D01*
X3840000Y-3830000D02*
X3900000Y-3830000D01*
X4425000Y-3905000D02*
X4425000Y-3965000D01*
X4395000Y-3935000D02*
X4455000Y-3935000D01*
X5120000Y-3030000D02*
X5120000Y-3090000D01*
X5090000Y-3060000D02*
X5150000Y-3060000D01*
X5290000Y-3030000D02*
X5290000Y-3090000D01*
X5260000Y-3060000D02*
X5320000Y-3060000D01*
X5290000Y-4120000D02*
X5290000Y-4180000D01*
X5260000Y-4150000D02*
X5320000Y-4150000D01*
X5660000Y-4570000D02*
X5660000Y-4630000D01*
X5630000Y-4600000D02*
X5690000Y-4600000D01*
X5990000Y-4700000D02*
X5990000Y-4760000D01*
X5960000Y-4730000D02*
X6020000Y-4730000D01*
X6070000Y-3810000D02*
X6070000Y-3870000D01*
X6040000Y-3840000D02*
X6100000Y-3840000D01*
X6110000Y-3290000D02*
X6110000Y-3350000D01*
X6080000Y-3320000D02*
X6140000Y-3320000D01*
X6150000Y-4700000D02*
X6150000Y-4760000D01*
X6120000Y-4730000D02*
X6180000Y-4730000D01*
X6707754Y-3967754D02*
X6707754Y-4027754D01*
X6677754Y-3997754D02*
X6737754Y-3997754D01*
X6740000Y-3350000D02*
X6740000Y-3410000D01*
X6710000Y-3380000D02*
X6770000Y-3380000D01*
X6980000Y-3010000D02*
X6980000Y-3070000D01*
X6950000Y-3040000D02*
X7010000Y-3040000D01*
X7324284Y-2938284D02*
X7324284Y-2881715D01*
X7267715Y-2881715D01*
X7267715Y-2938284D01*
X7324284Y-2938284D01*
X7832284Y-2938284D02*
X7832284Y-2881715D01*
X7775715Y-2881715D01*
X7775715Y-2938284D01*
X7832284Y-2938284D01*
X2958000Y-2866000D02*
X3008000Y-2816000D01*
X2958000Y-2766000D01*
X2908000Y-2816000D01*
X2958000Y-2866000D01*
X2958000Y-4390000D02*
X3008000Y-4340000D01*
X2958000Y-4290000D01*
X2908000Y-4340000D01*
X2958000Y-4390000D01*
X3212000Y-2866000D02*
X3262000Y-2816000D01*
X3212000Y-2766000D01*
X3162000Y-2816000D01*
X3212000Y-2866000D01*
X3212000Y-4390000D02*
X3262000Y-4340000D01*
X3212000Y-4290000D01*
X3162000Y-4340000D01*
X3212000Y-4390000D01*
X3466000Y-2866000D02*
X3516000Y-2816000D01*
X3466000Y-2766000D01*
X3416000Y-2816000D01*
X3466000Y-2866000D01*
X3466000Y-4390000D02*
X3516000Y-4340000D01*
X3466000Y-4290000D01*
X3416000Y-4340000D01*
X3466000Y-4390000D01*
X3720000Y-2866000D02*
X3770000Y-2816000D01*
X3720000Y-2766000D01*
X3670000Y-2816000D01*
X3720000Y-2866000D01*
X3720000Y-4390000D02*
X3770000Y-4340000D01*
X3720000Y-4290000D01*
X3670000Y-4340000D01*
X3720000Y-4390000D01*
X3964500Y-4740000D02*
X4014500Y-4690000D01*
X3964500Y-4640000D01*
X3914500Y-4690000D01*
X3964500Y-4740000D01*
X3974000Y-2866000D02*
X4024000Y-2816000D01*
X3974000Y-2766000D01*
X3924000Y-2816000D01*
X3974000Y-2866000D01*
X3974000Y-4390000D02*
X4024000Y-4340000D01*
X3974000Y-4290000D01*
X3924000Y-4340000D01*
X3974000Y-4390000D01*
X4218500Y-4740000D02*
X4268500Y-4690000D01*
X4218500Y-4640000D01*
X4168500Y-4690000D01*
X4218500Y-4740000D01*
X4228000Y-2866000D02*
X4278000Y-2816000D01*
X4228000Y-2766000D01*
X4178000Y-2816000D01*
X4228000Y-2866000D01*
X4228000Y-4390000D02*
X4278000Y-4340000D01*
X4228000Y-4290000D01*
X4178000Y-4340000D01*
X4228000Y-4390000D01*
X4472500Y-4740000D02*
X4522500Y-4690000D01*
X4472500Y-4640000D01*
X4422500Y-4690000D01*
X4472500Y-4740000D01*
X4482000Y-2866000D02*
X4532000Y-2816000D01*
X4482000Y-2766000D01*
X4432000Y-2816000D01*
X4482000Y-2866000D01*
X4482000Y-4390000D02*
X4532000Y-4340000D01*
X4482000Y-4290000D01*
X4432000Y-4340000D01*
X4482000Y-4390000D01*
X4736000Y-2866000D02*
X4786000Y-2816000D01*
X4736000Y-2766000D01*
X4686000Y-2816000D01*
X4736000Y-2866000D01*
X4736000Y-4390000D02*
X4786000Y-4340000D01*
X4736000Y-4290000D01*
X4686000Y-4340000D01*
X4736000Y-4390000D01*
X4867500Y-4740000D02*
X4917500Y-4690000D01*
X4867500Y-4640000D01*
X4817500Y-4690000D01*
X4867500Y-4740000D01*
X4990000Y-2866000D02*
X5040000Y-2816000D01*
X4990000Y-2766000D01*
X4940000Y-2816000D01*
X4990000Y-2866000D01*
X4990000Y-4390000D02*
X5040000Y-4340000D01*
X4990000Y-4290000D01*
X4940000Y-4340000D01*
X4990000Y-4390000D01*
X5121500Y-4740000D02*
X5171500Y-4690000D01*
X5121500Y-4640000D01*
X5071500Y-4690000D01*
X5121500Y-4740000D01*
X5244000Y-2866000D02*
X5294000Y-2816000D01*
X5244000Y-2766000D01*
X5194000Y-2816000D01*
X5244000Y-2866000D01*
X5244000Y-4390000D02*
X5294000Y-4340000D01*
X5244000Y-4290000D01*
X5194000Y-4340000D01*
X5244000Y-4390000D01*
X5375500Y-4740000D02*
X5425500Y-4690000D01*
X5375500Y-4640000D01*
X5325500Y-4690000D01*
X5375500Y-4740000D01*
X5498000Y-2866000D02*
X5548000Y-2816000D01*
X5498000Y-2766000D01*
X5448000Y-2816000D01*
X5498000Y-2866000D01*
X5498000Y-4390000D02*
X5548000Y-4340000D01*
X5498000Y-4290000D01*
X5448000Y-4340000D01*
X5498000Y-4390000D01*
X5752000Y-2866000D02*
X5802000Y-2816000D01*
X5752000Y-2766000D01*
X5702000Y-2816000D01*
X5752000Y-2866000D01*
X5752000Y-4390000D02*
X5802000Y-4340000D01*
X5752000Y-4290000D01*
X5702000Y-4340000D01*
X5752000Y-4390000D01*
X6006000Y-2866000D02*
X6056000Y-2816000D01*
X6006000Y-2766000D01*
X5956000Y-2816000D01*
X6006000Y-2866000D01*
X6006000Y-4390000D02*
X6056000Y-4340000D01*
X6006000Y-4290000D01*
X5956000Y-4340000D01*
X6006000Y-4390000D01*
X6260000Y-2866000D02*
X6310000Y-2816000D01*
X6260000Y-2766000D01*
X6210000Y-2816000D01*
X6260000Y-2866000D01*
X6260000Y-4390000D02*
X6310000Y-4340000D01*
X6260000Y-4290000D01*
X6210000Y-4340000D01*
X6260000Y-4390000D01*
X6514000Y-2866000D02*
X6564000Y-2816000D01*
X6514000Y-2766000D01*
X6464000Y-2816000D01*
X6514000Y-2866000D01*
X6514000Y-4390000D02*
X6564000Y-4340000D01*
X6514000Y-4290000D01*
X6464000Y-4340000D01*
X6514000Y-4390000D01*
X6800000Y-3250000D02*
X6850000Y-3200000D01*
X6800000Y-3150000D01*
X6750000Y-3200000D01*
X6800000Y-3250000D01*
X6800000Y-4350000D02*
X6850000Y-4300000D01*
X6800000Y-4250000D01*
X6750000Y-4300000D01*
X6800000Y-4350000D01*
D13*
X7076000Y-4420000D02*
X7196000Y-4540000D01*
X7196000Y-4420000D02*
X7076000Y-4540000D01*
X7196000Y-4480000D02*
G75*
G02*
X7076000Y-4480000I-60000J0D01*
G01*
X7076000Y-4480000D02*
G75*
G02*
X7196000Y-4480000I60000J0D01*
G01*
X7330000Y-4420000D02*
X7450000Y-4540000D01*
X7450000Y-4420000D02*
X7330000Y-4540000D01*
X7450000Y-4480000D02*
G75*
G02*
X7330000Y-4480000I-60000J0D01*
G01*
X7330000Y-4480000D02*
G75*
G02*
X7450000Y-4480000I60000J0D01*
G01*
X7746000Y-4420000D02*
X7866000Y-4540000D01*
X7866000Y-4420000D02*
X7746000Y-4540000D01*
X7866000Y-4480000D02*
G75*
G02*
X7746000Y-4480000I-60000J0D01*
G01*
X7746000Y-4480000D02*
G75*
G02*
X7866000Y-4480000I60000J0D01*
G01*
X8000000Y-4420000D02*
X8120000Y-4540000D01*
X8120000Y-4420000D02*
X8000000Y-4540000D01*
X8120000Y-4480000D02*
G75*
G02*
X8000000Y-4480000I-60000J0D01*
G01*
X8000000Y-4480000D02*
G75*
G02*
X8120000Y-4480000I60000J0D01*
G01*
D14*
X5705000Y-3405000D02*
X5895000Y-3595000D01*
X5895000Y-3405000D02*
X5705000Y-3595000D01*
X5800000Y-3405000D02*
X5800000Y-3595000D01*
X5705000Y-3500000D02*
X5895000Y-3500000D01*
X5705000Y-3905000D02*
X5895000Y-4095000D01*
X5895000Y-3905000D02*
X5705000Y-4095000D01*
X5800000Y-3905000D02*
X5800000Y-4095000D01*
X5705000Y-4000000D02*
X5895000Y-4000000D01*
D11*
X2838277Y-5173984D02*
X2838277Y-4973984D01*
X2838277Y-4973984D02*
X2885896Y-4973984D01*
X2885896Y-4973984D02*
X2914467Y-4983508D01*
X2914467Y-4983508D02*
X2933515Y-5002555D01*
X2933515Y-5002555D02*
X2943039Y-5021603D01*
X2943039Y-5021603D02*
X2952562Y-5059698D01*
X2952562Y-5059698D02*
X2952562Y-5088270D01*
X2952562Y-5088270D02*
X2943039Y-5126365D01*
X2943039Y-5126365D02*
X2933515Y-5145412D01*
X2933515Y-5145412D02*
X2914467Y-5164460D01*
X2914467Y-5164460D02*
X2885896Y-5173984D01*
X2885896Y-5173984D02*
X2838277Y-5173984D01*
X3038277Y-5173984D02*
X3038277Y-5040650D01*
X3038277Y-5078746D02*
X3047801Y-5059698D01*
X3047801Y-5059698D02*
X3057324Y-5050174D01*
X3057324Y-5050174D02*
X3076372Y-5040650D01*
X3076372Y-5040650D02*
X3095420Y-5040650D01*
X3162086Y-5173984D02*
X3162086Y-5040650D01*
X3162086Y-4973984D02*
X3152562Y-4983508D01*
X3152562Y-4983508D02*
X3162086Y-4993031D01*
X3162086Y-4993031D02*
X3171610Y-4983508D01*
X3171610Y-4983508D02*
X3162086Y-4973984D01*
X3162086Y-4973984D02*
X3162086Y-4993031D01*
X3285896Y-5173984D02*
X3266848Y-5164460D01*
X3266848Y-5164460D02*
X3257324Y-5145412D01*
X3257324Y-5145412D02*
X3257324Y-4973984D01*
X3390658Y-5173984D02*
X3371610Y-5164460D01*
X3371610Y-5164460D02*
X3362086Y-5145412D01*
X3362086Y-5145412D02*
X3362086Y-4973984D01*
X3619229Y-5173984D02*
X3619229Y-4973984D01*
X3619229Y-4973984D02*
X3685896Y-5116841D01*
X3685896Y-5116841D02*
X3752562Y-4973984D01*
X3752562Y-4973984D02*
X3752562Y-5173984D01*
X3933515Y-5173984D02*
X3933515Y-5069222D01*
X3933515Y-5069222D02*
X3923991Y-5050174D01*
X3923991Y-5050174D02*
X3904943Y-5040650D01*
X3904943Y-5040650D02*
X3866848Y-5040650D01*
X3866848Y-5040650D02*
X3847801Y-5050174D01*
X3933515Y-5164460D02*
X3914467Y-5173984D01*
X3914467Y-5173984D02*
X3866848Y-5173984D01*
X3866848Y-5173984D02*
X3847801Y-5164460D01*
X3847801Y-5164460D02*
X3838277Y-5145412D01*
X3838277Y-5145412D02*
X3838277Y-5126365D01*
X3838277Y-5126365D02*
X3847801Y-5107317D01*
X3847801Y-5107317D02*
X3866848Y-5097793D01*
X3866848Y-5097793D02*
X3914467Y-5097793D01*
X3914467Y-5097793D02*
X3933515Y-5088270D01*
X4028753Y-5040650D02*
X4028753Y-5240650D01*
X4028753Y-5050174D02*
X4047801Y-5040650D01*
X4047801Y-5040650D02*
X4085896Y-5040650D01*
X4085896Y-5040650D02*
X4104943Y-5050174D01*
X4104943Y-5050174D02*
X4114467Y-5059698D01*
X4114467Y-5059698D02*
X4123991Y-5078746D01*
X4123991Y-5078746D02*
X4123991Y-5135889D01*
X4123991Y-5135889D02*
X4114467Y-5154936D01*
X4114467Y-5154936D02*
X4104943Y-5164460D01*
X4104943Y-5164460D02*
X4085896Y-5173984D01*
X4085896Y-5173984D02*
X4047801Y-5173984D01*
X4047801Y-5173984D02*
X4028753Y-5164460D01*
X4209705Y-5154936D02*
X4219229Y-5164460D01*
X4219229Y-5164460D02*
X4209705Y-5173984D01*
X4209705Y-5173984D02*
X4200182Y-5164460D01*
X4200182Y-5164460D02*
X4209705Y-5154936D01*
X4209705Y-5154936D02*
X4209705Y-5173984D01*
X4209705Y-5050174D02*
X4219229Y-5059698D01*
X4219229Y-5059698D02*
X4209705Y-5069222D01*
X4209705Y-5069222D02*
X4200182Y-5059698D01*
X4200182Y-5059698D02*
X4209705Y-5050174D01*
X4209705Y-5050174D02*
X4209705Y-5069222D01*
D12*
X2547500Y-5487500D02*
X2577500Y-5517500D01*
X2577500Y-5487500D02*
X2547500Y-5517500D01*
D11*
X2876372Y-5393984D02*
X2895420Y-5393984D01*
X2895420Y-5393984D02*
X2914467Y-5403508D01*
X2914467Y-5403508D02*
X2923991Y-5413031D01*
X2923991Y-5413031D02*
X2933515Y-5432079D01*
X2933515Y-5432079D02*
X2943039Y-5470174D01*
X2943039Y-5470174D02*
X2943039Y-5517793D01*
X2943039Y-5517793D02*
X2933515Y-5555889D01*
X2933515Y-5555889D02*
X2923991Y-5574936D01*
X2923991Y-5574936D02*
X2914467Y-5584460D01*
X2914467Y-5584460D02*
X2895420Y-5593984D01*
X2895420Y-5593984D02*
X2876372Y-5593984D01*
X2876372Y-5593984D02*
X2857324Y-5584460D01*
X2857324Y-5584460D02*
X2847801Y-5574936D01*
X2847801Y-5574936D02*
X2838277Y-5555889D01*
X2838277Y-5555889D02*
X2828753Y-5517793D01*
X2828753Y-5517793D02*
X2828753Y-5470174D01*
X2828753Y-5470174D02*
X2838277Y-5432079D01*
X2838277Y-5432079D02*
X2847801Y-5413031D01*
X2847801Y-5413031D02*
X2857324Y-5403508D01*
X2857324Y-5403508D02*
X2876372Y-5393984D01*
X3028753Y-5574936D02*
X3038277Y-5584460D01*
X3038277Y-5584460D02*
X3028753Y-5593984D01*
X3028753Y-5593984D02*
X3019229Y-5584460D01*
X3019229Y-5584460D02*
X3028753Y-5574936D01*
X3028753Y-5574936D02*
X3028753Y-5593984D01*
X3104943Y-5393984D02*
X3228753Y-5393984D01*
X3228753Y-5393984D02*
X3162086Y-5470174D01*
X3162086Y-5470174D02*
X3190658Y-5470174D01*
X3190658Y-5470174D02*
X3209705Y-5479698D01*
X3209705Y-5479698D02*
X3219229Y-5489222D01*
X3219229Y-5489222D02*
X3228753Y-5508270D01*
X3228753Y-5508270D02*
X3228753Y-5555889D01*
X3228753Y-5555889D02*
X3219229Y-5574936D01*
X3219229Y-5574936D02*
X3209705Y-5584460D01*
X3209705Y-5584460D02*
X3190658Y-5593984D01*
X3190658Y-5593984D02*
X3133515Y-5593984D01*
X3133515Y-5593984D02*
X3114467Y-5584460D01*
X3114467Y-5584460D02*
X3104943Y-5574936D01*
X3352562Y-5393984D02*
X3371610Y-5393984D01*
X3371610Y-5393984D02*
X3390658Y-5403508D01*
X3390658Y-5403508D02*
X3400182Y-5413031D01*
X3400182Y-5413031D02*
X3409705Y-5432079D01*
X3409705Y-5432079D02*
X3419229Y-5470174D01*
X3419229Y-5470174D02*
X3419229Y-5517793D01*
X3419229Y-5517793D02*
X3409705Y-5555889D01*
X3409705Y-5555889D02*
X3400182Y-5574936D01*
X3400182Y-5574936D02*
X3390658Y-5584460D01*
X3390658Y-5584460D02*
X3371610Y-5593984D01*
X3371610Y-5593984D02*
X3352562Y-5593984D01*
X3352562Y-5593984D02*
X3333515Y-5584460D01*
X3333515Y-5584460D02*
X3323991Y-5574936D01*
X3323991Y-5574936D02*
X3314467Y-5555889D01*
X3314467Y-5555889D02*
X3304943Y-5517793D01*
X3304943Y-5517793D02*
X3304943Y-5470174D01*
X3304943Y-5470174D02*
X3314467Y-5432079D01*
X3314467Y-5432079D02*
X3323991Y-5413031D01*
X3323991Y-5413031D02*
X3333515Y-5403508D01*
X3333515Y-5403508D02*
X3352562Y-5393984D01*
X3543039Y-5393984D02*
X3562086Y-5393984D01*
X3562086Y-5393984D02*
X3581134Y-5403508D01*
X3581134Y-5403508D02*
X3590658Y-5413031D01*
X3590658Y-5413031D02*
X3600182Y-5432079D01*
X3600182Y-5432079D02*
X3609705Y-5470174D01*
X3609705Y-5470174D02*
X3609705Y-5517793D01*
X3609705Y-5517793D02*
X3600182Y-5555889D01*
X3600182Y-5555889D02*
X3590658Y-5574936D01*
X3590658Y-5574936D02*
X3581134Y-5584460D01*
X3581134Y-5584460D02*
X3562086Y-5593984D01*
X3562086Y-5593984D02*
X3543039Y-5593984D01*
X3543039Y-5593984D02*
X3523991Y-5584460D01*
X3523991Y-5584460D02*
X3514467Y-5574936D01*
X3514467Y-5574936D02*
X3504943Y-5555889D01*
X3504943Y-5555889D02*
X3495420Y-5517793D01*
X3495420Y-5517793D02*
X3495420Y-5470174D01*
X3495420Y-5470174D02*
X3504943Y-5432079D01*
X3504943Y-5432079D02*
X3514467Y-5413031D01*
X3514467Y-5413031D02*
X3523991Y-5403508D01*
X3523991Y-5403508D02*
X3543039Y-5393984D01*
X3695420Y-5593984D02*
X3695420Y-5460650D01*
X3695420Y-5479698D02*
X3704943Y-5470174D01*
X3704943Y-5470174D02*
X3723991Y-5460650D01*
X3723991Y-5460650D02*
X3752563Y-5460650D01*
X3752563Y-5460650D02*
X3771610Y-5470174D01*
X3771610Y-5470174D02*
X3781134Y-5489222D01*
X3781134Y-5489222D02*
X3781134Y-5593984D01*
X3781134Y-5489222D02*
X3790658Y-5470174D01*
X3790658Y-5470174D02*
X3809705Y-5460650D01*
X3809705Y-5460650D02*
X3838277Y-5460650D01*
X3838277Y-5460650D02*
X3857324Y-5470174D01*
X3857324Y-5470174D02*
X3866848Y-5489222D01*
X3866848Y-5489222D02*
X3866848Y-5593984D01*
X3962086Y-5593984D02*
X3962086Y-5460650D01*
X3962086Y-5479698D02*
X3971610Y-5470174D01*
X3971610Y-5470174D02*
X3990658Y-5460650D01*
X3990658Y-5460650D02*
X4019229Y-5460650D01*
X4019229Y-5460650D02*
X4038277Y-5470174D01*
X4038277Y-5470174D02*
X4047801Y-5489222D01*
X4047801Y-5489222D02*
X4047801Y-5593984D01*
X4047801Y-5489222D02*
X4057324Y-5470174D01*
X4057324Y-5470174D02*
X4076372Y-5460650D01*
X4076372Y-5460650D02*
X4104943Y-5460650D01*
X4104943Y-5460650D02*
X4123991Y-5470174D01*
X4123991Y-5470174D02*
X4133515Y-5489222D01*
X4133515Y-5489222D02*
X4133515Y-5593984D01*
X4523991Y-5384460D02*
X4352563Y-5641603D01*
X4781134Y-5393984D02*
X4800182Y-5393984D01*
X4800182Y-5393984D02*
X4819229Y-5403508D01*
X4819229Y-5403508D02*
X4828753Y-5413031D01*
X4828753Y-5413031D02*
X4838277Y-5432079D01*
X4838277Y-5432079D02*
X4847801Y-5470174D01*
X4847801Y-5470174D02*
X4847801Y-5517793D01*
X4847801Y-5517793D02*
X4838277Y-5555889D01*
X4838277Y-5555889D02*
X4828753Y-5574936D01*
X4828753Y-5574936D02*
X4819229Y-5584460D01*
X4819229Y-5584460D02*
X4800182Y-5593984D01*
X4800182Y-5593984D02*
X4781134Y-5593984D01*
X4781134Y-5593984D02*
X4762087Y-5584460D01*
X4762087Y-5584460D02*
X4752563Y-5574936D01*
X4752563Y-5574936D02*
X4743039Y-5555889D01*
X4743039Y-5555889D02*
X4733515Y-5517793D01*
X4733515Y-5517793D02*
X4733515Y-5470174D01*
X4733515Y-5470174D02*
X4743039Y-5432079D01*
X4743039Y-5432079D02*
X4752563Y-5413031D01*
X4752563Y-5413031D02*
X4762087Y-5403508D01*
X4762087Y-5403508D02*
X4781134Y-5393984D01*
X4933515Y-5574936D02*
X4943039Y-5584460D01*
X4943039Y-5584460D02*
X4933515Y-5593984D01*
X4933515Y-5593984D02*
X4923991Y-5584460D01*
X4923991Y-5584460D02*
X4933515Y-5574936D01*
X4933515Y-5574936D02*
X4933515Y-5593984D01*
X5066848Y-5393984D02*
X5085896Y-5393984D01*
X5085896Y-5393984D02*
X5104944Y-5403508D01*
X5104944Y-5403508D02*
X5114468Y-5413031D01*
X5114468Y-5413031D02*
X5123991Y-5432079D01*
X5123991Y-5432079D02*
X5133515Y-5470174D01*
X5133515Y-5470174D02*
X5133515Y-5517793D01*
X5133515Y-5517793D02*
X5123991Y-5555889D01*
X5123991Y-5555889D02*
X5114468Y-5574936D01*
X5114468Y-5574936D02*
X5104944Y-5584460D01*
X5104944Y-5584460D02*
X5085896Y-5593984D01*
X5085896Y-5593984D02*
X5066848Y-5593984D01*
X5066848Y-5593984D02*
X5047801Y-5584460D01*
X5047801Y-5584460D02*
X5038277Y-5574936D01*
X5038277Y-5574936D02*
X5028753Y-5555889D01*
X5028753Y-5555889D02*
X5019229Y-5517793D01*
X5019229Y-5517793D02*
X5019229Y-5470174D01*
X5019229Y-5470174D02*
X5028753Y-5432079D01*
X5028753Y-5432079D02*
X5038277Y-5413031D01*
X5038277Y-5413031D02*
X5047801Y-5403508D01*
X5047801Y-5403508D02*
X5066848Y-5393984D01*
X5323991Y-5593984D02*
X5209706Y-5593984D01*
X5266848Y-5593984D02*
X5266848Y-5393984D01*
X5266848Y-5393984D02*
X5247801Y-5422555D01*
X5247801Y-5422555D02*
X5228753Y-5441603D01*
X5228753Y-5441603D02*
X5209706Y-5451127D01*
X5514468Y-5593984D02*
X5400182Y-5593984D01*
X5457325Y-5593984D02*
X5457325Y-5393984D01*
X5457325Y-5393984D02*
X5438277Y-5422555D01*
X5438277Y-5422555D02*
X5419229Y-5441603D01*
X5419229Y-5441603D02*
X5400182Y-5451127D01*
X5628753Y-5479698D02*
X5609706Y-5470174D01*
X5609706Y-5470174D02*
X5600182Y-5460650D01*
X5600182Y-5460650D02*
X5590658Y-5441603D01*
X5590658Y-5441603D02*
X5590658Y-5432079D01*
X5590658Y-5432079D02*
X5600182Y-5413031D01*
X5600182Y-5413031D02*
X5609706Y-5403508D01*
X5609706Y-5403508D02*
X5628753Y-5393984D01*
X5628753Y-5393984D02*
X5666848Y-5393984D01*
X5666848Y-5393984D02*
X5685896Y-5403508D01*
X5685896Y-5403508D02*
X5695420Y-5413031D01*
X5695420Y-5413031D02*
X5704944Y-5432079D01*
X5704944Y-5432079D02*
X5704944Y-5441603D01*
X5704944Y-5441603D02*
X5695420Y-5460650D01*
X5695420Y-5460650D02*
X5685896Y-5470174D01*
X5685896Y-5470174D02*
X5666848Y-5479698D01*
X5666848Y-5479698D02*
X5628753Y-5479698D01*
X5628753Y-5479698D02*
X5609706Y-5489222D01*
X5609706Y-5489222D02*
X5600182Y-5498746D01*
X5600182Y-5498746D02*
X5590658Y-5517793D01*
X5590658Y-5517793D02*
X5590658Y-5555889D01*
X5590658Y-5555889D02*
X5600182Y-5574936D01*
X5600182Y-5574936D02*
X5609706Y-5584460D01*
X5609706Y-5584460D02*
X5628753Y-5593984D01*
X5628753Y-5593984D02*
X5666848Y-5593984D01*
X5666848Y-5593984D02*
X5685896Y-5584460D01*
X5685896Y-5584460D02*
X5695420Y-5574936D01*
X5695420Y-5574936D02*
X5704944Y-5555889D01*
X5704944Y-5555889D02*
X5704944Y-5517793D01*
X5704944Y-5517793D02*
X5695420Y-5498746D01*
X5695420Y-5498746D02*
X5685896Y-5489222D01*
X5685896Y-5489222D02*
X5666848Y-5479698D01*
X5781134Y-5393984D02*
X5781134Y-5432079D01*
X5857325Y-5393984D02*
X5857325Y-5432079D01*
X6152563Y-5670174D02*
X6143039Y-5660650D01*
X6143039Y-5660650D02*
X6123991Y-5632079D01*
X6123991Y-5632079D02*
X6114468Y-5613031D01*
X6114468Y-5613031D02*
X6104944Y-5584460D01*
X6104944Y-5584460D02*
X6095420Y-5536841D01*
X6095420Y-5536841D02*
X6095420Y-5498746D01*
X6095420Y-5498746D02*
X6104944Y-5451127D01*
X6104944Y-5451127D02*
X6114468Y-5422555D01*
X6114468Y-5422555D02*
X6123991Y-5403508D01*
X6123991Y-5403508D02*
X6143039Y-5374936D01*
X6143039Y-5374936D02*
X6152563Y-5365412D01*
X6323991Y-5393984D02*
X6228753Y-5393984D01*
X6228753Y-5393984D02*
X6219229Y-5489222D01*
X6219229Y-5489222D02*
X6228753Y-5479698D01*
X6228753Y-5479698D02*
X6247801Y-5470174D01*
X6247801Y-5470174D02*
X6295420Y-5470174D01*
X6295420Y-5470174D02*
X6314468Y-5479698D01*
X6314468Y-5479698D02*
X6323991Y-5489222D01*
X6323991Y-5489222D02*
X6333515Y-5508270D01*
X6333515Y-5508270D02*
X6333515Y-5555889D01*
X6333515Y-5555889D02*
X6323991Y-5574936D01*
X6323991Y-5574936D02*
X6314468Y-5584460D01*
X6314468Y-5584460D02*
X6295420Y-5593984D01*
X6295420Y-5593984D02*
X6247801Y-5593984D01*
X6247801Y-5593984D02*
X6228753Y-5584460D01*
X6228753Y-5584460D02*
X6219229Y-5574936D01*
X6571610Y-5593984D02*
X6571610Y-5393984D01*
X6657325Y-5593984D02*
X6657325Y-5489222D01*
X6657325Y-5489222D02*
X6647801Y-5470174D01*
X6647801Y-5470174D02*
X6628753Y-5460650D01*
X6628753Y-5460650D02*
X6600182Y-5460650D01*
X6600182Y-5460650D02*
X6581134Y-5470174D01*
X6581134Y-5470174D02*
X6571610Y-5479698D01*
X6781134Y-5593984D02*
X6762087Y-5584460D01*
X6762087Y-5584460D02*
X6752563Y-5574936D01*
X6752563Y-5574936D02*
X6743039Y-5555889D01*
X6743039Y-5555889D02*
X6743039Y-5498746D01*
X6743039Y-5498746D02*
X6752563Y-5479698D01*
X6752563Y-5479698D02*
X6762087Y-5470174D01*
X6762087Y-5470174D02*
X6781134Y-5460650D01*
X6781134Y-5460650D02*
X6809706Y-5460650D01*
X6809706Y-5460650D02*
X6828753Y-5470174D01*
X6828753Y-5470174D02*
X6838277Y-5479698D01*
X6838277Y-5479698D02*
X6847801Y-5498746D01*
X6847801Y-5498746D02*
X6847801Y-5555889D01*
X6847801Y-5555889D02*
X6838277Y-5574936D01*
X6838277Y-5574936D02*
X6828753Y-5584460D01*
X6828753Y-5584460D02*
X6809706Y-5593984D01*
X6809706Y-5593984D02*
X6781134Y-5593984D01*
X6962087Y-5593984D02*
X6943039Y-5584460D01*
X6943039Y-5584460D02*
X6933515Y-5565412D01*
X6933515Y-5565412D02*
X6933515Y-5393984D01*
X7114468Y-5584460D02*
X7095420Y-5593984D01*
X7095420Y-5593984D02*
X7057325Y-5593984D01*
X7057325Y-5593984D02*
X7038277Y-5584460D01*
X7038277Y-5584460D02*
X7028753Y-5565412D01*
X7028753Y-5565412D02*
X7028753Y-5489222D01*
X7028753Y-5489222D02*
X7038277Y-5470174D01*
X7038277Y-5470174D02*
X7057325Y-5460650D01*
X7057325Y-5460650D02*
X7095420Y-5460650D01*
X7095420Y-5460650D02*
X7114468Y-5470174D01*
X7114468Y-5470174D02*
X7123991Y-5489222D01*
X7123991Y-5489222D02*
X7123991Y-5508270D01*
X7123991Y-5508270D02*
X7028753Y-5527317D01*
X7200182Y-5584460D02*
X7219230Y-5593984D01*
X7219230Y-5593984D02*
X7257325Y-5593984D01*
X7257325Y-5593984D02*
X7276372Y-5584460D01*
X7276372Y-5584460D02*
X7285896Y-5565412D01*
X7285896Y-5565412D02*
X7285896Y-5555889D01*
X7285896Y-5555889D02*
X7276372Y-5536841D01*
X7276372Y-5536841D02*
X7257325Y-5527317D01*
X7257325Y-5527317D02*
X7228753Y-5527317D01*
X7228753Y-5527317D02*
X7209706Y-5517793D01*
X7209706Y-5517793D02*
X7200182Y-5498746D01*
X7200182Y-5498746D02*
X7200182Y-5489222D01*
X7200182Y-5489222D02*
X7209706Y-5470174D01*
X7209706Y-5470174D02*
X7228753Y-5460650D01*
X7228753Y-5460650D02*
X7257325Y-5460650D01*
X7257325Y-5460650D02*
X7276372Y-5470174D01*
X7352563Y-5670174D02*
X7362087Y-5660650D01*
X7362087Y-5660650D02*
X7381134Y-5632079D01*
X7381134Y-5632079D02*
X7390658Y-5613031D01*
X7390658Y-5613031D02*
X7400182Y-5584460D01*
X7400182Y-5584460D02*
X7409706Y-5536841D01*
X7409706Y-5536841D02*
X7409706Y-5498746D01*
X7409706Y-5498746D02*
X7400182Y-5451127D01*
X7400182Y-5451127D02*
X7390658Y-5422555D01*
X7390658Y-5422555D02*
X7381134Y-5403508D01*
X7381134Y-5403508D02*
X7362087Y-5374936D01*
X7362087Y-5374936D02*
X7352563Y-5365412D01*
D12*
X2577500Y-5766500D02*
G75*
G02*
X2544500Y-5766500I-16500J0D01*
G01*
X2544500Y-5766500D02*
G75*
G02*
X2577500Y-5766500I16500J0D01*
G01*
D11*
X2876372Y-5657984D02*
X2895420Y-5657984D01*
X2895420Y-5657984D02*
X2914467Y-5667508D01*
X2914467Y-5667508D02*
X2923991Y-5677031D01*
X2923991Y-5677031D02*
X2933515Y-5696079D01*
X2933515Y-5696079D02*
X2943039Y-5734174D01*
X2943039Y-5734174D02*
X2943039Y-5781793D01*
X2943039Y-5781793D02*
X2933515Y-5819888D01*
X2933515Y-5819888D02*
X2923991Y-5838936D01*
X2923991Y-5838936D02*
X2914467Y-5848460D01*
X2914467Y-5848460D02*
X2895420Y-5857984D01*
X2895420Y-5857984D02*
X2876372Y-5857984D01*
X2876372Y-5857984D02*
X2857324Y-5848460D01*
X2857324Y-5848460D02*
X2847801Y-5838936D01*
X2847801Y-5838936D02*
X2838277Y-5819888D01*
X2838277Y-5819888D02*
X2828753Y-5781793D01*
X2828753Y-5781793D02*
X2828753Y-5734174D01*
X2828753Y-5734174D02*
X2838277Y-5696079D01*
X2838277Y-5696079D02*
X2847801Y-5677031D01*
X2847801Y-5677031D02*
X2857324Y-5667508D01*
X2857324Y-5667508D02*
X2876372Y-5657984D01*
X3028753Y-5838936D02*
X3038277Y-5848460D01*
X3038277Y-5848460D02*
X3028753Y-5857984D01*
X3028753Y-5857984D02*
X3019229Y-5848460D01*
X3019229Y-5848460D02*
X3028753Y-5838936D01*
X3028753Y-5838936D02*
X3028753Y-5857984D01*
X3104943Y-5657984D02*
X3228753Y-5657984D01*
X3228753Y-5657984D02*
X3162086Y-5734174D01*
X3162086Y-5734174D02*
X3190658Y-5734174D01*
X3190658Y-5734174D02*
X3209705Y-5743698D01*
X3209705Y-5743698D02*
X3219229Y-5753222D01*
X3219229Y-5753222D02*
X3228753Y-5772269D01*
X3228753Y-5772269D02*
X3228753Y-5819888D01*
X3228753Y-5819888D02*
X3219229Y-5838936D01*
X3219229Y-5838936D02*
X3209705Y-5848460D01*
X3209705Y-5848460D02*
X3190658Y-5857984D01*
X3190658Y-5857984D02*
X3133515Y-5857984D01*
X3133515Y-5857984D02*
X3114467Y-5848460D01*
X3114467Y-5848460D02*
X3104943Y-5838936D01*
X3295420Y-5657984D02*
X3419229Y-5657984D01*
X3419229Y-5657984D02*
X3352562Y-5734174D01*
X3352562Y-5734174D02*
X3381134Y-5734174D01*
X3381134Y-5734174D02*
X3400182Y-5743698D01*
X3400182Y-5743698D02*
X3409705Y-5753222D01*
X3409705Y-5753222D02*
X3419229Y-5772269D01*
X3419229Y-5772269D02*
X3419229Y-5819888D01*
X3419229Y-5819888D02*
X3409705Y-5838936D01*
X3409705Y-5838936D02*
X3400182Y-5848460D01*
X3400182Y-5848460D02*
X3381134Y-5857984D01*
X3381134Y-5857984D02*
X3323991Y-5857984D01*
X3323991Y-5857984D02*
X3304943Y-5848460D01*
X3304943Y-5848460D02*
X3295420Y-5838936D01*
X3543039Y-5657984D02*
X3562086Y-5657984D01*
X3562086Y-5657984D02*
X3581134Y-5667508D01*
X3581134Y-5667508D02*
X3590658Y-5677031D01*
X3590658Y-5677031D02*
X3600182Y-5696079D01*
X3600182Y-5696079D02*
X3609705Y-5734174D01*
X3609705Y-5734174D02*
X3609705Y-5781793D01*
X3609705Y-5781793D02*
X3600182Y-5819888D01*
X3600182Y-5819888D02*
X3590658Y-5838936D01*
X3590658Y-5838936D02*
X3581134Y-5848460D01*
X3581134Y-5848460D02*
X3562086Y-5857984D01*
X3562086Y-5857984D02*
X3543039Y-5857984D01*
X3543039Y-5857984D02*
X3523991Y-5848460D01*
X3523991Y-5848460D02*
X3514467Y-5838936D01*
X3514467Y-5838936D02*
X3504943Y-5819888D01*
X3504943Y-5819888D02*
X3495420Y-5781793D01*
X3495420Y-5781793D02*
X3495420Y-5734174D01*
X3495420Y-5734174D02*
X3504943Y-5696079D01*
X3504943Y-5696079D02*
X3514467Y-5677031D01*
X3514467Y-5677031D02*
X3523991Y-5667508D01*
X3523991Y-5667508D02*
X3543039Y-5657984D01*
X3695420Y-5857984D02*
X3695420Y-5724650D01*
X3695420Y-5743698D02*
X3704943Y-5734174D01*
X3704943Y-5734174D02*
X3723991Y-5724650D01*
X3723991Y-5724650D02*
X3752563Y-5724650D01*
X3752563Y-5724650D02*
X3771610Y-5734174D01*
X3771610Y-5734174D02*
X3781134Y-5753222D01*
X3781134Y-5753222D02*
X3781134Y-5857984D01*
X3781134Y-5753222D02*
X3790658Y-5734174D01*
X3790658Y-5734174D02*
X3809705Y-5724650D01*
X3809705Y-5724650D02*
X3838277Y-5724650D01*
X3838277Y-5724650D02*
X3857324Y-5734174D01*
X3857324Y-5734174D02*
X3866848Y-5753222D01*
X3866848Y-5753222D02*
X3866848Y-5857984D01*
X3962086Y-5857984D02*
X3962086Y-5724650D01*
X3962086Y-5743698D02*
X3971610Y-5734174D01*
X3971610Y-5734174D02*
X3990658Y-5724650D01*
X3990658Y-5724650D02*
X4019229Y-5724650D01*
X4019229Y-5724650D02*
X4038277Y-5734174D01*
X4038277Y-5734174D02*
X4047801Y-5753222D01*
X4047801Y-5753222D02*
X4047801Y-5857984D01*
X4047801Y-5753222D02*
X4057324Y-5734174D01*
X4057324Y-5734174D02*
X4076372Y-5724650D01*
X4076372Y-5724650D02*
X4104943Y-5724650D01*
X4104943Y-5724650D02*
X4123991Y-5734174D01*
X4123991Y-5734174D02*
X4133515Y-5753222D01*
X4133515Y-5753222D02*
X4133515Y-5857984D01*
X4523991Y-5648460D02*
X4352563Y-5905603D01*
X4781134Y-5657984D02*
X4800182Y-5657984D01*
X4800182Y-5657984D02*
X4819229Y-5667508D01*
X4819229Y-5667508D02*
X4828753Y-5677031D01*
X4828753Y-5677031D02*
X4838277Y-5696079D01*
X4838277Y-5696079D02*
X4847801Y-5734174D01*
X4847801Y-5734174D02*
X4847801Y-5781793D01*
X4847801Y-5781793D02*
X4838277Y-5819888D01*
X4838277Y-5819888D02*
X4828753Y-5838936D01*
X4828753Y-5838936D02*
X4819229Y-5848460D01*
X4819229Y-5848460D02*
X4800182Y-5857984D01*
X4800182Y-5857984D02*
X4781134Y-5857984D01*
X4781134Y-5857984D02*
X4762087Y-5848460D01*
X4762087Y-5848460D02*
X4752563Y-5838936D01*
X4752563Y-5838936D02*
X4743039Y-5819888D01*
X4743039Y-5819888D02*
X4733515Y-5781793D01*
X4733515Y-5781793D02*
X4733515Y-5734174D01*
X4733515Y-5734174D02*
X4743039Y-5696079D01*
X4743039Y-5696079D02*
X4752563Y-5677031D01*
X4752563Y-5677031D02*
X4762087Y-5667508D01*
X4762087Y-5667508D02*
X4781134Y-5657984D01*
X4933515Y-5838936D02*
X4943039Y-5848460D01*
X4943039Y-5848460D02*
X4933515Y-5857984D01*
X4933515Y-5857984D02*
X4923991Y-5848460D01*
X4923991Y-5848460D02*
X4933515Y-5838936D01*
X4933515Y-5838936D02*
X4933515Y-5857984D01*
X5066848Y-5657984D02*
X5085896Y-5657984D01*
X5085896Y-5657984D02*
X5104944Y-5667508D01*
X5104944Y-5667508D02*
X5114468Y-5677031D01*
X5114468Y-5677031D02*
X5123991Y-5696079D01*
X5123991Y-5696079D02*
X5133515Y-5734174D01*
X5133515Y-5734174D02*
X5133515Y-5781793D01*
X5133515Y-5781793D02*
X5123991Y-5819888D01*
X5123991Y-5819888D02*
X5114468Y-5838936D01*
X5114468Y-5838936D02*
X5104944Y-5848460D01*
X5104944Y-5848460D02*
X5085896Y-5857984D01*
X5085896Y-5857984D02*
X5066848Y-5857984D01*
X5066848Y-5857984D02*
X5047801Y-5848460D01*
X5047801Y-5848460D02*
X5038277Y-5838936D01*
X5038277Y-5838936D02*
X5028753Y-5819888D01*
X5028753Y-5819888D02*
X5019229Y-5781793D01*
X5019229Y-5781793D02*
X5019229Y-5734174D01*
X5019229Y-5734174D02*
X5028753Y-5696079D01*
X5028753Y-5696079D02*
X5038277Y-5677031D01*
X5038277Y-5677031D02*
X5047801Y-5667508D01*
X5047801Y-5667508D02*
X5066848Y-5657984D01*
X5323991Y-5857984D02*
X5209706Y-5857984D01*
X5266848Y-5857984D02*
X5266848Y-5657984D01*
X5266848Y-5657984D02*
X5247801Y-5686555D01*
X5247801Y-5686555D02*
X5228753Y-5705603D01*
X5228753Y-5705603D02*
X5209706Y-5715127D01*
X5390658Y-5657984D02*
X5514468Y-5657984D01*
X5514468Y-5657984D02*
X5447801Y-5734174D01*
X5447801Y-5734174D02*
X5476372Y-5734174D01*
X5476372Y-5734174D02*
X5495420Y-5743698D01*
X5495420Y-5743698D02*
X5504944Y-5753222D01*
X5504944Y-5753222D02*
X5514468Y-5772269D01*
X5514468Y-5772269D02*
X5514468Y-5819888D01*
X5514468Y-5819888D02*
X5504944Y-5838936D01*
X5504944Y-5838936D02*
X5495420Y-5848460D01*
X5495420Y-5848460D02*
X5476372Y-5857984D01*
X5476372Y-5857984D02*
X5419229Y-5857984D01*
X5419229Y-5857984D02*
X5400182Y-5848460D01*
X5400182Y-5848460D02*
X5390658Y-5838936D01*
X5638277Y-5657984D02*
X5657325Y-5657984D01*
X5657325Y-5657984D02*
X5676372Y-5667508D01*
X5676372Y-5667508D02*
X5685896Y-5677031D01*
X5685896Y-5677031D02*
X5695420Y-5696079D01*
X5695420Y-5696079D02*
X5704944Y-5734174D01*
X5704944Y-5734174D02*
X5704944Y-5781793D01*
X5704944Y-5781793D02*
X5695420Y-5819888D01*
X5695420Y-5819888D02*
X5685896Y-5838936D01*
X5685896Y-5838936D02*
X5676372Y-5848460D01*
X5676372Y-5848460D02*
X5657325Y-5857984D01*
X5657325Y-5857984D02*
X5638277Y-5857984D01*
X5638277Y-5857984D02*
X5619229Y-5848460D01*
X5619229Y-5848460D02*
X5609706Y-5838936D01*
X5609706Y-5838936D02*
X5600182Y-5819888D01*
X5600182Y-5819888D02*
X5590658Y-5781793D01*
X5590658Y-5781793D02*
X5590658Y-5734174D01*
X5590658Y-5734174D02*
X5600182Y-5696079D01*
X5600182Y-5696079D02*
X5609706Y-5677031D01*
X5609706Y-5677031D02*
X5619229Y-5667508D01*
X5619229Y-5667508D02*
X5638277Y-5657984D01*
X5781134Y-5657984D02*
X5781134Y-5696079D01*
X5857325Y-5657984D02*
X5857325Y-5696079D01*
X6152563Y-5934174D02*
X6143039Y-5924650D01*
X6143039Y-5924650D02*
X6123991Y-5896079D01*
X6123991Y-5896079D02*
X6114468Y-5877031D01*
X6114468Y-5877031D02*
X6104944Y-5848460D01*
X6104944Y-5848460D02*
X6095420Y-5800841D01*
X6095420Y-5800841D02*
X6095420Y-5762746D01*
X6095420Y-5762746D02*
X6104944Y-5715127D01*
X6104944Y-5715127D02*
X6114468Y-5686555D01*
X6114468Y-5686555D02*
X6123991Y-5667508D01*
X6123991Y-5667508D02*
X6143039Y-5638936D01*
X6143039Y-5638936D02*
X6152563Y-5629412D01*
X6333515Y-5857984D02*
X6219229Y-5857984D01*
X6276372Y-5857984D02*
X6276372Y-5657984D01*
X6276372Y-5657984D02*
X6257325Y-5686555D01*
X6257325Y-5686555D02*
X6238277Y-5705603D01*
X6238277Y-5705603D02*
X6219229Y-5715127D01*
X6409706Y-5677031D02*
X6419229Y-5667508D01*
X6419229Y-5667508D02*
X6438277Y-5657984D01*
X6438277Y-5657984D02*
X6485896Y-5657984D01*
X6485896Y-5657984D02*
X6504944Y-5667508D01*
X6504944Y-5667508D02*
X6514468Y-5677031D01*
X6514468Y-5677031D02*
X6523991Y-5696079D01*
X6523991Y-5696079D02*
X6523991Y-5715127D01*
X6523991Y-5715127D02*
X6514468Y-5743698D01*
X6514468Y-5743698D02*
X6400182Y-5857984D01*
X6400182Y-5857984D02*
X6523991Y-5857984D01*
X6762087Y-5857984D02*
X6762087Y-5657984D01*
X6847801Y-5857984D02*
X6847801Y-5753222D01*
X6847801Y-5753222D02*
X6838277Y-5734174D01*
X6838277Y-5734174D02*
X6819230Y-5724650D01*
X6819230Y-5724650D02*
X6790658Y-5724650D01*
X6790658Y-5724650D02*
X6771610Y-5734174D01*
X6771610Y-5734174D02*
X6762087Y-5743698D01*
X6971610Y-5857984D02*
X6952563Y-5848460D01*
X6952563Y-5848460D02*
X6943039Y-5838936D01*
X6943039Y-5838936D02*
X6933515Y-5819888D01*
X6933515Y-5819888D02*
X6933515Y-5762746D01*
X6933515Y-5762746D02*
X6943039Y-5743698D01*
X6943039Y-5743698D02*
X6952563Y-5734174D01*
X6952563Y-5734174D02*
X6971610Y-5724650D01*
X6971610Y-5724650D02*
X7000182Y-5724650D01*
X7000182Y-5724650D02*
X7019230Y-5734174D01*
X7019230Y-5734174D02*
X7028753Y-5743698D01*
X7028753Y-5743698D02*
X7038277Y-5762746D01*
X7038277Y-5762746D02*
X7038277Y-5819888D01*
X7038277Y-5819888D02*
X7028753Y-5838936D01*
X7028753Y-5838936D02*
X7019230Y-5848460D01*
X7019230Y-5848460D02*
X7000182Y-5857984D01*
X7000182Y-5857984D02*
X6971610Y-5857984D01*
X7152563Y-5857984D02*
X7133515Y-5848460D01*
X7133515Y-5848460D02*
X7123991Y-5829412D01*
X7123991Y-5829412D02*
X7123991Y-5657984D01*
X7304944Y-5848460D02*
X7285896Y-5857984D01*
X7285896Y-5857984D02*
X7247801Y-5857984D01*
X7247801Y-5857984D02*
X7228753Y-5848460D01*
X7228753Y-5848460D02*
X7219230Y-5829412D01*
X7219230Y-5829412D02*
X7219230Y-5753222D01*
X7219230Y-5753222D02*
X7228753Y-5734174D01*
X7228753Y-5734174D02*
X7247801Y-5724650D01*
X7247801Y-5724650D02*
X7285896Y-5724650D01*
X7285896Y-5724650D02*
X7304944Y-5734174D01*
X7304944Y-5734174D02*
X7314468Y-5753222D01*
X7314468Y-5753222D02*
X7314468Y-5772269D01*
X7314468Y-5772269D02*
X7219230Y-5791317D01*
X7390658Y-5848460D02*
X7409706Y-5857984D01*
X7409706Y-5857984D02*
X7447801Y-5857984D01*
X7447801Y-5857984D02*
X7466849Y-5848460D01*
X7466849Y-5848460D02*
X7476372Y-5829412D01*
X7476372Y-5829412D02*
X7476372Y-5819888D01*
X7476372Y-5819888D02*
X7466849Y-5800841D01*
X7466849Y-5800841D02*
X7447801Y-5791317D01*
X7447801Y-5791317D02*
X7419230Y-5791317D01*
X7419230Y-5791317D02*
X7400182Y-5781793D01*
X7400182Y-5781793D02*
X7390658Y-5762746D01*
X7390658Y-5762746D02*
X7390658Y-5753222D01*
X7390658Y-5753222D02*
X7400182Y-5734174D01*
X7400182Y-5734174D02*
X7419230Y-5724650D01*
X7419230Y-5724650D02*
X7447801Y-5724650D01*
X7447801Y-5724650D02*
X7466849Y-5734174D01*
X7543039Y-5934174D02*
X7552563Y-5924650D01*
X7552563Y-5924650D02*
X7571611Y-5896079D01*
X7571611Y-5896079D02*
X7581134Y-5877031D01*
X7581134Y-5877031D02*
X7590658Y-5848460D01*
X7590658Y-5848460D02*
X7600182Y-5800841D01*
X7600182Y-5800841D02*
X7600182Y-5762746D01*
X7600182Y-5762746D02*
X7590658Y-5715127D01*
X7590658Y-5715127D02*
X7581134Y-5686555D01*
X7581134Y-5686555D02*
X7571611Y-5667508D01*
X7571611Y-5667508D02*
X7552563Y-5638936D01*
X7552563Y-5638936D02*
X7543039Y-5629412D01*
D12*
X2547500Y-6000500D02*
X2547500Y-6060500D01*
X2517500Y-6030500D02*
X2577500Y-6030500D01*
D11*
X2876372Y-5921984D02*
X2895420Y-5921984D01*
X2895420Y-5921984D02*
X2914467Y-5931508D01*
X2914467Y-5931508D02*
X2923991Y-5941031D01*
X2923991Y-5941031D02*
X2933515Y-5960079D01*
X2933515Y-5960079D02*
X2943039Y-5998174D01*
X2943039Y-5998174D02*
X2943039Y-6045793D01*
X2943039Y-6045793D02*
X2933515Y-6083888D01*
X2933515Y-6083888D02*
X2923991Y-6102936D01*
X2923991Y-6102936D02*
X2914467Y-6112460D01*
X2914467Y-6112460D02*
X2895420Y-6121984D01*
X2895420Y-6121984D02*
X2876372Y-6121984D01*
X2876372Y-6121984D02*
X2857324Y-6112460D01*
X2857324Y-6112460D02*
X2847801Y-6102936D01*
X2847801Y-6102936D02*
X2838277Y-6083888D01*
X2838277Y-6083888D02*
X2828753Y-6045793D01*
X2828753Y-6045793D02*
X2828753Y-5998174D01*
X2828753Y-5998174D02*
X2838277Y-5960079D01*
X2838277Y-5960079D02*
X2847801Y-5941031D01*
X2847801Y-5941031D02*
X2857324Y-5931508D01*
X2857324Y-5931508D02*
X2876372Y-5921984D01*
X3028753Y-6102936D02*
X3038277Y-6112460D01*
X3038277Y-6112460D02*
X3028753Y-6121984D01*
X3028753Y-6121984D02*
X3019229Y-6112460D01*
X3019229Y-6112460D02*
X3028753Y-6102936D01*
X3028753Y-6102936D02*
X3028753Y-6121984D01*
X3209705Y-5921984D02*
X3171610Y-5921984D01*
X3171610Y-5921984D02*
X3152562Y-5931508D01*
X3152562Y-5931508D02*
X3143039Y-5941031D01*
X3143039Y-5941031D02*
X3123991Y-5969603D01*
X3123991Y-5969603D02*
X3114467Y-6007698D01*
X3114467Y-6007698D02*
X3114467Y-6083888D01*
X3114467Y-6083888D02*
X3123991Y-6102936D01*
X3123991Y-6102936D02*
X3133515Y-6112460D01*
X3133515Y-6112460D02*
X3152562Y-6121984D01*
X3152562Y-6121984D02*
X3190658Y-6121984D01*
X3190658Y-6121984D02*
X3209705Y-6112460D01*
X3209705Y-6112460D02*
X3219229Y-6102936D01*
X3219229Y-6102936D02*
X3228753Y-6083888D01*
X3228753Y-6083888D02*
X3228753Y-6036269D01*
X3228753Y-6036269D02*
X3219229Y-6017222D01*
X3219229Y-6017222D02*
X3209705Y-6007698D01*
X3209705Y-6007698D02*
X3190658Y-5998174D01*
X3190658Y-5998174D02*
X3152562Y-5998174D01*
X3152562Y-5998174D02*
X3133515Y-6007698D01*
X3133515Y-6007698D02*
X3123991Y-6017222D01*
X3123991Y-6017222D02*
X3114467Y-6036269D01*
X3352562Y-5921984D02*
X3371610Y-5921984D01*
X3371610Y-5921984D02*
X3390658Y-5931508D01*
X3390658Y-5931508D02*
X3400182Y-5941031D01*
X3400182Y-5941031D02*
X3409705Y-5960079D01*
X3409705Y-5960079D02*
X3419229Y-5998174D01*
X3419229Y-5998174D02*
X3419229Y-6045793D01*
X3419229Y-6045793D02*
X3409705Y-6083888D01*
X3409705Y-6083888D02*
X3400182Y-6102936D01*
X3400182Y-6102936D02*
X3390658Y-6112460D01*
X3390658Y-6112460D02*
X3371610Y-6121984D01*
X3371610Y-6121984D02*
X3352562Y-6121984D01*
X3352562Y-6121984D02*
X3333515Y-6112460D01*
X3333515Y-6112460D02*
X3323991Y-6102936D01*
X3323991Y-6102936D02*
X3314467Y-6083888D01*
X3314467Y-6083888D02*
X3304943Y-6045793D01*
X3304943Y-6045793D02*
X3304943Y-5998174D01*
X3304943Y-5998174D02*
X3314467Y-5960079D01*
X3314467Y-5960079D02*
X3323991Y-5941031D01*
X3323991Y-5941031D02*
X3333515Y-5931508D01*
X3333515Y-5931508D02*
X3352562Y-5921984D01*
X3543039Y-5921984D02*
X3562086Y-5921984D01*
X3562086Y-5921984D02*
X3581134Y-5931508D01*
X3581134Y-5931508D02*
X3590658Y-5941031D01*
X3590658Y-5941031D02*
X3600182Y-5960079D01*
X3600182Y-5960079D02*
X3609705Y-5998174D01*
X3609705Y-5998174D02*
X3609705Y-6045793D01*
X3609705Y-6045793D02*
X3600182Y-6083888D01*
X3600182Y-6083888D02*
X3590658Y-6102936D01*
X3590658Y-6102936D02*
X3581134Y-6112460D01*
X3581134Y-6112460D02*
X3562086Y-6121984D01*
X3562086Y-6121984D02*
X3543039Y-6121984D01*
X3543039Y-6121984D02*
X3523991Y-6112460D01*
X3523991Y-6112460D02*
X3514467Y-6102936D01*
X3514467Y-6102936D02*
X3504943Y-6083888D01*
X3504943Y-6083888D02*
X3495420Y-6045793D01*
X3495420Y-6045793D02*
X3495420Y-5998174D01*
X3495420Y-5998174D02*
X3504943Y-5960079D01*
X3504943Y-5960079D02*
X3514467Y-5941031D01*
X3514467Y-5941031D02*
X3523991Y-5931508D01*
X3523991Y-5931508D02*
X3543039Y-5921984D01*
X3695420Y-6121984D02*
X3695420Y-5988650D01*
X3695420Y-6007698D02*
X3704943Y-5998174D01*
X3704943Y-5998174D02*
X3723991Y-5988650D01*
X3723991Y-5988650D02*
X3752563Y-5988650D01*
X3752563Y-5988650D02*
X3771610Y-5998174D01*
X3771610Y-5998174D02*
X3781134Y-6017222D01*
X3781134Y-6017222D02*
X3781134Y-6121984D01*
X3781134Y-6017222D02*
X3790658Y-5998174D01*
X3790658Y-5998174D02*
X3809705Y-5988650D01*
X3809705Y-5988650D02*
X3838277Y-5988650D01*
X3838277Y-5988650D02*
X3857324Y-5998174D01*
X3857324Y-5998174D02*
X3866848Y-6017222D01*
X3866848Y-6017222D02*
X3866848Y-6121984D01*
X3962086Y-6121984D02*
X3962086Y-5988650D01*
X3962086Y-6007698D02*
X3971610Y-5998174D01*
X3971610Y-5998174D02*
X3990658Y-5988650D01*
X3990658Y-5988650D02*
X4019229Y-5988650D01*
X4019229Y-5988650D02*
X4038277Y-5998174D01*
X4038277Y-5998174D02*
X4047801Y-6017222D01*
X4047801Y-6017222D02*
X4047801Y-6121984D01*
X4047801Y-6017222D02*
X4057324Y-5998174D01*
X4057324Y-5998174D02*
X4076372Y-5988650D01*
X4076372Y-5988650D02*
X4104943Y-5988650D01*
X4104943Y-5988650D02*
X4123991Y-5998174D01*
X4123991Y-5998174D02*
X4133515Y-6017222D01*
X4133515Y-6017222D02*
X4133515Y-6121984D01*
X4523991Y-5912460D02*
X4352563Y-6169603D01*
X4781134Y-5921984D02*
X4800182Y-5921984D01*
X4800182Y-5921984D02*
X4819229Y-5931508D01*
X4819229Y-5931508D02*
X4828753Y-5941031D01*
X4828753Y-5941031D02*
X4838277Y-5960079D01*
X4838277Y-5960079D02*
X4847801Y-5998174D01*
X4847801Y-5998174D02*
X4847801Y-6045793D01*
X4847801Y-6045793D02*
X4838277Y-6083888D01*
X4838277Y-6083888D02*
X4828753Y-6102936D01*
X4828753Y-6102936D02*
X4819229Y-6112460D01*
X4819229Y-6112460D02*
X4800182Y-6121984D01*
X4800182Y-6121984D02*
X4781134Y-6121984D01*
X4781134Y-6121984D02*
X4762087Y-6112460D01*
X4762087Y-6112460D02*
X4752563Y-6102936D01*
X4752563Y-6102936D02*
X4743039Y-6083888D01*
X4743039Y-6083888D02*
X4733515Y-6045793D01*
X4733515Y-6045793D02*
X4733515Y-5998174D01*
X4733515Y-5998174D02*
X4743039Y-5960079D01*
X4743039Y-5960079D02*
X4752563Y-5941031D01*
X4752563Y-5941031D02*
X4762087Y-5931508D01*
X4762087Y-5931508D02*
X4781134Y-5921984D01*
X4933515Y-6102936D02*
X4943039Y-6112460D01*
X4943039Y-6112460D02*
X4933515Y-6121984D01*
X4933515Y-6121984D02*
X4923991Y-6112460D01*
X4923991Y-6112460D02*
X4933515Y-6102936D01*
X4933515Y-6102936D02*
X4933515Y-6121984D01*
X5066848Y-5921984D02*
X5085896Y-5921984D01*
X5085896Y-5921984D02*
X5104944Y-5931508D01*
X5104944Y-5931508D02*
X5114468Y-5941031D01*
X5114468Y-5941031D02*
X5123991Y-5960079D01*
X5123991Y-5960079D02*
X5133515Y-5998174D01*
X5133515Y-5998174D02*
X5133515Y-6045793D01*
X5133515Y-6045793D02*
X5123991Y-6083888D01*
X5123991Y-6083888D02*
X5114468Y-6102936D01*
X5114468Y-6102936D02*
X5104944Y-6112460D01*
X5104944Y-6112460D02*
X5085896Y-6121984D01*
X5085896Y-6121984D02*
X5066848Y-6121984D01*
X5066848Y-6121984D02*
X5047801Y-6112460D01*
X5047801Y-6112460D02*
X5038277Y-6102936D01*
X5038277Y-6102936D02*
X5028753Y-6083888D01*
X5028753Y-6083888D02*
X5019229Y-6045793D01*
X5019229Y-6045793D02*
X5019229Y-5998174D01*
X5019229Y-5998174D02*
X5028753Y-5960079D01*
X5028753Y-5960079D02*
X5038277Y-5941031D01*
X5038277Y-5941031D02*
X5047801Y-5931508D01*
X5047801Y-5931508D02*
X5066848Y-5921984D01*
X5209706Y-5941031D02*
X5219229Y-5931508D01*
X5219229Y-5931508D02*
X5238277Y-5921984D01*
X5238277Y-5921984D02*
X5285896Y-5921984D01*
X5285896Y-5921984D02*
X5304944Y-5931508D01*
X5304944Y-5931508D02*
X5314468Y-5941031D01*
X5314468Y-5941031D02*
X5323991Y-5960079D01*
X5323991Y-5960079D02*
X5323991Y-5979127D01*
X5323991Y-5979127D02*
X5314468Y-6007698D01*
X5314468Y-6007698D02*
X5200182Y-6121984D01*
X5200182Y-6121984D02*
X5323991Y-6121984D01*
X5390658Y-5921984D02*
X5514468Y-5921984D01*
X5514468Y-5921984D02*
X5447801Y-5998174D01*
X5447801Y-5998174D02*
X5476372Y-5998174D01*
X5476372Y-5998174D02*
X5495420Y-6007698D01*
X5495420Y-6007698D02*
X5504944Y-6017222D01*
X5504944Y-6017222D02*
X5514468Y-6036269D01*
X5514468Y-6036269D02*
X5514468Y-6083888D01*
X5514468Y-6083888D02*
X5504944Y-6102936D01*
X5504944Y-6102936D02*
X5495420Y-6112460D01*
X5495420Y-6112460D02*
X5476372Y-6121984D01*
X5476372Y-6121984D02*
X5419229Y-6121984D01*
X5419229Y-6121984D02*
X5400182Y-6112460D01*
X5400182Y-6112460D02*
X5390658Y-6102936D01*
X5685896Y-5921984D02*
X5647801Y-5921984D01*
X5647801Y-5921984D02*
X5628753Y-5931508D01*
X5628753Y-5931508D02*
X5619229Y-5941031D01*
X5619229Y-5941031D02*
X5600182Y-5969603D01*
X5600182Y-5969603D02*
X5590658Y-6007698D01*
X5590658Y-6007698D02*
X5590658Y-6083888D01*
X5590658Y-6083888D02*
X5600182Y-6102936D01*
X5600182Y-6102936D02*
X5609706Y-6112460D01*
X5609706Y-6112460D02*
X5628753Y-6121984D01*
X5628753Y-6121984D02*
X5666848Y-6121984D01*
X5666848Y-6121984D02*
X5685896Y-6112460D01*
X5685896Y-6112460D02*
X5695420Y-6102936D01*
X5695420Y-6102936D02*
X5704944Y-6083888D01*
X5704944Y-6083888D02*
X5704944Y-6036269D01*
X5704944Y-6036269D02*
X5695420Y-6017222D01*
X5695420Y-6017222D02*
X5685896Y-6007698D01*
X5685896Y-6007698D02*
X5666848Y-5998174D01*
X5666848Y-5998174D02*
X5628753Y-5998174D01*
X5628753Y-5998174D02*
X5609706Y-6007698D01*
X5609706Y-6007698D02*
X5600182Y-6017222D01*
X5600182Y-6017222D02*
X5590658Y-6036269D01*
X5781134Y-5921984D02*
X5781134Y-5960079D01*
X5857325Y-5921984D02*
X5857325Y-5960079D01*
X6152563Y-6198174D02*
X6143039Y-6188650D01*
X6143039Y-6188650D02*
X6123991Y-6160079D01*
X6123991Y-6160079D02*
X6114468Y-6141031D01*
X6114468Y-6141031D02*
X6104944Y-6112460D01*
X6104944Y-6112460D02*
X6095420Y-6064841D01*
X6095420Y-6064841D02*
X6095420Y-6026746D01*
X6095420Y-6026746D02*
X6104944Y-5979127D01*
X6104944Y-5979127D02*
X6114468Y-5950555D01*
X6114468Y-5950555D02*
X6123991Y-5931508D01*
X6123991Y-5931508D02*
X6143039Y-5902936D01*
X6143039Y-5902936D02*
X6152563Y-5893412D01*
X6333515Y-6121984D02*
X6219229Y-6121984D01*
X6276372Y-6121984D02*
X6276372Y-5921984D01*
X6276372Y-5921984D02*
X6257325Y-5950555D01*
X6257325Y-5950555D02*
X6238277Y-5969603D01*
X6238277Y-5969603D02*
X6219229Y-5979127D01*
X6504944Y-5921984D02*
X6466848Y-5921984D01*
X6466848Y-5921984D02*
X6447801Y-5931508D01*
X6447801Y-5931508D02*
X6438277Y-5941031D01*
X6438277Y-5941031D02*
X6419229Y-5969603D01*
X6419229Y-5969603D02*
X6409706Y-6007698D01*
X6409706Y-6007698D02*
X6409706Y-6083888D01*
X6409706Y-6083888D02*
X6419229Y-6102936D01*
X6419229Y-6102936D02*
X6428753Y-6112460D01*
X6428753Y-6112460D02*
X6447801Y-6121984D01*
X6447801Y-6121984D02*
X6485896Y-6121984D01*
X6485896Y-6121984D02*
X6504944Y-6112460D01*
X6504944Y-6112460D02*
X6514468Y-6102936D01*
X6514468Y-6102936D02*
X6523991Y-6083888D01*
X6523991Y-6083888D02*
X6523991Y-6036269D01*
X6523991Y-6036269D02*
X6514468Y-6017222D01*
X6514468Y-6017222D02*
X6504944Y-6007698D01*
X6504944Y-6007698D02*
X6485896Y-5998174D01*
X6485896Y-5998174D02*
X6447801Y-5998174D01*
X6447801Y-5998174D02*
X6428753Y-6007698D01*
X6428753Y-6007698D02*
X6419229Y-6017222D01*
X6419229Y-6017222D02*
X6409706Y-6036269D01*
X6762087Y-6121984D02*
X6762087Y-5921984D01*
X6847801Y-6121984D02*
X6847801Y-6017222D01*
X6847801Y-6017222D02*
X6838277Y-5998174D01*
X6838277Y-5998174D02*
X6819230Y-5988650D01*
X6819230Y-5988650D02*
X6790658Y-5988650D01*
X6790658Y-5988650D02*
X6771610Y-5998174D01*
X6771610Y-5998174D02*
X6762087Y-6007698D01*
X6971610Y-6121984D02*
X6952563Y-6112460D01*
X6952563Y-6112460D02*
X6943039Y-6102936D01*
X6943039Y-6102936D02*
X6933515Y-6083888D01*
X6933515Y-6083888D02*
X6933515Y-6026746D01*
X6933515Y-6026746D02*
X6943039Y-6007698D01*
X6943039Y-6007698D02*
X6952563Y-5998174D01*
X6952563Y-5998174D02*
X6971610Y-5988650D01*
X6971610Y-5988650D02*
X7000182Y-5988650D01*
X7000182Y-5988650D02*
X7019230Y-5998174D01*
X7019230Y-5998174D02*
X7028753Y-6007698D01*
X7028753Y-6007698D02*
X7038277Y-6026746D01*
X7038277Y-6026746D02*
X7038277Y-6083888D01*
X7038277Y-6083888D02*
X7028753Y-6102936D01*
X7028753Y-6102936D02*
X7019230Y-6112460D01*
X7019230Y-6112460D02*
X7000182Y-6121984D01*
X7000182Y-6121984D02*
X6971610Y-6121984D01*
X7152563Y-6121984D02*
X7133515Y-6112460D01*
X7133515Y-6112460D02*
X7123991Y-6093412D01*
X7123991Y-6093412D02*
X7123991Y-5921984D01*
X7304944Y-6112460D02*
X7285896Y-6121984D01*
X7285896Y-6121984D02*
X7247801Y-6121984D01*
X7247801Y-6121984D02*
X7228753Y-6112460D01*
X7228753Y-6112460D02*
X7219230Y-6093412D01*
X7219230Y-6093412D02*
X7219230Y-6017222D01*
X7219230Y-6017222D02*
X7228753Y-5998174D01*
X7228753Y-5998174D02*
X7247801Y-5988650D01*
X7247801Y-5988650D02*
X7285896Y-5988650D01*
X7285896Y-5988650D02*
X7304944Y-5998174D01*
X7304944Y-5998174D02*
X7314468Y-6017222D01*
X7314468Y-6017222D02*
X7314468Y-6036269D01*
X7314468Y-6036269D02*
X7219230Y-6055317D01*
X7390658Y-6112460D02*
X7409706Y-6121984D01*
X7409706Y-6121984D02*
X7447801Y-6121984D01*
X7447801Y-6121984D02*
X7466849Y-6112460D01*
X7466849Y-6112460D02*
X7476372Y-6093412D01*
X7476372Y-6093412D02*
X7476372Y-6083888D01*
X7476372Y-6083888D02*
X7466849Y-6064841D01*
X7466849Y-6064841D02*
X7447801Y-6055317D01*
X7447801Y-6055317D02*
X7419230Y-6055317D01*
X7419230Y-6055317D02*
X7400182Y-6045793D01*
X7400182Y-6045793D02*
X7390658Y-6026746D01*
X7390658Y-6026746D02*
X7390658Y-6017222D01*
X7390658Y-6017222D02*
X7400182Y-5998174D01*
X7400182Y-5998174D02*
X7419230Y-5988650D01*
X7419230Y-5988650D02*
X7447801Y-5988650D01*
X7447801Y-5988650D02*
X7466849Y-5998174D01*
X7543039Y-6198174D02*
X7552563Y-6188650D01*
X7552563Y-6188650D02*
X7571611Y-6160079D01*
X7571611Y-6160079D02*
X7581134Y-6141031D01*
X7581134Y-6141031D02*
X7590658Y-6112460D01*
X7590658Y-6112460D02*
X7600182Y-6064841D01*
X7600182Y-6064841D02*
X7600182Y-6026746D01*
X7600182Y-6026746D02*
X7590658Y-5979127D01*
X7590658Y-5979127D02*
X7581134Y-5950555D01*
X7581134Y-5950555D02*
X7571611Y-5931508D01*
X7571611Y-5931508D02*
X7552563Y-5902936D01*
X7552563Y-5902936D02*
X7543039Y-5893412D01*
D12*
X2565785Y-6322784D02*
X2565785Y-6266215D01*
X2509216Y-6266215D01*
X2509216Y-6322784D01*
X2565785Y-6322784D01*
D11*
X2876372Y-6185984D02*
X2895420Y-6185984D01*
X2895420Y-6185984D02*
X2914467Y-6195508D01*
X2914467Y-6195508D02*
X2923991Y-6205031D01*
X2923991Y-6205031D02*
X2933515Y-6224079D01*
X2933515Y-6224079D02*
X2943039Y-6262174D01*
X2943039Y-6262174D02*
X2943039Y-6309793D01*
X2943039Y-6309793D02*
X2933515Y-6347888D01*
X2933515Y-6347888D02*
X2923991Y-6366936D01*
X2923991Y-6366936D02*
X2914467Y-6376460D01*
X2914467Y-6376460D02*
X2895420Y-6385984D01*
X2895420Y-6385984D02*
X2876372Y-6385984D01*
X2876372Y-6385984D02*
X2857324Y-6376460D01*
X2857324Y-6376460D02*
X2847801Y-6366936D01*
X2847801Y-6366936D02*
X2838277Y-6347888D01*
X2838277Y-6347888D02*
X2828753Y-6309793D01*
X2828753Y-6309793D02*
X2828753Y-6262174D01*
X2828753Y-6262174D02*
X2838277Y-6224079D01*
X2838277Y-6224079D02*
X2847801Y-6205031D01*
X2847801Y-6205031D02*
X2857324Y-6195508D01*
X2857324Y-6195508D02*
X2876372Y-6185984D01*
X3028753Y-6366936D02*
X3038277Y-6376460D01*
X3038277Y-6376460D02*
X3028753Y-6385984D01*
X3028753Y-6385984D02*
X3019229Y-6376460D01*
X3019229Y-6376460D02*
X3028753Y-6366936D01*
X3028753Y-6366936D02*
X3028753Y-6385984D01*
X3152562Y-6271698D02*
X3133515Y-6262174D01*
X3133515Y-6262174D02*
X3123991Y-6252650D01*
X3123991Y-6252650D02*
X3114467Y-6233603D01*
X3114467Y-6233603D02*
X3114467Y-6224079D01*
X3114467Y-6224079D02*
X3123991Y-6205031D01*
X3123991Y-6205031D02*
X3133515Y-6195508D01*
X3133515Y-6195508D02*
X3152562Y-6185984D01*
X3152562Y-6185984D02*
X3190658Y-6185984D01*
X3190658Y-6185984D02*
X3209705Y-6195508D01*
X3209705Y-6195508D02*
X3219229Y-6205031D01*
X3219229Y-6205031D02*
X3228753Y-6224079D01*
X3228753Y-6224079D02*
X3228753Y-6233603D01*
X3228753Y-6233603D02*
X3219229Y-6252650D01*
X3219229Y-6252650D02*
X3209705Y-6262174D01*
X3209705Y-6262174D02*
X3190658Y-6271698D01*
X3190658Y-6271698D02*
X3152562Y-6271698D01*
X3152562Y-6271698D02*
X3133515Y-6281222D01*
X3133515Y-6281222D02*
X3123991Y-6290746D01*
X3123991Y-6290746D02*
X3114467Y-6309793D01*
X3114467Y-6309793D02*
X3114467Y-6347888D01*
X3114467Y-6347888D02*
X3123991Y-6366936D01*
X3123991Y-6366936D02*
X3133515Y-6376460D01*
X3133515Y-6376460D02*
X3152562Y-6385984D01*
X3152562Y-6385984D02*
X3190658Y-6385984D01*
X3190658Y-6385984D02*
X3209705Y-6376460D01*
X3209705Y-6376460D02*
X3219229Y-6366936D01*
X3219229Y-6366936D02*
X3228753Y-6347888D01*
X3228753Y-6347888D02*
X3228753Y-6309793D01*
X3228753Y-6309793D02*
X3219229Y-6290746D01*
X3219229Y-6290746D02*
X3209705Y-6281222D01*
X3209705Y-6281222D02*
X3190658Y-6271698D01*
X3352562Y-6185984D02*
X3371610Y-6185984D01*
X3371610Y-6185984D02*
X3390658Y-6195508D01*
X3390658Y-6195508D02*
X3400182Y-6205031D01*
X3400182Y-6205031D02*
X3409705Y-6224079D01*
X3409705Y-6224079D02*
X3419229Y-6262174D01*
X3419229Y-6262174D02*
X3419229Y-6309793D01*
X3419229Y-6309793D02*
X3409705Y-6347888D01*
X3409705Y-6347888D02*
X3400182Y-6366936D01*
X3400182Y-6366936D02*
X3390658Y-6376460D01*
X3390658Y-6376460D02*
X3371610Y-6385984D01*
X3371610Y-6385984D02*
X3352562Y-6385984D01*
X3352562Y-6385984D02*
X3333515Y-6376460D01*
X3333515Y-6376460D02*
X3323991Y-6366936D01*
X3323991Y-6366936D02*
X3314467Y-6347888D01*
X3314467Y-6347888D02*
X3304943Y-6309793D01*
X3304943Y-6309793D02*
X3304943Y-6262174D01*
X3304943Y-6262174D02*
X3314467Y-6224079D01*
X3314467Y-6224079D02*
X3323991Y-6205031D01*
X3323991Y-6205031D02*
X3333515Y-6195508D01*
X3333515Y-6195508D02*
X3352562Y-6185984D01*
X3543039Y-6185984D02*
X3562086Y-6185984D01*
X3562086Y-6185984D02*
X3581134Y-6195508D01*
X3581134Y-6195508D02*
X3590658Y-6205031D01*
X3590658Y-6205031D02*
X3600182Y-6224079D01*
X3600182Y-6224079D02*
X3609705Y-6262174D01*
X3609705Y-6262174D02*
X3609705Y-6309793D01*
X3609705Y-6309793D02*
X3600182Y-6347888D01*
X3600182Y-6347888D02*
X3590658Y-6366936D01*
X3590658Y-6366936D02*
X3581134Y-6376460D01*
X3581134Y-6376460D02*
X3562086Y-6385984D01*
X3562086Y-6385984D02*
X3543039Y-6385984D01*
X3543039Y-6385984D02*
X3523991Y-6376460D01*
X3523991Y-6376460D02*
X3514467Y-6366936D01*
X3514467Y-6366936D02*
X3504943Y-6347888D01*
X3504943Y-6347888D02*
X3495420Y-6309793D01*
X3495420Y-6309793D02*
X3495420Y-6262174D01*
X3495420Y-6262174D02*
X3504943Y-6224079D01*
X3504943Y-6224079D02*
X3514467Y-6205031D01*
X3514467Y-6205031D02*
X3523991Y-6195508D01*
X3523991Y-6195508D02*
X3543039Y-6185984D01*
X3695420Y-6385984D02*
X3695420Y-6252650D01*
X3695420Y-6271698D02*
X3704943Y-6262174D01*
X3704943Y-6262174D02*
X3723991Y-6252650D01*
X3723991Y-6252650D02*
X3752563Y-6252650D01*
X3752563Y-6252650D02*
X3771610Y-6262174D01*
X3771610Y-6262174D02*
X3781134Y-6281222D01*
X3781134Y-6281222D02*
X3781134Y-6385984D01*
X3781134Y-6281222D02*
X3790658Y-6262174D01*
X3790658Y-6262174D02*
X3809705Y-6252650D01*
X3809705Y-6252650D02*
X3838277Y-6252650D01*
X3838277Y-6252650D02*
X3857324Y-6262174D01*
X3857324Y-6262174D02*
X3866848Y-6281222D01*
X3866848Y-6281222D02*
X3866848Y-6385984D01*
X3962086Y-6385984D02*
X3962086Y-6252650D01*
X3962086Y-6271698D02*
X3971610Y-6262174D01*
X3971610Y-6262174D02*
X3990658Y-6252650D01*
X3990658Y-6252650D02*
X4019229Y-6252650D01*
X4019229Y-6252650D02*
X4038277Y-6262174D01*
X4038277Y-6262174D02*
X4047801Y-6281222D01*
X4047801Y-6281222D02*
X4047801Y-6385984D01*
X4047801Y-6281222D02*
X4057324Y-6262174D01*
X4057324Y-6262174D02*
X4076372Y-6252650D01*
X4076372Y-6252650D02*
X4104943Y-6252650D01*
X4104943Y-6252650D02*
X4123991Y-6262174D01*
X4123991Y-6262174D02*
X4133515Y-6281222D01*
X4133515Y-6281222D02*
X4133515Y-6385984D01*
X4523991Y-6176460D02*
X4352563Y-6433603D01*
X4781134Y-6185984D02*
X4800182Y-6185984D01*
X4800182Y-6185984D02*
X4819229Y-6195508D01*
X4819229Y-6195508D02*
X4828753Y-6205031D01*
X4828753Y-6205031D02*
X4838277Y-6224079D01*
X4838277Y-6224079D02*
X4847801Y-6262174D01*
X4847801Y-6262174D02*
X4847801Y-6309793D01*
X4847801Y-6309793D02*
X4838277Y-6347888D01*
X4838277Y-6347888D02*
X4828753Y-6366936D01*
X4828753Y-6366936D02*
X4819229Y-6376460D01*
X4819229Y-6376460D02*
X4800182Y-6385984D01*
X4800182Y-6385984D02*
X4781134Y-6385984D01*
X4781134Y-6385984D02*
X4762087Y-6376460D01*
X4762087Y-6376460D02*
X4752563Y-6366936D01*
X4752563Y-6366936D02*
X4743039Y-6347888D01*
X4743039Y-6347888D02*
X4733515Y-6309793D01*
X4733515Y-6309793D02*
X4733515Y-6262174D01*
X4733515Y-6262174D02*
X4743039Y-6224079D01*
X4743039Y-6224079D02*
X4752563Y-6205031D01*
X4752563Y-6205031D02*
X4762087Y-6195508D01*
X4762087Y-6195508D02*
X4781134Y-6185984D01*
X4933515Y-6366936D02*
X4943039Y-6376460D01*
X4943039Y-6376460D02*
X4933515Y-6385984D01*
X4933515Y-6385984D02*
X4923991Y-6376460D01*
X4923991Y-6376460D02*
X4933515Y-6366936D01*
X4933515Y-6366936D02*
X4933515Y-6385984D01*
X5066848Y-6185984D02*
X5085896Y-6185984D01*
X5085896Y-6185984D02*
X5104944Y-6195508D01*
X5104944Y-6195508D02*
X5114468Y-6205031D01*
X5114468Y-6205031D02*
X5123991Y-6224079D01*
X5123991Y-6224079D02*
X5133515Y-6262174D01*
X5133515Y-6262174D02*
X5133515Y-6309793D01*
X5133515Y-6309793D02*
X5123991Y-6347888D01*
X5123991Y-6347888D02*
X5114468Y-6366936D01*
X5114468Y-6366936D02*
X5104944Y-6376460D01*
X5104944Y-6376460D02*
X5085896Y-6385984D01*
X5085896Y-6385984D02*
X5066848Y-6385984D01*
X5066848Y-6385984D02*
X5047801Y-6376460D01*
X5047801Y-6376460D02*
X5038277Y-6366936D01*
X5038277Y-6366936D02*
X5028753Y-6347888D01*
X5028753Y-6347888D02*
X5019229Y-6309793D01*
X5019229Y-6309793D02*
X5019229Y-6262174D01*
X5019229Y-6262174D02*
X5028753Y-6224079D01*
X5028753Y-6224079D02*
X5038277Y-6205031D01*
X5038277Y-6205031D02*
X5047801Y-6195508D01*
X5047801Y-6195508D02*
X5066848Y-6185984D01*
X5200182Y-6185984D02*
X5323991Y-6185984D01*
X5323991Y-6185984D02*
X5257325Y-6262174D01*
X5257325Y-6262174D02*
X5285896Y-6262174D01*
X5285896Y-6262174D02*
X5304944Y-6271698D01*
X5304944Y-6271698D02*
X5314468Y-6281222D01*
X5314468Y-6281222D02*
X5323991Y-6300269D01*
X5323991Y-6300269D02*
X5323991Y-6347888D01*
X5323991Y-6347888D02*
X5314468Y-6366936D01*
X5314468Y-6366936D02*
X5304944Y-6376460D01*
X5304944Y-6376460D02*
X5285896Y-6385984D01*
X5285896Y-6385984D02*
X5228753Y-6385984D01*
X5228753Y-6385984D02*
X5209706Y-6376460D01*
X5209706Y-6376460D02*
X5200182Y-6366936D01*
X5514468Y-6385984D02*
X5400182Y-6385984D01*
X5457325Y-6385984D02*
X5457325Y-6185984D01*
X5457325Y-6185984D02*
X5438277Y-6214555D01*
X5438277Y-6214555D02*
X5419229Y-6233603D01*
X5419229Y-6233603D02*
X5400182Y-6243127D01*
X5695420Y-6185984D02*
X5600182Y-6185984D01*
X5600182Y-6185984D02*
X5590658Y-6281222D01*
X5590658Y-6281222D02*
X5600182Y-6271698D01*
X5600182Y-6271698D02*
X5619229Y-6262174D01*
X5619229Y-6262174D02*
X5666848Y-6262174D01*
X5666848Y-6262174D02*
X5685896Y-6271698D01*
X5685896Y-6271698D02*
X5695420Y-6281222D01*
X5695420Y-6281222D02*
X5704944Y-6300269D01*
X5704944Y-6300269D02*
X5704944Y-6347888D01*
X5704944Y-6347888D02*
X5695420Y-6366936D01*
X5695420Y-6366936D02*
X5685896Y-6376460D01*
X5685896Y-6376460D02*
X5666848Y-6385984D01*
X5666848Y-6385984D02*
X5619229Y-6385984D01*
X5619229Y-6385984D02*
X5600182Y-6376460D01*
X5600182Y-6376460D02*
X5590658Y-6366936D01*
X5781134Y-6185984D02*
X5781134Y-6224079D01*
X5857325Y-6185984D02*
X5857325Y-6224079D01*
X6152563Y-6462174D02*
X6143039Y-6452650D01*
X6143039Y-6452650D02*
X6123991Y-6424079D01*
X6123991Y-6424079D02*
X6114468Y-6405031D01*
X6114468Y-6405031D02*
X6104944Y-6376460D01*
X6104944Y-6376460D02*
X6095420Y-6328841D01*
X6095420Y-6328841D02*
X6095420Y-6290746D01*
X6095420Y-6290746D02*
X6104944Y-6243127D01*
X6104944Y-6243127D02*
X6114468Y-6214555D01*
X6114468Y-6214555D02*
X6123991Y-6195508D01*
X6123991Y-6195508D02*
X6143039Y-6166936D01*
X6143039Y-6166936D02*
X6152563Y-6157412D01*
X6219229Y-6205031D02*
X6228753Y-6195508D01*
X6228753Y-6195508D02*
X6247801Y-6185984D01*
X6247801Y-6185984D02*
X6295420Y-6185984D01*
X6295420Y-6185984D02*
X6314468Y-6195508D01*
X6314468Y-6195508D02*
X6323991Y-6205031D01*
X6323991Y-6205031D02*
X6333515Y-6224079D01*
X6333515Y-6224079D02*
X6333515Y-6243127D01*
X6333515Y-6243127D02*
X6323991Y-6271698D01*
X6323991Y-6271698D02*
X6209706Y-6385984D01*
X6209706Y-6385984D02*
X6333515Y-6385984D01*
X6571610Y-6385984D02*
X6571610Y-6185984D01*
X6657325Y-6385984D02*
X6657325Y-6281222D01*
X6657325Y-6281222D02*
X6647801Y-6262174D01*
X6647801Y-6262174D02*
X6628753Y-6252650D01*
X6628753Y-6252650D02*
X6600182Y-6252650D01*
X6600182Y-6252650D02*
X6581134Y-6262174D01*
X6581134Y-6262174D02*
X6571610Y-6271698D01*
X6781134Y-6385984D02*
X6762087Y-6376460D01*
X6762087Y-6376460D02*
X6752563Y-6366936D01*
X6752563Y-6366936D02*
X6743039Y-6347888D01*
X6743039Y-6347888D02*
X6743039Y-6290746D01*
X6743039Y-6290746D02*
X6752563Y-6271698D01*
X6752563Y-6271698D02*
X6762087Y-6262174D01*
X6762087Y-6262174D02*
X6781134Y-6252650D01*
X6781134Y-6252650D02*
X6809706Y-6252650D01*
X6809706Y-6252650D02*
X6828753Y-6262174D01*
X6828753Y-6262174D02*
X6838277Y-6271698D01*
X6838277Y-6271698D02*
X6847801Y-6290746D01*
X6847801Y-6290746D02*
X6847801Y-6347888D01*
X6847801Y-6347888D02*
X6838277Y-6366936D01*
X6838277Y-6366936D02*
X6828753Y-6376460D01*
X6828753Y-6376460D02*
X6809706Y-6385984D01*
X6809706Y-6385984D02*
X6781134Y-6385984D01*
X6962087Y-6385984D02*
X6943039Y-6376460D01*
X6943039Y-6376460D02*
X6933515Y-6357412D01*
X6933515Y-6357412D02*
X6933515Y-6185984D01*
X7114468Y-6376460D02*
X7095420Y-6385984D01*
X7095420Y-6385984D02*
X7057325Y-6385984D01*
X7057325Y-6385984D02*
X7038277Y-6376460D01*
X7038277Y-6376460D02*
X7028753Y-6357412D01*
X7028753Y-6357412D02*
X7028753Y-6281222D01*
X7028753Y-6281222D02*
X7038277Y-6262174D01*
X7038277Y-6262174D02*
X7057325Y-6252650D01*
X7057325Y-6252650D02*
X7095420Y-6252650D01*
X7095420Y-6252650D02*
X7114468Y-6262174D01*
X7114468Y-6262174D02*
X7123991Y-6281222D01*
X7123991Y-6281222D02*
X7123991Y-6300269D01*
X7123991Y-6300269D02*
X7028753Y-6319317D01*
X7200182Y-6376460D02*
X7219230Y-6385984D01*
X7219230Y-6385984D02*
X7257325Y-6385984D01*
X7257325Y-6385984D02*
X7276372Y-6376460D01*
X7276372Y-6376460D02*
X7285896Y-6357412D01*
X7285896Y-6357412D02*
X7285896Y-6347888D01*
X7285896Y-6347888D02*
X7276372Y-6328841D01*
X7276372Y-6328841D02*
X7257325Y-6319317D01*
X7257325Y-6319317D02*
X7228753Y-6319317D01*
X7228753Y-6319317D02*
X7209706Y-6309793D01*
X7209706Y-6309793D02*
X7200182Y-6290746D01*
X7200182Y-6290746D02*
X7200182Y-6281222D01*
X7200182Y-6281222D02*
X7209706Y-6262174D01*
X7209706Y-6262174D02*
X7228753Y-6252650D01*
X7228753Y-6252650D02*
X7257325Y-6252650D01*
X7257325Y-6252650D02*
X7276372Y-6262174D01*
X7352563Y-6462174D02*
X7362087Y-6452650D01*
X7362087Y-6452650D02*
X7381134Y-6424079D01*
X7381134Y-6424079D02*
X7390658Y-6405031D01*
X7390658Y-6405031D02*
X7400182Y-6376460D01*
X7400182Y-6376460D02*
X7409706Y-6328841D01*
X7409706Y-6328841D02*
X7409706Y-6290746D01*
X7409706Y-6290746D02*
X7400182Y-6243127D01*
X7400182Y-6243127D02*
X7390658Y-6214555D01*
X7390658Y-6214555D02*
X7381134Y-6195508D01*
X7381134Y-6195508D02*
X7362087Y-6166936D01*
X7362087Y-6166936D02*
X7352563Y-6157412D01*
D12*
X2527500Y-6608500D02*
X2577500Y-6558500D01*
X2527500Y-6508500D01*
X2477500Y-6558500D01*
X2527500Y-6608500D01*
D11*
X2943039Y-6649984D02*
X2828753Y-6649984D01*
X2885896Y-6649984D02*
X2885896Y-6449984D01*
X2885896Y-6449984D02*
X2866848Y-6478555D01*
X2866848Y-6478555D02*
X2847801Y-6497603D01*
X2847801Y-6497603D02*
X2828753Y-6507127D01*
X3028753Y-6630936D02*
X3038277Y-6640460D01*
X3038277Y-6640460D02*
X3028753Y-6649984D01*
X3028753Y-6649984D02*
X3019229Y-6640460D01*
X3019229Y-6640460D02*
X3028753Y-6630936D01*
X3028753Y-6630936D02*
X3028753Y-6649984D01*
X3162086Y-6449984D02*
X3181134Y-6449984D01*
X3181134Y-6449984D02*
X3200182Y-6459508D01*
X3200182Y-6459508D02*
X3209705Y-6469031D01*
X3209705Y-6469031D02*
X3219229Y-6488079D01*
X3219229Y-6488079D02*
X3228753Y-6526174D01*
X3228753Y-6526174D02*
X3228753Y-6573793D01*
X3228753Y-6573793D02*
X3219229Y-6611888D01*
X3219229Y-6611888D02*
X3209705Y-6630936D01*
X3209705Y-6630936D02*
X3200182Y-6640460D01*
X3200182Y-6640460D02*
X3181134Y-6649984D01*
X3181134Y-6649984D02*
X3162086Y-6649984D01*
X3162086Y-6649984D02*
X3143039Y-6640460D01*
X3143039Y-6640460D02*
X3133515Y-6630936D01*
X3133515Y-6630936D02*
X3123991Y-6611888D01*
X3123991Y-6611888D02*
X3114467Y-6573793D01*
X3114467Y-6573793D02*
X3114467Y-6526174D01*
X3114467Y-6526174D02*
X3123991Y-6488079D01*
X3123991Y-6488079D02*
X3133515Y-6469031D01*
X3133515Y-6469031D02*
X3143039Y-6459508D01*
X3143039Y-6459508D02*
X3162086Y-6449984D01*
X3352562Y-6449984D02*
X3371610Y-6449984D01*
X3371610Y-6449984D02*
X3390658Y-6459508D01*
X3390658Y-6459508D02*
X3400182Y-6469031D01*
X3400182Y-6469031D02*
X3409705Y-6488079D01*
X3409705Y-6488079D02*
X3419229Y-6526174D01*
X3419229Y-6526174D02*
X3419229Y-6573793D01*
X3419229Y-6573793D02*
X3409705Y-6611888D01*
X3409705Y-6611888D02*
X3400182Y-6630936D01*
X3400182Y-6630936D02*
X3390658Y-6640460D01*
X3390658Y-6640460D02*
X3371610Y-6649984D01*
X3371610Y-6649984D02*
X3352562Y-6649984D01*
X3352562Y-6649984D02*
X3333515Y-6640460D01*
X3333515Y-6640460D02*
X3323991Y-6630936D01*
X3323991Y-6630936D02*
X3314467Y-6611888D01*
X3314467Y-6611888D02*
X3304943Y-6573793D01*
X3304943Y-6573793D02*
X3304943Y-6526174D01*
X3304943Y-6526174D02*
X3314467Y-6488079D01*
X3314467Y-6488079D02*
X3323991Y-6469031D01*
X3323991Y-6469031D02*
X3333515Y-6459508D01*
X3333515Y-6459508D02*
X3352562Y-6449984D01*
X3543039Y-6449984D02*
X3562086Y-6449984D01*
X3562086Y-6449984D02*
X3581134Y-6459508D01*
X3581134Y-6459508D02*
X3590658Y-6469031D01*
X3590658Y-6469031D02*
X3600182Y-6488079D01*
X3600182Y-6488079D02*
X3609705Y-6526174D01*
X3609705Y-6526174D02*
X3609705Y-6573793D01*
X3609705Y-6573793D02*
X3600182Y-6611888D01*
X3600182Y-6611888D02*
X3590658Y-6630936D01*
X3590658Y-6630936D02*
X3581134Y-6640460D01*
X3581134Y-6640460D02*
X3562086Y-6649984D01*
X3562086Y-6649984D02*
X3543039Y-6649984D01*
X3543039Y-6649984D02*
X3523991Y-6640460D01*
X3523991Y-6640460D02*
X3514467Y-6630936D01*
X3514467Y-6630936D02*
X3504943Y-6611888D01*
X3504943Y-6611888D02*
X3495420Y-6573793D01*
X3495420Y-6573793D02*
X3495420Y-6526174D01*
X3495420Y-6526174D02*
X3504943Y-6488079D01*
X3504943Y-6488079D02*
X3514467Y-6469031D01*
X3514467Y-6469031D02*
X3523991Y-6459508D01*
X3523991Y-6459508D02*
X3543039Y-6449984D01*
X3695420Y-6649984D02*
X3695420Y-6516650D01*
X3695420Y-6535698D02*
X3704943Y-6526174D01*
X3704943Y-6526174D02*
X3723991Y-6516650D01*
X3723991Y-6516650D02*
X3752563Y-6516650D01*
X3752563Y-6516650D02*
X3771610Y-6526174D01*
X3771610Y-6526174D02*
X3781134Y-6545222D01*
X3781134Y-6545222D02*
X3781134Y-6649984D01*
X3781134Y-6545222D02*
X3790658Y-6526174D01*
X3790658Y-6526174D02*
X3809705Y-6516650D01*
X3809705Y-6516650D02*
X3838277Y-6516650D01*
X3838277Y-6516650D02*
X3857324Y-6526174D01*
X3857324Y-6526174D02*
X3866848Y-6545222D01*
X3866848Y-6545222D02*
X3866848Y-6649984D01*
X3962086Y-6649984D02*
X3962086Y-6516650D01*
X3962086Y-6535698D02*
X3971610Y-6526174D01*
X3971610Y-6526174D02*
X3990658Y-6516650D01*
X3990658Y-6516650D02*
X4019229Y-6516650D01*
X4019229Y-6516650D02*
X4038277Y-6526174D01*
X4038277Y-6526174D02*
X4047801Y-6545222D01*
X4047801Y-6545222D02*
X4047801Y-6649984D01*
X4047801Y-6545222D02*
X4057324Y-6526174D01*
X4057324Y-6526174D02*
X4076372Y-6516650D01*
X4076372Y-6516650D02*
X4104943Y-6516650D01*
X4104943Y-6516650D02*
X4123991Y-6526174D01*
X4123991Y-6526174D02*
X4133515Y-6545222D01*
X4133515Y-6545222D02*
X4133515Y-6649984D01*
X4523991Y-6440460D02*
X4352563Y-6697603D01*
X4781134Y-6449984D02*
X4800182Y-6449984D01*
X4800182Y-6449984D02*
X4819229Y-6459508D01*
X4819229Y-6459508D02*
X4828753Y-6469031D01*
X4828753Y-6469031D02*
X4838277Y-6488079D01*
X4838277Y-6488079D02*
X4847801Y-6526174D01*
X4847801Y-6526174D02*
X4847801Y-6573793D01*
X4847801Y-6573793D02*
X4838277Y-6611888D01*
X4838277Y-6611888D02*
X4828753Y-6630936D01*
X4828753Y-6630936D02*
X4819229Y-6640460D01*
X4819229Y-6640460D02*
X4800182Y-6649984D01*
X4800182Y-6649984D02*
X4781134Y-6649984D01*
X4781134Y-6649984D02*
X4762087Y-6640460D01*
X4762087Y-6640460D02*
X4752563Y-6630936D01*
X4752563Y-6630936D02*
X4743039Y-6611888D01*
X4743039Y-6611888D02*
X4733515Y-6573793D01*
X4733515Y-6573793D02*
X4733515Y-6526174D01*
X4733515Y-6526174D02*
X4743039Y-6488079D01*
X4743039Y-6488079D02*
X4752563Y-6469031D01*
X4752563Y-6469031D02*
X4762087Y-6459508D01*
X4762087Y-6459508D02*
X4781134Y-6449984D01*
X4933515Y-6630936D02*
X4943039Y-6640460D01*
X4943039Y-6640460D02*
X4933515Y-6649984D01*
X4933515Y-6649984D02*
X4923991Y-6640460D01*
X4923991Y-6640460D02*
X4933515Y-6630936D01*
X4933515Y-6630936D02*
X4933515Y-6649984D01*
X5066848Y-6449984D02*
X5085896Y-6449984D01*
X5085896Y-6449984D02*
X5104944Y-6459508D01*
X5104944Y-6459508D02*
X5114468Y-6469031D01*
X5114468Y-6469031D02*
X5123991Y-6488079D01*
X5123991Y-6488079D02*
X5133515Y-6526174D01*
X5133515Y-6526174D02*
X5133515Y-6573793D01*
X5133515Y-6573793D02*
X5123991Y-6611888D01*
X5123991Y-6611888D02*
X5114468Y-6630936D01*
X5114468Y-6630936D02*
X5104944Y-6640460D01*
X5104944Y-6640460D02*
X5085896Y-6649984D01*
X5085896Y-6649984D02*
X5066848Y-6649984D01*
X5066848Y-6649984D02*
X5047801Y-6640460D01*
X5047801Y-6640460D02*
X5038277Y-6630936D01*
X5038277Y-6630936D02*
X5028753Y-6611888D01*
X5028753Y-6611888D02*
X5019229Y-6573793D01*
X5019229Y-6573793D02*
X5019229Y-6526174D01*
X5019229Y-6526174D02*
X5028753Y-6488079D01*
X5028753Y-6488079D02*
X5038277Y-6469031D01*
X5038277Y-6469031D02*
X5047801Y-6459508D01*
X5047801Y-6459508D02*
X5066848Y-6449984D01*
X5200182Y-6449984D02*
X5323991Y-6449984D01*
X5323991Y-6449984D02*
X5257325Y-6526174D01*
X5257325Y-6526174D02*
X5285896Y-6526174D01*
X5285896Y-6526174D02*
X5304944Y-6535698D01*
X5304944Y-6535698D02*
X5314468Y-6545222D01*
X5314468Y-6545222D02*
X5323991Y-6564269D01*
X5323991Y-6564269D02*
X5323991Y-6611888D01*
X5323991Y-6611888D02*
X5314468Y-6630936D01*
X5314468Y-6630936D02*
X5304944Y-6640460D01*
X5304944Y-6640460D02*
X5285896Y-6649984D01*
X5285896Y-6649984D02*
X5228753Y-6649984D01*
X5228753Y-6649984D02*
X5209706Y-6640460D01*
X5209706Y-6640460D02*
X5200182Y-6630936D01*
X5419229Y-6649984D02*
X5457325Y-6649984D01*
X5457325Y-6649984D02*
X5476372Y-6640460D01*
X5476372Y-6640460D02*
X5485896Y-6630936D01*
X5485896Y-6630936D02*
X5504944Y-6602365D01*
X5504944Y-6602365D02*
X5514468Y-6564269D01*
X5514468Y-6564269D02*
X5514468Y-6488079D01*
X5514468Y-6488079D02*
X5504944Y-6469031D01*
X5504944Y-6469031D02*
X5495420Y-6459508D01*
X5495420Y-6459508D02*
X5476372Y-6449984D01*
X5476372Y-6449984D02*
X5438277Y-6449984D01*
X5438277Y-6449984D02*
X5419229Y-6459508D01*
X5419229Y-6459508D02*
X5409706Y-6469031D01*
X5409706Y-6469031D02*
X5400182Y-6488079D01*
X5400182Y-6488079D02*
X5400182Y-6535698D01*
X5400182Y-6535698D02*
X5409706Y-6554746D01*
X5409706Y-6554746D02*
X5419229Y-6564269D01*
X5419229Y-6564269D02*
X5438277Y-6573793D01*
X5438277Y-6573793D02*
X5476372Y-6573793D01*
X5476372Y-6573793D02*
X5495420Y-6564269D01*
X5495420Y-6564269D02*
X5504944Y-6554746D01*
X5504944Y-6554746D02*
X5514468Y-6535698D01*
X5685896Y-6516650D02*
X5685896Y-6649984D01*
X5638277Y-6440460D02*
X5590658Y-6583317D01*
X5590658Y-6583317D02*
X5714467Y-6583317D01*
X5781134Y-6449984D02*
X5781134Y-6488079D01*
X5857325Y-6449984D02*
X5857325Y-6488079D01*
X6152563Y-6726174D02*
X6143039Y-6716650D01*
X6143039Y-6716650D02*
X6123991Y-6688079D01*
X6123991Y-6688079D02*
X6114468Y-6669031D01*
X6114468Y-6669031D02*
X6104944Y-6640460D01*
X6104944Y-6640460D02*
X6095420Y-6592841D01*
X6095420Y-6592841D02*
X6095420Y-6554746D01*
X6095420Y-6554746D02*
X6104944Y-6507127D01*
X6104944Y-6507127D02*
X6114468Y-6478555D01*
X6114468Y-6478555D02*
X6123991Y-6459508D01*
X6123991Y-6459508D02*
X6143039Y-6430936D01*
X6143039Y-6430936D02*
X6152563Y-6421412D01*
X6209706Y-6449984D02*
X6333515Y-6449984D01*
X6333515Y-6449984D02*
X6266848Y-6526174D01*
X6266848Y-6526174D02*
X6295420Y-6526174D01*
X6295420Y-6526174D02*
X6314468Y-6535698D01*
X6314468Y-6535698D02*
X6323991Y-6545222D01*
X6323991Y-6545222D02*
X6333515Y-6564269D01*
X6333515Y-6564269D02*
X6333515Y-6611888D01*
X6333515Y-6611888D02*
X6323991Y-6630936D01*
X6323991Y-6630936D02*
X6314468Y-6640460D01*
X6314468Y-6640460D02*
X6295420Y-6649984D01*
X6295420Y-6649984D02*
X6238277Y-6649984D01*
X6238277Y-6649984D02*
X6219229Y-6640460D01*
X6219229Y-6640460D02*
X6209706Y-6630936D01*
X6447801Y-6535698D02*
X6428753Y-6526174D01*
X6428753Y-6526174D02*
X6419229Y-6516650D01*
X6419229Y-6516650D02*
X6409706Y-6497603D01*
X6409706Y-6497603D02*
X6409706Y-6488079D01*
X6409706Y-6488079D02*
X6419229Y-6469031D01*
X6419229Y-6469031D02*
X6428753Y-6459508D01*
X6428753Y-6459508D02*
X6447801Y-6449984D01*
X6447801Y-6449984D02*
X6485896Y-6449984D01*
X6485896Y-6449984D02*
X6504944Y-6459508D01*
X6504944Y-6459508D02*
X6514468Y-6469031D01*
X6514468Y-6469031D02*
X6523991Y-6488079D01*
X6523991Y-6488079D02*
X6523991Y-6497603D01*
X6523991Y-6497603D02*
X6514468Y-6516650D01*
X6514468Y-6516650D02*
X6504944Y-6526174D01*
X6504944Y-6526174D02*
X6485896Y-6535698D01*
X6485896Y-6535698D02*
X6447801Y-6535698D01*
X6447801Y-6535698D02*
X6428753Y-6545222D01*
X6428753Y-6545222D02*
X6419229Y-6554746D01*
X6419229Y-6554746D02*
X6409706Y-6573793D01*
X6409706Y-6573793D02*
X6409706Y-6611888D01*
X6409706Y-6611888D02*
X6419229Y-6630936D01*
X6419229Y-6630936D02*
X6428753Y-6640460D01*
X6428753Y-6640460D02*
X6447801Y-6649984D01*
X6447801Y-6649984D02*
X6485896Y-6649984D01*
X6485896Y-6649984D02*
X6504944Y-6640460D01*
X6504944Y-6640460D02*
X6514468Y-6630936D01*
X6514468Y-6630936D02*
X6523991Y-6611888D01*
X6523991Y-6611888D02*
X6523991Y-6573793D01*
X6523991Y-6573793D02*
X6514468Y-6554746D01*
X6514468Y-6554746D02*
X6504944Y-6545222D01*
X6504944Y-6545222D02*
X6485896Y-6535698D01*
X6762087Y-6649984D02*
X6762087Y-6449984D01*
X6847801Y-6649984D02*
X6847801Y-6545222D01*
X6847801Y-6545222D02*
X6838277Y-6526174D01*
X6838277Y-6526174D02*
X6819230Y-6516650D01*
X6819230Y-6516650D02*
X6790658Y-6516650D01*
X6790658Y-6516650D02*
X6771610Y-6526174D01*
X6771610Y-6526174D02*
X6762087Y-6535698D01*
X6971610Y-6649984D02*
X6952563Y-6640460D01*
X6952563Y-6640460D02*
X6943039Y-6630936D01*
X6943039Y-6630936D02*
X6933515Y-6611888D01*
X6933515Y-6611888D02*
X6933515Y-6554746D01*
X6933515Y-6554746D02*
X6943039Y-6535698D01*
X6943039Y-6535698D02*
X6952563Y-6526174D01*
X6952563Y-6526174D02*
X6971610Y-6516650D01*
X6971610Y-6516650D02*
X7000182Y-6516650D01*
X7000182Y-6516650D02*
X7019230Y-6526174D01*
X7019230Y-6526174D02*
X7028753Y-6535698D01*
X7028753Y-6535698D02*
X7038277Y-6554746D01*
X7038277Y-6554746D02*
X7038277Y-6611888D01*
X7038277Y-6611888D02*
X7028753Y-6630936D01*
X7028753Y-6630936D02*
X7019230Y-6640460D01*
X7019230Y-6640460D02*
X7000182Y-6649984D01*
X7000182Y-6649984D02*
X6971610Y-6649984D01*
X7152563Y-6649984D02*
X7133515Y-6640460D01*
X7133515Y-6640460D02*
X7123991Y-6621412D01*
X7123991Y-6621412D02*
X7123991Y-6449984D01*
X7304944Y-6640460D02*
X7285896Y-6649984D01*
X7285896Y-6649984D02*
X7247801Y-6649984D01*
X7247801Y-6649984D02*
X7228753Y-6640460D01*
X7228753Y-6640460D02*
X7219230Y-6621412D01*
X7219230Y-6621412D02*
X7219230Y-6545222D01*
X7219230Y-6545222D02*
X7228753Y-6526174D01*
X7228753Y-6526174D02*
X7247801Y-6516650D01*
X7247801Y-6516650D02*
X7285896Y-6516650D01*
X7285896Y-6516650D02*
X7304944Y-6526174D01*
X7304944Y-6526174D02*
X7314468Y-6545222D01*
X7314468Y-6545222D02*
X7314468Y-6564269D01*
X7314468Y-6564269D02*
X7219230Y-6583317D01*
X7390658Y-6640460D02*
X7409706Y-6649984D01*
X7409706Y-6649984D02*
X7447801Y-6649984D01*
X7447801Y-6649984D02*
X7466849Y-6640460D01*
X7466849Y-6640460D02*
X7476372Y-6621412D01*
X7476372Y-6621412D02*
X7476372Y-6611888D01*
X7476372Y-6611888D02*
X7466849Y-6592841D01*
X7466849Y-6592841D02*
X7447801Y-6583317D01*
X7447801Y-6583317D02*
X7419230Y-6583317D01*
X7419230Y-6583317D02*
X7400182Y-6573793D01*
X7400182Y-6573793D02*
X7390658Y-6554746D01*
X7390658Y-6554746D02*
X7390658Y-6545222D01*
X7390658Y-6545222D02*
X7400182Y-6526174D01*
X7400182Y-6526174D02*
X7419230Y-6516650D01*
X7419230Y-6516650D02*
X7447801Y-6516650D01*
X7447801Y-6516650D02*
X7466849Y-6526174D01*
X7543039Y-6726174D02*
X7552563Y-6716650D01*
X7552563Y-6716650D02*
X7571611Y-6688079D01*
X7571611Y-6688079D02*
X7581134Y-6669031D01*
X7581134Y-6669031D02*
X7590658Y-6640460D01*
X7590658Y-6640460D02*
X7600182Y-6592841D01*
X7600182Y-6592841D02*
X7600182Y-6554746D01*
X7600182Y-6554746D02*
X7590658Y-6507127D01*
X7590658Y-6507127D02*
X7581134Y-6478555D01*
X7581134Y-6478555D02*
X7571611Y-6459508D01*
X7571611Y-6459508D02*
X7552563Y-6430936D01*
X7552563Y-6430936D02*
X7543039Y-6421412D01*
D13*
X2457500Y-6762500D02*
X2577500Y-6882500D01*
X2577500Y-6762500D02*
X2457500Y-6882500D01*
X2577500Y-6822500D02*
G75*
G02*
X2457500Y-6822500I-60000J0D01*
G01*
X2457500Y-6822500D02*
G75*
G02*
X2577500Y-6822500I60000J0D01*
G01*
D11*
X2943039Y-6913984D02*
X2828753Y-6913984D01*
X2885896Y-6913984D02*
X2885896Y-6713984D01*
X2885896Y-6713984D02*
X2866848Y-6742555D01*
X2866848Y-6742555D02*
X2847801Y-6761603D01*
X2847801Y-6761603D02*
X2828753Y-6771127D01*
X3028753Y-6894936D02*
X3038277Y-6904460D01*
X3038277Y-6904460D02*
X3028753Y-6913984D01*
X3028753Y-6913984D02*
X3019229Y-6904460D01*
X3019229Y-6904460D02*
X3028753Y-6894936D01*
X3028753Y-6894936D02*
X3028753Y-6913984D01*
X3114467Y-6733031D02*
X3123991Y-6723508D01*
X3123991Y-6723508D02*
X3143039Y-6713984D01*
X3143039Y-6713984D02*
X3190658Y-6713984D01*
X3190658Y-6713984D02*
X3209705Y-6723508D01*
X3209705Y-6723508D02*
X3219229Y-6733031D01*
X3219229Y-6733031D02*
X3228753Y-6752079D01*
X3228753Y-6752079D02*
X3228753Y-6771127D01*
X3228753Y-6771127D02*
X3219229Y-6799698D01*
X3219229Y-6799698D02*
X3104943Y-6913984D01*
X3104943Y-6913984D02*
X3228753Y-6913984D01*
X3352562Y-6713984D02*
X3371610Y-6713984D01*
X3371610Y-6713984D02*
X3390658Y-6723508D01*
X3390658Y-6723508D02*
X3400182Y-6733031D01*
X3400182Y-6733031D02*
X3409705Y-6752079D01*
X3409705Y-6752079D02*
X3419229Y-6790174D01*
X3419229Y-6790174D02*
X3419229Y-6837793D01*
X3419229Y-6837793D02*
X3409705Y-6875888D01*
X3409705Y-6875888D02*
X3400182Y-6894936D01*
X3400182Y-6894936D02*
X3390658Y-6904460D01*
X3390658Y-6904460D02*
X3371610Y-6913984D01*
X3371610Y-6913984D02*
X3352562Y-6913984D01*
X3352562Y-6913984D02*
X3333515Y-6904460D01*
X3333515Y-6904460D02*
X3323991Y-6894936D01*
X3323991Y-6894936D02*
X3314467Y-6875888D01*
X3314467Y-6875888D02*
X3304943Y-6837793D01*
X3304943Y-6837793D02*
X3304943Y-6790174D01*
X3304943Y-6790174D02*
X3314467Y-6752079D01*
X3314467Y-6752079D02*
X3323991Y-6733031D01*
X3323991Y-6733031D02*
X3333515Y-6723508D01*
X3333515Y-6723508D02*
X3352562Y-6713984D01*
X3543039Y-6713984D02*
X3562086Y-6713984D01*
X3562086Y-6713984D02*
X3581134Y-6723508D01*
X3581134Y-6723508D02*
X3590658Y-6733031D01*
X3590658Y-6733031D02*
X3600182Y-6752079D01*
X3600182Y-6752079D02*
X3609705Y-6790174D01*
X3609705Y-6790174D02*
X3609705Y-6837793D01*
X3609705Y-6837793D02*
X3600182Y-6875888D01*
X3600182Y-6875888D02*
X3590658Y-6894936D01*
X3590658Y-6894936D02*
X3581134Y-6904460D01*
X3581134Y-6904460D02*
X3562086Y-6913984D01*
X3562086Y-6913984D02*
X3543039Y-6913984D01*
X3543039Y-6913984D02*
X3523991Y-6904460D01*
X3523991Y-6904460D02*
X3514467Y-6894936D01*
X3514467Y-6894936D02*
X3504943Y-6875888D01*
X3504943Y-6875888D02*
X3495420Y-6837793D01*
X3495420Y-6837793D02*
X3495420Y-6790174D01*
X3495420Y-6790174D02*
X3504943Y-6752079D01*
X3504943Y-6752079D02*
X3514467Y-6733031D01*
X3514467Y-6733031D02*
X3523991Y-6723508D01*
X3523991Y-6723508D02*
X3543039Y-6713984D01*
X3695420Y-6913984D02*
X3695420Y-6780650D01*
X3695420Y-6799698D02*
X3704943Y-6790174D01*
X3704943Y-6790174D02*
X3723991Y-6780650D01*
X3723991Y-6780650D02*
X3752563Y-6780650D01*
X3752563Y-6780650D02*
X3771610Y-6790174D01*
X3771610Y-6790174D02*
X3781134Y-6809222D01*
X3781134Y-6809222D02*
X3781134Y-6913984D01*
X3781134Y-6809222D02*
X3790658Y-6790174D01*
X3790658Y-6790174D02*
X3809705Y-6780650D01*
X3809705Y-6780650D02*
X3838277Y-6780650D01*
X3838277Y-6780650D02*
X3857324Y-6790174D01*
X3857324Y-6790174D02*
X3866848Y-6809222D01*
X3866848Y-6809222D02*
X3866848Y-6913984D01*
X3962086Y-6913984D02*
X3962086Y-6780650D01*
X3962086Y-6799698D02*
X3971610Y-6790174D01*
X3971610Y-6790174D02*
X3990658Y-6780650D01*
X3990658Y-6780650D02*
X4019229Y-6780650D01*
X4019229Y-6780650D02*
X4038277Y-6790174D01*
X4038277Y-6790174D02*
X4047801Y-6809222D01*
X4047801Y-6809222D02*
X4047801Y-6913984D01*
X4047801Y-6809222D02*
X4057324Y-6790174D01*
X4057324Y-6790174D02*
X4076372Y-6780650D01*
X4076372Y-6780650D02*
X4104943Y-6780650D01*
X4104943Y-6780650D02*
X4123991Y-6790174D01*
X4123991Y-6790174D02*
X4133515Y-6809222D01*
X4133515Y-6809222D02*
X4133515Y-6913984D01*
X4523991Y-6704460D02*
X4352563Y-6961603D01*
X4781134Y-6713984D02*
X4800182Y-6713984D01*
X4800182Y-6713984D02*
X4819229Y-6723508D01*
X4819229Y-6723508D02*
X4828753Y-6733031D01*
X4828753Y-6733031D02*
X4838277Y-6752079D01*
X4838277Y-6752079D02*
X4847801Y-6790174D01*
X4847801Y-6790174D02*
X4847801Y-6837793D01*
X4847801Y-6837793D02*
X4838277Y-6875888D01*
X4838277Y-6875888D02*
X4828753Y-6894936D01*
X4828753Y-6894936D02*
X4819229Y-6904460D01*
X4819229Y-6904460D02*
X4800182Y-6913984D01*
X4800182Y-6913984D02*
X4781134Y-6913984D01*
X4781134Y-6913984D02*
X4762087Y-6904460D01*
X4762087Y-6904460D02*
X4752563Y-6894936D01*
X4752563Y-6894936D02*
X4743039Y-6875888D01*
X4743039Y-6875888D02*
X4733515Y-6837793D01*
X4733515Y-6837793D02*
X4733515Y-6790174D01*
X4733515Y-6790174D02*
X4743039Y-6752079D01*
X4743039Y-6752079D02*
X4752563Y-6733031D01*
X4752563Y-6733031D02*
X4762087Y-6723508D01*
X4762087Y-6723508D02*
X4781134Y-6713984D01*
X4933515Y-6894936D02*
X4943039Y-6904460D01*
X4943039Y-6904460D02*
X4933515Y-6913984D01*
X4933515Y-6913984D02*
X4923991Y-6904460D01*
X4923991Y-6904460D02*
X4933515Y-6894936D01*
X4933515Y-6894936D02*
X4933515Y-6913984D01*
X5066848Y-6713984D02*
X5085896Y-6713984D01*
X5085896Y-6713984D02*
X5104944Y-6723508D01*
X5104944Y-6723508D02*
X5114468Y-6733031D01*
X5114468Y-6733031D02*
X5123991Y-6752079D01*
X5123991Y-6752079D02*
X5133515Y-6790174D01*
X5133515Y-6790174D02*
X5133515Y-6837793D01*
X5133515Y-6837793D02*
X5123991Y-6875888D01*
X5123991Y-6875888D02*
X5114468Y-6894936D01*
X5114468Y-6894936D02*
X5104944Y-6904460D01*
X5104944Y-6904460D02*
X5085896Y-6913984D01*
X5085896Y-6913984D02*
X5066848Y-6913984D01*
X5066848Y-6913984D02*
X5047801Y-6904460D01*
X5047801Y-6904460D02*
X5038277Y-6894936D01*
X5038277Y-6894936D02*
X5028753Y-6875888D01*
X5028753Y-6875888D02*
X5019229Y-6837793D01*
X5019229Y-6837793D02*
X5019229Y-6790174D01*
X5019229Y-6790174D02*
X5028753Y-6752079D01*
X5028753Y-6752079D02*
X5038277Y-6733031D01*
X5038277Y-6733031D02*
X5047801Y-6723508D01*
X5047801Y-6723508D02*
X5066848Y-6713984D01*
X5304944Y-6780650D02*
X5304944Y-6913984D01*
X5257325Y-6704460D02*
X5209706Y-6847317D01*
X5209706Y-6847317D02*
X5333515Y-6847317D01*
X5390658Y-6713984D02*
X5523991Y-6713984D01*
X5523991Y-6713984D02*
X5438277Y-6913984D01*
X5590658Y-6733031D02*
X5600182Y-6723508D01*
X5600182Y-6723508D02*
X5619229Y-6713984D01*
X5619229Y-6713984D02*
X5666848Y-6713984D01*
X5666848Y-6713984D02*
X5685896Y-6723508D01*
X5685896Y-6723508D02*
X5695420Y-6733031D01*
X5695420Y-6733031D02*
X5704944Y-6752079D01*
X5704944Y-6752079D02*
X5704944Y-6771127D01*
X5704944Y-6771127D02*
X5695420Y-6799698D01*
X5695420Y-6799698D02*
X5581134Y-6913984D01*
X5581134Y-6913984D02*
X5704944Y-6913984D01*
X5781134Y-6713984D02*
X5781134Y-6752079D01*
X5857325Y-6713984D02*
X5857325Y-6752079D01*
X6152563Y-6990174D02*
X6143039Y-6980650D01*
X6143039Y-6980650D02*
X6123991Y-6952079D01*
X6123991Y-6952079D02*
X6114468Y-6933031D01*
X6114468Y-6933031D02*
X6104944Y-6904460D01*
X6104944Y-6904460D02*
X6095420Y-6856841D01*
X6095420Y-6856841D02*
X6095420Y-6818746D01*
X6095420Y-6818746D02*
X6104944Y-6771127D01*
X6104944Y-6771127D02*
X6114468Y-6742555D01*
X6114468Y-6742555D02*
X6123991Y-6723508D01*
X6123991Y-6723508D02*
X6143039Y-6694936D01*
X6143039Y-6694936D02*
X6152563Y-6685412D01*
X6314468Y-6780650D02*
X6314468Y-6913984D01*
X6266848Y-6704460D02*
X6219229Y-6847317D01*
X6219229Y-6847317D02*
X6343039Y-6847317D01*
X6571610Y-6913984D02*
X6571610Y-6713984D01*
X6657325Y-6913984D02*
X6657325Y-6809222D01*
X6657325Y-6809222D02*
X6647801Y-6790174D01*
X6647801Y-6790174D02*
X6628753Y-6780650D01*
X6628753Y-6780650D02*
X6600182Y-6780650D01*
X6600182Y-6780650D02*
X6581134Y-6790174D01*
X6581134Y-6790174D02*
X6571610Y-6799698D01*
X6781134Y-6913984D02*
X6762087Y-6904460D01*
X6762087Y-6904460D02*
X6752563Y-6894936D01*
X6752563Y-6894936D02*
X6743039Y-6875888D01*
X6743039Y-6875888D02*
X6743039Y-6818746D01*
X6743039Y-6818746D02*
X6752563Y-6799698D01*
X6752563Y-6799698D02*
X6762087Y-6790174D01*
X6762087Y-6790174D02*
X6781134Y-6780650D01*
X6781134Y-6780650D02*
X6809706Y-6780650D01*
X6809706Y-6780650D02*
X6828753Y-6790174D01*
X6828753Y-6790174D02*
X6838277Y-6799698D01*
X6838277Y-6799698D02*
X6847801Y-6818746D01*
X6847801Y-6818746D02*
X6847801Y-6875888D01*
X6847801Y-6875888D02*
X6838277Y-6894936D01*
X6838277Y-6894936D02*
X6828753Y-6904460D01*
X6828753Y-6904460D02*
X6809706Y-6913984D01*
X6809706Y-6913984D02*
X6781134Y-6913984D01*
X6962087Y-6913984D02*
X6943039Y-6904460D01*
X6943039Y-6904460D02*
X6933515Y-6885412D01*
X6933515Y-6885412D02*
X6933515Y-6713984D01*
X7114468Y-6904460D02*
X7095420Y-6913984D01*
X7095420Y-6913984D02*
X7057325Y-6913984D01*
X7057325Y-6913984D02*
X7038277Y-6904460D01*
X7038277Y-6904460D02*
X7028753Y-6885412D01*
X7028753Y-6885412D02*
X7028753Y-6809222D01*
X7028753Y-6809222D02*
X7038277Y-6790174D01*
X7038277Y-6790174D02*
X7057325Y-6780650D01*
X7057325Y-6780650D02*
X7095420Y-6780650D01*
X7095420Y-6780650D02*
X7114468Y-6790174D01*
X7114468Y-6790174D02*
X7123991Y-6809222D01*
X7123991Y-6809222D02*
X7123991Y-6828269D01*
X7123991Y-6828269D02*
X7028753Y-6847317D01*
X7200182Y-6904460D02*
X7219230Y-6913984D01*
X7219230Y-6913984D02*
X7257325Y-6913984D01*
X7257325Y-6913984D02*
X7276372Y-6904460D01*
X7276372Y-6904460D02*
X7285896Y-6885412D01*
X7285896Y-6885412D02*
X7285896Y-6875888D01*
X7285896Y-6875888D02*
X7276372Y-6856841D01*
X7276372Y-6856841D02*
X7257325Y-6847317D01*
X7257325Y-6847317D02*
X7228753Y-6847317D01*
X7228753Y-6847317D02*
X7209706Y-6837793D01*
X7209706Y-6837793D02*
X7200182Y-6818746D01*
X7200182Y-6818746D02*
X7200182Y-6809222D01*
X7200182Y-6809222D02*
X7209706Y-6790174D01*
X7209706Y-6790174D02*
X7228753Y-6780650D01*
X7228753Y-6780650D02*
X7257325Y-6780650D01*
X7257325Y-6780650D02*
X7276372Y-6790174D01*
X7352563Y-6990174D02*
X7362087Y-6980650D01*
X7362087Y-6980650D02*
X7381134Y-6952079D01*
X7381134Y-6952079D02*
X7390658Y-6933031D01*
X7390658Y-6933031D02*
X7400182Y-6904460D01*
X7400182Y-6904460D02*
X7409706Y-6856841D01*
X7409706Y-6856841D02*
X7409706Y-6818746D01*
X7409706Y-6818746D02*
X7400182Y-6771127D01*
X7400182Y-6771127D02*
X7390658Y-6742555D01*
X7390658Y-6742555D02*
X7381134Y-6723508D01*
X7381134Y-6723508D02*
X7362087Y-6694936D01*
X7362087Y-6694936D02*
X7352563Y-6685412D01*
D14*
X2387500Y-6991500D02*
X2577500Y-7181500D01*
X2577500Y-6991500D02*
X2387500Y-7181500D01*
X2482500Y-6991500D02*
X2482500Y-7181500D01*
X2387500Y-7086500D02*
X2577500Y-7086500D01*
D11*
X2943039Y-7177984D02*
X2828753Y-7177984D01*
X2885896Y-7177984D02*
X2885896Y-6977984D01*
X2885896Y-6977984D02*
X2866848Y-7006555D01*
X2866848Y-7006555D02*
X2847801Y-7025603D01*
X2847801Y-7025603D02*
X2828753Y-7035127D01*
X3028753Y-7158936D02*
X3038277Y-7168460D01*
X3038277Y-7168460D02*
X3028753Y-7177984D01*
X3028753Y-7177984D02*
X3019229Y-7168460D01*
X3019229Y-7168460D02*
X3028753Y-7158936D01*
X3028753Y-7158936D02*
X3028753Y-7177984D01*
X3133515Y-7177984D02*
X3171610Y-7177984D01*
X3171610Y-7177984D02*
X3190658Y-7168460D01*
X3190658Y-7168460D02*
X3200182Y-7158936D01*
X3200182Y-7158936D02*
X3219229Y-7130365D01*
X3219229Y-7130365D02*
X3228753Y-7092269D01*
X3228753Y-7092269D02*
X3228753Y-7016079D01*
X3228753Y-7016079D02*
X3219229Y-6997031D01*
X3219229Y-6997031D02*
X3209705Y-6987508D01*
X3209705Y-6987508D02*
X3190658Y-6977984D01*
X3190658Y-6977984D02*
X3152562Y-6977984D01*
X3152562Y-6977984D02*
X3133515Y-6987508D01*
X3133515Y-6987508D02*
X3123991Y-6997031D01*
X3123991Y-6997031D02*
X3114467Y-7016079D01*
X3114467Y-7016079D02*
X3114467Y-7063698D01*
X3114467Y-7063698D02*
X3123991Y-7082746D01*
X3123991Y-7082746D02*
X3133515Y-7092269D01*
X3133515Y-7092269D02*
X3152562Y-7101793D01*
X3152562Y-7101793D02*
X3190658Y-7101793D01*
X3190658Y-7101793D02*
X3209705Y-7092269D01*
X3209705Y-7092269D02*
X3219229Y-7082746D01*
X3219229Y-7082746D02*
X3228753Y-7063698D01*
X3352562Y-6977984D02*
X3371610Y-6977984D01*
X3371610Y-6977984D02*
X3390658Y-6987508D01*
X3390658Y-6987508D02*
X3400182Y-6997031D01*
X3400182Y-6997031D02*
X3409705Y-7016079D01*
X3409705Y-7016079D02*
X3419229Y-7054174D01*
X3419229Y-7054174D02*
X3419229Y-7101793D01*
X3419229Y-7101793D02*
X3409705Y-7139888D01*
X3409705Y-7139888D02*
X3400182Y-7158936D01*
X3400182Y-7158936D02*
X3390658Y-7168460D01*
X3390658Y-7168460D02*
X3371610Y-7177984D01*
X3371610Y-7177984D02*
X3352562Y-7177984D01*
X3352562Y-7177984D02*
X3333515Y-7168460D01*
X3333515Y-7168460D02*
X3323991Y-7158936D01*
X3323991Y-7158936D02*
X3314467Y-7139888D01*
X3314467Y-7139888D02*
X3304943Y-7101793D01*
X3304943Y-7101793D02*
X3304943Y-7054174D01*
X3304943Y-7054174D02*
X3314467Y-7016079D01*
X3314467Y-7016079D02*
X3323991Y-6997031D01*
X3323991Y-6997031D02*
X3333515Y-6987508D01*
X3333515Y-6987508D02*
X3352562Y-6977984D01*
X3543039Y-6977984D02*
X3562086Y-6977984D01*
X3562086Y-6977984D02*
X3581134Y-6987508D01*
X3581134Y-6987508D02*
X3590658Y-6997031D01*
X3590658Y-6997031D02*
X3600182Y-7016079D01*
X3600182Y-7016079D02*
X3609705Y-7054174D01*
X3609705Y-7054174D02*
X3609705Y-7101793D01*
X3609705Y-7101793D02*
X3600182Y-7139888D01*
X3600182Y-7139888D02*
X3590658Y-7158936D01*
X3590658Y-7158936D02*
X3581134Y-7168460D01*
X3581134Y-7168460D02*
X3562086Y-7177984D01*
X3562086Y-7177984D02*
X3543039Y-7177984D01*
X3543039Y-7177984D02*
X3523991Y-7168460D01*
X3523991Y-7168460D02*
X3514467Y-7158936D01*
X3514467Y-7158936D02*
X3504943Y-7139888D01*
X3504943Y-7139888D02*
X3495420Y-7101793D01*
X3495420Y-7101793D02*
X3495420Y-7054174D01*
X3495420Y-7054174D02*
X3504943Y-7016079D01*
X3504943Y-7016079D02*
X3514467Y-6997031D01*
X3514467Y-6997031D02*
X3523991Y-6987508D01*
X3523991Y-6987508D02*
X3543039Y-6977984D01*
X3695420Y-7177984D02*
X3695420Y-7044650D01*
X3695420Y-7063698D02*
X3704943Y-7054174D01*
X3704943Y-7054174D02*
X3723991Y-7044650D01*
X3723991Y-7044650D02*
X3752563Y-7044650D01*
X3752563Y-7044650D02*
X3771610Y-7054174D01*
X3771610Y-7054174D02*
X3781134Y-7073222D01*
X3781134Y-7073222D02*
X3781134Y-7177984D01*
X3781134Y-7073222D02*
X3790658Y-7054174D01*
X3790658Y-7054174D02*
X3809705Y-7044650D01*
X3809705Y-7044650D02*
X3838277Y-7044650D01*
X3838277Y-7044650D02*
X3857324Y-7054174D01*
X3857324Y-7054174D02*
X3866848Y-7073222D01*
X3866848Y-7073222D02*
X3866848Y-7177984D01*
X3962086Y-7177984D02*
X3962086Y-7044650D01*
X3962086Y-7063698D02*
X3971610Y-7054174D01*
X3971610Y-7054174D02*
X3990658Y-7044650D01*
X3990658Y-7044650D02*
X4019229Y-7044650D01*
X4019229Y-7044650D02*
X4038277Y-7054174D01*
X4038277Y-7054174D02*
X4047801Y-7073222D01*
X4047801Y-7073222D02*
X4047801Y-7177984D01*
X4047801Y-7073222D02*
X4057324Y-7054174D01*
X4057324Y-7054174D02*
X4076372Y-7044650D01*
X4076372Y-7044650D02*
X4104943Y-7044650D01*
X4104943Y-7044650D02*
X4123991Y-7054174D01*
X4123991Y-7054174D02*
X4133515Y-7073222D01*
X4133515Y-7073222D02*
X4133515Y-7177984D01*
X4523991Y-6968460D02*
X4352563Y-7225603D01*
X4781134Y-6977984D02*
X4800182Y-6977984D01*
X4800182Y-6977984D02*
X4819229Y-6987508D01*
X4819229Y-6987508D02*
X4828753Y-6997031D01*
X4828753Y-6997031D02*
X4838277Y-7016079D01*
X4838277Y-7016079D02*
X4847801Y-7054174D01*
X4847801Y-7054174D02*
X4847801Y-7101793D01*
X4847801Y-7101793D02*
X4838277Y-7139888D01*
X4838277Y-7139888D02*
X4828753Y-7158936D01*
X4828753Y-7158936D02*
X4819229Y-7168460D01*
X4819229Y-7168460D02*
X4800182Y-7177984D01*
X4800182Y-7177984D02*
X4781134Y-7177984D01*
X4781134Y-7177984D02*
X4762087Y-7168460D01*
X4762087Y-7168460D02*
X4752563Y-7158936D01*
X4752563Y-7158936D02*
X4743039Y-7139888D01*
X4743039Y-7139888D02*
X4733515Y-7101793D01*
X4733515Y-7101793D02*
X4733515Y-7054174D01*
X4733515Y-7054174D02*
X4743039Y-7016079D01*
X4743039Y-7016079D02*
X4752563Y-6997031D01*
X4752563Y-6997031D02*
X4762087Y-6987508D01*
X4762087Y-6987508D02*
X4781134Y-6977984D01*
X4933515Y-7158936D02*
X4943039Y-7168460D01*
X4943039Y-7168460D02*
X4933515Y-7177984D01*
X4933515Y-7177984D02*
X4923991Y-7168460D01*
X4923991Y-7168460D02*
X4933515Y-7158936D01*
X4933515Y-7158936D02*
X4933515Y-7177984D01*
X5066848Y-6977984D02*
X5085896Y-6977984D01*
X5085896Y-6977984D02*
X5104944Y-6987508D01*
X5104944Y-6987508D02*
X5114468Y-6997031D01*
X5114468Y-6997031D02*
X5123991Y-7016079D01*
X5123991Y-7016079D02*
X5133515Y-7054174D01*
X5133515Y-7054174D02*
X5133515Y-7101793D01*
X5133515Y-7101793D02*
X5123991Y-7139888D01*
X5123991Y-7139888D02*
X5114468Y-7158936D01*
X5114468Y-7158936D02*
X5104944Y-7168460D01*
X5104944Y-7168460D02*
X5085896Y-7177984D01*
X5085896Y-7177984D02*
X5066848Y-7177984D01*
X5066848Y-7177984D02*
X5047801Y-7168460D01*
X5047801Y-7168460D02*
X5038277Y-7158936D01*
X5038277Y-7158936D02*
X5028753Y-7139888D01*
X5028753Y-7139888D02*
X5019229Y-7101793D01*
X5019229Y-7101793D02*
X5019229Y-7054174D01*
X5019229Y-7054174D02*
X5028753Y-7016079D01*
X5028753Y-7016079D02*
X5038277Y-6997031D01*
X5038277Y-6997031D02*
X5047801Y-6987508D01*
X5047801Y-6987508D02*
X5066848Y-6977984D01*
X5200182Y-6977984D02*
X5333515Y-6977984D01*
X5333515Y-6977984D02*
X5247801Y-7177984D01*
X5495420Y-7044650D02*
X5495420Y-7177984D01*
X5447801Y-6968460D02*
X5400182Y-7111317D01*
X5400182Y-7111317D02*
X5523991Y-7111317D01*
X5628753Y-7063698D02*
X5609706Y-7054174D01*
X5609706Y-7054174D02*
X5600182Y-7044650D01*
X5600182Y-7044650D02*
X5590658Y-7025603D01*
X5590658Y-7025603D02*
X5590658Y-7016079D01*
X5590658Y-7016079D02*
X5600182Y-6997031D01*
X5600182Y-6997031D02*
X5609706Y-6987508D01*
X5609706Y-6987508D02*
X5628753Y-6977984D01*
X5628753Y-6977984D02*
X5666848Y-6977984D01*
X5666848Y-6977984D02*
X5685896Y-6987508D01*
X5685896Y-6987508D02*
X5695420Y-6997031D01*
X5695420Y-6997031D02*
X5704944Y-7016079D01*
X5704944Y-7016079D02*
X5704944Y-7025603D01*
X5704944Y-7025603D02*
X5695420Y-7044650D01*
X5695420Y-7044650D02*
X5685896Y-7054174D01*
X5685896Y-7054174D02*
X5666848Y-7063698D01*
X5666848Y-7063698D02*
X5628753Y-7063698D01*
X5628753Y-7063698D02*
X5609706Y-7073222D01*
X5609706Y-7073222D02*
X5600182Y-7082746D01*
X5600182Y-7082746D02*
X5590658Y-7101793D01*
X5590658Y-7101793D02*
X5590658Y-7139888D01*
X5590658Y-7139888D02*
X5600182Y-7158936D01*
X5600182Y-7158936D02*
X5609706Y-7168460D01*
X5609706Y-7168460D02*
X5628753Y-7177984D01*
X5628753Y-7177984D02*
X5666848Y-7177984D01*
X5666848Y-7177984D02*
X5685896Y-7168460D01*
X5685896Y-7168460D02*
X5695420Y-7158936D01*
X5695420Y-7158936D02*
X5704944Y-7139888D01*
X5704944Y-7139888D02*
X5704944Y-7101793D01*
X5704944Y-7101793D02*
X5695420Y-7082746D01*
X5695420Y-7082746D02*
X5685896Y-7073222D01*
X5685896Y-7073222D02*
X5666848Y-7063698D01*
X5781134Y-6977984D02*
X5781134Y-7016079D01*
X5857325Y-6977984D02*
X5857325Y-7016079D01*
X6152563Y-7254174D02*
X6143039Y-7244650D01*
X6143039Y-7244650D02*
X6123991Y-7216079D01*
X6123991Y-7216079D02*
X6114468Y-7197031D01*
X6114468Y-7197031D02*
X6104944Y-7168460D01*
X6104944Y-7168460D02*
X6095420Y-7120841D01*
X6095420Y-7120841D02*
X6095420Y-7082746D01*
X6095420Y-7082746D02*
X6104944Y-7035127D01*
X6104944Y-7035127D02*
X6114468Y-7006555D01*
X6114468Y-7006555D02*
X6123991Y-6987508D01*
X6123991Y-6987508D02*
X6143039Y-6958936D01*
X6143039Y-6958936D02*
X6152563Y-6949412D01*
X6219229Y-6997031D02*
X6228753Y-6987508D01*
X6228753Y-6987508D02*
X6247801Y-6977984D01*
X6247801Y-6977984D02*
X6295420Y-6977984D01*
X6295420Y-6977984D02*
X6314468Y-6987508D01*
X6314468Y-6987508D02*
X6323991Y-6997031D01*
X6323991Y-6997031D02*
X6333515Y-7016079D01*
X6333515Y-7016079D02*
X6333515Y-7035127D01*
X6333515Y-7035127D02*
X6323991Y-7063698D01*
X6323991Y-7063698D02*
X6209706Y-7177984D01*
X6209706Y-7177984D02*
X6333515Y-7177984D01*
X6571610Y-7177984D02*
X6571610Y-6977984D01*
X6657325Y-7177984D02*
X6657325Y-7073222D01*
X6657325Y-7073222D02*
X6647801Y-7054174D01*
X6647801Y-7054174D02*
X6628753Y-7044650D01*
X6628753Y-7044650D02*
X6600182Y-7044650D01*
X6600182Y-7044650D02*
X6581134Y-7054174D01*
X6581134Y-7054174D02*
X6571610Y-7063698D01*
X6781134Y-7177984D02*
X6762087Y-7168460D01*
X6762087Y-7168460D02*
X6752563Y-7158936D01*
X6752563Y-7158936D02*
X6743039Y-7139888D01*
X6743039Y-7139888D02*
X6743039Y-7082746D01*
X6743039Y-7082746D02*
X6752563Y-7063698D01*
X6752563Y-7063698D02*
X6762087Y-7054174D01*
X6762087Y-7054174D02*
X6781134Y-7044650D01*
X6781134Y-7044650D02*
X6809706Y-7044650D01*
X6809706Y-7044650D02*
X6828753Y-7054174D01*
X6828753Y-7054174D02*
X6838277Y-7063698D01*
X6838277Y-7063698D02*
X6847801Y-7082746D01*
X6847801Y-7082746D02*
X6847801Y-7139888D01*
X6847801Y-7139888D02*
X6838277Y-7158936D01*
X6838277Y-7158936D02*
X6828753Y-7168460D01*
X6828753Y-7168460D02*
X6809706Y-7177984D01*
X6809706Y-7177984D02*
X6781134Y-7177984D01*
X6962087Y-7177984D02*
X6943039Y-7168460D01*
X6943039Y-7168460D02*
X6933515Y-7149412D01*
X6933515Y-7149412D02*
X6933515Y-6977984D01*
X7114468Y-7168460D02*
X7095420Y-7177984D01*
X7095420Y-7177984D02*
X7057325Y-7177984D01*
X7057325Y-7177984D02*
X7038277Y-7168460D01*
X7038277Y-7168460D02*
X7028753Y-7149412D01*
X7028753Y-7149412D02*
X7028753Y-7073222D01*
X7028753Y-7073222D02*
X7038277Y-7054174D01*
X7038277Y-7054174D02*
X7057325Y-7044650D01*
X7057325Y-7044650D02*
X7095420Y-7044650D01*
X7095420Y-7044650D02*
X7114468Y-7054174D01*
X7114468Y-7054174D02*
X7123991Y-7073222D01*
X7123991Y-7073222D02*
X7123991Y-7092269D01*
X7123991Y-7092269D02*
X7028753Y-7111317D01*
X7200182Y-7168460D02*
X7219230Y-7177984D01*
X7219230Y-7177984D02*
X7257325Y-7177984D01*
X7257325Y-7177984D02*
X7276372Y-7168460D01*
X7276372Y-7168460D02*
X7285896Y-7149412D01*
X7285896Y-7149412D02*
X7285896Y-7139888D01*
X7285896Y-7139888D02*
X7276372Y-7120841D01*
X7276372Y-7120841D02*
X7257325Y-7111317D01*
X7257325Y-7111317D02*
X7228753Y-7111317D01*
X7228753Y-7111317D02*
X7209706Y-7101793D01*
X7209706Y-7101793D02*
X7200182Y-7082746D01*
X7200182Y-7082746D02*
X7200182Y-7073222D01*
X7200182Y-7073222D02*
X7209706Y-7054174D01*
X7209706Y-7054174D02*
X7228753Y-7044650D01*
X7228753Y-7044650D02*
X7257325Y-7044650D01*
X7257325Y-7044650D02*
X7276372Y-7054174D01*
X7352563Y-7254174D02*
X7362087Y-7244650D01*
X7362087Y-7244650D02*
X7381134Y-7216079D01*
X7381134Y-7216079D02*
X7390658Y-7197031D01*
X7390658Y-7197031D02*
X7400182Y-7168460D01*
X7400182Y-7168460D02*
X7409706Y-7120841D01*
X7409706Y-7120841D02*
X7409706Y-7082746D01*
X7409706Y-7082746D02*
X7400182Y-7035127D01*
X7400182Y-7035127D02*
X7390658Y-7006555D01*
X7390658Y-7006555D02*
X7381134Y-6987508D01*
X7381134Y-6987508D02*
X7362087Y-6958936D01*
X7362087Y-6958936D02*
X7352563Y-6949412D01*
M02*
