%TF.GenerationSoftware,KiCad,Pcbnew,8.0.4*%
%TF.CreationDate,2025-01-30T16:24:52-05:00*%
%TF.ProjectId,plusle,706c7573-6c65-42e6-9b69-6361645f7063,rev?*%
%TF.SameCoordinates,Original*%
%TF.FileFunction,Copper,L2,Bot*%
%TF.FilePolarity,Positive*%
%FSLAX46Y46*%
G04 Gerber Fmt 4.6, Leading zero omitted, Abs format (unit mm)*
G04 Created by KiCad (PCBNEW 8.0.4) date 2025-01-30 16:24:52*
%MOMM*%
%LPD*%
G01*
G04 APERTURE LIST*
%TA.AperFunction,ComponentPad*%
%ADD10C,2.000000*%
%TD*%
%TA.AperFunction,ComponentPad*%
%ADD11R,2.000000X2.000000*%
%TD*%
%TA.AperFunction,ComponentPad*%
%ADD12C,1.980000*%
%TD*%
%TA.AperFunction,ComponentPad*%
%ADD13C,1.358000*%
%TD*%
%TA.AperFunction,ComponentPad*%
%ADD14R,1.358000X1.358000*%
%TD*%
%TA.AperFunction,ComponentPad*%
%ADD15R,1.308000X1.308000*%
%TD*%
%TA.AperFunction,ComponentPad*%
%ADD16C,1.308000*%
%TD*%
%TA.AperFunction,ComponentPad*%
%ADD17O,1.980000X3.960000*%
%TD*%
%TA.AperFunction,ComponentPad*%
%ADD18R,1.980000X3.960000*%
%TD*%
%TA.AperFunction,ViaPad*%
%ADD19C,1.200000*%
%TD*%
%TA.AperFunction,Conductor*%
%ADD20C,0.500000*%
%TD*%
%TA.AperFunction,Conductor*%
%ADD21C,0.600000*%
%TD*%
G04 APERTURE END LIST*
D10*
%TO.P,U1,30,VIN*%
%TO.N,+5V*%
X73485000Y-38300000D03*
%TO.P,U1,29,GND*%
%TO.N,GND*%
X76025000Y-38300000D03*
%TO.P,U1,28,D13*%
%TO.N,unconnected-(U1-D13-Pad28)*%
X78565000Y-38300000D03*
%TO.P,U1,27,D12*%
%TO.N,unconnected-(U1-D12-Pad27)*%
X81105000Y-38300000D03*
%TO.P,U1,26,D14*%
%TO.N,unconnected-(U1-D14-Pad26)*%
X83645000Y-38300000D03*
%TO.P,U1,25,D27*%
%TO.N,unconnected-(U1-D27-Pad25)*%
X86185000Y-38300000D03*
%TO.P,U1,24,D26*%
%TO.N,unconnected-(U1-D26-Pad24)*%
X88725000Y-38300000D03*
%TO.P,U1,23,D25*%
%TO.N,unconnected-(U1-D25-Pad23)*%
X91265000Y-38300000D03*
%TO.P,U1,22,D33*%
%TO.N,unconnected-(U1-D33-Pad22)*%
X93805000Y-38300000D03*
%TO.P,U1,21,D32*%
%TO.N,PWMA*%
X96345000Y-38300000D03*
%TO.P,U1,20,D35*%
%TO.N,AIn2*%
X98885000Y-38300000D03*
%TO.P,U1,19,D34*%
%TO.N,AIn1*%
X101425000Y-38300000D03*
%TO.P,U1,18,VN*%
%TO.N,unconnected-(U1-VN-Pad18)*%
X103965000Y-38300000D03*
%TO.P,U1,17,VP*%
%TO.N,unconnected-(U1-VP-Pad17)*%
X106505000Y-38300000D03*
%TO.P,U1,16,EN*%
%TO.N,+3.3V*%
X109045000Y-38300000D03*
%TO.P,U1,15,D23*%
%TO.N,unconnected-(U1-D23-Pad15)*%
X109045000Y-63700000D03*
%TO.P,U1,14,D22*%
%TO.N,unconnected-(U1-D22-Pad14)*%
X106505000Y-63700000D03*
%TO.P,U1,13,TX0*%
%TO.N,unconnected-(U1-TX0-Pad13)*%
X103965000Y-63700000D03*
%TO.P,U1,12,RX0*%
%TO.N,unconnected-(U1-RX0-Pad12)*%
X101425000Y-63700000D03*
%TO.P,U1,11,D21*%
%TO.N,PWMB*%
X98885000Y-63700000D03*
%TO.P,U1,10,D19*%
%TO.N,BIn2*%
X96345000Y-63700000D03*
%TO.P,U1,9,D18*%
%TO.N,BIn1*%
X93805000Y-63700000D03*
%TO.P,U1,8,D5*%
%TO.N,unconnected-(U1-D5-Pad8)*%
X91265000Y-63700000D03*
%TO.P,U1,7,TX2*%
%TO.N,unconnected-(U1-TX2-Pad7)*%
X88725000Y-63700000D03*
%TO.P,U1,6,RX2*%
%TO.N,unconnected-(U1-RX2-Pad6)*%
X86185000Y-63700000D03*
%TO.P,U1,5,D4*%
%TO.N,unconnected-(U1-D4-Pad5)*%
X83645000Y-63700000D03*
%TO.P,U1,4,D2*%
%TO.N,unconnected-(U1-D2-Pad4)*%
X81105000Y-63700000D03*
%TO.P,U1,3,D15*%
%TO.N,unconnected-(U1-D15-Pad3)*%
X78565000Y-63700000D03*
%TO.P,U1,2,GND*%
%TO.N,GND*%
X76025000Y-63700000D03*
D11*
%TO.P,U1,1,3V3*%
%TO.N,+3.3V*%
X73485000Y-63700000D03*
%TD*%
D12*
%TO.P,U2,16,PWMA*%
%TO.N,PWMA*%
X117110000Y-47380000D03*
%TO.P,U2,15,AI2*%
%TO.N,AIn2*%
X119650000Y-47380000D03*
%TO.P,U2,14,AI1*%
%TO.N,AIn1*%
X122190000Y-47380000D03*
%TO.P,U2,13,STBY*%
%TO.N,GND*%
X124730000Y-47380000D03*
%TO.P,U2,12,BI1*%
%TO.N,BIn1*%
X127270000Y-47380000D03*
%TO.P,U2,11,BI2*%
%TO.N,BIn2*%
X129810000Y-47380000D03*
%TO.P,U2,10,PWMB*%
%TO.N,PWMB*%
X132350000Y-47380000D03*
%TO.P,U2,9,GND*%
%TO.N,GND*%
X134890000Y-47380000D03*
%TO.P,U2,8,GND*%
X134890000Y-62620000D03*
%TO.P,U2,7,B01*%
%TO.N,Net-(J3-Pin_1)*%
X132350000Y-62620000D03*
%TO.P,U2,6,B02*%
%TO.N,Net-(J3-Pin_2)*%
X129810000Y-62620000D03*
%TO.P,U2,5,A02*%
%TO.N,Net-(J2-Pin_2)*%
X127270000Y-62620000D03*
%TO.P,U2,4,A01*%
%TO.N,Net-(J2-Pin_1)*%
X124730000Y-62620000D03*
%TO.P,U2,3,GND*%
%TO.N,GND*%
X122190000Y-62620000D03*
%TO.P,U2,2,VCC*%
%TO.N,+3.3V*%
X119650000Y-62620000D03*
%TO.P,U2,1,VM*%
%TO.N,+12V*%
X117110000Y-62620000D03*
%TD*%
D13*
%TO.P,PS1,3,+VOUT*%
%TO.N,+5V*%
X140250000Y-45540000D03*
%TO.P,PS1,2,GND*%
%TO.N,GND*%
X140250000Y-43000000D03*
D14*
%TO.P,PS1,1,+VIN*%
%TO.N,+12V*%
X140250000Y-40460000D03*
%TD*%
D15*
%TO.P,SW1,1,A*%
%TO.N,+12V*%
X118420000Y-40000000D03*
D16*
%TO.P,SW1,3,B*%
%TO.N,Net-(J1-Pin_2)*%
X123500000Y-40000000D03*
%TD*%
D17*
%TO.P,J3,2,Pin_2*%
%TO.N,Net-(J3-Pin_2)*%
X151765000Y-59000000D03*
D18*
%TO.P,J3,1,Pin_1*%
%TO.N,Net-(J3-Pin_1)*%
X156765000Y-59000000D03*
%TD*%
D17*
%TO.P,J2,2,Pin_2*%
%TO.N,Net-(J2-Pin_2)*%
X140265000Y-59000000D03*
D18*
%TO.P,J2,1,Pin_1*%
%TO.N,Net-(J2-Pin_1)*%
X145265000Y-59000000D03*
%TD*%
D17*
%TO.P,J1,2,Pin_2*%
%TO.N,Net-(J1-Pin_2)*%
X151765000Y-43000000D03*
D18*
%TO.P,J1,1,Pin_1*%
%TO.N,GND*%
X156765000Y-43000000D03*
%TD*%
D19*
%TO.N,+3.3V*%
X113500000Y-48500000D03*
X116000000Y-51000000D03*
%TO.N,+5V*%
X118000000Y-54500000D03*
X128000000Y-54500000D03*
%TD*%
D20*
%TO.N,Net-(J2-Pin_1)*%
X141765000Y-55500000D02*
X131850000Y-55500000D01*
X131850000Y-55500000D02*
X124730000Y-62620000D01*
X145265000Y-59000000D02*
X141765000Y-55500000D01*
%TO.N,Net-(J2-Pin_2)*%
X130890000Y-59000000D02*
X127270000Y-62620000D01*
X140265000Y-59000000D02*
X130890000Y-59000000D01*
%TO.N,+3.3V*%
X89185000Y-48000000D02*
X99345000Y-48000000D01*
X99345000Y-48000000D02*
X109045000Y-38300000D01*
X73485000Y-63700000D02*
X89185000Y-48000000D01*
%TO.N,+5V*%
X128000000Y-54500000D02*
X118000000Y-54500000D01*
%TO.N,+3.3V*%
X109045000Y-44045000D02*
X109045000Y-38300000D01*
X113500000Y-48500000D02*
X109045000Y-44045000D01*
X116000000Y-58970000D02*
X116000000Y-51000000D01*
X119650000Y-62620000D02*
X116000000Y-58970000D01*
D21*
%TO.N,+12V*%
X114775000Y-60285000D02*
X117110000Y-62620000D01*
X117166000Y-40000000D02*
X114775000Y-42391000D01*
X118420000Y-40000000D02*
X117166000Y-40000000D01*
X114775000Y-42391000D02*
X114775000Y-60285000D01*
%TD*%
%TA.AperFunction,Conductor*%
%TO.N,GND*%
G36*
X159442539Y-36020185D02*
G01*
X159488294Y-36072989D01*
X159499500Y-36124500D01*
X159499500Y-65875500D01*
X159479815Y-65942539D01*
X159427011Y-65988294D01*
X159375500Y-65999500D01*
X63624500Y-65999500D01*
X63557461Y-65979815D01*
X63511706Y-65927011D01*
X63500500Y-65875500D01*
X63500500Y-63165258D01*
X63774500Y-63165258D01*
X63774500Y-63394741D01*
X63793045Y-63535594D01*
X63804452Y-63622238D01*
X63843279Y-63767143D01*
X63863842Y-63843887D01*
X63951650Y-64055876D01*
X63951657Y-64055890D01*
X64066392Y-64254617D01*
X64206081Y-64436661D01*
X64206089Y-64436670D01*
X64368330Y-64598911D01*
X64368338Y-64598918D01*
X64368339Y-64598919D01*
X64402044Y-64624782D01*
X64550382Y-64738607D01*
X64550385Y-64738608D01*
X64550388Y-64738611D01*
X64749112Y-64853344D01*
X64749117Y-64853346D01*
X64749123Y-64853349D01*
X64787727Y-64869339D01*
X64961113Y-64941158D01*
X65182762Y-65000548D01*
X65410266Y-65030500D01*
X65410273Y-65030500D01*
X65639727Y-65030500D01*
X65639734Y-65030500D01*
X65867238Y-65000548D01*
X66088887Y-64941158D01*
X66300888Y-64853344D01*
X66499612Y-64738611D01*
X66681661Y-64598919D01*
X66681665Y-64598914D01*
X66681670Y-64598911D01*
X66843911Y-64436670D01*
X66843914Y-64436665D01*
X66843919Y-64436661D01*
X66983611Y-64254612D01*
X67098344Y-64055888D01*
X67186158Y-63843887D01*
X67245548Y-63622238D01*
X67275500Y-63394734D01*
X67275500Y-63165266D01*
X67245548Y-62937762D01*
X67186158Y-62716113D01*
X67098344Y-62504112D01*
X66983611Y-62305388D01*
X66983608Y-62305385D01*
X66983607Y-62305382D01*
X66843918Y-62123338D01*
X66843911Y-62123330D01*
X66681670Y-61961089D01*
X66681661Y-61961081D01*
X66499617Y-61821392D01*
X66300890Y-61706657D01*
X66300876Y-61706650D01*
X66088887Y-61618842D01*
X65867238Y-61559452D01*
X65829215Y-61554446D01*
X65639741Y-61529500D01*
X65639734Y-61529500D01*
X65410266Y-61529500D01*
X65410258Y-61529500D01*
X65193715Y-61558009D01*
X65182762Y-61559452D01*
X65089076Y-61584554D01*
X64961112Y-61618842D01*
X64749123Y-61706650D01*
X64749109Y-61706657D01*
X64550382Y-61821392D01*
X64368338Y-61961081D01*
X64206081Y-62123338D01*
X64066392Y-62305382D01*
X63951657Y-62504109D01*
X63951650Y-62504123D01*
X63863842Y-62716112D01*
X63804453Y-62937759D01*
X63804451Y-62937770D01*
X63774500Y-63165258D01*
X63500500Y-63165258D01*
X63500500Y-38655258D01*
X63774500Y-38655258D01*
X63774500Y-38884741D01*
X63799446Y-39074215D01*
X63804452Y-39112238D01*
X63852245Y-39290606D01*
X63863842Y-39333887D01*
X63951650Y-39545876D01*
X63951657Y-39545890D01*
X64066392Y-39744617D01*
X64206081Y-39926661D01*
X64206089Y-39926670D01*
X64368330Y-40088911D01*
X64368338Y-40088918D01*
X64550382Y-40228607D01*
X64550385Y-40228608D01*
X64550388Y-40228611D01*
X64749112Y-40343344D01*
X64749117Y-40343346D01*
X64749123Y-40343349D01*
X64840480Y-40381190D01*
X64961113Y-40431158D01*
X65182762Y-40490548D01*
X65410266Y-40520500D01*
X65410273Y-40520500D01*
X65639727Y-40520500D01*
X65639734Y-40520500D01*
X65867238Y-40490548D01*
X66088887Y-40431158D01*
X66300888Y-40343344D01*
X66499612Y-40228611D01*
X66681661Y-40088919D01*
X66681665Y-40088914D01*
X66681670Y-40088911D01*
X66843911Y-39926670D01*
X66843914Y-39926665D01*
X66843919Y-39926661D01*
X66983611Y-39744612D01*
X67098344Y-39545888D01*
X67186158Y-39333887D01*
X67245548Y-39112238D01*
X67275500Y-38884734D01*
X67275500Y-38655266D01*
X67275274Y-38653553D01*
X67269955Y-38613147D01*
X67245548Y-38427762D01*
X67211313Y-38299994D01*
X71979357Y-38299994D01*
X71979357Y-38300005D01*
X71999890Y-38547812D01*
X71999892Y-38547824D01*
X72060936Y-38788881D01*
X72160826Y-39016606D01*
X72296833Y-39224782D01*
X72296836Y-39224785D01*
X72465256Y-39407738D01*
X72661491Y-39560474D01*
X72699712Y-39581158D01*
X72879332Y-39678364D01*
X72880190Y-39678828D01*
X73038381Y-39733135D01*
X73113964Y-39759083D01*
X73115386Y-39759571D01*
X73360665Y-39800500D01*
X73609335Y-39800500D01*
X73854614Y-39759571D01*
X74089810Y-39678828D01*
X74308509Y-39560474D01*
X74504744Y-39407738D01*
X74673164Y-39224785D01*
X74673533Y-39224219D01*
X74673745Y-39224038D01*
X74676322Y-39220729D01*
X74677002Y-39221258D01*
X74726676Y-39178860D01*
X74790138Y-39168697D01*
X74801564Y-39169882D01*
X75533871Y-38437575D01*
X75549755Y-38496853D01*
X75616898Y-38613147D01*
X75711853Y-38708102D01*
X75828147Y-38775245D01*
X75887424Y-38791128D01*
X75154942Y-39523609D01*
X75201768Y-39560055D01*
X75201770Y-39560056D01*
X75420385Y-39678364D01*
X75420396Y-39678369D01*
X75655506Y-39759083D01*
X75900707Y-39800000D01*
X76149293Y-39800000D01*
X76394493Y-39759083D01*
X76629603Y-39678369D01*
X76629614Y-39678364D01*
X76848228Y-39560057D01*
X76848231Y-39560055D01*
X76895056Y-39523609D01*
X76162575Y-38791128D01*
X76221853Y-38775245D01*
X76338147Y-38708102D01*
X76433102Y-38613147D01*
X76500245Y-38496853D01*
X76516128Y-38437575D01*
X77248434Y-39169882D01*
X77259861Y-39168697D01*
X77328573Y-39181360D01*
X77373092Y-39221194D01*
X77373683Y-39220735D01*
X77376218Y-39223992D01*
X77376456Y-39224205D01*
X77376831Y-39224780D01*
X77376836Y-39224785D01*
X77545256Y-39407738D01*
X77741491Y-39560474D01*
X77779712Y-39581158D01*
X77959332Y-39678364D01*
X77960190Y-39678828D01*
X78118381Y-39733135D01*
X78193964Y-39759083D01*
X78195386Y-39759571D01*
X78440665Y-39800500D01*
X78689335Y-39800500D01*
X78934614Y-39759571D01*
X79169810Y-39678828D01*
X79388509Y-39560474D01*
X79584744Y-39407738D01*
X79743771Y-39234988D01*
X79803657Y-39198999D01*
X79873495Y-39201099D01*
X79926228Y-39234988D01*
X80085256Y-39407738D01*
X80281491Y-39560474D01*
X80319712Y-39581158D01*
X80499332Y-39678364D01*
X80500190Y-39678828D01*
X80658381Y-39733135D01*
X80733964Y-39759083D01*
X80735386Y-39759571D01*
X80980665Y-39800500D01*
X81229335Y-39800500D01*
X81474614Y-39759571D01*
X81709810Y-39678828D01*
X81928509Y-39560474D01*
X82124744Y-39407738D01*
X82283771Y-39234988D01*
X82343657Y-39198999D01*
X82413495Y-39201099D01*
X82466228Y-39234988D01*
X82625256Y-39407738D01*
X82821491Y-39560474D01*
X82859712Y-39581158D01*
X83039332Y-39678364D01*
X83040190Y-39678828D01*
X83198381Y-39733135D01*
X83273964Y-39759083D01*
X83275386Y-39759571D01*
X83520665Y-39800500D01*
X83769335Y-39800500D01*
X84014614Y-39759571D01*
X84249810Y-39678828D01*
X84468509Y-39560474D01*
X84664744Y-39407738D01*
X84823771Y-39234988D01*
X84883657Y-39198999D01*
X84953495Y-39201099D01*
X85006228Y-39234988D01*
X85165256Y-39407738D01*
X85361491Y-39560474D01*
X85399712Y-39581158D01*
X85579332Y-39678364D01*
X85580190Y-39678828D01*
X85738381Y-39733135D01*
X85813964Y-39759083D01*
X85815386Y-39759571D01*
X86060665Y-39800500D01*
X86309335Y-39800500D01*
X86554614Y-39759571D01*
X86789810Y-39678828D01*
X87008509Y-39560474D01*
X87204744Y-39407738D01*
X87363771Y-39234988D01*
X87423657Y-39198999D01*
X87493495Y-39201099D01*
X87546228Y-39234988D01*
X87705256Y-39407738D01*
X87901491Y-39560474D01*
X87939712Y-39581158D01*
X88119332Y-39678364D01*
X88120190Y-39678828D01*
X88278381Y-39733135D01*
X88353964Y-39759083D01*
X88355386Y-39759571D01*
X88600665Y-39800500D01*
X88849335Y-39800500D01*
X89094614Y-39759571D01*
X89329810Y-39678828D01*
X89548509Y-39560474D01*
X89744744Y-39407738D01*
X89903771Y-39234988D01*
X89963657Y-39198999D01*
X90033495Y-39201099D01*
X90086228Y-39234988D01*
X90245256Y-39407738D01*
X90441491Y-39560474D01*
X90479712Y-39581158D01*
X90659332Y-39678364D01*
X90660190Y-39678828D01*
X90818381Y-39733135D01*
X90893964Y-39759083D01*
X90895386Y-39759571D01*
X91140665Y-39800500D01*
X91389335Y-39800500D01*
X91634614Y-39759571D01*
X91869810Y-39678828D01*
X92088509Y-39560474D01*
X92284744Y-39407738D01*
X92443771Y-39234988D01*
X92503657Y-39198999D01*
X92573495Y-39201099D01*
X92626228Y-39234988D01*
X92785256Y-39407738D01*
X92981491Y-39560474D01*
X93019712Y-39581158D01*
X93199332Y-39678364D01*
X93200190Y-39678828D01*
X93358381Y-39733135D01*
X93433964Y-39759083D01*
X93435386Y-39759571D01*
X93680665Y-39800500D01*
X93929335Y-39800500D01*
X94174614Y-39759571D01*
X94409810Y-39678828D01*
X94628509Y-39560474D01*
X94824744Y-39407738D01*
X94983771Y-39234988D01*
X95043657Y-39198999D01*
X95113495Y-39201099D01*
X95166228Y-39234988D01*
X95325256Y-39407738D01*
X95521491Y-39560474D01*
X95559712Y-39581158D01*
X95739332Y-39678364D01*
X95740190Y-39678828D01*
X95898381Y-39733135D01*
X95973964Y-39759083D01*
X95975386Y-39759571D01*
X96220665Y-39800500D01*
X96469335Y-39800500D01*
X96714614Y-39759571D01*
X96949810Y-39678828D01*
X97168509Y-39560474D01*
X97364744Y-39407738D01*
X97523771Y-39234988D01*
X97583657Y-39198999D01*
X97653495Y-39201099D01*
X97706228Y-39234988D01*
X97865256Y-39407738D01*
X98061491Y-39560474D01*
X98099712Y-39581158D01*
X98279332Y-39678364D01*
X98280190Y-39678828D01*
X98438381Y-39733135D01*
X98513964Y-39759083D01*
X98515386Y-39759571D01*
X98760665Y-39800500D01*
X99009335Y-39800500D01*
X99254614Y-39759571D01*
X99489810Y-39678828D01*
X99708509Y-39560474D01*
X99904744Y-39407738D01*
X100063771Y-39234988D01*
X100123657Y-39198999D01*
X100193495Y-39201099D01*
X100246228Y-39234988D01*
X100405256Y-39407738D01*
X100601491Y-39560474D01*
X100639712Y-39581158D01*
X100819332Y-39678364D01*
X100820190Y-39678828D01*
X100978381Y-39733135D01*
X101053964Y-39759083D01*
X101055386Y-39759571D01*
X101300665Y-39800500D01*
X101549335Y-39800500D01*
X101794614Y-39759571D01*
X102029810Y-39678828D01*
X102248509Y-39560474D01*
X102444744Y-39407738D01*
X102603771Y-39234988D01*
X102663657Y-39198999D01*
X102733495Y-39201099D01*
X102786228Y-39234988D01*
X102945256Y-39407738D01*
X103141491Y-39560474D01*
X103179712Y-39581158D01*
X103359332Y-39678364D01*
X103360190Y-39678828D01*
X103518381Y-39733135D01*
X103593964Y-39759083D01*
X103595386Y-39759571D01*
X103840665Y-39800500D01*
X104089335Y-39800500D01*
X104334614Y-39759571D01*
X104569810Y-39678828D01*
X104788509Y-39560474D01*
X104984744Y-39407738D01*
X105143771Y-39234988D01*
X105203657Y-39198999D01*
X105273495Y-39201099D01*
X105326228Y-39234988D01*
X105485256Y-39407738D01*
X105681491Y-39560474D01*
X105719712Y-39581158D01*
X105899332Y-39678364D01*
X105900190Y-39678828D01*
X106135386Y-39759571D01*
X106230867Y-39775503D01*
X106293752Y-39805953D01*
X106330192Y-39865567D01*
X106328618Y-39935419D01*
X106298139Y-39985493D01*
X99070451Y-47213181D01*
X99009128Y-47246666D01*
X98982770Y-47249500D01*
X89111080Y-47249500D01*
X88966092Y-47278340D01*
X88966086Y-47278342D01*
X88829508Y-47334914D01*
X88829496Y-47334921D01*
X88780269Y-47367813D01*
X88706588Y-47417044D01*
X88706580Y-47417050D01*
X73960449Y-62163181D01*
X73899126Y-62196666D01*
X73872768Y-62199500D01*
X72437129Y-62199500D01*
X72437123Y-62199501D01*
X72377516Y-62205908D01*
X72242671Y-62256202D01*
X72242664Y-62256206D01*
X72127455Y-62342452D01*
X72127452Y-62342455D01*
X72041206Y-62457664D01*
X72041202Y-62457671D01*
X71990908Y-62592517D01*
X71984501Y-62652116D01*
X71984500Y-62652135D01*
X71984500Y-64747870D01*
X71984501Y-64747876D01*
X71990908Y-64807483D01*
X72041202Y-64942328D01*
X72041206Y-64942335D01*
X72127452Y-65057544D01*
X72127455Y-65057547D01*
X72242664Y-65143793D01*
X72242671Y-65143797D01*
X72377517Y-65194091D01*
X72377516Y-65194091D01*
X72384444Y-65194835D01*
X72437127Y-65200500D01*
X74532872Y-65200499D01*
X74592483Y-65194091D01*
X74727331Y-65143796D01*
X74842546Y-65057546D01*
X74928796Y-64942331D01*
X74928797Y-64942326D01*
X74933047Y-64934546D01*
X74936135Y-64936232D01*
X74967873Y-64893790D01*
X75033324Y-64869339D01*
X75101605Y-64884155D01*
X75118398Y-64895165D01*
X75201768Y-64960055D01*
X75201771Y-64960057D01*
X75420385Y-65078364D01*
X75420396Y-65078369D01*
X75655506Y-65159083D01*
X75900707Y-65200000D01*
X76149293Y-65200000D01*
X76394493Y-65159083D01*
X76629603Y-65078369D01*
X76629614Y-65078364D01*
X76848228Y-64960057D01*
X76848231Y-64960055D01*
X76895056Y-64923609D01*
X76162575Y-64191128D01*
X76221853Y-64175245D01*
X76338147Y-64108102D01*
X76433102Y-64013147D01*
X76500245Y-63896853D01*
X76516128Y-63837575D01*
X77248434Y-64569882D01*
X77259861Y-64568697D01*
X77328573Y-64581360D01*
X77373092Y-64621194D01*
X77373683Y-64620735D01*
X77376218Y-64623992D01*
X77376456Y-64624205D01*
X77376831Y-64624780D01*
X77376836Y-64624785D01*
X77545256Y-64807738D01*
X77741491Y-64960474D01*
X77741493Y-64960475D01*
X77959332Y-65078364D01*
X77960190Y-65078828D01*
X78149426Y-65143793D01*
X78193964Y-65159083D01*
X78195386Y-65159571D01*
X78440665Y-65200500D01*
X78689335Y-65200500D01*
X78934614Y-65159571D01*
X79169810Y-65078828D01*
X79388509Y-64960474D01*
X79584744Y-64807738D01*
X79743771Y-64634988D01*
X79803657Y-64598999D01*
X79873495Y-64601099D01*
X79926228Y-64634988D01*
X80085256Y-64807738D01*
X80281491Y-64960474D01*
X80281493Y-64960475D01*
X80499332Y-65078364D01*
X80500190Y-65078828D01*
X80689426Y-65143793D01*
X80733964Y-65159083D01*
X80735386Y-65159571D01*
X80980665Y-65200500D01*
X81229335Y-65200500D01*
X81474614Y-65159571D01*
X81709810Y-65078828D01*
X81928509Y-64960474D01*
X82124744Y-64807738D01*
X82283771Y-64634988D01*
X82343657Y-64598999D01*
X82413495Y-64601099D01*
X82466228Y-64634988D01*
X82625256Y-64807738D01*
X82821491Y-64960474D01*
X82821493Y-64960475D01*
X83039332Y-65078364D01*
X83040190Y-65078828D01*
X83229426Y-65143793D01*
X83273964Y-65159083D01*
X83275386Y-65159571D01*
X83520665Y-65200500D01*
X83769335Y-65200500D01*
X84014614Y-65159571D01*
X84249810Y-65078828D01*
X84468509Y-64960474D01*
X84664744Y-64807738D01*
X84823771Y-64634988D01*
X84883657Y-64598999D01*
X84953495Y-64601099D01*
X85006228Y-64634988D01*
X85165256Y-64807738D01*
X85361491Y-64960474D01*
X85361493Y-64960475D01*
X85579332Y-65078364D01*
X85580190Y-65078828D01*
X85769426Y-65143793D01*
X85813964Y-65159083D01*
X85815386Y-65159571D01*
X86060665Y-65200500D01*
X86309335Y-65200500D01*
X86554614Y-65159571D01*
X86789810Y-65078828D01*
X87008509Y-64960474D01*
X87204744Y-64807738D01*
X87363771Y-64634988D01*
X87423657Y-64598999D01*
X87493495Y-64601099D01*
X87546228Y-64634988D01*
X87705256Y-64807738D01*
X87901491Y-64960474D01*
X87901493Y-64960475D01*
X88119332Y-65078364D01*
X88120190Y-65078828D01*
X88309426Y-65143793D01*
X88353964Y-65159083D01*
X88355386Y-65159571D01*
X88600665Y-65200500D01*
X88849335Y-65200500D01*
X89094614Y-65159571D01*
X89329810Y-65078828D01*
X89548509Y-64960474D01*
X89744744Y-64807738D01*
X89903771Y-64634988D01*
X89963657Y-64598999D01*
X90033495Y-64601099D01*
X90086228Y-64634988D01*
X90245256Y-64807738D01*
X90441491Y-64960474D01*
X90441493Y-64960475D01*
X90659332Y-65078364D01*
X90660190Y-65078828D01*
X90849426Y-65143793D01*
X90893964Y-65159083D01*
X90895386Y-65159571D01*
X91140665Y-65200500D01*
X91389335Y-65200500D01*
X91634614Y-65159571D01*
X91869810Y-65078828D01*
X92088509Y-64960474D01*
X92284744Y-64807738D01*
X92443771Y-64634988D01*
X92503657Y-64598999D01*
X92573495Y-64601099D01*
X92626228Y-64634988D01*
X92785256Y-64807738D01*
X92981491Y-64960474D01*
X92981493Y-64960475D01*
X93199332Y-65078364D01*
X93200190Y-65078828D01*
X93389426Y-65143793D01*
X93433964Y-65159083D01*
X93435386Y-65159571D01*
X93680665Y-65200500D01*
X93929335Y-65200500D01*
X94174614Y-65159571D01*
X94409810Y-65078828D01*
X94628509Y-64960474D01*
X94824744Y-64807738D01*
X94983771Y-64634988D01*
X95043657Y-64598999D01*
X95113495Y-64601099D01*
X95166228Y-64634988D01*
X95325256Y-64807738D01*
X95521491Y-64960474D01*
X95521493Y-64960475D01*
X95739332Y-65078364D01*
X95740190Y-65078828D01*
X95929426Y-65143793D01*
X95973964Y-65159083D01*
X95975386Y-65159571D01*
X96220665Y-65200500D01*
X96469335Y-65200500D01*
X96714614Y-65159571D01*
X96949810Y-65078828D01*
X97168509Y-64960474D01*
X97364744Y-64807738D01*
X97523771Y-64634988D01*
X97583657Y-64598999D01*
X97653495Y-64601099D01*
X97706228Y-64634988D01*
X97865256Y-64807738D01*
X98061491Y-64960474D01*
X98061493Y-64960475D01*
X98279332Y-65078364D01*
X98280190Y-65078828D01*
X98469426Y-65143793D01*
X98513964Y-65159083D01*
X98515386Y-65159571D01*
X98760665Y-65200500D01*
X99009335Y-65200500D01*
X99254614Y-65159571D01*
X99489810Y-65078828D01*
X99708509Y-64960474D01*
X99904744Y-64807738D01*
X100063771Y-64634988D01*
X100123657Y-64598999D01*
X100193495Y-64601099D01*
X100246228Y-64634988D01*
X100405256Y-64807738D01*
X100601491Y-64960474D01*
X100601493Y-64960475D01*
X100819332Y-65078364D01*
X100820190Y-65078828D01*
X101009426Y-65143793D01*
X101053964Y-65159083D01*
X101055386Y-65159571D01*
X101300665Y-65200500D01*
X101549335Y-65200500D01*
X101794614Y-65159571D01*
X102029810Y-65078828D01*
X102248509Y-64960474D01*
X102444744Y-64807738D01*
X102603771Y-64634988D01*
X102663657Y-64598999D01*
X102733495Y-64601099D01*
X102786228Y-64634988D01*
X102945256Y-64807738D01*
X103141491Y-64960474D01*
X103141493Y-64960475D01*
X103359332Y-65078364D01*
X103360190Y-65078828D01*
X103549426Y-65143793D01*
X103593964Y-65159083D01*
X103595386Y-65159571D01*
X103840665Y-65200500D01*
X104089335Y-65200500D01*
X104334614Y-65159571D01*
X104569810Y-65078828D01*
X104788509Y-64960474D01*
X104984744Y-64807738D01*
X105143771Y-64634988D01*
X105203657Y-64598999D01*
X105273495Y-64601099D01*
X105326228Y-64634988D01*
X105485256Y-64807738D01*
X105681491Y-64960474D01*
X105681493Y-64960475D01*
X105899332Y-65078364D01*
X105900190Y-65078828D01*
X106089426Y-65143793D01*
X106133964Y-65159083D01*
X106135386Y-65159571D01*
X106380665Y-65200500D01*
X106629335Y-65200500D01*
X106874614Y-65159571D01*
X107109810Y-65078828D01*
X107328509Y-64960474D01*
X107524744Y-64807738D01*
X107683771Y-64634988D01*
X107743657Y-64598999D01*
X107813495Y-64601099D01*
X107866228Y-64634988D01*
X108025256Y-64807738D01*
X108221491Y-64960474D01*
X108221493Y-64960475D01*
X108439332Y-65078364D01*
X108440190Y-65078828D01*
X108629426Y-65143793D01*
X108673964Y-65159083D01*
X108675386Y-65159571D01*
X108920665Y-65200500D01*
X109169335Y-65200500D01*
X109414614Y-65159571D01*
X109649810Y-65078828D01*
X109868509Y-64960474D01*
X110064744Y-64807738D01*
X110233164Y-64624785D01*
X110369173Y-64416607D01*
X110469063Y-64188881D01*
X110530108Y-63947821D01*
X110530109Y-63947812D01*
X110544842Y-63770013D01*
X110569995Y-63704828D01*
X110626397Y-63663590D01*
X110696140Y-63659392D01*
X110757082Y-63693566D01*
X110788191Y-63748157D01*
X110793279Y-63767143D01*
X110813842Y-63843887D01*
X110901650Y-64055876D01*
X110901657Y-64055890D01*
X111016392Y-64254617D01*
X111156081Y-64436661D01*
X111156089Y-64436670D01*
X111318330Y-64598911D01*
X111318338Y-64598918D01*
X111318339Y-64598919D01*
X111352044Y-64624782D01*
X111500382Y-64738607D01*
X111500385Y-64738608D01*
X111500388Y-64738611D01*
X111699112Y-64853344D01*
X111699117Y-64853346D01*
X111699123Y-64853349D01*
X111737727Y-64869339D01*
X111911113Y-64941158D01*
X112132762Y-65000548D01*
X112360266Y-65030500D01*
X112360273Y-65030500D01*
X112589727Y-65030500D01*
X112589734Y-65030500D01*
X112817238Y-65000548D01*
X113038887Y-64941158D01*
X113250888Y-64853344D01*
X113449612Y-64738611D01*
X113631661Y-64598919D01*
X113631665Y-64598914D01*
X113631670Y-64598911D01*
X113793911Y-64436670D01*
X113793914Y-64436665D01*
X113793919Y-64436661D01*
X113933611Y-64254612D01*
X114048344Y-64055888D01*
X114136158Y-63843887D01*
X114195548Y-63622238D01*
X114225500Y-63394734D01*
X114225500Y-63165266D01*
X114195548Y-62937762D01*
X114136158Y-62716113D01*
X114048344Y-62504112D01*
X113933611Y-62305388D01*
X113933608Y-62305385D01*
X113933607Y-62305382D01*
X113793918Y-62123338D01*
X113793911Y-62123330D01*
X113631670Y-61961089D01*
X113631661Y-61961081D01*
X113449617Y-61821392D01*
X113250890Y-61706657D01*
X113250876Y-61706650D01*
X113038887Y-61618842D01*
X112817238Y-61559452D01*
X112779215Y-61554446D01*
X112589741Y-61529500D01*
X112589734Y-61529500D01*
X112360266Y-61529500D01*
X112360258Y-61529500D01*
X112143715Y-61558009D01*
X112132762Y-61559452D01*
X112039076Y-61584554D01*
X111911112Y-61618842D01*
X111699123Y-61706650D01*
X111699109Y-61706657D01*
X111500382Y-61821392D01*
X111318338Y-61961081D01*
X111156081Y-62123338D01*
X111016392Y-62305382D01*
X110901657Y-62504109D01*
X110901650Y-62504123D01*
X110813842Y-62716112D01*
X110754453Y-62937759D01*
X110754451Y-62937770D01*
X110724500Y-63165258D01*
X110724500Y-63225028D01*
X110704815Y-63292067D01*
X110652011Y-63337822D01*
X110582853Y-63347766D01*
X110519297Y-63318741D01*
X110481523Y-63259963D01*
X110480294Y-63255469D01*
X110469062Y-63211117D01*
X110369173Y-62983393D01*
X110233166Y-62775217D01*
X110150119Y-62685004D01*
X110064744Y-62592262D01*
X109868509Y-62439526D01*
X109868507Y-62439525D01*
X109868506Y-62439524D01*
X109649811Y-62321172D01*
X109649802Y-62321169D01*
X109414616Y-62240429D01*
X109169335Y-62199500D01*
X108920665Y-62199500D01*
X108675383Y-62240429D01*
X108440197Y-62321169D01*
X108440188Y-62321172D01*
X108221493Y-62439524D01*
X108025257Y-62592261D01*
X107866230Y-62765010D01*
X107806342Y-62801001D01*
X107736504Y-62798900D01*
X107683770Y-62765010D01*
X107610119Y-62685004D01*
X107524744Y-62592262D01*
X107328509Y-62439526D01*
X107328507Y-62439525D01*
X107328506Y-62439524D01*
X107109811Y-62321172D01*
X107109802Y-62321169D01*
X106874616Y-62240429D01*
X106629335Y-62199500D01*
X106380665Y-62199500D01*
X106135383Y-62240429D01*
X105900197Y-62321169D01*
X105900188Y-62321172D01*
X105681493Y-62439524D01*
X105485257Y-62592261D01*
X105326230Y-62765010D01*
X105266342Y-62801001D01*
X105196504Y-62798900D01*
X105143770Y-62765010D01*
X105070119Y-62685004D01*
X104984744Y-62592262D01*
X104788509Y-62439526D01*
X104788507Y-62439525D01*
X104788506Y-62439524D01*
X104569811Y-62321172D01*
X104569802Y-62321169D01*
X104334616Y-62240429D01*
X104089335Y-62199500D01*
X103840665Y-62199500D01*
X103595383Y-62240429D01*
X103360197Y-62321169D01*
X103360188Y-62321172D01*
X103141493Y-62439524D01*
X102945257Y-62592261D01*
X102786230Y-62765010D01*
X102726342Y-62801001D01*
X102656504Y-62798900D01*
X102603770Y-62765010D01*
X102530119Y-62685004D01*
X102444744Y-62592262D01*
X102248509Y-62439526D01*
X102248507Y-62439525D01*
X102248506Y-62439524D01*
X102029811Y-62321172D01*
X102029802Y-62321169D01*
X101794616Y-62240429D01*
X101549335Y-62199500D01*
X101300665Y-62199500D01*
X101055383Y-62240429D01*
X100820197Y-62321169D01*
X100820188Y-62321172D01*
X100601493Y-62439524D01*
X100405257Y-62592261D01*
X100246230Y-62765010D01*
X100186342Y-62801001D01*
X100116504Y-62798900D01*
X100063770Y-62765010D01*
X99990119Y-62685004D01*
X99904744Y-62592262D01*
X99708509Y-62439526D01*
X99708507Y-62439525D01*
X99708506Y-62439524D01*
X99489811Y-62321172D01*
X99489802Y-62321169D01*
X99254616Y-62240429D01*
X99009335Y-62199500D01*
X98760665Y-62199500D01*
X98515383Y-62240429D01*
X98280197Y-62321169D01*
X98280188Y-62321172D01*
X98061493Y-62439524D01*
X97865257Y-62592261D01*
X97706230Y-62765010D01*
X97646342Y-62801001D01*
X97576504Y-62798900D01*
X97523770Y-62765010D01*
X97450119Y-62685004D01*
X97364744Y-62592262D01*
X97168509Y-62439526D01*
X97168507Y-62439525D01*
X97168506Y-62439524D01*
X96949811Y-62321172D01*
X96949802Y-62321169D01*
X96714616Y-62240429D01*
X96469335Y-62199500D01*
X96220665Y-62199500D01*
X95975383Y-62240429D01*
X95740197Y-62321169D01*
X95740188Y-62321172D01*
X95521493Y-62439524D01*
X95325257Y-62592261D01*
X95166230Y-62765010D01*
X95106342Y-62801001D01*
X95036504Y-62798900D01*
X94983770Y-62765010D01*
X94910119Y-62685004D01*
X94824744Y-62592262D01*
X94628509Y-62439526D01*
X94628507Y-62439525D01*
X94628506Y-62439524D01*
X94409811Y-62321172D01*
X94409802Y-62321169D01*
X94174616Y-62240429D01*
X93929335Y-62199500D01*
X93680665Y-62199500D01*
X93435383Y-62240429D01*
X93200197Y-62321169D01*
X93200188Y-62321172D01*
X92981493Y-62439524D01*
X92785257Y-62592261D01*
X92626230Y-62765010D01*
X92566342Y-62801001D01*
X92496504Y-62798900D01*
X92443770Y-62765010D01*
X92370119Y-62685004D01*
X92284744Y-62592262D01*
X92088509Y-62439526D01*
X92088507Y-62439525D01*
X92088506Y-62439524D01*
X91869811Y-62321172D01*
X91869802Y-62321169D01*
X91634616Y-62240429D01*
X91389335Y-62199500D01*
X91140665Y-62199500D01*
X90895383Y-62240429D01*
X90660197Y-62321169D01*
X90660188Y-62321172D01*
X90441493Y-62439524D01*
X90245257Y-62592261D01*
X90086230Y-62765010D01*
X90026342Y-62801001D01*
X89956504Y-62798900D01*
X89903770Y-62765010D01*
X89830119Y-62685004D01*
X89744744Y-62592262D01*
X89548509Y-62439526D01*
X89548507Y-62439525D01*
X89548506Y-62439524D01*
X89329811Y-62321172D01*
X89329802Y-62321169D01*
X89094616Y-62240429D01*
X88849335Y-62199500D01*
X88600665Y-62199500D01*
X88355383Y-62240429D01*
X88120197Y-62321169D01*
X88120188Y-62321172D01*
X87901493Y-62439524D01*
X87705257Y-62592261D01*
X87546230Y-62765010D01*
X87486342Y-62801001D01*
X87416504Y-62798900D01*
X87363770Y-62765010D01*
X87290119Y-62685004D01*
X87204744Y-62592262D01*
X87008509Y-62439526D01*
X87008507Y-62439525D01*
X87008506Y-62439524D01*
X86789811Y-62321172D01*
X86789802Y-62321169D01*
X86554616Y-62240429D01*
X86309335Y-62199500D01*
X86060665Y-62199500D01*
X85815383Y-62240429D01*
X85580197Y-62321169D01*
X85580188Y-62321172D01*
X85361493Y-62439524D01*
X85165257Y-62592261D01*
X85006230Y-62765010D01*
X84946342Y-62801001D01*
X84876504Y-62798900D01*
X84823770Y-62765010D01*
X84750119Y-62685004D01*
X84664744Y-62592262D01*
X84468509Y-62439526D01*
X84468507Y-62439525D01*
X84468506Y-62439524D01*
X84249811Y-62321172D01*
X84249802Y-62321169D01*
X84014616Y-62240429D01*
X83769335Y-62199500D01*
X83520665Y-62199500D01*
X83275383Y-62240429D01*
X83040197Y-62321169D01*
X83040188Y-62321172D01*
X82821493Y-62439524D01*
X82625257Y-62592261D01*
X82466230Y-62765010D01*
X82406342Y-62801001D01*
X82336504Y-62798900D01*
X82283770Y-62765010D01*
X82210119Y-62685004D01*
X82124744Y-62592262D01*
X81928509Y-62439526D01*
X81928507Y-62439525D01*
X81928506Y-62439524D01*
X81709811Y-62321172D01*
X81709802Y-62321169D01*
X81474616Y-62240429D01*
X81229335Y-62199500D01*
X80980665Y-62199500D01*
X80735383Y-62240429D01*
X80500197Y-62321169D01*
X80500188Y-62321172D01*
X80281493Y-62439524D01*
X80085257Y-62592261D01*
X79926230Y-62765010D01*
X79866342Y-62801001D01*
X79796504Y-62798900D01*
X79743770Y-62765010D01*
X79670119Y-62685004D01*
X79584744Y-62592262D01*
X79388509Y-62439526D01*
X79388507Y-62439525D01*
X79388506Y-62439524D01*
X79169811Y-62321172D01*
X79169802Y-62321169D01*
X78934616Y-62240429D01*
X78689335Y-62199500D01*
X78440665Y-62199500D01*
X78195383Y-62240429D01*
X77960197Y-62321169D01*
X77960188Y-62321172D01*
X77741493Y-62439524D01*
X77545257Y-62592261D01*
X77376837Y-62775213D01*
X77376829Y-62775224D01*
X77376455Y-62775797D01*
X77376242Y-62775978D01*
X77373690Y-62779258D01*
X77373014Y-62778732D01*
X77323304Y-62821147D01*
X77259865Y-62831302D01*
X77248434Y-62830116D01*
X76516127Y-63562423D01*
X76500245Y-63503147D01*
X76433102Y-63386853D01*
X76338147Y-63291898D01*
X76221853Y-63224755D01*
X76162574Y-63208871D01*
X76895057Y-62476389D01*
X76848229Y-62439943D01*
X76629614Y-62321635D01*
X76629603Y-62321630D01*
X76394492Y-62240916D01*
X76298697Y-62224931D01*
X76235811Y-62194481D01*
X76199372Y-62134866D01*
X76200947Y-62065014D01*
X76231423Y-62014943D01*
X89459549Y-48786819D01*
X89520872Y-48753334D01*
X89547230Y-48750500D01*
X99418920Y-48750500D01*
X99516462Y-48731096D01*
X99563913Y-48721658D01*
X99700495Y-48665084D01*
X99749900Y-48632073D01*
X99823416Y-48582952D01*
X108082819Y-40323547D01*
X108144142Y-40290063D01*
X108213834Y-40295047D01*
X108269767Y-40336919D01*
X108294184Y-40402383D01*
X108294500Y-40411229D01*
X108294500Y-44118918D01*
X108294500Y-44118920D01*
X108294499Y-44118920D01*
X108323340Y-44263907D01*
X108323343Y-44263917D01*
X108379914Y-44400492D01*
X108412812Y-44449727D01*
X108412813Y-44449730D01*
X108462046Y-44523414D01*
X108462052Y-44523421D01*
X112358647Y-48420014D01*
X112392132Y-48481337D01*
X112394437Y-48496253D01*
X112407023Y-48632071D01*
X112413603Y-48703083D01*
X112427901Y-48753334D01*
X112469417Y-48899247D01*
X112469422Y-48899260D01*
X112560327Y-49081821D01*
X112683237Y-49244581D01*
X112833958Y-49381980D01*
X112833960Y-49381982D01*
X112933141Y-49443392D01*
X113007363Y-49489348D01*
X113197544Y-49563024D01*
X113398024Y-49600500D01*
X113398026Y-49600500D01*
X113601974Y-49600500D01*
X113601976Y-49600500D01*
X113802456Y-49563024D01*
X113805698Y-49561767D01*
X113807368Y-49561627D01*
X113807977Y-49561454D01*
X113808010Y-49561572D01*
X113875318Y-49555900D01*
X113937062Y-49588604D01*
X113971322Y-49649497D01*
X113974500Y-49677391D01*
X113974500Y-60363846D01*
X114005261Y-60518489D01*
X114005264Y-60518501D01*
X114065602Y-60664172D01*
X114065609Y-60664185D01*
X114153210Y-60795288D01*
X114153213Y-60795292D01*
X115604561Y-62246640D01*
X115638046Y-62307963D01*
X115637088Y-62364752D01*
X115634790Y-62373826D01*
X115634788Y-62373837D01*
X115614392Y-62619994D01*
X115614392Y-62620005D01*
X115634789Y-62866165D01*
X115695428Y-63105623D01*
X115761156Y-63255469D01*
X115794652Y-63331831D01*
X115877513Y-63458659D01*
X115927770Y-63535584D01*
X115929755Y-63538621D01*
X116097052Y-63720355D01*
X116097055Y-63720357D01*
X116097058Y-63720360D01*
X116291971Y-63872067D01*
X116291977Y-63872071D01*
X116291980Y-63872073D01*
X116431950Y-63947821D01*
X116508376Y-63989181D01*
X116509221Y-63989638D01*
X116630536Y-64031285D01*
X116742846Y-64069842D01*
X116742848Y-64069842D01*
X116742850Y-64069843D01*
X116986494Y-64110500D01*
X116986495Y-64110500D01*
X117233505Y-64110500D01*
X117233506Y-64110500D01*
X117477150Y-64069843D01*
X117710779Y-63989638D01*
X117928020Y-63872073D01*
X117928559Y-63871654D01*
X118059147Y-63770013D01*
X118122948Y-63720355D01*
X118288772Y-63540220D01*
X118348657Y-63504232D01*
X118418495Y-63506332D01*
X118471227Y-63540220D01*
X118637052Y-63720355D01*
X118637055Y-63720357D01*
X118637058Y-63720360D01*
X118831971Y-63872067D01*
X118831977Y-63872071D01*
X118831980Y-63872073D01*
X118971950Y-63947821D01*
X119048376Y-63989181D01*
X119049221Y-63989638D01*
X119170536Y-64031285D01*
X119282846Y-64069842D01*
X119282848Y-64069842D01*
X119282850Y-64069843D01*
X119526494Y-64110500D01*
X119526495Y-64110500D01*
X119773505Y-64110500D01*
X119773506Y-64110500D01*
X120017150Y-64069843D01*
X120250779Y-63989638D01*
X120468020Y-63872073D01*
X120468559Y-63871654D01*
X120599147Y-63770013D01*
X120662948Y-63720355D01*
X120830245Y-63538621D01*
X120832223Y-63535592D01*
X120833352Y-63534628D01*
X120833397Y-63534572D01*
X120833408Y-63534581D01*
X120885365Y-63490232D01*
X120948830Y-63480068D01*
X120973790Y-63482656D01*
X121581304Y-62875141D01*
X121605116Y-62932627D01*
X121677345Y-63040725D01*
X121769275Y-63132655D01*
X121877373Y-63204884D01*
X121934857Y-63228694D01*
X121327068Y-63836483D01*
X121372256Y-63871653D01*
X121589421Y-63989178D01*
X121589429Y-63989181D01*
X121822970Y-64069356D01*
X122066535Y-64110000D01*
X122313465Y-64110000D01*
X122557029Y-64069356D01*
X122790570Y-63989181D01*
X122790578Y-63989178D01*
X123007743Y-63871654D01*
X123052930Y-63836483D01*
X122445142Y-63228695D01*
X122502627Y-63204884D01*
X122610725Y-63132655D01*
X122702655Y-63040725D01*
X122774884Y-62932627D01*
X122798694Y-62875142D01*
X123406208Y-63482656D01*
X123431170Y-63480068D01*
X123499883Y-63492731D01*
X123547770Y-63535583D01*
X123549755Y-63538621D01*
X123717052Y-63720355D01*
X123717055Y-63720357D01*
X123717058Y-63720360D01*
X123911971Y-63872067D01*
X123911977Y-63872071D01*
X123911980Y-63872073D01*
X124051950Y-63947821D01*
X124128376Y-63989181D01*
X124129221Y-63989638D01*
X124250536Y-64031285D01*
X124362846Y-64069842D01*
X124362848Y-64069842D01*
X124362850Y-64069843D01*
X124606494Y-64110500D01*
X124606495Y-64110500D01*
X124853505Y-64110500D01*
X124853506Y-64110500D01*
X125097150Y-64069843D01*
X125330779Y-63989638D01*
X125548020Y-63872073D01*
X125548559Y-63871654D01*
X125679147Y-63770013D01*
X125742948Y-63720355D01*
X125908772Y-63540220D01*
X125968657Y-63504232D01*
X126038495Y-63506332D01*
X126091227Y-63540220D01*
X126257052Y-63720355D01*
X126257055Y-63720357D01*
X126257058Y-63720360D01*
X126451971Y-63872067D01*
X126451977Y-63872071D01*
X126451980Y-63872073D01*
X126591950Y-63947821D01*
X126668376Y-63989181D01*
X126669221Y-63989638D01*
X126790536Y-64031285D01*
X126902846Y-64069842D01*
X126902848Y-64069842D01*
X126902850Y-64069843D01*
X127146494Y-64110500D01*
X127146495Y-64110500D01*
X127393505Y-64110500D01*
X127393506Y-64110500D01*
X127637150Y-64069843D01*
X127870779Y-63989638D01*
X128088020Y-63872073D01*
X128088559Y-63871654D01*
X128219147Y-63770013D01*
X128282948Y-63720355D01*
X128448772Y-63540220D01*
X128508657Y-63504232D01*
X128578495Y-63506332D01*
X128631227Y-63540220D01*
X128797052Y-63720355D01*
X128797055Y-63720357D01*
X128797058Y-63720360D01*
X128991971Y-63872067D01*
X128991977Y-63872071D01*
X128991980Y-63872073D01*
X129131950Y-63947821D01*
X129208376Y-63989181D01*
X129209221Y-63989638D01*
X129330536Y-64031285D01*
X129442846Y-64069842D01*
X129442848Y-64069842D01*
X129442850Y-64069843D01*
X129686494Y-64110500D01*
X129686495Y-64110500D01*
X129933505Y-64110500D01*
X129933506Y-64110500D01*
X130177150Y-64069843D01*
X130410779Y-63989638D01*
X130628020Y-63872073D01*
X130628559Y-63871654D01*
X130759147Y-63770013D01*
X130822948Y-63720355D01*
X130988772Y-63540220D01*
X131048657Y-63504232D01*
X131118495Y-63506332D01*
X131171227Y-63540220D01*
X131337052Y-63720355D01*
X131337055Y-63720357D01*
X131337058Y-63720360D01*
X131531971Y-63872067D01*
X131531977Y-63872071D01*
X131531980Y-63872073D01*
X131671950Y-63947821D01*
X131748376Y-63989181D01*
X131749221Y-63989638D01*
X131870536Y-64031285D01*
X131982846Y-64069842D01*
X131982848Y-64069842D01*
X131982850Y-64069843D01*
X132226494Y-64110500D01*
X132226495Y-64110500D01*
X132473505Y-64110500D01*
X132473506Y-64110500D01*
X132717150Y-64069843D01*
X132950779Y-63989638D01*
X133168020Y-63872073D01*
X133168559Y-63871654D01*
X133299147Y-63770013D01*
X133362948Y-63720355D01*
X133530245Y-63538621D01*
X133532223Y-63535592D01*
X133533352Y-63534628D01*
X133533397Y-63534572D01*
X133533408Y-63534581D01*
X133585365Y-63490232D01*
X133648830Y-63480068D01*
X133673790Y-63482656D01*
X134281304Y-62875141D01*
X134305116Y-62932627D01*
X134377345Y-63040725D01*
X134469275Y-63132655D01*
X134577373Y-63204884D01*
X134634857Y-63228694D01*
X134027068Y-63836483D01*
X134072256Y-63871653D01*
X134289421Y-63989178D01*
X134289429Y-63989181D01*
X134522970Y-64069356D01*
X134766535Y-64110000D01*
X135013465Y-64110000D01*
X135257029Y-64069356D01*
X135490570Y-63989181D01*
X135490578Y-63989178D01*
X135707743Y-63871654D01*
X135752930Y-63836483D01*
X135145142Y-63228695D01*
X135202627Y-63204884D01*
X135310725Y-63132655D01*
X135402655Y-63040725D01*
X135474884Y-62932627D01*
X135498694Y-62875142D01*
X136106209Y-63482657D01*
X136204904Y-63331595D01*
X136204909Y-63331587D01*
X136304098Y-63105460D01*
X136364715Y-62866090D01*
X136364717Y-62866079D01*
X136385107Y-62620006D01*
X136385107Y-62619993D01*
X136364717Y-62373920D01*
X136364715Y-62373909D01*
X136304098Y-62134539D01*
X136204906Y-61908406D01*
X136106209Y-61757341D01*
X135498694Y-62364856D01*
X135474884Y-62307373D01*
X135402655Y-62199275D01*
X135310725Y-62107345D01*
X135202627Y-62035116D01*
X135145142Y-62011305D01*
X135752931Y-61403516D01*
X135752931Y-61403515D01*
X135707743Y-61368346D01*
X135490578Y-61250821D01*
X135490570Y-61250818D01*
X135257029Y-61170643D01*
X135013465Y-61130000D01*
X134766535Y-61130000D01*
X134522970Y-61170643D01*
X134289429Y-61250818D01*
X134289421Y-61250821D01*
X134072252Y-61368348D01*
X134072251Y-61368349D01*
X134027068Y-61403514D01*
X134027068Y-61403516D01*
X134634857Y-62011305D01*
X134577373Y-62035116D01*
X134469275Y-62107345D01*
X134377345Y-62199275D01*
X134305116Y-62307373D01*
X134281305Y-62364857D01*
X133673790Y-61757342D01*
X133648827Y-61759931D01*
X133580115Y-61747266D01*
X133532223Y-61704407D01*
X133530245Y-61701379D01*
X133362948Y-61519645D01*
X133362943Y-61519641D01*
X133362941Y-61519639D01*
X133168028Y-61367932D01*
X133168022Y-61367928D01*
X132950780Y-61250362D01*
X132950771Y-61250359D01*
X132717153Y-61170157D01*
X132534417Y-61139664D01*
X132473506Y-61129500D01*
X132226494Y-61129500D01*
X132177765Y-61137631D01*
X131982846Y-61170157D01*
X131749228Y-61250359D01*
X131749219Y-61250362D01*
X131531977Y-61367928D01*
X131531971Y-61367932D01*
X131337058Y-61519639D01*
X131337055Y-61519642D01*
X131337052Y-61519644D01*
X131337052Y-61519645D01*
X131300407Y-61559453D01*
X131171230Y-61699777D01*
X131111343Y-61735767D01*
X131041505Y-61733667D01*
X130988770Y-61699777D01*
X130822948Y-61519645D01*
X130822943Y-61519641D01*
X130822941Y-61519639D01*
X130628028Y-61367932D01*
X130628022Y-61367928D01*
X130410780Y-61250362D01*
X130410771Y-61250359D01*
X130177153Y-61170157D01*
X130075442Y-61153185D01*
X130012557Y-61122734D01*
X129976118Y-61063120D01*
X129977693Y-60993268D01*
X130008169Y-60943197D01*
X131164548Y-59786819D01*
X131225871Y-59753334D01*
X131252229Y-59750500D01*
X138650500Y-59750500D01*
X138717539Y-59770185D01*
X138763294Y-59822989D01*
X138774500Y-59874500D01*
X138774500Y-60107304D01*
X138811201Y-60339027D01*
X138883697Y-60562150D01*
X138990212Y-60771195D01*
X139128104Y-60960989D01*
X139128108Y-60960994D01*
X139294005Y-61126891D01*
X139294010Y-61126895D01*
X139425364Y-61222328D01*
X139483808Y-61264790D01*
X139687053Y-61368349D01*
X139692849Y-61371302D01*
X139791989Y-61403514D01*
X139915974Y-61443799D01*
X140147695Y-61480500D01*
X140147696Y-61480500D01*
X140382304Y-61480500D01*
X140382305Y-61480500D01*
X140614026Y-61443799D01*
X140837153Y-61371301D01*
X141046192Y-61264790D01*
X141235996Y-61126890D01*
X141401890Y-60960996D01*
X141539790Y-60771192D01*
X141646301Y-60562153D01*
X141718799Y-60339026D01*
X141755500Y-60107305D01*
X141755500Y-57892695D01*
X141718799Y-57660974D01*
X141646301Y-57437847D01*
X141539790Y-57228808D01*
X141522171Y-57204558D01*
X141401895Y-57039010D01*
X141401891Y-57039005D01*
X141235994Y-56873108D01*
X141235989Y-56873104D01*
X141046195Y-56735212D01*
X141046194Y-56735211D01*
X141046192Y-56735210D01*
X140903397Y-56662452D01*
X140837150Y-56628697D01*
X140614027Y-56556201D01*
X140498165Y-56537850D01*
X140382305Y-56519500D01*
X140147695Y-56519500D01*
X140070454Y-56531733D01*
X139915972Y-56556201D01*
X139692849Y-56628697D01*
X139483804Y-56735212D01*
X139294010Y-56873104D01*
X139294005Y-56873108D01*
X139128108Y-57039005D01*
X139128104Y-57039010D01*
X138990212Y-57228804D01*
X138883697Y-57437849D01*
X138811201Y-57660972D01*
X138774500Y-57892695D01*
X138774500Y-58125500D01*
X138754815Y-58192539D01*
X138702011Y-58238294D01*
X138650500Y-58249500D01*
X130816080Y-58249500D01*
X130671092Y-58278340D01*
X130671082Y-58278343D01*
X130534511Y-58334912D01*
X130534499Y-58334919D01*
X130456484Y-58387048D01*
X130456483Y-58387049D01*
X130411581Y-58417050D01*
X130411580Y-58417051D01*
X127700558Y-61128072D01*
X127639235Y-61161557D01*
X127592469Y-61162700D01*
X127535445Y-61153185D01*
X127472559Y-61122735D01*
X127436119Y-61063121D01*
X127437693Y-60993269D01*
X127468170Y-60943197D01*
X132124548Y-56286818D01*
X132185871Y-56253334D01*
X132212229Y-56250500D01*
X141402770Y-56250500D01*
X141469809Y-56270185D01*
X141490451Y-56286819D01*
X143738181Y-58534548D01*
X143771666Y-58595871D01*
X143774500Y-58622229D01*
X143774500Y-61027870D01*
X143774501Y-61027876D01*
X143780908Y-61087483D01*
X143831202Y-61222328D01*
X143831206Y-61222335D01*
X143917452Y-61337544D01*
X143917455Y-61337547D01*
X144032664Y-61423793D01*
X144032671Y-61423797D01*
X144167517Y-61474091D01*
X144167516Y-61474091D01*
X144174444Y-61474835D01*
X144227127Y-61480500D01*
X146302872Y-61480499D01*
X146362483Y-61474091D01*
X146497331Y-61423796D01*
X146612546Y-61337546D01*
X146698796Y-61222331D01*
X146749091Y-61087483D01*
X146755500Y-61027873D01*
X146755499Y-57892695D01*
X150274500Y-57892695D01*
X150274500Y-60107304D01*
X150311201Y-60339027D01*
X150383697Y-60562150D01*
X150490212Y-60771195D01*
X150628104Y-60960989D01*
X150628108Y-60960994D01*
X150794005Y-61126891D01*
X150794010Y-61126895D01*
X150925364Y-61222328D01*
X150983808Y-61264790D01*
X151187053Y-61368349D01*
X151192849Y-61371302D01*
X151291989Y-61403514D01*
X151415974Y-61443799D01*
X151647695Y-61480500D01*
X151647696Y-61480500D01*
X151882304Y-61480500D01*
X151882305Y-61480500D01*
X152114026Y-61443799D01*
X152337153Y-61371301D01*
X152546192Y-61264790D01*
X152735996Y-61126890D01*
X152901890Y-60960996D01*
X153039790Y-60771192D01*
X153146301Y-60562153D01*
X153218799Y-60339026D01*
X153255500Y-60107305D01*
X153255500Y-57892695D01*
X153218799Y-57660974D01*
X153146301Y-57437847D01*
X153039790Y-57228808D01*
X153022171Y-57204558D01*
X152901895Y-57039010D01*
X152901891Y-57039005D01*
X152835021Y-56972135D01*
X155274500Y-56972135D01*
X155274500Y-61027870D01*
X155274501Y-61027876D01*
X155280908Y-61087483D01*
X155331202Y-61222328D01*
X155331206Y-61222335D01*
X155417452Y-61337544D01*
X155417455Y-61337547D01*
X155532664Y-61423793D01*
X155532671Y-61423797D01*
X155667517Y-61474091D01*
X155667516Y-61474091D01*
X155674444Y-61474835D01*
X155727127Y-61480500D01*
X157802872Y-61480499D01*
X157862483Y-61474091D01*
X157997331Y-61423796D01*
X158112546Y-61337546D01*
X158198796Y-61222331D01*
X158249091Y-61087483D01*
X158255500Y-61027873D01*
X158255499Y-56972128D01*
X158249091Y-56912517D01*
X158234392Y-56873108D01*
X158198797Y-56777671D01*
X158198793Y-56777664D01*
X158112547Y-56662455D01*
X158112544Y-56662452D01*
X157997335Y-56576206D01*
X157997328Y-56576202D01*
X157862482Y-56525908D01*
X157862483Y-56525908D01*
X157802883Y-56519501D01*
X157802881Y-56519500D01*
X157802873Y-56519500D01*
X157802864Y-56519500D01*
X155727129Y-56519500D01*
X155727123Y-56519501D01*
X155667516Y-56525908D01*
X155532671Y-56576202D01*
X155532664Y-56576206D01*
X155417455Y-56662452D01*
X155417452Y-56662455D01*
X155331206Y-56777664D01*
X155331202Y-56777671D01*
X155280908Y-56912517D01*
X155274501Y-56972116D01*
X155274501Y-56972123D01*
X155274500Y-56972135D01*
X152835021Y-56972135D01*
X152735994Y-56873108D01*
X152735989Y-56873104D01*
X152546195Y-56735212D01*
X152546194Y-56735211D01*
X152546192Y-56735210D01*
X152403397Y-56662452D01*
X152337150Y-56628697D01*
X152114027Y-56556201D01*
X151998165Y-56537850D01*
X151882305Y-56519500D01*
X151647695Y-56519500D01*
X151570454Y-56531733D01*
X151415972Y-56556201D01*
X151192849Y-56628697D01*
X150983804Y-56735212D01*
X150794010Y-56873104D01*
X150794005Y-56873108D01*
X150628108Y-57039005D01*
X150628104Y-57039010D01*
X150490212Y-57228804D01*
X150383697Y-57437849D01*
X150311201Y-57660972D01*
X150274500Y-57892695D01*
X146755499Y-57892695D01*
X146755499Y-56972128D01*
X146749091Y-56912517D01*
X146734392Y-56873108D01*
X146698797Y-56777671D01*
X146698793Y-56777664D01*
X146612547Y-56662455D01*
X146612544Y-56662452D01*
X146497335Y-56576206D01*
X146497328Y-56576202D01*
X146362482Y-56525908D01*
X146362483Y-56525908D01*
X146302883Y-56519501D01*
X146302881Y-56519500D01*
X146302873Y-56519500D01*
X146302864Y-56519500D01*
X144227129Y-56519500D01*
X144227123Y-56519501D01*
X144167516Y-56525908D01*
X144032665Y-56576204D01*
X144029980Y-56577671D01*
X144026993Y-56578320D01*
X144024359Y-56579303D01*
X144024217Y-56578923D01*
X143961706Y-56592516D01*
X143896244Y-56568093D01*
X143882882Y-56556514D01*
X142243421Y-54917052D01*
X142243414Y-54917046D01*
X142169729Y-54867812D01*
X142169729Y-54867813D01*
X142120491Y-54834913D01*
X141983917Y-54778343D01*
X141983907Y-54778340D01*
X141838920Y-54749500D01*
X141838918Y-54749500D01*
X131776082Y-54749500D01*
X131776076Y-54749500D01*
X131747242Y-54755234D01*
X131747243Y-54755235D01*
X131631093Y-54778339D01*
X131631083Y-54778342D01*
X131551081Y-54811479D01*
X131551082Y-54811480D01*
X131494505Y-54834915D01*
X131412372Y-54889795D01*
X131371585Y-54917047D01*
X131371581Y-54917050D01*
X125160558Y-61128072D01*
X125099235Y-61161557D01*
X125052468Y-61162700D01*
X124853506Y-61129500D01*
X124606494Y-61129500D01*
X124557765Y-61137631D01*
X124362846Y-61170157D01*
X124129228Y-61250359D01*
X124129219Y-61250362D01*
X123911977Y-61367928D01*
X123911971Y-61367932D01*
X123717058Y-61519639D01*
X123717055Y-61519642D01*
X123717052Y-61519644D01*
X123717052Y-61519645D01*
X123625735Y-61618842D01*
X123549753Y-61701381D01*
X123547767Y-61704421D01*
X123546635Y-61705386D01*
X123546604Y-61705427D01*
X123546595Y-61705420D01*
X123494617Y-61749774D01*
X123431172Y-61759931D01*
X123406208Y-61757342D01*
X122798694Y-62364856D01*
X122774884Y-62307373D01*
X122702655Y-62199275D01*
X122610725Y-62107345D01*
X122502627Y-62035116D01*
X122445142Y-62011305D01*
X123052931Y-61403516D01*
X123052931Y-61403515D01*
X123007743Y-61368346D01*
X122790578Y-61250821D01*
X122790570Y-61250818D01*
X122557029Y-61170643D01*
X122313465Y-61130000D01*
X122066535Y-61130000D01*
X121822970Y-61170643D01*
X121589429Y-61250818D01*
X121589421Y-61250821D01*
X121372252Y-61368348D01*
X121372251Y-61368349D01*
X121327068Y-61403514D01*
X121327068Y-61403516D01*
X121934857Y-62011305D01*
X121877373Y-62035116D01*
X121769275Y-62107345D01*
X121677345Y-62199275D01*
X121605116Y-62307373D01*
X121581305Y-62364857D01*
X120973790Y-61757342D01*
X120948827Y-61759931D01*
X120880115Y-61747266D01*
X120832223Y-61704407D01*
X120830245Y-61701379D01*
X120662948Y-61519645D01*
X120662943Y-61519641D01*
X120662941Y-61519639D01*
X120468028Y-61367932D01*
X120468022Y-61367928D01*
X120250780Y-61250362D01*
X120250771Y-61250359D01*
X120017153Y-61170157D01*
X119834417Y-61139664D01*
X119773506Y-61129500D01*
X119526494Y-61129500D01*
X119327531Y-61162701D01*
X119258165Y-61154319D01*
X119219440Y-61128073D01*
X116786819Y-58695451D01*
X116753334Y-58634128D01*
X116750500Y-58607770D01*
X116750500Y-54986820D01*
X116770185Y-54919781D01*
X116822989Y-54874026D01*
X116892147Y-54864082D01*
X116955703Y-54893107D01*
X116985500Y-54931548D01*
X117060327Y-55081821D01*
X117183237Y-55244581D01*
X117333958Y-55381980D01*
X117333960Y-55381982D01*
X117433141Y-55443392D01*
X117507363Y-55489348D01*
X117697544Y-55563024D01*
X117898024Y-55600500D01*
X117898026Y-55600500D01*
X118101974Y-55600500D01*
X118101976Y-55600500D01*
X118302456Y-55563024D01*
X118492637Y-55489348D01*
X118666041Y-55381981D01*
X118737486Y-55316850D01*
X118774769Y-55282863D01*
X118837573Y-55252246D01*
X118858307Y-55250500D01*
X127141693Y-55250500D01*
X127208732Y-55270185D01*
X127225231Y-55282863D01*
X127333958Y-55381980D01*
X127333960Y-55381982D01*
X127433141Y-55443392D01*
X127507363Y-55489348D01*
X127697544Y-55563024D01*
X127898024Y-55600500D01*
X127898026Y-55600500D01*
X128101974Y-55600500D01*
X128101976Y-55600500D01*
X128302456Y-55563024D01*
X128492637Y-55489348D01*
X128666041Y-55381981D01*
X128816764Y-55244579D01*
X128939673Y-55081821D01*
X129030582Y-54899250D01*
X129086397Y-54703083D01*
X129105215Y-54500000D01*
X129086397Y-54296917D01*
X129030582Y-54100750D01*
X129010725Y-54060872D01*
X128986272Y-54011764D01*
X128939673Y-53918179D01*
X128816764Y-53755421D01*
X128816762Y-53755418D01*
X128666041Y-53618019D01*
X128666039Y-53618017D01*
X128492642Y-53510655D01*
X128492635Y-53510651D01*
X128397546Y-53473814D01*
X128302456Y-53436976D01*
X128101976Y-53399500D01*
X127898024Y-53399500D01*
X127697544Y-53436976D01*
X127697541Y-53436976D01*
X127697541Y-53436977D01*
X127507364Y-53510651D01*
X127507357Y-53510655D01*
X127333960Y-53618017D01*
X127333958Y-53618019D01*
X127225231Y-53717137D01*
X127162427Y-53747754D01*
X127141693Y-53749500D01*
X118858307Y-53749500D01*
X118791268Y-53729815D01*
X118774769Y-53717137D01*
X118666041Y-53618019D01*
X118666039Y-53618017D01*
X118492642Y-53510655D01*
X118492635Y-53510651D01*
X118397546Y-53473814D01*
X118302456Y-53436976D01*
X118101976Y-53399500D01*
X117898024Y-53399500D01*
X117697544Y-53436976D01*
X117697541Y-53436976D01*
X117697541Y-53436977D01*
X117507364Y-53510651D01*
X117507357Y-53510655D01*
X117333960Y-53618017D01*
X117333958Y-53618019D01*
X117183237Y-53755418D01*
X117060327Y-53918178D01*
X116985500Y-54068451D01*
X116937997Y-54119688D01*
X116870334Y-54137109D01*
X116803994Y-54115183D01*
X116760039Y-54060872D01*
X116750500Y-54013179D01*
X116750500Y-51859738D01*
X116770185Y-51792699D01*
X116790962Y-51768101D01*
X116801938Y-51758093D01*
X116816764Y-51744579D01*
X116939673Y-51581821D01*
X117030582Y-51399250D01*
X117086397Y-51203083D01*
X117105215Y-51000000D01*
X117086397Y-50796917D01*
X117030582Y-50600750D01*
X116939673Y-50418179D01*
X116816764Y-50255421D01*
X116816762Y-50255418D01*
X116666041Y-50118019D01*
X116666039Y-50118017D01*
X116492642Y-50010655D01*
X116492635Y-50010651D01*
X116397546Y-49973814D01*
X116302456Y-49936976D01*
X116101976Y-49899500D01*
X115898024Y-49899500D01*
X115767912Y-49923821D01*
X115722285Y-49932351D01*
X115652770Y-49925320D01*
X115598091Y-49881822D01*
X115575609Y-49815668D01*
X115575500Y-49810462D01*
X115575500Y-48172902D01*
X115595185Y-48105863D01*
X115647989Y-48060108D01*
X115717147Y-48050164D01*
X115780703Y-48079189D01*
X115803309Y-48105081D01*
X115929750Y-48298615D01*
X115929752Y-48298617D01*
X115929755Y-48298621D01*
X116097052Y-48480355D01*
X116097055Y-48480357D01*
X116097058Y-48480360D01*
X116291971Y-48632067D01*
X116291977Y-48632071D01*
X116291980Y-48632073D01*
X116352979Y-48665084D01*
X116508376Y-48749181D01*
X116509221Y-48749638D01*
X116630536Y-48791285D01*
X116742846Y-48829842D01*
X116742848Y-48829842D01*
X116742850Y-48829843D01*
X116986494Y-48870500D01*
X116986495Y-48870500D01*
X117233505Y-48870500D01*
X117233506Y-48870500D01*
X117477150Y-48829843D01*
X117710779Y-48749638D01*
X117928020Y-48632073D01*
X117928559Y-48631654D01*
X118121686Y-48481337D01*
X118122948Y-48480355D01*
X118288772Y-48300220D01*
X118348657Y-48264232D01*
X118418495Y-48266332D01*
X118471227Y-48300220D01*
X118637052Y-48480355D01*
X118637055Y-48480357D01*
X118637058Y-48480360D01*
X118831971Y-48632067D01*
X118831977Y-48632071D01*
X118831980Y-48632073D01*
X118892979Y-48665084D01*
X119048376Y-48749181D01*
X119049221Y-48749638D01*
X119170536Y-48791285D01*
X119282846Y-48829842D01*
X119282848Y-48829842D01*
X119282850Y-48829843D01*
X119526494Y-48870500D01*
X119526495Y-48870500D01*
X119773505Y-48870500D01*
X119773506Y-48870500D01*
X120017150Y-48829843D01*
X120250779Y-48749638D01*
X120468020Y-48632073D01*
X120468559Y-48631654D01*
X120661686Y-48481337D01*
X120662948Y-48480355D01*
X120828772Y-48300220D01*
X120888657Y-48264232D01*
X120958495Y-48266332D01*
X121011227Y-48300220D01*
X121177052Y-48480355D01*
X121177055Y-48480357D01*
X121177058Y-48480360D01*
X121371971Y-48632067D01*
X121371977Y-48632071D01*
X121371980Y-48632073D01*
X121432979Y-48665084D01*
X121588376Y-48749181D01*
X121589221Y-48749638D01*
X121710536Y-48791285D01*
X121822846Y-48829842D01*
X121822848Y-48829842D01*
X121822850Y-48829843D01*
X122066494Y-48870500D01*
X122066495Y-48870500D01*
X122313505Y-48870500D01*
X122313506Y-48870500D01*
X122557150Y-48829843D01*
X122790779Y-48749638D01*
X123008020Y-48632073D01*
X123008559Y-48631654D01*
X123201686Y-48481337D01*
X123202948Y-48480355D01*
X123370245Y-48298621D01*
X123372223Y-48295592D01*
X123373352Y-48294628D01*
X123373397Y-48294572D01*
X123373408Y-48294581D01*
X123425365Y-48250232D01*
X123488830Y-48240068D01*
X123513790Y-48242656D01*
X124121304Y-47635141D01*
X124145116Y-47692627D01*
X124217345Y-47800725D01*
X124309275Y-47892655D01*
X124417373Y-47964884D01*
X124474857Y-47988694D01*
X123867068Y-48596483D01*
X123912256Y-48631653D01*
X124129421Y-48749178D01*
X124129429Y-48749181D01*
X124362970Y-48829356D01*
X124606535Y-48870000D01*
X124853465Y-48870000D01*
X125097029Y-48829356D01*
X125330570Y-48749181D01*
X125330578Y-48749178D01*
X125547743Y-48631654D01*
X125592930Y-48596483D01*
X124985142Y-47988695D01*
X125042627Y-47964884D01*
X125150725Y-47892655D01*
X125242655Y-47800725D01*
X125314884Y-47692627D01*
X125338694Y-47635142D01*
X125946208Y-48242656D01*
X125971170Y-48240068D01*
X126039883Y-48252731D01*
X126087770Y-48295583D01*
X126089755Y-48298621D01*
X126257052Y-48480355D01*
X126257055Y-48480357D01*
X126257058Y-48480360D01*
X126451971Y-48632067D01*
X126451977Y-48632071D01*
X126451980Y-48632073D01*
X126512979Y-48665084D01*
X126668376Y-48749181D01*
X126669221Y-48749638D01*
X126790536Y-48791285D01*
X126902846Y-48829842D01*
X126902848Y-48829842D01*
X126902850Y-48829843D01*
X127146494Y-48870500D01*
X127146495Y-48870500D01*
X127393505Y-48870500D01*
X127393506Y-48870500D01*
X127637150Y-48829843D01*
X127870779Y-48749638D01*
X128088020Y-48632073D01*
X128088559Y-48631654D01*
X128281686Y-48481337D01*
X128282948Y-48480355D01*
X128448772Y-48300220D01*
X128508657Y-48264232D01*
X128578495Y-48266332D01*
X128631227Y-48300220D01*
X128797052Y-48480355D01*
X128797055Y-48480357D01*
X128797058Y-48480360D01*
X128991971Y-48632067D01*
X128991977Y-48632071D01*
X128991980Y-48632073D01*
X129052979Y-48665084D01*
X129208376Y-48749181D01*
X129209221Y-48749638D01*
X129330536Y-48791285D01*
X129442846Y-48829842D01*
X129442848Y-48829842D01*
X129442850Y-48829843D01*
X129686494Y-48870500D01*
X129686495Y-48870500D01*
X129933505Y-48870500D01*
X129933506Y-48870500D01*
X130177150Y-48829843D01*
X130410779Y-48749638D01*
X130628020Y-48632073D01*
X130628559Y-48631654D01*
X130821686Y-48481337D01*
X130822948Y-48480355D01*
X130988772Y-48300220D01*
X131048657Y-48264232D01*
X131118495Y-48266332D01*
X131171227Y-48300220D01*
X131337052Y-48480355D01*
X131337055Y-48480357D01*
X131337058Y-48480360D01*
X131531971Y-48632067D01*
X131531977Y-48632071D01*
X131531980Y-48632073D01*
X131592979Y-48665084D01*
X131748376Y-48749181D01*
X131749221Y-48749638D01*
X131870536Y-48791285D01*
X131982846Y-48829842D01*
X131982848Y-48829842D01*
X131982850Y-48829843D01*
X132226494Y-48870500D01*
X132226495Y-48870500D01*
X132473505Y-48870500D01*
X132473506Y-48870500D01*
X132717150Y-48829843D01*
X132950779Y-48749638D01*
X133168020Y-48632073D01*
X133168559Y-48631654D01*
X133361686Y-48481337D01*
X133362948Y-48480355D01*
X133530245Y-48298621D01*
X133532223Y-48295592D01*
X133533352Y-48294628D01*
X133533397Y-48294572D01*
X133533408Y-48294581D01*
X133585365Y-48250232D01*
X133648830Y-48240068D01*
X133673790Y-48242656D01*
X134281304Y-47635141D01*
X134305116Y-47692627D01*
X134377345Y-47800725D01*
X134469275Y-47892655D01*
X134577373Y-47964884D01*
X134634857Y-47988694D01*
X134027068Y-48596483D01*
X134072256Y-48631653D01*
X134289421Y-48749178D01*
X134289429Y-48749181D01*
X134522970Y-48829356D01*
X134766535Y-48870000D01*
X135013465Y-48870000D01*
X135257029Y-48829356D01*
X135490570Y-48749181D01*
X135490578Y-48749178D01*
X135707743Y-48631654D01*
X135752930Y-48596483D01*
X135145142Y-47988695D01*
X135202627Y-47964884D01*
X135310725Y-47892655D01*
X135402655Y-47800725D01*
X135474884Y-47692627D01*
X135498694Y-47635142D01*
X136106209Y-48242657D01*
X136204904Y-48091595D01*
X136204909Y-48091587D01*
X136304098Y-47865460D01*
X136364715Y-47626090D01*
X136364717Y-47626079D01*
X136385107Y-47380006D01*
X136385107Y-47379993D01*
X136364717Y-47133920D01*
X136364715Y-47133909D01*
X136304098Y-46894539D01*
X136204906Y-46668406D01*
X136106209Y-46517341D01*
X135498694Y-47124856D01*
X135474884Y-47067373D01*
X135402655Y-46959275D01*
X135310725Y-46867345D01*
X135202627Y-46795116D01*
X135145142Y-46771305D01*
X135752931Y-46163516D01*
X135752931Y-46163515D01*
X135707743Y-46128346D01*
X135490578Y-46010821D01*
X135490570Y-46010818D01*
X135257029Y-45930643D01*
X135013465Y-45890000D01*
X134766535Y-45890000D01*
X134522970Y-45930643D01*
X134289429Y-46010818D01*
X134289421Y-46010821D01*
X134072252Y-46128348D01*
X134072251Y-46128349D01*
X134027068Y-46163514D01*
X134027068Y-46163516D01*
X134634857Y-46771305D01*
X134577373Y-46795116D01*
X134469275Y-46867345D01*
X134377345Y-46959275D01*
X134305116Y-47067373D01*
X134281305Y-47124857D01*
X133673790Y-46517342D01*
X133648827Y-46519931D01*
X133580115Y-46507266D01*
X133532223Y-46464407D01*
X133530245Y-46461379D01*
X133362948Y-46279645D01*
X133362943Y-46279641D01*
X133362941Y-46279639D01*
X133168028Y-46127932D01*
X133168022Y-46127928D01*
X132950780Y-46010362D01*
X132950771Y-46010359D01*
X132717153Y-45930157D01*
X132534417Y-45899664D01*
X132473506Y-45889500D01*
X132226494Y-45889500D01*
X132177765Y-45897631D01*
X131982846Y-45930157D01*
X131749228Y-46010359D01*
X131749219Y-46010362D01*
X131531977Y-46127928D01*
X131531971Y-46127932D01*
X131337058Y-46279639D01*
X131337055Y-46279642D01*
X131171230Y-46459777D01*
X131111343Y-46495767D01*
X131041505Y-46493667D01*
X130988770Y-46459777D01*
X130822948Y-46279645D01*
X130822943Y-46279641D01*
X130822941Y-46279639D01*
X130628028Y-46127932D01*
X130628022Y-46127928D01*
X130410780Y-46010362D01*
X130410771Y-46010359D01*
X130177153Y-45930157D01*
X129994417Y-45899664D01*
X129933506Y-45889500D01*
X129686494Y-45889500D01*
X129637765Y-45897631D01*
X129442846Y-45930157D01*
X129209228Y-46010359D01*
X129209219Y-46010362D01*
X128991977Y-46127928D01*
X128991971Y-46127932D01*
X128797058Y-46279639D01*
X128797055Y-46279642D01*
X128631230Y-46459777D01*
X128571343Y-46495767D01*
X128501505Y-46493667D01*
X128448770Y-46459777D01*
X128282948Y-46279645D01*
X128282943Y-46279641D01*
X128282941Y-46279639D01*
X128088028Y-46127932D01*
X128088022Y-46127928D01*
X127870780Y-46010362D01*
X127870771Y-46010359D01*
X127637153Y-45930157D01*
X127454417Y-45899664D01*
X127393506Y-45889500D01*
X127146494Y-45889500D01*
X127097765Y-45897631D01*
X126902846Y-45930157D01*
X126669228Y-46010359D01*
X126669219Y-46010362D01*
X126451977Y-46127928D01*
X126451971Y-46127932D01*
X126257058Y-46279639D01*
X126257055Y-46279642D01*
X126089753Y-46461381D01*
X126087767Y-46464421D01*
X126086635Y-46465386D01*
X126086604Y-46465427D01*
X126086595Y-46465420D01*
X126034617Y-46509774D01*
X125971172Y-46519931D01*
X125946208Y-46517342D01*
X125338694Y-47124856D01*
X125314884Y-47067373D01*
X125242655Y-46959275D01*
X125150725Y-46867345D01*
X125042627Y-46795116D01*
X124985142Y-46771305D01*
X125592931Y-46163516D01*
X125592931Y-46163515D01*
X125547743Y-46128346D01*
X125330578Y-46010821D01*
X125330570Y-46010818D01*
X125097029Y-45930643D01*
X124853465Y-45890000D01*
X124606535Y-45890000D01*
X124362970Y-45930643D01*
X124129429Y-46010818D01*
X124129421Y-46010821D01*
X123912252Y-46128348D01*
X123912251Y-46128349D01*
X123867068Y-46163514D01*
X123867068Y-46163516D01*
X124474857Y-46771305D01*
X124417373Y-46795116D01*
X124309275Y-46867345D01*
X124217345Y-46959275D01*
X124145116Y-47067373D01*
X124121305Y-47124857D01*
X123513790Y-46517342D01*
X123488827Y-46519931D01*
X123420115Y-46507266D01*
X123372223Y-46464407D01*
X123370245Y-46461379D01*
X123202948Y-46279645D01*
X123202943Y-46279641D01*
X123202941Y-46279639D01*
X123008028Y-46127932D01*
X123008022Y-46127928D01*
X122790780Y-46010362D01*
X122790771Y-46010359D01*
X122557153Y-45930157D01*
X122374417Y-45899664D01*
X122313506Y-45889500D01*
X122066494Y-45889500D01*
X122017765Y-45897631D01*
X121822846Y-45930157D01*
X121589228Y-46010359D01*
X121589219Y-46010362D01*
X121371977Y-46127928D01*
X121371971Y-46127932D01*
X121177058Y-46279639D01*
X121177055Y-46279642D01*
X121011230Y-46459777D01*
X120951343Y-46495767D01*
X120881505Y-46493667D01*
X120828770Y-46459777D01*
X120662948Y-46279645D01*
X120662943Y-46279641D01*
X120662941Y-46279639D01*
X120468028Y-46127932D01*
X120468022Y-46127928D01*
X120250780Y-46010362D01*
X120250771Y-46010359D01*
X120017153Y-45930157D01*
X119834417Y-45899664D01*
X119773506Y-45889500D01*
X119526494Y-45889500D01*
X119477765Y-45897631D01*
X119282846Y-45930157D01*
X119049228Y-46010359D01*
X119049219Y-46010362D01*
X118831977Y-46127928D01*
X118831971Y-46127932D01*
X118637058Y-46279639D01*
X118637055Y-46279642D01*
X118471230Y-46459777D01*
X118411343Y-46495767D01*
X118341505Y-46493667D01*
X118288770Y-46459777D01*
X118122948Y-46279645D01*
X118122943Y-46279641D01*
X118122941Y-46279639D01*
X117928028Y-46127932D01*
X117928022Y-46127928D01*
X117710780Y-46010362D01*
X117710771Y-46010359D01*
X117477153Y-45930157D01*
X117294417Y-45899664D01*
X117233506Y-45889500D01*
X116986494Y-45889500D01*
X116937765Y-45897631D01*
X116742846Y-45930157D01*
X116509228Y-46010359D01*
X116509219Y-46010362D01*
X116291977Y-46127928D01*
X116291971Y-46127932D01*
X116097058Y-46279639D01*
X116097055Y-46279642D01*
X115929752Y-46461382D01*
X115803309Y-46654919D01*
X115750162Y-46700275D01*
X115680931Y-46709699D01*
X115617595Y-46680197D01*
X115580264Y-46621137D01*
X115575500Y-46587097D01*
X115575500Y-45539999D01*
X139065447Y-45539999D01*
X139065447Y-45540000D01*
X139085615Y-45757660D01*
X139085616Y-45757662D01*
X139145435Y-45967905D01*
X139145441Y-45967920D01*
X139242869Y-46163581D01*
X139242874Y-46163589D01*
X139330514Y-46279642D01*
X139374605Y-46338028D01*
X139536147Y-46485294D01*
X139536149Y-46485295D01*
X139536150Y-46485296D01*
X139721995Y-46600366D01*
X139722001Y-46600369D01*
X139765182Y-46617097D01*
X139925832Y-46679333D01*
X140140703Y-46719500D01*
X140140705Y-46719500D01*
X140359295Y-46719500D01*
X140359297Y-46719500D01*
X140574168Y-46679333D01*
X140778001Y-46600368D01*
X140963853Y-46485294D01*
X141125395Y-46338028D01*
X141257127Y-46163587D01*
X141354563Y-45967910D01*
X141414384Y-45757661D01*
X141434553Y-45540000D01*
X141414384Y-45322339D01*
X141354563Y-45112090D01*
X141354558Y-45112079D01*
X141257130Y-44916418D01*
X141257125Y-44916410D01*
X141125395Y-44741972D01*
X140963853Y-44594706D01*
X140963850Y-44594704D01*
X140963849Y-44594703D01*
X140778004Y-44479633D01*
X140777998Y-44479630D01*
X140617351Y-44417396D01*
X140574168Y-44400667D01*
X140525847Y-44391634D01*
X140463568Y-44359966D01*
X140428295Y-44299654D01*
X140431229Y-44229846D01*
X140471438Y-44172706D01*
X140525849Y-44147857D01*
X140574028Y-44138850D01*
X140574029Y-44138850D01*
X140777781Y-44059916D01*
X140888073Y-43991625D01*
X140318173Y-43421725D01*
X140414044Y-43396037D01*
X140510956Y-43340084D01*
X140590084Y-43260956D01*
X140646037Y-43164044D01*
X140671725Y-43068172D01*
X141243867Y-43640314D01*
X141256699Y-43623323D01*
X141256703Y-43623316D01*
X141354093Y-43427732D01*
X141413890Y-43217564D01*
X141434051Y-43000000D01*
X141434051Y-42999999D01*
X141413890Y-42782435D01*
X141354093Y-42572267D01*
X141256699Y-42376675D01*
X141243868Y-42359684D01*
X140671725Y-42931826D01*
X140646037Y-42835956D01*
X140590084Y-42739044D01*
X140510956Y-42659916D01*
X140414044Y-42603963D01*
X140318173Y-42578274D01*
X140888073Y-42008373D01*
X140888072Y-42008372D01*
X140777780Y-41940082D01*
X140777774Y-41940079D01*
X140655459Y-41892695D01*
X150274500Y-41892695D01*
X150274500Y-44107304D01*
X150311201Y-44339027D01*
X150383697Y-44562150D01*
X150490212Y-44771195D01*
X150628104Y-44960989D01*
X150628108Y-44960994D01*
X150794005Y-45126891D01*
X150794010Y-45126895D01*
X150925031Y-45222086D01*
X150983808Y-45264790D01*
X151125895Y-45337187D01*
X151192849Y-45371302D01*
X151304410Y-45407550D01*
X151415974Y-45443799D01*
X151647695Y-45480500D01*
X151647696Y-45480500D01*
X151882304Y-45480500D01*
X151882305Y-45480500D01*
X152114026Y-45443799D01*
X152337153Y-45371301D01*
X152546192Y-45264790D01*
X152735996Y-45126890D01*
X152901890Y-44960996D01*
X153039790Y-44771192D01*
X153146301Y-44562153D01*
X153218799Y-44339026D01*
X153255500Y-44107305D01*
X153255500Y-41892695D01*
X153218799Y-41660974D01*
X153165374Y-41496547D01*
X153146302Y-41437849D01*
X153146301Y-41437847D01*
X153039790Y-41228808D01*
X153009316Y-41186864D01*
X152901895Y-41039010D01*
X152901891Y-41039005D01*
X152835041Y-40972155D01*
X155275000Y-40972155D01*
X155275000Y-42750000D01*
X156154175Y-42750000D01*
X156130364Y-42807485D01*
X156105000Y-42934996D01*
X156105000Y-43065004D01*
X156130364Y-43192515D01*
X156154175Y-43250000D01*
X155275000Y-43250000D01*
X155275000Y-45027844D01*
X155281401Y-45087372D01*
X155281403Y-45087379D01*
X155331645Y-45222086D01*
X155331649Y-45222093D01*
X155417809Y-45337187D01*
X155417812Y-45337190D01*
X155532906Y-45423350D01*
X155532913Y-45423354D01*
X155667620Y-45473596D01*
X155667627Y-45473598D01*
X155727155Y-45479999D01*
X155727172Y-45480000D01*
X156515000Y-45480000D01*
X156515000Y-43610824D01*
X156572485Y-43634636D01*
X156699996Y-43660000D01*
X156830004Y-43660000D01*
X156957515Y-43634636D01*
X157015000Y-43610824D01*
X157015000Y-45480000D01*
X157802828Y-45480000D01*
X157802844Y-45479999D01*
X157862372Y-45473598D01*
X157862379Y-45473596D01*
X157997086Y-45423354D01*
X157997093Y-45423350D01*
X158112187Y-45337190D01*
X158112190Y-45337187D01*
X158198350Y-45222093D01*
X158198354Y-45222086D01*
X158248596Y-45087379D01*
X158248598Y-45087372D01*
X158254999Y-45027844D01*
X158255000Y-45027827D01*
X158255000Y-43250000D01*
X157375825Y-43250000D01*
X157399636Y-43192515D01*
X157425000Y-43065004D01*
X157425000Y-42934996D01*
X157399636Y-42807485D01*
X157375825Y-42750000D01*
X158255000Y-42750000D01*
X158255000Y-40972172D01*
X158254999Y-40972155D01*
X158248598Y-40912627D01*
X158248596Y-40912620D01*
X158198354Y-40777913D01*
X158198350Y-40777906D01*
X158112190Y-40662812D01*
X158112187Y-40662809D01*
X157997093Y-40576649D01*
X157997086Y-40576645D01*
X157862379Y-40526403D01*
X157862372Y-40526401D01*
X157802844Y-40520000D01*
X157015000Y-40520000D01*
X157015000Y-42389175D01*
X156957515Y-42365364D01*
X156830004Y-42340000D01*
X156699996Y-42340000D01*
X156572485Y-42365364D01*
X156515000Y-42389175D01*
X156515000Y-40520000D01*
X155727155Y-40520000D01*
X155667627Y-40526401D01*
X155667620Y-40526403D01*
X155532913Y-40576645D01*
X155532906Y-40576649D01*
X155417812Y-40662809D01*
X155417809Y-40662812D01*
X155331649Y-40777906D01*
X155331645Y-40777913D01*
X155281403Y-40912620D01*
X155281401Y-40912627D01*
X155275000Y-40972155D01*
X152835041Y-40972155D01*
X152735994Y-40873108D01*
X152735989Y-40873104D01*
X152546195Y-40735212D01*
X152546194Y-40735211D01*
X152546192Y-40735210D01*
X152441672Y-40681954D01*
X152337150Y-40628697D01*
X152114027Y-40556201D01*
X151998165Y-40537850D01*
X151882305Y-40519500D01*
X151647695Y-40519500D01*
X151570454Y-40531733D01*
X151415972Y-40556201D01*
X151192849Y-40628697D01*
X150983804Y-40735212D01*
X150794010Y-40873104D01*
X150794005Y-40873108D01*
X150628108Y-41039005D01*
X150628104Y-41039010D01*
X150490212Y-41228804D01*
X150383697Y-41437849D01*
X150311201Y-41660972D01*
X150274500Y-41892695D01*
X140655459Y-41892695D01*
X140620433Y-41879126D01*
X140565032Y-41836553D01*
X140541441Y-41770786D01*
X140557152Y-41702706D01*
X140607176Y-41653927D01*
X140665226Y-41639499D01*
X140976872Y-41639499D01*
X141036483Y-41633091D01*
X141171331Y-41582796D01*
X141286546Y-41496546D01*
X141372796Y-41381331D01*
X141423091Y-41246483D01*
X141429500Y-41186873D01*
X141429499Y-39733128D01*
X141423091Y-39673517D01*
X141388643Y-39581158D01*
X141372797Y-39538671D01*
X141372793Y-39538664D01*
X141286547Y-39423455D01*
X141286544Y-39423452D01*
X141171335Y-39337206D01*
X141171328Y-39337202D01*
X141036482Y-39286908D01*
X141036483Y-39286908D01*
X140976883Y-39280501D01*
X140976881Y-39280500D01*
X140976873Y-39280500D01*
X140976864Y-39280500D01*
X139523129Y-39280500D01*
X139523123Y-39280501D01*
X139463516Y-39286908D01*
X139328671Y-39337202D01*
X139328664Y-39337206D01*
X139213455Y-39423452D01*
X139213452Y-39423455D01*
X139127206Y-39538664D01*
X139127202Y-39538671D01*
X139076908Y-39673517D01*
X139070501Y-39733116D01*
X139070501Y-39733123D01*
X139070500Y-39733135D01*
X139070500Y-41186870D01*
X139070501Y-41186876D01*
X139076908Y-41246483D01*
X139127202Y-41381328D01*
X139127206Y-41381335D01*
X139213452Y-41496544D01*
X139213455Y-41496547D01*
X139328664Y-41582793D01*
X139328671Y-41582797D01*
X139463517Y-41633091D01*
X139463516Y-41633091D01*
X139470444Y-41633835D01*
X139523127Y-41639500D01*
X139834773Y-41639499D01*
X139901810Y-41659183D01*
X139947565Y-41711987D01*
X139957509Y-41781146D01*
X139928484Y-41844701D01*
X139879565Y-41879125D01*
X139722234Y-41940075D01*
X139722227Y-41940078D01*
X139611925Y-42008373D01*
X140181827Y-42578274D01*
X140085956Y-42603963D01*
X139989044Y-42659916D01*
X139909916Y-42739044D01*
X139853963Y-42835956D01*
X139828274Y-42931827D01*
X139256131Y-42359684D01*
X139243297Y-42376681D01*
X139145906Y-42572267D01*
X139086109Y-42782435D01*
X139065949Y-42999999D01*
X139065949Y-43000000D01*
X139086109Y-43217564D01*
X139145906Y-43427732D01*
X139243300Y-43623323D01*
X139256130Y-43640314D01*
X139256131Y-43640315D01*
X139828274Y-43068172D01*
X139853963Y-43164044D01*
X139909916Y-43260956D01*
X139989044Y-43340084D01*
X140085956Y-43396037D01*
X140181827Y-43421725D01*
X139611925Y-43991625D01*
X139722225Y-44059919D01*
X139925971Y-44138850D01*
X139974150Y-44147857D01*
X140036431Y-44179525D01*
X140071704Y-44239838D01*
X140068770Y-44309646D01*
X140028561Y-44366786D01*
X139974151Y-44391634D01*
X139925833Y-44400666D01*
X139722001Y-44479630D01*
X139721995Y-44479633D01*
X139536150Y-44594703D01*
X139374604Y-44741972D01*
X139242874Y-44916410D01*
X139242869Y-44916418D01*
X139145441Y-45112079D01*
X139145435Y-45112094D01*
X139085616Y-45322337D01*
X139085615Y-45322339D01*
X139065447Y-45539999D01*
X115575500Y-45539999D01*
X115575500Y-42773939D01*
X115595185Y-42706900D01*
X115611814Y-42686263D01*
X117262753Y-41035323D01*
X117324074Y-41001840D01*
X117393766Y-41006824D01*
X117424740Y-41023738D01*
X117523665Y-41097793D01*
X117523668Y-41097795D01*
X117523671Y-41097797D01*
X117658517Y-41148091D01*
X117658516Y-41148091D01*
X117665444Y-41148835D01*
X117718127Y-41154500D01*
X119121872Y-41154499D01*
X119181483Y-41148091D01*
X119316331Y-41097796D01*
X119431546Y-41011546D01*
X119517796Y-40896331D01*
X119568091Y-40761483D01*
X119574500Y-40701873D01*
X119574499Y-39999999D01*
X122340554Y-39999999D01*
X122340554Y-40000000D01*
X122360295Y-40213047D01*
X122360296Y-40213050D01*
X122418846Y-40418835D01*
X122418849Y-40418841D01*
X122487246Y-40556201D01*
X122514219Y-40610370D01*
X122643159Y-40781114D01*
X122801278Y-40925258D01*
X122801283Y-40925261D01*
X122801286Y-40925263D01*
X122983186Y-41037891D01*
X122983187Y-41037891D01*
X122983190Y-41037893D01*
X123182703Y-41115185D01*
X123393020Y-41154500D01*
X123393022Y-41154500D01*
X123606978Y-41154500D01*
X123606980Y-41154500D01*
X123817297Y-41115185D01*
X124016810Y-41037893D01*
X124198722Y-40925258D01*
X124356841Y-40781114D01*
X124485781Y-40610370D01*
X124581151Y-40418840D01*
X124581151Y-40418837D01*
X124581153Y-40418835D01*
X124639703Y-40213050D01*
X124639704Y-40213047D01*
X124659446Y-40000000D01*
X124659446Y-39999999D01*
X124639704Y-39786952D01*
X124639703Y-39786949D01*
X124581153Y-39581164D01*
X124581150Y-39581158D01*
X124570643Y-39560057D01*
X124485781Y-39389630D01*
X124356841Y-39218886D01*
X124198722Y-39074742D01*
X124198716Y-39074738D01*
X124198713Y-39074736D01*
X124016813Y-38962108D01*
X124016807Y-38962106D01*
X123817297Y-38884815D01*
X123606980Y-38845500D01*
X123393020Y-38845500D01*
X123182703Y-38884815D01*
X123137812Y-38902206D01*
X122983192Y-38962106D01*
X122983186Y-38962108D01*
X122801286Y-39074736D01*
X122801283Y-39074738D01*
X122801279Y-39074740D01*
X122801278Y-39074742D01*
X122643159Y-39218886D01*
X122643158Y-39218887D01*
X122514219Y-39389629D01*
X122418849Y-39581158D01*
X122418846Y-39581164D01*
X122360296Y-39786949D01*
X122360295Y-39786952D01*
X122340554Y-39999999D01*
X119574499Y-39999999D01*
X119574499Y-39298128D01*
X119568091Y-39238517D01*
X119566775Y-39234989D01*
X119517797Y-39103671D01*
X119517793Y-39103664D01*
X119431547Y-38988455D01*
X119431544Y-38988452D01*
X119316335Y-38902206D01*
X119316328Y-38902202D01*
X119181482Y-38851908D01*
X119181483Y-38851908D01*
X119121883Y-38845501D01*
X119121881Y-38845500D01*
X119121873Y-38845500D01*
X119121864Y-38845500D01*
X117718129Y-38845500D01*
X117718123Y-38845501D01*
X117658516Y-38851908D01*
X117523671Y-38902202D01*
X117523664Y-38902206D01*
X117408455Y-38988452D01*
X117408452Y-38988455D01*
X117322205Y-39103665D01*
X117322205Y-39103666D01*
X117322204Y-39103669D01*
X117319012Y-39112229D01*
X117316549Y-39118832D01*
X117274679Y-39174766D01*
X117209215Y-39199184D01*
X117200367Y-39199500D01*
X117087153Y-39199500D01*
X116932510Y-39230260D01*
X116932502Y-39230262D01*
X116786824Y-39290604D01*
X116786814Y-39290609D01*
X116655711Y-39378210D01*
X116655707Y-39378213D01*
X114847058Y-41186864D01*
X114264711Y-41769211D01*
X114208960Y-41824962D01*
X114153209Y-41880712D01*
X114065609Y-42011814D01*
X114065602Y-42011827D01*
X114005264Y-42157498D01*
X114005261Y-42157510D01*
X113974500Y-42312153D01*
X113974500Y-47322608D01*
X113954815Y-47389647D01*
X113902011Y-47435402D01*
X113832853Y-47445346D01*
X113805707Y-47438235D01*
X113802461Y-47436977D01*
X113802456Y-47436976D01*
X113601976Y-47399500D01*
X113601974Y-47399500D01*
X113512229Y-47399500D01*
X113445190Y-47379815D01*
X113424548Y-47363181D01*
X109831819Y-43770451D01*
X109798334Y-43709128D01*
X109795500Y-43682770D01*
X109795500Y-39673872D01*
X109815185Y-39606833D01*
X109860487Y-39564815D01*
X109868509Y-39560474D01*
X110064744Y-39407738D01*
X110233164Y-39224785D01*
X110369173Y-39016607D01*
X110469063Y-38788881D01*
X110480294Y-38744530D01*
X110515834Y-38684375D01*
X110578254Y-38652983D01*
X110647737Y-38660321D01*
X110702223Y-38704060D01*
X110724412Y-38770312D01*
X110724500Y-38774971D01*
X110724500Y-38884741D01*
X110749446Y-39074215D01*
X110754452Y-39112238D01*
X110802245Y-39290606D01*
X110813842Y-39333887D01*
X110901650Y-39545876D01*
X110901657Y-39545890D01*
X111016392Y-39744617D01*
X111156081Y-39926661D01*
X111156089Y-39926670D01*
X111318330Y-40088911D01*
X111318338Y-40088918D01*
X111500382Y-40228607D01*
X111500385Y-40228608D01*
X111500388Y-40228611D01*
X111699112Y-40343344D01*
X111699117Y-40343346D01*
X111699123Y-40343349D01*
X111790480Y-40381190D01*
X111911113Y-40431158D01*
X112132762Y-40490548D01*
X112360266Y-40520500D01*
X112360273Y-40520500D01*
X112589727Y-40520500D01*
X112589734Y-40520500D01*
X112817238Y-40490548D01*
X113038887Y-40431158D01*
X113250888Y-40343344D01*
X113449612Y-40228611D01*
X113631661Y-40088919D01*
X113631665Y-40088914D01*
X113631670Y-40088911D01*
X113793911Y-39926670D01*
X113793914Y-39926665D01*
X113793919Y-39926661D01*
X113933611Y-39744612D01*
X114048344Y-39545888D01*
X114136158Y-39333887D01*
X114195548Y-39112238D01*
X114225500Y-38884734D01*
X114225500Y-38655266D01*
X114225274Y-38653553D01*
X114219955Y-38613147D01*
X114195548Y-38427762D01*
X114136158Y-38206113D01*
X114048344Y-37994112D01*
X113933611Y-37795388D01*
X113933608Y-37795385D01*
X113933607Y-37795382D01*
X113793918Y-37613338D01*
X113793911Y-37613330D01*
X113631670Y-37451089D01*
X113631661Y-37451081D01*
X113449617Y-37311392D01*
X113250890Y-37196657D01*
X113250876Y-37196650D01*
X113038887Y-37108842D01*
X112817238Y-37049452D01*
X112779215Y-37044446D01*
X112589741Y-37019500D01*
X112589734Y-37019500D01*
X112360266Y-37019500D01*
X112360258Y-37019500D01*
X112143715Y-37048009D01*
X112132762Y-37049452D01*
X112039076Y-37074554D01*
X111911112Y-37108842D01*
X111699123Y-37196650D01*
X111699109Y-37196657D01*
X111500382Y-37311392D01*
X111318338Y-37451081D01*
X111156081Y-37613338D01*
X111016392Y-37795382D01*
X110901657Y-37994109D01*
X110901650Y-37994123D01*
X110813843Y-38206110D01*
X110813842Y-38206113D01*
X110797213Y-38268176D01*
X110791357Y-38290030D01*
X110754992Y-38349690D01*
X110692145Y-38380219D01*
X110622769Y-38371924D01*
X110568891Y-38327439D01*
X110548006Y-38268179D01*
X110530108Y-38052179D01*
X110469063Y-37811119D01*
X110462160Y-37795382D01*
X110369173Y-37583393D01*
X110233166Y-37375217D01*
X110174408Y-37311389D01*
X110064744Y-37192262D01*
X109868509Y-37039526D01*
X109868507Y-37039525D01*
X109868506Y-37039524D01*
X109649811Y-36921172D01*
X109649802Y-36921169D01*
X109414616Y-36840429D01*
X109169335Y-36799500D01*
X108920665Y-36799500D01*
X108675383Y-36840429D01*
X108440197Y-36921169D01*
X108440188Y-36921172D01*
X108221493Y-37039524D01*
X108025257Y-37192261D01*
X107866230Y-37365010D01*
X107806342Y-37401001D01*
X107736504Y-37398900D01*
X107683770Y-37365010D01*
X107634408Y-37311389D01*
X107524744Y-37192262D01*
X107328509Y-37039526D01*
X107328507Y-37039525D01*
X107328506Y-37039524D01*
X107109811Y-36921172D01*
X107109802Y-36921169D01*
X106874616Y-36840429D01*
X106629335Y-36799500D01*
X106380665Y-36799500D01*
X106135383Y-36840429D01*
X105900197Y-36921169D01*
X105900188Y-36921172D01*
X105681493Y-37039524D01*
X105485257Y-37192261D01*
X105326230Y-37365010D01*
X105266342Y-37401001D01*
X105196504Y-37398900D01*
X105143770Y-37365010D01*
X105094408Y-37311389D01*
X104984744Y-37192262D01*
X104788509Y-37039526D01*
X104788507Y-37039525D01*
X104788506Y-37039524D01*
X104569811Y-36921172D01*
X104569802Y-36921169D01*
X104334616Y-36840429D01*
X104089335Y-36799500D01*
X103840665Y-36799500D01*
X103595383Y-36840429D01*
X103360197Y-36921169D01*
X103360188Y-36921172D01*
X103141493Y-37039524D01*
X102945257Y-37192261D01*
X102786230Y-37365010D01*
X102726342Y-37401001D01*
X102656504Y-37398900D01*
X102603770Y-37365010D01*
X102554408Y-37311389D01*
X102444744Y-37192262D01*
X102248509Y-37039526D01*
X102248507Y-37039525D01*
X102248506Y-37039524D01*
X102029811Y-36921172D01*
X102029802Y-36921169D01*
X101794616Y-36840429D01*
X101549335Y-36799500D01*
X101300665Y-36799500D01*
X101055383Y-36840429D01*
X100820197Y-36921169D01*
X100820188Y-36921172D01*
X100601493Y-37039524D01*
X100405257Y-37192261D01*
X100246230Y-37365010D01*
X100186342Y-37401001D01*
X100116504Y-37398900D01*
X100063770Y-37365010D01*
X100014408Y-37311389D01*
X99904744Y-37192262D01*
X99708509Y-37039526D01*
X99708507Y-37039525D01*
X99708506Y-37039524D01*
X99489811Y-36921172D01*
X99489802Y-36921169D01*
X99254616Y-36840429D01*
X99009335Y-36799500D01*
X98760665Y-36799500D01*
X98515383Y-36840429D01*
X98280197Y-36921169D01*
X98280188Y-36921172D01*
X98061493Y-37039524D01*
X97865257Y-37192261D01*
X97706230Y-37365010D01*
X97646342Y-37401001D01*
X97576504Y-37398900D01*
X97523770Y-37365010D01*
X97474408Y-37311389D01*
X97364744Y-37192262D01*
X97168509Y-37039526D01*
X97168507Y-37039525D01*
X97168506Y-37039524D01*
X96949811Y-36921172D01*
X96949802Y-36921169D01*
X96714616Y-36840429D01*
X96469335Y-36799500D01*
X96220665Y-36799500D01*
X95975383Y-36840429D01*
X95740197Y-36921169D01*
X95740188Y-36921172D01*
X95521493Y-37039524D01*
X95325257Y-37192261D01*
X95166230Y-37365010D01*
X95106342Y-37401001D01*
X95036504Y-37398900D01*
X94983770Y-37365010D01*
X94934408Y-37311389D01*
X94824744Y-37192262D01*
X94628509Y-37039526D01*
X94628507Y-37039525D01*
X94628506Y-37039524D01*
X94409811Y-36921172D01*
X94409802Y-36921169D01*
X94174616Y-36840429D01*
X93929335Y-36799500D01*
X93680665Y-36799500D01*
X93435383Y-36840429D01*
X93200197Y-36921169D01*
X93200188Y-36921172D01*
X92981493Y-37039524D01*
X92785257Y-37192261D01*
X92626230Y-37365010D01*
X92566342Y-37401001D01*
X92496504Y-37398900D01*
X92443770Y-37365010D01*
X92394408Y-37311389D01*
X92284744Y-37192262D01*
X92088509Y-37039526D01*
X92088507Y-37039525D01*
X92088506Y-37039524D01*
X91869811Y-36921172D01*
X91869802Y-36921169D01*
X91634616Y-36840429D01*
X91389335Y-36799500D01*
X91140665Y-36799500D01*
X90895383Y-36840429D01*
X90660197Y-36921169D01*
X90660188Y-36921172D01*
X90441493Y-37039524D01*
X90245257Y-37192261D01*
X90086230Y-37365010D01*
X90026342Y-37401001D01*
X89956504Y-37398900D01*
X89903770Y-37365010D01*
X89854408Y-37311389D01*
X89744744Y-37192262D01*
X89548509Y-37039526D01*
X89548507Y-37039525D01*
X89548506Y-37039524D01*
X89329811Y-36921172D01*
X89329802Y-36921169D01*
X89094616Y-36840429D01*
X88849335Y-36799500D01*
X88600665Y-36799500D01*
X88355383Y-36840429D01*
X88120197Y-36921169D01*
X88120188Y-36921172D01*
X87901493Y-37039524D01*
X87705257Y-37192261D01*
X87546230Y-37365010D01*
X87486342Y-37401001D01*
X87416504Y-37398900D01*
X87363770Y-37365010D01*
X87314408Y-37311389D01*
X87204744Y-37192262D01*
X87008509Y-37039526D01*
X87008507Y-37039525D01*
X87008506Y-37039524D01*
X86789811Y-36921172D01*
X86789802Y-36921169D01*
X86554616Y-36840429D01*
X86309335Y-36799500D01*
X86060665Y-36799500D01*
X85815383Y-36840429D01*
X85580197Y-36921169D01*
X85580188Y-36921172D01*
X85361493Y-37039524D01*
X85165257Y-37192261D01*
X85006230Y-37365010D01*
X84946342Y-37401001D01*
X84876504Y-37398900D01*
X84823770Y-37365010D01*
X84774408Y-37311389D01*
X84664744Y-37192262D01*
X84468509Y-37039526D01*
X84468507Y-37039525D01*
X84468506Y-37039524D01*
X84249811Y-36921172D01*
X84249802Y-36921169D01*
X84014616Y-36840429D01*
X83769335Y-36799500D01*
X83520665Y-36799500D01*
X83275383Y-36840429D01*
X83040197Y-36921169D01*
X83040188Y-36921172D01*
X82821493Y-37039524D01*
X82625257Y-37192261D01*
X82466230Y-37365010D01*
X82406342Y-37401001D01*
X82336504Y-37398900D01*
X82283770Y-37365010D01*
X82234408Y-37311389D01*
X82124744Y-37192262D01*
X81928509Y-37039526D01*
X81928507Y-37039525D01*
X81928506Y-37039524D01*
X81709811Y-36921172D01*
X81709802Y-36921169D01*
X81474616Y-36840429D01*
X81229335Y-36799500D01*
X80980665Y-36799500D01*
X80735383Y-36840429D01*
X80500197Y-36921169D01*
X80500188Y-36921172D01*
X80281493Y-37039524D01*
X80085257Y-37192261D01*
X79926230Y-37365010D01*
X79866342Y-37401001D01*
X79796504Y-37398900D01*
X79743770Y-37365010D01*
X79694408Y-37311389D01*
X79584744Y-37192262D01*
X79388509Y-37039526D01*
X79388507Y-37039525D01*
X79388506Y-37039524D01*
X79169811Y-36921172D01*
X79169802Y-36921169D01*
X78934616Y-36840429D01*
X78689335Y-36799500D01*
X78440665Y-36799500D01*
X78195383Y-36840429D01*
X77960197Y-36921169D01*
X77960188Y-36921172D01*
X77741493Y-37039524D01*
X77545257Y-37192261D01*
X77376837Y-37375213D01*
X77376829Y-37375224D01*
X77376455Y-37375797D01*
X77376242Y-37375978D01*
X77373690Y-37379258D01*
X77373014Y-37378732D01*
X77323304Y-37421147D01*
X77259865Y-37431302D01*
X77248434Y-37430116D01*
X76516127Y-38162423D01*
X76500245Y-38103147D01*
X76433102Y-37986853D01*
X76338147Y-37891898D01*
X76221853Y-37824755D01*
X76162575Y-37808872D01*
X76895057Y-37076390D01*
X76895056Y-37076389D01*
X76848229Y-37039943D01*
X76629614Y-36921635D01*
X76629603Y-36921630D01*
X76394493Y-36840916D01*
X76149293Y-36800000D01*
X75900707Y-36800000D01*
X75655506Y-36840916D01*
X75420396Y-36921630D01*
X75420390Y-36921632D01*
X75201761Y-37039949D01*
X75154942Y-37076388D01*
X75154942Y-37076390D01*
X75887424Y-37808871D01*
X75828147Y-37824755D01*
X75711853Y-37891898D01*
X75616898Y-37986853D01*
X75549755Y-38103147D01*
X75533872Y-38162424D01*
X74801564Y-37430116D01*
X74790135Y-37431302D01*
X74721423Y-37418637D01*
X74676910Y-37378802D01*
X74676317Y-37379265D01*
X74673768Y-37375991D01*
X74673535Y-37375782D01*
X74673166Y-37375218D01*
X74673165Y-37375217D01*
X74673164Y-37375215D01*
X74504744Y-37192262D01*
X74308509Y-37039526D01*
X74308507Y-37039525D01*
X74308506Y-37039524D01*
X74089811Y-36921172D01*
X74089802Y-36921169D01*
X73854616Y-36840429D01*
X73609335Y-36799500D01*
X73360665Y-36799500D01*
X73115383Y-36840429D01*
X72880197Y-36921169D01*
X72880188Y-36921172D01*
X72661493Y-37039524D01*
X72465257Y-37192261D01*
X72296833Y-37375217D01*
X72160826Y-37583393D01*
X72060936Y-37811118D01*
X71999892Y-38052175D01*
X71999890Y-38052187D01*
X71979357Y-38299994D01*
X67211313Y-38299994D01*
X67186158Y-38206113D01*
X67098344Y-37994112D01*
X66983611Y-37795388D01*
X66983608Y-37795385D01*
X66983607Y-37795382D01*
X66843918Y-37613338D01*
X66843911Y-37613330D01*
X66681670Y-37451089D01*
X66681661Y-37451081D01*
X66499617Y-37311392D01*
X66300890Y-37196657D01*
X66300876Y-37196650D01*
X66088887Y-37108842D01*
X65867238Y-37049452D01*
X65829215Y-37044446D01*
X65639741Y-37019500D01*
X65639734Y-37019500D01*
X65410266Y-37019500D01*
X65410258Y-37019500D01*
X65193715Y-37048009D01*
X65182762Y-37049452D01*
X65089076Y-37074554D01*
X64961112Y-37108842D01*
X64749123Y-37196650D01*
X64749109Y-37196657D01*
X64550382Y-37311392D01*
X64368338Y-37451081D01*
X64206081Y-37613338D01*
X64066392Y-37795382D01*
X63951657Y-37994109D01*
X63951650Y-37994123D01*
X63863842Y-38206112D01*
X63804453Y-38427759D01*
X63804451Y-38427770D01*
X63774500Y-38655258D01*
X63500500Y-38655258D01*
X63500500Y-36124500D01*
X63520185Y-36057461D01*
X63572989Y-36011706D01*
X63624500Y-36000500D01*
X159375500Y-36000500D01*
X159442539Y-36020185D01*
G37*
%TD.AperFunction*%
%TD*%
M02*
