%TF.GenerationSoftware,KiCad,Pcbnew,8.0.4*%
%TF.CreationDate,2025-01-30T16:24:52-05:00*%
%TF.ProjectId,plusle,706c7573-6c65-42e6-9b69-6361645f7063,rev?*%
%TF.SameCoordinates,Original*%
%TF.FileFunction,Legend,Top*%
%TF.FilePolarity,Positive*%
%FSLAX46Y46*%
G04 Gerber Fmt 4.6, Leading zero omitted, Abs format (unit mm)*
G04 Created by KiCad (PCBNEW 8.0.4) date 2025-01-30 16:24:52*
%MOMM*%
%LPD*%
G01*
G04 APERTURE LIST*
%ADD10C,0.100000*%
%ADD11C,0.200000*%
%ADD12C,0.150000*%
%ADD13C,0.127000*%
%ADD14C,0.120000*%
G04 APERTURE END LIST*
D10*
X125675908Y-44290752D02*
X125914003Y-44290752D01*
X125610431Y-44433609D02*
X125839598Y-43933609D01*
X125839598Y-43933609D02*
X125943765Y-44433609D01*
X126181860Y-44433609D02*
X126137217Y-44409800D01*
X126137217Y-44409800D02*
X126119360Y-44362180D01*
X126119360Y-44362180D02*
X126172931Y-43933609D01*
X126565788Y-44409800D02*
X126515193Y-44433609D01*
X126515193Y-44433609D02*
X126419955Y-44433609D01*
X126419955Y-44433609D02*
X126375312Y-44409800D01*
X126375312Y-44409800D02*
X126357455Y-44362180D01*
X126357455Y-44362180D02*
X126381265Y-44171704D01*
X126381265Y-44171704D02*
X126411026Y-44124085D01*
X126411026Y-44124085D02*
X126461622Y-44100276D01*
X126461622Y-44100276D02*
X126556860Y-44100276D01*
X126556860Y-44100276D02*
X126601503Y-44124085D01*
X126601503Y-44124085D02*
X126619360Y-44171704D01*
X126619360Y-44171704D02*
X126613407Y-44219323D01*
X126613407Y-44219323D02*
X126369360Y-44266942D01*
X126753288Y-44433609D02*
X127056859Y-44100276D01*
X126794955Y-44100276D02*
X127015193Y-44433609D01*
X127586621Y-44433609D02*
X127649121Y-43933609D01*
X127649121Y-43933609D02*
X127839597Y-43933609D01*
X127839597Y-43933609D02*
X127884240Y-43957419D01*
X127884240Y-43957419D02*
X127905073Y-43981228D01*
X127905073Y-43981228D02*
X127922930Y-44028847D01*
X127922930Y-44028847D02*
X127914002Y-44100276D01*
X127914002Y-44100276D02*
X127884240Y-44147895D01*
X127884240Y-44147895D02*
X127857454Y-44171704D01*
X127857454Y-44171704D02*
X127806859Y-44195514D01*
X127806859Y-44195514D02*
X127616383Y-44195514D01*
X128280073Y-44409800D02*
X128229478Y-44433609D01*
X128229478Y-44433609D02*
X128134240Y-44433609D01*
X128134240Y-44433609D02*
X128089597Y-44409800D01*
X128089597Y-44409800D02*
X128071740Y-44362180D01*
X128071740Y-44362180D02*
X128095550Y-44171704D01*
X128095550Y-44171704D02*
X128125311Y-44124085D01*
X128125311Y-44124085D02*
X128175907Y-44100276D01*
X128175907Y-44100276D02*
X128271145Y-44100276D01*
X128271145Y-44100276D02*
X128315788Y-44124085D01*
X128315788Y-44124085D02*
X128333645Y-44171704D01*
X128333645Y-44171704D02*
X128327692Y-44219323D01*
X128327692Y-44219323D02*
X128083645Y-44266942D01*
X128556859Y-44100276D02*
X128515192Y-44433609D01*
X128550906Y-44147895D02*
X128577692Y-44124085D01*
X128577692Y-44124085D02*
X128628287Y-44100276D01*
X128628287Y-44100276D02*
X128699716Y-44100276D01*
X128699716Y-44100276D02*
X128744359Y-44124085D01*
X128744359Y-44124085D02*
X128762216Y-44171704D01*
X128762216Y-44171704D02*
X128729478Y-44433609D01*
X129223525Y-44100276D02*
X129172930Y-44505038D01*
X129172930Y-44505038D02*
X129143168Y-44552657D01*
X129143168Y-44552657D02*
X129116382Y-44576466D01*
X129116382Y-44576466D02*
X129065787Y-44600276D01*
X129065787Y-44600276D02*
X128994359Y-44600276D01*
X128994359Y-44600276D02*
X128949716Y-44576466D01*
X129184835Y-44409800D02*
X129134240Y-44433609D01*
X129134240Y-44433609D02*
X129039002Y-44433609D01*
X129039002Y-44433609D02*
X128994359Y-44409800D01*
X128994359Y-44409800D02*
X128973525Y-44385990D01*
X128973525Y-44385990D02*
X128955668Y-44338371D01*
X128955668Y-44338371D02*
X128973525Y-44195514D01*
X128973525Y-44195514D02*
X129003287Y-44147895D01*
X129003287Y-44147895D02*
X129030073Y-44124085D01*
X129030073Y-44124085D02*
X129080668Y-44100276D01*
X129080668Y-44100276D02*
X129175906Y-44100276D01*
X129175906Y-44100276D02*
X129220549Y-44124085D01*
X129899120Y-44600276D02*
X129988406Y-43885990D01*
X130637215Y-44409800D02*
X130705667Y-44433609D01*
X130705667Y-44433609D02*
X130824715Y-44433609D01*
X130824715Y-44433609D02*
X130875310Y-44409800D01*
X130875310Y-44409800D02*
X130902096Y-44385990D01*
X130902096Y-44385990D02*
X130931857Y-44338371D01*
X130931857Y-44338371D02*
X130937810Y-44290752D01*
X130937810Y-44290752D02*
X130919953Y-44243133D01*
X130919953Y-44243133D02*
X130899119Y-44219323D01*
X130899119Y-44219323D02*
X130854477Y-44195514D01*
X130854477Y-44195514D02*
X130762215Y-44171704D01*
X130762215Y-44171704D02*
X130717572Y-44147895D01*
X130717572Y-44147895D02*
X130696738Y-44124085D01*
X130696738Y-44124085D02*
X130678881Y-44076466D01*
X130678881Y-44076466D02*
X130684834Y-44028847D01*
X130684834Y-44028847D02*
X130714596Y-43981228D01*
X130714596Y-43981228D02*
X130741381Y-43957419D01*
X130741381Y-43957419D02*
X130791977Y-43933609D01*
X130791977Y-43933609D02*
X130911024Y-43933609D01*
X130911024Y-43933609D02*
X130979477Y-43957419D01*
X131175905Y-44100276D02*
X131113405Y-44600276D01*
X131172928Y-44124085D02*
X131223524Y-44100276D01*
X131223524Y-44100276D02*
X131318762Y-44100276D01*
X131318762Y-44100276D02*
X131363405Y-44124085D01*
X131363405Y-44124085D02*
X131384238Y-44147895D01*
X131384238Y-44147895D02*
X131402095Y-44195514D01*
X131402095Y-44195514D02*
X131384238Y-44338371D01*
X131384238Y-44338371D02*
X131354476Y-44385990D01*
X131354476Y-44385990D02*
X131327690Y-44409800D01*
X131327690Y-44409800D02*
X131277095Y-44433609D01*
X131277095Y-44433609D02*
X131181857Y-44433609D01*
X131181857Y-44433609D02*
X131137214Y-44409800D01*
X131586619Y-44433609D02*
X131628286Y-44100276D01*
X131616381Y-44195514D02*
X131646143Y-44147895D01*
X131646143Y-44147895D02*
X131672928Y-44124085D01*
X131672928Y-44124085D02*
X131723524Y-44100276D01*
X131723524Y-44100276D02*
X131771143Y-44100276D01*
X131896143Y-44433609D02*
X131937810Y-44100276D01*
X131958643Y-43933609D02*
X131931857Y-43957419D01*
X131931857Y-43957419D02*
X131952691Y-43981228D01*
X131952691Y-43981228D02*
X131979476Y-43957419D01*
X131979476Y-43957419D02*
X131958643Y-43933609D01*
X131958643Y-43933609D02*
X131952691Y-43981228D01*
X132175905Y-44100276D02*
X132134238Y-44433609D01*
X132169952Y-44147895D02*
X132196738Y-44124085D01*
X132196738Y-44124085D02*
X132247333Y-44100276D01*
X132247333Y-44100276D02*
X132318762Y-44100276D01*
X132318762Y-44100276D02*
X132363405Y-44124085D01*
X132363405Y-44124085D02*
X132381262Y-44171704D01*
X132381262Y-44171704D02*
X132348524Y-44433609D01*
X132842571Y-44100276D02*
X132791976Y-44505038D01*
X132791976Y-44505038D02*
X132762214Y-44552657D01*
X132762214Y-44552657D02*
X132735428Y-44576466D01*
X132735428Y-44576466D02*
X132684833Y-44600276D01*
X132684833Y-44600276D02*
X132613405Y-44600276D01*
X132613405Y-44600276D02*
X132568762Y-44576466D01*
X132803881Y-44409800D02*
X132753286Y-44433609D01*
X132753286Y-44433609D02*
X132658048Y-44433609D01*
X132658048Y-44433609D02*
X132613405Y-44409800D01*
X132613405Y-44409800D02*
X132592571Y-44385990D01*
X132592571Y-44385990D02*
X132574714Y-44338371D01*
X132574714Y-44338371D02*
X132592571Y-44195514D01*
X132592571Y-44195514D02*
X132622333Y-44147895D01*
X132622333Y-44147895D02*
X132649119Y-44124085D01*
X132649119Y-44124085D02*
X132699714Y-44100276D01*
X132699714Y-44100276D02*
X132794952Y-44100276D01*
X132794952Y-44100276D02*
X132839595Y-44124085D01*
X133452690Y-43981228D02*
X133479476Y-43957419D01*
X133479476Y-43957419D02*
X133530071Y-43933609D01*
X133530071Y-43933609D02*
X133649119Y-43933609D01*
X133649119Y-43933609D02*
X133693761Y-43957419D01*
X133693761Y-43957419D02*
X133714595Y-43981228D01*
X133714595Y-43981228D02*
X133732452Y-44028847D01*
X133732452Y-44028847D02*
X133726500Y-44076466D01*
X133726500Y-44076466D02*
X133693761Y-44147895D01*
X133693761Y-44147895D02*
X133372333Y-44433609D01*
X133372333Y-44433609D02*
X133681857Y-44433609D01*
X134053880Y-43933609D02*
X134101499Y-43933609D01*
X134101499Y-43933609D02*
X134146142Y-43957419D01*
X134146142Y-43957419D02*
X134166975Y-43981228D01*
X134166975Y-43981228D02*
X134184832Y-44028847D01*
X134184832Y-44028847D02*
X134196737Y-44124085D01*
X134196737Y-44124085D02*
X134181856Y-44243133D01*
X134181856Y-44243133D02*
X134146142Y-44338371D01*
X134146142Y-44338371D02*
X134116380Y-44385990D01*
X134116380Y-44385990D02*
X134089594Y-44409800D01*
X134089594Y-44409800D02*
X134038999Y-44433609D01*
X134038999Y-44433609D02*
X133991380Y-44433609D01*
X133991380Y-44433609D02*
X133946737Y-44409800D01*
X133946737Y-44409800D02*
X133925904Y-44385990D01*
X133925904Y-44385990D02*
X133908047Y-44338371D01*
X133908047Y-44338371D02*
X133896142Y-44243133D01*
X133896142Y-44243133D02*
X133911023Y-44124085D01*
X133911023Y-44124085D02*
X133946737Y-44028847D01*
X133946737Y-44028847D02*
X133976499Y-43981228D01*
X133976499Y-43981228D02*
X134003285Y-43957419D01*
X134003285Y-43957419D02*
X134053880Y-43933609D01*
X134405070Y-43981228D02*
X134431856Y-43957419D01*
X134431856Y-43957419D02*
X134482451Y-43933609D01*
X134482451Y-43933609D02*
X134601499Y-43933609D01*
X134601499Y-43933609D02*
X134646141Y-43957419D01*
X134646141Y-43957419D02*
X134666975Y-43981228D01*
X134666975Y-43981228D02*
X134684832Y-44028847D01*
X134684832Y-44028847D02*
X134678880Y-44076466D01*
X134678880Y-44076466D02*
X134646141Y-44147895D01*
X134646141Y-44147895D02*
X134324713Y-44433609D01*
X134324713Y-44433609D02*
X134634237Y-44433609D01*
X135149117Y-43933609D02*
X134911022Y-43933609D01*
X134911022Y-43933609D02*
X134857451Y-44171704D01*
X134857451Y-44171704D02*
X134884236Y-44147895D01*
X134884236Y-44147895D02*
X134934831Y-44124085D01*
X134934831Y-44124085D02*
X135053879Y-44124085D01*
X135053879Y-44124085D02*
X135098522Y-44147895D01*
X135098522Y-44147895D02*
X135119355Y-44171704D01*
X135119355Y-44171704D02*
X135137212Y-44219323D01*
X135137212Y-44219323D02*
X135122331Y-44338371D01*
X135122331Y-44338371D02*
X135092570Y-44385990D01*
X135092570Y-44385990D02*
X135065784Y-44409800D01*
X135065784Y-44409800D02*
X135015189Y-44433609D01*
X135015189Y-44433609D02*
X134896141Y-44433609D01*
X134896141Y-44433609D02*
X134851498Y-44409800D01*
X134851498Y-44409800D02*
X134830665Y-44385990D01*
D11*
X120869673Y-43367219D02*
X120869673Y-42367219D01*
X120869673Y-42843409D02*
X121441101Y-42843409D01*
X121441101Y-43367219D02*
X121441101Y-42367219D01*
X121917292Y-43367219D02*
X121917292Y-42367219D01*
X122250625Y-42367219D02*
X122583958Y-43367219D01*
X122583958Y-43367219D02*
X122917291Y-42367219D01*
X123250625Y-42843409D02*
X123583958Y-42843409D01*
X123726815Y-43367219D02*
X123250625Y-43367219D01*
X123250625Y-43367219D02*
X123250625Y-42367219D01*
X123250625Y-42367219D02*
X123726815Y-42367219D01*
X125488720Y-43367219D02*
X125155387Y-42891028D01*
X124917292Y-43367219D02*
X124917292Y-42367219D01*
X124917292Y-42367219D02*
X125298244Y-42367219D01*
X125298244Y-42367219D02*
X125393482Y-42414838D01*
X125393482Y-42414838D02*
X125441101Y-42462457D01*
X125441101Y-42462457D02*
X125488720Y-42557695D01*
X125488720Y-42557695D02*
X125488720Y-42700552D01*
X125488720Y-42700552D02*
X125441101Y-42795790D01*
X125441101Y-42795790D02*
X125393482Y-42843409D01*
X125393482Y-42843409D02*
X125298244Y-42891028D01*
X125298244Y-42891028D02*
X124917292Y-42891028D01*
X126488720Y-43271980D02*
X126441101Y-43319600D01*
X126441101Y-43319600D02*
X126298244Y-43367219D01*
X126298244Y-43367219D02*
X126203006Y-43367219D01*
X126203006Y-43367219D02*
X126060149Y-43319600D01*
X126060149Y-43319600D02*
X125964911Y-43224361D01*
X125964911Y-43224361D02*
X125917292Y-43129123D01*
X125917292Y-43129123D02*
X125869673Y-42938647D01*
X125869673Y-42938647D02*
X125869673Y-42795790D01*
X125869673Y-42795790D02*
X125917292Y-42605314D01*
X125917292Y-42605314D02*
X125964911Y-42510076D01*
X125964911Y-42510076D02*
X126060149Y-42414838D01*
X126060149Y-42414838D02*
X126203006Y-42367219D01*
X126203006Y-42367219D02*
X126298244Y-42367219D01*
X126298244Y-42367219D02*
X126441101Y-42414838D01*
X126441101Y-42414838D02*
X126488720Y-42462457D01*
X127679197Y-43367219D02*
X127679197Y-42367219D01*
X127679197Y-42367219D02*
X128012530Y-43081504D01*
X128012530Y-43081504D02*
X128345863Y-42367219D01*
X128345863Y-42367219D02*
X128345863Y-43367219D01*
X128822054Y-43367219D02*
X128822054Y-42700552D01*
X128822054Y-42367219D02*
X128774435Y-42414838D01*
X128774435Y-42414838D02*
X128822054Y-42462457D01*
X128822054Y-42462457D02*
X128869673Y-42414838D01*
X128869673Y-42414838D02*
X128822054Y-42367219D01*
X128822054Y-42367219D02*
X128822054Y-42462457D01*
X129298244Y-42700552D02*
X129298244Y-43367219D01*
X129298244Y-42795790D02*
X129345863Y-42748171D01*
X129345863Y-42748171D02*
X129441101Y-42700552D01*
X129441101Y-42700552D02*
X129583958Y-42700552D01*
X129583958Y-42700552D02*
X129679196Y-42748171D01*
X129679196Y-42748171D02*
X129726815Y-42843409D01*
X129726815Y-42843409D02*
X129726815Y-43367219D01*
X130203006Y-43367219D02*
X130203006Y-42700552D01*
X130203006Y-42367219D02*
X130155387Y-42414838D01*
X130155387Y-42414838D02*
X130203006Y-42462457D01*
X130203006Y-42462457D02*
X130250625Y-42414838D01*
X130250625Y-42414838D02*
X130203006Y-42367219D01*
X130203006Y-42367219D02*
X130203006Y-42462457D01*
X131393482Y-43319600D02*
X131536339Y-43367219D01*
X131536339Y-43367219D02*
X131774434Y-43367219D01*
X131774434Y-43367219D02*
X131869672Y-43319600D01*
X131869672Y-43319600D02*
X131917291Y-43271980D01*
X131917291Y-43271980D02*
X131964910Y-43176742D01*
X131964910Y-43176742D02*
X131964910Y-43081504D01*
X131964910Y-43081504D02*
X131917291Y-42986266D01*
X131917291Y-42986266D02*
X131869672Y-42938647D01*
X131869672Y-42938647D02*
X131774434Y-42891028D01*
X131774434Y-42891028D02*
X131583958Y-42843409D01*
X131583958Y-42843409D02*
X131488720Y-42795790D01*
X131488720Y-42795790D02*
X131441101Y-42748171D01*
X131441101Y-42748171D02*
X131393482Y-42652933D01*
X131393482Y-42652933D02*
X131393482Y-42557695D01*
X131393482Y-42557695D02*
X131441101Y-42462457D01*
X131441101Y-42462457D02*
X131488720Y-42414838D01*
X131488720Y-42414838D02*
X131583958Y-42367219D01*
X131583958Y-42367219D02*
X131822053Y-42367219D01*
X131822053Y-42367219D02*
X131964910Y-42414838D01*
X132822053Y-42700552D02*
X132822053Y-43367219D01*
X132393482Y-42700552D02*
X132393482Y-43224361D01*
X132393482Y-43224361D02*
X132441101Y-43319600D01*
X132441101Y-43319600D02*
X132536339Y-43367219D01*
X132536339Y-43367219D02*
X132679196Y-43367219D01*
X132679196Y-43367219D02*
X132774434Y-43319600D01*
X132774434Y-43319600D02*
X132822053Y-43271980D01*
X133298244Y-43367219D02*
X133298244Y-42700552D01*
X133298244Y-42795790D02*
X133345863Y-42748171D01*
X133345863Y-42748171D02*
X133441101Y-42700552D01*
X133441101Y-42700552D02*
X133583958Y-42700552D01*
X133583958Y-42700552D02*
X133679196Y-42748171D01*
X133679196Y-42748171D02*
X133726815Y-42843409D01*
X133726815Y-42843409D02*
X133726815Y-43367219D01*
X133726815Y-42843409D02*
X133774434Y-42748171D01*
X133774434Y-42748171D02*
X133869672Y-42700552D01*
X133869672Y-42700552D02*
X134012529Y-42700552D01*
X134012529Y-42700552D02*
X134107768Y-42748171D01*
X134107768Y-42748171D02*
X134155387Y-42843409D01*
X134155387Y-42843409D02*
X134155387Y-43367219D01*
X134774434Y-43367219D02*
X134679196Y-43319600D01*
X134679196Y-43319600D02*
X134631577Y-43271980D01*
X134631577Y-43271980D02*
X134583958Y-43176742D01*
X134583958Y-43176742D02*
X134583958Y-42891028D01*
X134583958Y-42891028D02*
X134631577Y-42795790D01*
X134631577Y-42795790D02*
X134679196Y-42748171D01*
X134679196Y-42748171D02*
X134774434Y-42700552D01*
X134774434Y-42700552D02*
X134917291Y-42700552D01*
X134917291Y-42700552D02*
X135012529Y-42748171D01*
X135012529Y-42748171D02*
X135060148Y-42795790D01*
X135060148Y-42795790D02*
X135107767Y-42891028D01*
X135107767Y-42891028D02*
X135107767Y-43176742D01*
X135107767Y-43176742D02*
X135060148Y-43271980D01*
X135060148Y-43271980D02*
X135012529Y-43319600D01*
X135012529Y-43319600D02*
X134917291Y-43367219D01*
X134917291Y-43367219D02*
X134774434Y-43367219D01*
D12*
X64454819Y-60761904D02*
X65264342Y-60761904D01*
X65264342Y-60761904D02*
X65359580Y-60714285D01*
X65359580Y-60714285D02*
X65407200Y-60666666D01*
X65407200Y-60666666D02*
X65454819Y-60571428D01*
X65454819Y-60571428D02*
X65454819Y-60380952D01*
X65454819Y-60380952D02*
X65407200Y-60285714D01*
X65407200Y-60285714D02*
X65359580Y-60238095D01*
X65359580Y-60238095D02*
X65264342Y-60190476D01*
X65264342Y-60190476D02*
X64454819Y-60190476D01*
X65454819Y-59190476D02*
X65454819Y-59761904D01*
X65454819Y-59476190D02*
X64454819Y-59476190D01*
X64454819Y-59476190D02*
X64597676Y-59571428D01*
X64597676Y-59571428D02*
X64692914Y-59666666D01*
X64692914Y-59666666D02*
X64740533Y-59761904D01*
X113841619Y-61295104D02*
X114651142Y-61295104D01*
X114651142Y-61295104D02*
X114746380Y-61247485D01*
X114746380Y-61247485D02*
X114794000Y-61199866D01*
X114794000Y-61199866D02*
X114841619Y-61104628D01*
X114841619Y-61104628D02*
X114841619Y-60914152D01*
X114841619Y-60914152D02*
X114794000Y-60818914D01*
X114794000Y-60818914D02*
X114746380Y-60771295D01*
X114746380Y-60771295D02*
X114651142Y-60723676D01*
X114651142Y-60723676D02*
X113841619Y-60723676D01*
X113936857Y-60295104D02*
X113889238Y-60247485D01*
X113889238Y-60247485D02*
X113841619Y-60152247D01*
X113841619Y-60152247D02*
X113841619Y-59914152D01*
X113841619Y-59914152D02*
X113889238Y-59818914D01*
X113889238Y-59818914D02*
X113936857Y-59771295D01*
X113936857Y-59771295D02*
X114032095Y-59723676D01*
X114032095Y-59723676D02*
X114127333Y-59723676D01*
X114127333Y-59723676D02*
X114270190Y-59771295D01*
X114270190Y-59771295D02*
X114841619Y-60342723D01*
X114841619Y-60342723D02*
X114841619Y-59723676D01*
X145454819Y-39714285D02*
X144454819Y-39714285D01*
X144454819Y-39714285D02*
X144454819Y-39333333D01*
X144454819Y-39333333D02*
X144502438Y-39238095D01*
X144502438Y-39238095D02*
X144550057Y-39190476D01*
X144550057Y-39190476D02*
X144645295Y-39142857D01*
X144645295Y-39142857D02*
X144788152Y-39142857D01*
X144788152Y-39142857D02*
X144883390Y-39190476D01*
X144883390Y-39190476D02*
X144931009Y-39238095D01*
X144931009Y-39238095D02*
X144978628Y-39333333D01*
X144978628Y-39333333D02*
X144978628Y-39714285D01*
X145407200Y-38761904D02*
X145454819Y-38619047D01*
X145454819Y-38619047D02*
X145454819Y-38380952D01*
X145454819Y-38380952D02*
X145407200Y-38285714D01*
X145407200Y-38285714D02*
X145359580Y-38238095D01*
X145359580Y-38238095D02*
X145264342Y-38190476D01*
X145264342Y-38190476D02*
X145169104Y-38190476D01*
X145169104Y-38190476D02*
X145073866Y-38238095D01*
X145073866Y-38238095D02*
X145026247Y-38285714D01*
X145026247Y-38285714D02*
X144978628Y-38380952D01*
X144978628Y-38380952D02*
X144931009Y-38571428D01*
X144931009Y-38571428D02*
X144883390Y-38666666D01*
X144883390Y-38666666D02*
X144835771Y-38714285D01*
X144835771Y-38714285D02*
X144740533Y-38761904D01*
X144740533Y-38761904D02*
X144645295Y-38761904D01*
X144645295Y-38761904D02*
X144550057Y-38714285D01*
X144550057Y-38714285D02*
X144502438Y-38666666D01*
X144502438Y-38666666D02*
X144454819Y-38571428D01*
X144454819Y-38571428D02*
X144454819Y-38333333D01*
X144454819Y-38333333D02*
X144502438Y-38190476D01*
X145454819Y-37238095D02*
X145454819Y-37809523D01*
X145454819Y-37523809D02*
X144454819Y-37523809D01*
X144454819Y-37523809D02*
X144597676Y-37619047D01*
X144597676Y-37619047D02*
X144692914Y-37714285D01*
X144692914Y-37714285D02*
X144740533Y-37809523D01*
X121367200Y-41333332D02*
X121414819Y-41190475D01*
X121414819Y-41190475D02*
X121414819Y-40952380D01*
X121414819Y-40952380D02*
X121367200Y-40857142D01*
X121367200Y-40857142D02*
X121319580Y-40809523D01*
X121319580Y-40809523D02*
X121224342Y-40761904D01*
X121224342Y-40761904D02*
X121129104Y-40761904D01*
X121129104Y-40761904D02*
X121033866Y-40809523D01*
X121033866Y-40809523D02*
X120986247Y-40857142D01*
X120986247Y-40857142D02*
X120938628Y-40952380D01*
X120938628Y-40952380D02*
X120891009Y-41142856D01*
X120891009Y-41142856D02*
X120843390Y-41238094D01*
X120843390Y-41238094D02*
X120795771Y-41285713D01*
X120795771Y-41285713D02*
X120700533Y-41333332D01*
X120700533Y-41333332D02*
X120605295Y-41333332D01*
X120605295Y-41333332D02*
X120510057Y-41285713D01*
X120510057Y-41285713D02*
X120462438Y-41238094D01*
X120462438Y-41238094D02*
X120414819Y-41142856D01*
X120414819Y-41142856D02*
X120414819Y-40904761D01*
X120414819Y-40904761D02*
X120462438Y-40761904D01*
X120414819Y-40428570D02*
X121414819Y-40190475D01*
X121414819Y-40190475D02*
X120700533Y-39999999D01*
X120700533Y-39999999D02*
X121414819Y-39809523D01*
X121414819Y-39809523D02*
X120414819Y-39571428D01*
X121414819Y-38666666D02*
X121414819Y-39238094D01*
X121414819Y-38952380D02*
X120414819Y-38952380D01*
X120414819Y-38952380D02*
X120557676Y-39047618D01*
X120557676Y-39047618D02*
X120652914Y-39142856D01*
X120652914Y-39142856D02*
X120700533Y-39238094D01*
X158166666Y-51454819D02*
X158166666Y-52169104D01*
X158166666Y-52169104D02*
X158119047Y-52311961D01*
X158119047Y-52311961D02*
X158023809Y-52407200D01*
X158023809Y-52407200D02*
X157880952Y-52454819D01*
X157880952Y-52454819D02*
X157785714Y-52454819D01*
X158547619Y-51454819D02*
X159166666Y-51454819D01*
X159166666Y-51454819D02*
X158833333Y-51835771D01*
X158833333Y-51835771D02*
X158976190Y-51835771D01*
X158976190Y-51835771D02*
X159071428Y-51883390D01*
X159071428Y-51883390D02*
X159119047Y-51931009D01*
X159119047Y-51931009D02*
X159166666Y-52026247D01*
X159166666Y-52026247D02*
X159166666Y-52264342D01*
X159166666Y-52264342D02*
X159119047Y-52359580D01*
X159119047Y-52359580D02*
X159071428Y-52407200D01*
X159071428Y-52407200D02*
X158976190Y-52454819D01*
X158976190Y-52454819D02*
X158690476Y-52454819D01*
X158690476Y-52454819D02*
X158595238Y-52407200D01*
X158595238Y-52407200D02*
X158547619Y-52359580D01*
X146666666Y-51454819D02*
X146666666Y-52169104D01*
X146666666Y-52169104D02*
X146619047Y-52311961D01*
X146619047Y-52311961D02*
X146523809Y-52407200D01*
X146523809Y-52407200D02*
X146380952Y-52454819D01*
X146380952Y-52454819D02*
X146285714Y-52454819D01*
X147095238Y-51550057D02*
X147142857Y-51502438D01*
X147142857Y-51502438D02*
X147238095Y-51454819D01*
X147238095Y-51454819D02*
X147476190Y-51454819D01*
X147476190Y-51454819D02*
X147571428Y-51502438D01*
X147571428Y-51502438D02*
X147619047Y-51550057D01*
X147619047Y-51550057D02*
X147666666Y-51645295D01*
X147666666Y-51645295D02*
X147666666Y-51740533D01*
X147666666Y-51740533D02*
X147619047Y-51883390D01*
X147619047Y-51883390D02*
X147047619Y-52454819D01*
X147047619Y-52454819D02*
X147666666Y-52454819D01*
X158351666Y-49444819D02*
X158351666Y-50159104D01*
X158351666Y-50159104D02*
X158304047Y-50301961D01*
X158304047Y-50301961D02*
X158208809Y-50397200D01*
X158208809Y-50397200D02*
X158065952Y-50444819D01*
X158065952Y-50444819D02*
X157970714Y-50444819D01*
X159351666Y-50444819D02*
X158780238Y-50444819D01*
X159065952Y-50444819D02*
X159065952Y-49444819D01*
X159065952Y-49444819D02*
X158970714Y-49587676D01*
X158970714Y-49587676D02*
X158875476Y-49682914D01*
X158875476Y-49682914D02*
X158780238Y-49730533D01*
D11*
%TO.C,U1*%
X73585000Y-65850000D02*
G75*
G02*
X73385000Y-65850000I-100000J0D01*
G01*
X73385000Y-65850000D02*
G75*
G02*
X73585000Y-65850000I100000J0D01*
G01*
D13*
X114475000Y-36770000D02*
X114475000Y-65280000D01*
X63525000Y-36770000D02*
X114475000Y-36770000D01*
X63525000Y-36770000D02*
X114475000Y-36770000D01*
X114475000Y-42220000D02*
X114475000Y-36770000D01*
X63525000Y-47500000D02*
X63525000Y-36770000D01*
X63525000Y-54211000D02*
X63525000Y-47500000D01*
X114475000Y-59910000D02*
X114475000Y-42220000D01*
X114475000Y-65280000D02*
X114475000Y-59910000D01*
X114475000Y-65280000D02*
X63525000Y-65280000D01*
X114475000Y-65280000D02*
X63525000Y-65280000D01*
X63525000Y-65280000D02*
X63525000Y-36770000D01*
X63525000Y-65280000D02*
X63525000Y-54211000D01*
D11*
%TO.C,U2*%
X115371800Y-62620000D02*
G75*
G02*
X115171800Y-62620000I-100000J0D01*
G01*
X115171800Y-62620000D02*
G75*
G02*
X115371800Y-62620000I100000J0D01*
G01*
D13*
X136160000Y-44840000D02*
X115840000Y-44840000D01*
X136160000Y-46110000D02*
X136160000Y-44840000D01*
X115840000Y-46110000D02*
X115840000Y-44840000D01*
X136160000Y-61500000D02*
X136160000Y-48500000D01*
X115840000Y-61500000D02*
X115840000Y-48500000D01*
X136160000Y-63890000D02*
X136160000Y-65160000D01*
X115840000Y-63890000D02*
X115840000Y-65160000D01*
X115840000Y-65160000D02*
X136160000Y-65160000D01*
D11*
%TO.C,PS1*%
X140350000Y-36450000D02*
G75*
G02*
X140150000Y-36450000I-100000J0D01*
G01*
X140150000Y-36450000D02*
G75*
G02*
X140350000Y-36450000I100000J0D01*
G01*
D13*
X145750000Y-48850000D02*
X138250000Y-48850000D01*
X138250000Y-37150000D02*
X138250000Y-48850000D01*
X138250000Y-37150000D02*
X145750000Y-37150000D01*
X145750000Y-37150000D02*
X145750000Y-48850000D01*
%TO.C,SW1*%
X116060000Y-41540000D02*
X116060000Y-36460000D01*
X125860000Y-41540000D02*
X116060000Y-41540000D01*
X116060000Y-36460000D02*
X120960000Y-36460000D01*
X120960000Y-36460000D02*
X121560000Y-36460000D01*
X120960000Y-36460000D02*
X120960000Y-36160000D01*
X121560000Y-36460000D02*
X125860000Y-36460000D01*
X125860000Y-36460000D02*
X125860000Y-41540000D01*
X120960000Y-36160000D02*
X121560000Y-36160000D01*
X121560000Y-36160000D02*
X121560000Y-36460000D01*
D11*
X118260000Y-42200000D02*
G75*
G02*
X118060000Y-42200000I-100000J0D01*
G01*
X118060000Y-42200000D02*
G75*
G02*
X118260000Y-42200000I100000J0D01*
G01*
D14*
%TO.C,J3*%
X148565000Y-53400000D02*
X148565000Y-55300000D01*
X148565000Y-55300000D02*
X148565000Y-55350000D01*
X148565000Y-55350000D02*
X149065000Y-55100000D01*
X148565000Y-60200000D02*
X148565000Y-65300000D01*
X148565000Y-65300000D02*
X159415000Y-65300000D01*
X149065000Y-52700000D02*
X149065000Y-53650000D01*
X149065000Y-53650000D02*
X148565000Y-53400000D01*
X149065000Y-55100000D02*
X149065000Y-60500000D01*
X149065000Y-60500000D02*
X148565000Y-60200000D01*
X159415000Y-52700000D02*
X149065000Y-52700000D01*
X159415000Y-65300000D02*
X159415000Y-52700000D01*
%TO.C,J2*%
X137065000Y-53400000D02*
X137065000Y-55300000D01*
X137065000Y-55300000D02*
X137065000Y-55350000D01*
X137065000Y-55350000D02*
X137565000Y-55100000D01*
X137065000Y-60200000D02*
X137065000Y-65300000D01*
X137065000Y-65300000D02*
X147915000Y-65300000D01*
X137565000Y-52700000D02*
X137565000Y-53650000D01*
X137565000Y-53650000D02*
X137065000Y-53400000D01*
X137565000Y-55100000D02*
X137565000Y-60500000D01*
X137565000Y-60500000D02*
X137065000Y-60200000D01*
X147915000Y-52700000D02*
X137565000Y-52700000D01*
X147915000Y-65300000D02*
X147915000Y-52700000D01*
%TO.C,J1*%
X148565000Y-37400000D02*
X148565000Y-39300000D01*
X148565000Y-39300000D02*
X148565000Y-39350000D01*
X148565000Y-39350000D02*
X149065000Y-39100000D01*
X148565000Y-44200000D02*
X148565000Y-49300000D01*
X148565000Y-49300000D02*
X159415000Y-49300000D01*
X149065000Y-36700000D02*
X149065000Y-37650000D01*
X149065000Y-37650000D02*
X148565000Y-37400000D01*
X149065000Y-39100000D02*
X149065000Y-44500000D01*
X149065000Y-44500000D02*
X148565000Y-44200000D01*
X159415000Y-36700000D02*
X149065000Y-36700000D01*
X159415000Y-49300000D02*
X159415000Y-36700000D01*
%TD*%
M02*
