M48
; DRILL file {KiCad 8.0.4} date 2025-01-30T16:24:58-0500
; FORMAT={-:-/ absolute / metric / decimal}
; #@! TF.CreationDate,2025-01-30T16:24:58-05:00
; #@! TF.GenerationSoftware,Kicad,Pcbnew,8.0.4
; #@! TF.FileFunction,Plated,1,2,PTH
FMAT,2
METRIC
; #@! TA.AperFunction,Plated,PTH,ViaDrill
T1C0.600
; #@! TA.AperFunction,Plated,PTH,ComponentDrill
T2C0.800
; #@! TA.AperFunction,Plated,PTH,ComponentDrill
T3C0.850
; #@! TA.AperFunction,Plated,PTH,ComponentDrill
T4C1.020
; #@! TA.AperFunction,Plated,PTH,ComponentDrill
T5C1.320
%
G90
G05
T1
X113.5Y-48.5
X116.0Y-51.0
X118.0Y-54.5
X128.0Y-54.5
T2
X118.42Y-40.0
X123.5Y-40.0
T3
X140.25Y-40.46
X140.25Y-43.0
X140.25Y-45.54
T4
X73.485Y-38.3
X73.485Y-63.7
X76.025Y-38.3
X76.025Y-63.7
X78.565Y-38.3
X78.565Y-63.7
X81.105Y-38.3
X81.105Y-63.7
X83.645Y-38.3
X83.645Y-63.7
X86.185Y-38.3
X86.185Y-63.7
X88.725Y-38.3
X88.725Y-63.7
X91.265Y-38.3
X91.265Y-63.7
X93.805Y-38.3
X93.805Y-63.7
X96.345Y-38.3
X96.345Y-63.7
X98.885Y-38.3
X98.885Y-63.7
X101.425Y-38.3
X101.425Y-63.7
X103.965Y-38.3
X103.965Y-63.7
X106.505Y-38.3
X106.505Y-63.7
X109.045Y-38.3
X109.045Y-63.7
T5
X117.11Y-47.38
X117.11Y-62.62
X119.65Y-47.38
X119.65Y-62.62
X122.19Y-47.38
X122.19Y-62.62
X124.73Y-47.38
X124.73Y-62.62
X127.27Y-47.38
X127.27Y-62.62
X129.81Y-47.38
X129.81Y-62.62
X132.35Y-47.38
X132.35Y-62.62
X134.89Y-47.38
X134.89Y-62.62
X140.265Y-59.0
X145.265Y-59.0
X151.765Y-43.0
X151.765Y-59.0
X156.765Y-43.0
X156.765Y-59.0
M30
